%TF.GenerationSoftware,KiCad,Pcbnew,9.0.1*%
%TF.CreationDate,2025-07-09T00:35:37+03:00*%
%TF.ProjectId,Main,4d61696e-2e6b-4696-9361-645f70636258,rev?*%
%TF.SameCoordinates,Original*%
%TF.FileFunction,Copper,L2,Bot*%
%TF.FilePolarity,Positive*%
%FSLAX46Y46*%
G04 Gerber Fmt 4.6, Leading zero omitted, Abs format (unit mm)*
G04 Created by KiCad (PCBNEW 9.0.1) date 2025-07-09 00:35:37*
%MOMM*%
%LPD*%
G01*
G04 APERTURE LIST*
%TA.AperFunction,ComponentPad*%
%ADD10R,2.200000X2.200000*%
%TD*%
%TA.AperFunction,ComponentPad*%
%ADD11O,2.200000X2.200000*%
%TD*%
%TA.AperFunction,HeatsinkPad*%
%ADD12O,1.700000X1.350000*%
%TD*%
%TA.AperFunction,HeatsinkPad*%
%ADD13O,1.500000X1.100000*%
%TD*%
%TA.AperFunction,ComponentPad*%
%ADD14R,1.700000X1.700000*%
%TD*%
%TA.AperFunction,ComponentPad*%
%ADD15C,1.700000*%
%TD*%
%TA.AperFunction,ComponentPad*%
%ADD16R,2.000000X2.000000*%
%TD*%
%TA.AperFunction,ComponentPad*%
%ADD17C,2.000000*%
%TD*%
%TA.AperFunction,ComponentPad*%
%ADD18C,1.600000*%
%TD*%
%TA.AperFunction,ComponentPad*%
%ADD19O,1.600000X1.600000*%
%TD*%
%TA.AperFunction,ComponentPad*%
%ADD20C,1.200000*%
%TD*%
%TA.AperFunction,ViaPad*%
%ADD21C,0.800000*%
%TD*%
%TA.AperFunction,Conductor*%
%ADD22C,0.250000*%
%TD*%
G04 APERTURE END LIST*
D10*
%TO.P,D2,1,K*%
%TO.N,Net-(D2-K)*%
X63020000Y-95150000D03*
D11*
%TO.P,D2,2,A*%
%TO.N,BME GND*%
X63020000Y-105310000D03*
%TD*%
D12*
%TO.P,J6,6,Shield*%
%TO.N,unconnected-(J6-Shield-Pad6)*%
X54600200Y-93506000D03*
D13*
X57600200Y-93816000D03*
X57600200Y-98656000D03*
D12*
X54600200Y-98966000D03*
%TD*%
D14*
%TO.P,J4,1,Pin_1*%
%TO.N,+3.3 V*%
X122950000Y-79640000D03*
D15*
%TO.P,J4,2,Pin_2*%
%TO.N,BME GND*%
X122950000Y-82180000D03*
%TO.P,J4,3,Pin_3*%
%TO.N,E-Ink DIN*%
X122950000Y-84720000D03*
%TO.P,J4,4,Pin_4*%
%TO.N,E-Ink CLK*%
X122950000Y-87260000D03*
%TO.P,J4,5,Pin_5*%
%TO.N,E-Ink CS*%
X122950000Y-89800000D03*
%TO.P,J4,6,Pin_6*%
%TO.N,E-Ink DC*%
X122950000Y-92340000D03*
%TO.P,J4,7,Pin_7*%
%TO.N,E-Ink RST*%
X122950000Y-94880000D03*
%TO.P,J4,8,Pin_8*%
%TO.N,E-Ink BUSY*%
X122950000Y-97420000D03*
%TD*%
D14*
%TO.P,SW2,1,1*%
%TO.N,BTN2*%
X109321600Y-110871000D03*
D15*
%TO.P,SW2,2,2*%
%TO.N,BME GND*%
X111861600Y-110871000D03*
%TD*%
D16*
%TO.P,BZ1,1,+*%
%TO.N,Buzzer*%
X66294000Y-79776000D03*
D17*
%TO.P,BZ1,2,-*%
%TO.N,BME GND*%
X66294000Y-87376000D03*
%TD*%
D14*
%TO.P,J5,1,Pin_1*%
%TO.N,unconnected-(J5-Pin_1-Pad1)*%
X122936000Y-61976000D03*
D15*
%TO.P,J5,2,Pin_2*%
%TO.N,unconnected-(J5-Pin_2-Pad2)*%
X122936000Y-64516000D03*
%TO.P,J5,3,Pin_3*%
%TO.N,BME SCL*%
X122936000Y-67056000D03*
%TO.P,J5,4,Pin_4*%
%TO.N,BME SDA*%
X122936000Y-69596000D03*
%TO.P,J5,5,Pin_5*%
%TO.N,BME GND*%
X122936000Y-72136000D03*
%TO.P,J5,6,Pin_6*%
%TO.N,+3.3 V*%
X122936000Y-74676000D03*
%TD*%
D10*
%TO.P,D1,1,K*%
%TO.N,+5 v*%
X70950000Y-66490000D03*
D11*
%TO.P,D1,2,A*%
%TO.N,Net-(D1-A)*%
X60790000Y-66490000D03*
%TD*%
D14*
%TO.P,J1,1,Pin_1*%
%TO.N,BME GND*%
X101981000Y-66929000D03*
D15*
%TO.P,J1,2,Pin_2*%
%TO.N,E-Ink DIN*%
X101981000Y-69469000D03*
%TO.P,J1,3,Pin_3*%
%TO.N,BME SCL*%
X101981000Y-72009000D03*
%TO.P,J1,4,Pin_4*%
%TO.N,GPIO1*%
X101981000Y-74549000D03*
%TO.P,J1,5,Pin_5*%
%TO.N,GPIO3*%
X101981000Y-77089000D03*
%TO.P,J1,6,Pin_6*%
%TO.N,BME SDA*%
X101981000Y-79629000D03*
%TO.P,J1,7,Pin_7*%
%TO.N,BME GND*%
X101981000Y-82169000D03*
%TO.P,J1,8,Pin_8*%
%TO.N,GPIO19*%
X101981000Y-84709000D03*
%TO.P,J1,9,Pin_9*%
%TO.N,E-Ink CLK*%
X101981000Y-87249000D03*
%TO.P,J1,10,Pin_10*%
%TO.N,E-Ink CS*%
X101981000Y-89789000D03*
%TO.P,J1,11,Pin_11*%
%TO.N,E-Ink DC*%
X101981000Y-92329000D03*
%TO.P,J1,12,Pin_12*%
%TO.N,E-Ink RST*%
X101981000Y-94869000D03*
%TO.P,J1,13,Pin_13*%
%TO.N,E-Ink BUSY*%
X101981000Y-97409000D03*
%TO.P,J1,14,Pin_14*%
%TO.N,GPIO0*%
X101981000Y-99949000D03*
%TO.P,J1,15,Pin_15*%
%TO.N,BTN1*%
X101981000Y-102489000D03*
%TO.P,J1,16,Pin_16*%
%TO.N,BTN2*%
X101981000Y-105029000D03*
%TO.P,J1,17,Pin_17*%
%TO.N,GPIO8*%
X101981000Y-107569000D03*
%TO.P,J1,18,Pin_18*%
%TO.N,GPIO7*%
X101981000Y-110109000D03*
%TO.P,J1,19,Pin_19*%
%TO.N,GPIO6*%
X101981000Y-112649000D03*
%TD*%
D18*
%TO.P,R4,1*%
%TO.N,A2 LIGHT READ*%
X67820000Y-105250000D03*
D19*
%TO.P,R4,2*%
%TO.N,BME GND*%
X67820000Y-95090000D03*
%TD*%
D18*
%TO.P,R1,1*%
%TO.N,A1 LIGHT READ*%
X59893200Y-59537600D03*
D19*
%TO.P,R1,2*%
%TO.N,BME GND*%
X70053200Y-59537600D03*
%TD*%
D14*
%TO.P,R2,1*%
%TO.N,+3.3 V*%
X60147200Y-52781200D03*
D15*
%TO.P,R2,2*%
%TO.N,A1 LIGHT READ*%
X60147200Y-55321200D03*
%TD*%
D14*
%TO.P,R3,1*%
%TO.N,+3.3 V*%
X65420000Y-112990000D03*
D15*
%TO.P,R3,2*%
%TO.N,A2 LIGHT READ*%
X65420000Y-110450000D03*
%TD*%
D14*
%TO.P,J3,1,Pin_1*%
%TO.N,BME GND*%
X71755000Y-44577000D03*
D15*
%TO.P,J3,2,Pin_2*%
%TO.N,+3.3 V*%
X71755000Y-42037000D03*
%TO.P,J3,3,Pin_3*%
%TO.N,BME SDA*%
X71755000Y-39497000D03*
%TO.P,J3,4,Pin_4*%
%TO.N,BME SCL*%
X71755000Y-36957000D03*
%TD*%
D14*
%TO.P,J2,1,Pin_1*%
%TO.N,+3.3 V*%
X76428600Y-66929000D03*
D15*
%TO.P,J2,2,Pin_2*%
%TO.N,ESP_EN*%
X76428600Y-69469000D03*
%TO.P,J2,3,Pin_3*%
%TO.N,GPI36*%
X76428600Y-72009000D03*
%TO.P,J2,4,Pin_4*%
%TO.N,GPI39*%
X76428600Y-74549000D03*
%TO.P,J2,5,Pin_5*%
%TO.N,GPI34*%
X76428600Y-77089000D03*
%TO.P,J2,6,Pin_6*%
%TO.N,A1 LIGHT READ*%
X76428600Y-79629000D03*
%TO.P,J2,7,Pin_7*%
%TO.N,A2 LIGHT READ*%
X76428600Y-82169000D03*
%TO.P,J2,8,Pin_8*%
%TO.N,Buzzer*%
X76428600Y-84709000D03*
%TO.P,J2,9,Pin_9*%
%TO.N,GPIO25*%
X76428600Y-87249000D03*
%TO.P,J2,10,Pin_10*%
%TO.N,GPIO26*%
X76428600Y-89789000D03*
%TO.P,J2,11,Pin_11*%
%TO.N,GPIO27*%
X76428600Y-92329000D03*
%TO.P,J2,12,Pin_12*%
%TO.N,GPIO14*%
X76428600Y-94869000D03*
%TO.P,J2,13,Pin_13*%
%TO.N,GPIO12*%
X76428600Y-97409000D03*
%TO.P,J2,14,Pin_14*%
%TO.N,BME GND*%
X76428600Y-99949000D03*
%TO.P,J2,15,Pin_15*%
%TO.N,GPIO13*%
X76428600Y-102489000D03*
%TO.P,J2,16,Pin_16*%
%TO.N,GPIO9*%
X76428600Y-105029000D03*
%TO.P,J2,17,Pin_17*%
%TO.N,GPIO10*%
X76428600Y-107569000D03*
%TO.P,J2,18,Pin_18*%
%TO.N,GPIO11*%
X76428600Y-110109000D03*
%TO.P,J2,19,Pin_19*%
%TO.N,+5 v*%
X76428600Y-112649000D03*
%TD*%
D18*
%TO.P,C2,1*%
%TO.N,+5 v*%
X72850000Y-107740000D03*
%TO.P,C2,2*%
%TO.N,BME GND*%
X70350000Y-107740000D03*
%TD*%
D14*
%TO.P,SW1,1,1*%
%TO.N,BTN1*%
X113131600Y-63068200D03*
D15*
%TO.P,SW1,2,2*%
%TO.N,BME GND*%
X110591600Y-63068200D03*
%TD*%
D20*
%TO.P,C1,1*%
%TO.N,+5 v*%
X72860000Y-111910000D03*
%TO.P,C1,2*%
%TO.N,BME GND*%
X70860000Y-111910000D03*
%TD*%
D14*
%TO.P,SW3,1,A*%
%TO.N,Net-(J6-VBUS)*%
X60731400Y-73685400D03*
D15*
%TO.P,SW3,2,B*%
%TO.N,Net-(D1-A)*%
X60731400Y-71145400D03*
%TD*%
D21*
%TO.N,BME GND*%
X112500000Y-95000000D03*
X112500000Y-85000000D03*
X82500000Y-110000000D03*
X97500000Y-110000000D03*
X90000000Y-67500000D03*
X77500000Y-52500000D03*
X102500000Y-55000000D03*
X90000000Y-40000000D03*
X60000000Y-40000000D03*
%TO.N,BTN1*%
X97020000Y-79670000D03*
%TD*%
D22*
%TO.N,BME SCL*%
X122936000Y-67056000D02*
X117983000Y-72009000D01*
X117983000Y-72009000D02*
X101981000Y-72009000D01*
%TO.N,BTN1*%
X97020000Y-75306884D02*
X97020000Y-79640000D01*
X101681884Y-70645000D02*
X97020000Y-75306884D01*
X113131600Y-63068200D02*
X105554800Y-70645000D01*
X105554800Y-70645000D02*
X101681884Y-70645000D01*
%TO.N,BME SDA*%
X122936000Y-69596000D02*
X112903000Y-79629000D01*
X112903000Y-79629000D02*
X101981000Y-79629000D01*
%TO.N,+5 v*%
X71880000Y-67420000D02*
X71880000Y-106770000D01*
X71880000Y-106770000D02*
X72850000Y-107740000D01*
X70950000Y-66490000D02*
X71880000Y-67420000D01*
%TO.N,+3.3 V*%
X122936000Y-74676000D02*
X116712000Y-80900000D01*
X116712000Y-80900000D02*
X91570000Y-80900000D01*
X91570000Y-80900000D02*
X77599000Y-66929000D01*
X77599000Y-66929000D02*
X76428600Y-66929000D01*
%TD*%
%TA.AperFunction,Conductor*%
%TO.N,BME GND*%
G36*
X121505334Y-72013769D02*
G01*
X121561267Y-72055641D01*
X121585684Y-72121105D01*
X121586000Y-72129951D01*
X121586000Y-72242246D01*
X121619242Y-72452127D01*
X121619242Y-72452130D01*
X121684904Y-72654217D01*
X121781375Y-72843550D01*
X121820728Y-72897716D01*
X122453037Y-72265408D01*
X122470075Y-72328993D01*
X122535901Y-72443007D01*
X122628993Y-72536099D01*
X122743007Y-72601925D01*
X122806590Y-72618962D01*
X122174282Y-73251269D01*
X122174282Y-73251270D01*
X122228452Y-73290626D01*
X122228451Y-73290626D01*
X122237495Y-73295234D01*
X122288292Y-73343208D01*
X122305087Y-73411029D01*
X122282550Y-73477164D01*
X122237499Y-73516202D01*
X122228182Y-73520949D01*
X122056213Y-73645890D01*
X121905890Y-73796213D01*
X121780951Y-73968179D01*
X121684444Y-74157585D01*
X121618753Y-74359760D01*
X121585500Y-74569713D01*
X121585500Y-74782286D01*
X121618753Y-74992241D01*
X121623821Y-75007837D01*
X121625816Y-75077678D01*
X121593571Y-75133837D01*
X116489229Y-80238181D01*
X116427906Y-80271666D01*
X116401548Y-80274500D01*
X113441453Y-80274500D01*
X113420208Y-80268261D01*
X113398123Y-80266683D01*
X113387337Y-80258609D01*
X113374414Y-80254815D01*
X113359917Y-80238084D01*
X113342188Y-80224814D01*
X113337478Y-80212189D01*
X113328659Y-80202011D01*
X113325508Y-80180097D01*
X113317769Y-80159350D01*
X113320632Y-80146186D01*
X113318715Y-80132853D01*
X113327913Y-80112711D01*
X113332619Y-80091077D01*
X113345889Y-80073349D01*
X113347740Y-80069297D01*
X113353769Y-80062822D01*
X113388858Y-80027733D01*
X113388859Y-80027730D01*
X121374320Y-72042268D01*
X121435642Y-72008785D01*
X121505334Y-72013769D01*
G37*
%TD.AperFunction*%
%TA.AperFunction,Conductor*%
G36*
X56824939Y-26459580D02*
G01*
X56829350Y-26460496D01*
X56849792Y-26460499D01*
X56849793Y-26460500D01*
X126829699Y-26471903D01*
X126834177Y-26471986D01*
X126881256Y-26473706D01*
X126881259Y-26473792D01*
X126881759Y-26473780D01*
X127219517Y-26481199D01*
X127225891Y-26481505D01*
X127303208Y-26487231D01*
X127308118Y-26487695D01*
X127601526Y-26521397D01*
X127608598Y-26522417D01*
X127679735Y-26534781D01*
X127683922Y-26535583D01*
X127978948Y-26597468D01*
X127986569Y-26599321D01*
X128046515Y-26615929D01*
X128049905Y-26616921D01*
X128348124Y-26708897D01*
X128356226Y-26711706D01*
X128397979Y-26727824D01*
X128400453Y-26728812D01*
X128705689Y-26854839D01*
X128714119Y-26858695D01*
X128725610Y-26864483D01*
X128727505Y-26865458D01*
X129042272Y-27030916D01*
X129052140Y-27036701D01*
X129359034Y-27236175D01*
X129368324Y-27242844D01*
X129491355Y-27340067D01*
X129655499Y-27469780D01*
X129664147Y-27477288D01*
X129929155Y-27729751D01*
X129937074Y-27738026D01*
X130048833Y-27866161D01*
X130177658Y-28013862D01*
X130184775Y-28022826D01*
X130398879Y-28319682D01*
X130405143Y-28329271D01*
X130586080Y-28636362D01*
X130587148Y-28638211D01*
X130592949Y-28648456D01*
X130597233Y-28656733D01*
X130738113Y-28955952D01*
X130739297Y-28958544D01*
X130757128Y-28998790D01*
X130760339Y-29006774D01*
X130866781Y-29300522D01*
X130867948Y-29303894D01*
X130887324Y-29362586D01*
X130889558Y-29370151D01*
X130965709Y-29661990D01*
X130966718Y-29666151D01*
X130982482Y-29736410D01*
X130983850Y-29743454D01*
X131031742Y-30034956D01*
X131032452Y-30039900D01*
X131041910Y-30116685D01*
X131042530Y-30123088D01*
X131065983Y-30455476D01*
X131066289Y-30464590D01*
X130799660Y-115848363D01*
X130799500Y-115848901D01*
X130799500Y-115897128D01*
X130799368Y-115902855D01*
X130783476Y-116246572D01*
X130783011Y-116252999D01*
X130775129Y-116333028D01*
X130774537Y-116338005D01*
X130732678Y-116638084D01*
X130731484Y-116645144D01*
X130716849Y-116718720D01*
X130715938Y-116722919D01*
X130645138Y-117023944D01*
X130643093Y-117031549D01*
X130624301Y-117093498D01*
X130623212Y-117096910D01*
X130521450Y-117400523D01*
X130518439Y-117408569D01*
X130500574Y-117451699D01*
X130499447Y-117454332D01*
X130362622Y-117764211D01*
X130358545Y-117772580D01*
X130351905Y-117785002D01*
X130350877Y-117786886D01*
X130173278Y-118105739D01*
X130167249Y-118115477D01*
X129954513Y-118426033D01*
X129947611Y-118435173D01*
X129707125Y-118724780D01*
X129699408Y-118733244D01*
X129433244Y-118999408D01*
X129424780Y-119007125D01*
X129135173Y-119247611D01*
X129126033Y-119254513D01*
X128815477Y-119467249D01*
X128805739Y-119473278D01*
X128486886Y-119650877D01*
X128485002Y-119651905D01*
X128472580Y-119658545D01*
X128464211Y-119662622D01*
X128154332Y-119799447D01*
X128151699Y-119800574D01*
X128108569Y-119818439D01*
X128100523Y-119821450D01*
X127796910Y-119923212D01*
X127793498Y-119924301D01*
X127731549Y-119943093D01*
X127723944Y-119945138D01*
X127422919Y-120015938D01*
X127418720Y-120016849D01*
X127345144Y-120031484D01*
X127338085Y-120032678D01*
X127038017Y-120074536D01*
X127033037Y-120075128D01*
X127008838Y-120077511D01*
X126997284Y-120078107D01*
X56068684Y-120420366D01*
X56043866Y-120417979D01*
X56010043Y-120411243D01*
X56005874Y-120410338D01*
X55722355Y-120343658D01*
X55714709Y-120341600D01*
X55662547Y-120325758D01*
X55659177Y-120324681D01*
X55372767Y-120228690D01*
X55364668Y-120225658D01*
X55331042Y-120211712D01*
X55328461Y-120210607D01*
X55035074Y-120081067D01*
X55026631Y-120076950D01*
X55024130Y-120075611D01*
X55022320Y-120074623D01*
X54719690Y-119906063D01*
X54709952Y-119900033D01*
X54563111Y-119799447D01*
X54422251Y-119702957D01*
X54413130Y-119696069D01*
X54144832Y-119473283D01*
X54136377Y-119465576D01*
X53889786Y-119218990D01*
X53882071Y-119210527D01*
X53710128Y-119003468D01*
X53659277Y-118942232D01*
X53652380Y-118933098D01*
X53557453Y-118794525D01*
X53455298Y-118645401D01*
X53449280Y-118635681D01*
X53286317Y-118343114D01*
X53285324Y-118341290D01*
X53277052Y-118325770D01*
X53273063Y-118317569D01*
X53147032Y-118032144D01*
X53145875Y-118029434D01*
X53128618Y-117987618D01*
X53125688Y-117979771D01*
X53031585Y-117699015D01*
X53030472Y-117695521D01*
X53012948Y-117637455D01*
X53010969Y-117630073D01*
X52945320Y-117350963D01*
X52944390Y-117346665D01*
X52930965Y-117278626D01*
X52929826Y-117271860D01*
X52890919Y-116992966D01*
X52890320Y-116987898D01*
X52883222Y-116914593D01*
X52882786Y-116908502D01*
X52868165Y-116592339D01*
X52868034Y-116586612D01*
X52868034Y-116536010D01*
X52868031Y-116535988D01*
X52868007Y-116062486D01*
X54989500Y-116062486D01*
X54989500Y-116357513D01*
X55019663Y-116586612D01*
X55028007Y-116649993D01*
X55097256Y-116908435D01*
X55104361Y-116934951D01*
X55104364Y-116934961D01*
X55217254Y-117207500D01*
X55217258Y-117207510D01*
X55364761Y-117462993D01*
X55544352Y-117697040D01*
X55544358Y-117697047D01*
X55752952Y-117905641D01*
X55752959Y-117905647D01*
X55987006Y-118085238D01*
X56242489Y-118232741D01*
X56242490Y-118232741D01*
X56242493Y-118232743D01*
X56453296Y-118320060D01*
X56504548Y-118341290D01*
X56515048Y-118345639D01*
X56800007Y-118421993D01*
X57092494Y-118460500D01*
X57092501Y-118460500D01*
X57387499Y-118460500D01*
X57387506Y-118460500D01*
X57679993Y-118421993D01*
X57964952Y-118345639D01*
X58237507Y-118232743D01*
X58492994Y-118085238D01*
X58727042Y-117905646D01*
X58935646Y-117697042D01*
X59115238Y-117462994D01*
X59262743Y-117207507D01*
X59375639Y-116934952D01*
X59451993Y-116649993D01*
X59490500Y-116357506D01*
X59490500Y-116062494D01*
X59451993Y-115770007D01*
X59393709Y-115552486D01*
X124209500Y-115552486D01*
X124209500Y-115847513D01*
X124237270Y-116058441D01*
X124248007Y-116139993D01*
X124301064Y-116338005D01*
X124324361Y-116424951D01*
X124324364Y-116424961D01*
X124437254Y-116697500D01*
X124437258Y-116697510D01*
X124584761Y-116952993D01*
X124764352Y-117187040D01*
X124764358Y-117187047D01*
X124972952Y-117395641D01*
X124972959Y-117395647D01*
X125207006Y-117575238D01*
X125462489Y-117722741D01*
X125462490Y-117722741D01*
X125462493Y-117722743D01*
X125735048Y-117835639D01*
X126020007Y-117911993D01*
X126312494Y-117950500D01*
X126312501Y-117950500D01*
X126607499Y-117950500D01*
X126607506Y-117950500D01*
X126899993Y-117911993D01*
X127184952Y-117835639D01*
X127457507Y-117722743D01*
X127712994Y-117575238D01*
X127947042Y-117395646D01*
X128155646Y-117187042D01*
X128335238Y-116952994D01*
X128482743Y-116697507D01*
X128595639Y-116424952D01*
X128671993Y-116139993D01*
X128710500Y-115847506D01*
X128710500Y-115552494D01*
X128671993Y-115260007D01*
X128595639Y-114975048D01*
X128482743Y-114702493D01*
X128335238Y-114447006D01*
X128155646Y-114212958D01*
X128155641Y-114212952D01*
X127947047Y-114004358D01*
X127947040Y-114004352D01*
X127712993Y-113824761D01*
X127457510Y-113677258D01*
X127457500Y-113677254D01*
X127184961Y-113564364D01*
X127184954Y-113564362D01*
X127184952Y-113564361D01*
X126899993Y-113488007D01*
X126851113Y-113481571D01*
X126607513Y-113449500D01*
X126607506Y-113449500D01*
X126312494Y-113449500D01*
X126312486Y-113449500D01*
X126034085Y-113486153D01*
X126020007Y-113488007D01*
X125735048Y-113564361D01*
X125735038Y-113564364D01*
X125462499Y-113677254D01*
X125462489Y-113677258D01*
X125207006Y-113824761D01*
X124972959Y-114004352D01*
X124972952Y-114004358D01*
X124764358Y-114212952D01*
X124764352Y-114212959D01*
X124584761Y-114447006D01*
X124437258Y-114702489D01*
X124437254Y-114702499D01*
X124324364Y-114975038D01*
X124324361Y-114975048D01*
X124248008Y-115260004D01*
X124248006Y-115260015D01*
X124209500Y-115552486D01*
X59393709Y-115552486D01*
X59375639Y-115485048D01*
X59262743Y-115212493D01*
X59115238Y-114957006D01*
X58935646Y-114722958D01*
X58935641Y-114722952D01*
X58727047Y-114514358D01*
X58727040Y-114514352D01*
X58492993Y-114334761D01*
X58237510Y-114187258D01*
X58237500Y-114187254D01*
X57964961Y-114074364D01*
X57964954Y-114074362D01*
X57964952Y-114074361D01*
X57679993Y-113998007D01*
X57631113Y-113991571D01*
X57387513Y-113959500D01*
X57387506Y-113959500D01*
X57092494Y-113959500D01*
X57092486Y-113959500D01*
X56814085Y-113996153D01*
X56800007Y-113998007D01*
X56776320Y-114004354D01*
X56515048Y-114074361D01*
X56515038Y-114074364D01*
X56242499Y-114187254D01*
X56242489Y-114187258D01*
X55987006Y-114334761D01*
X55752959Y-114514352D01*
X55752952Y-114514358D01*
X55544358Y-114722952D01*
X55544352Y-114722959D01*
X55364761Y-114957006D01*
X55217258Y-115212489D01*
X55217254Y-115212499D01*
X55104364Y-115485038D01*
X55104361Y-115485048D01*
X55028008Y-115770004D01*
X55028006Y-115770015D01*
X54989500Y-116062486D01*
X52868007Y-116062486D01*
X52867711Y-110343713D01*
X64069500Y-110343713D01*
X64069500Y-110556287D01*
X64102754Y-110766243D01*
X64136791Y-110870999D01*
X64168444Y-110968414D01*
X64264951Y-111157820D01*
X64389890Y-111329786D01*
X64503430Y-111443326D01*
X64536915Y-111504649D01*
X64531931Y-111574341D01*
X64490059Y-111630274D01*
X64459083Y-111647189D01*
X64327669Y-111696203D01*
X64327664Y-111696206D01*
X64212455Y-111782452D01*
X64212452Y-111782455D01*
X64126206Y-111897664D01*
X64126202Y-111897671D01*
X64075908Y-112032517D01*
X64070960Y-112078544D01*
X64069501Y-112092123D01*
X64069500Y-112092135D01*
X64069500Y-113887870D01*
X64069501Y-113887876D01*
X64075908Y-113947483D01*
X64126202Y-114082328D01*
X64126206Y-114082335D01*
X64212452Y-114197544D01*
X64212455Y-114197547D01*
X64327664Y-114283793D01*
X64327671Y-114283797D01*
X64462517Y-114334091D01*
X64462516Y-114334091D01*
X64468749Y-114334761D01*
X64522127Y-114340500D01*
X66317872Y-114340499D01*
X66377483Y-114334091D01*
X66512331Y-114283796D01*
X66627546Y-114197546D01*
X66713796Y-114082331D01*
X66764091Y-113947483D01*
X66770500Y-113887873D01*
X66770499Y-112846289D01*
X70277261Y-112846289D01*
X70277262Y-112846290D01*
X70283471Y-112850801D01*
X70437742Y-112929408D01*
X70602415Y-112982914D01*
X70773429Y-113010000D01*
X70946571Y-113010000D01*
X71117584Y-112982914D01*
X71282257Y-112929408D01*
X71436525Y-112850803D01*
X71442736Y-112846289D01*
X71442737Y-112846289D01*
X70860001Y-112263553D01*
X70860000Y-112263553D01*
X70277261Y-112846289D01*
X66770499Y-112846289D01*
X66770499Y-112092128D01*
X66764091Y-112032517D01*
X66761584Y-112025796D01*
X66713797Y-111897671D01*
X66713795Y-111897668D01*
X66710202Y-111892868D01*
X66710201Y-111892866D01*
X66658220Y-111823428D01*
X69760000Y-111823428D01*
X69760000Y-111996571D01*
X69787085Y-112167584D01*
X69840592Y-112332259D01*
X69919196Y-112486525D01*
X69923709Y-112492736D01*
X69923709Y-112492737D01*
X70506446Y-111910001D01*
X70506446Y-111909999D01*
X70466951Y-111870504D01*
X70560000Y-111870504D01*
X70560000Y-111949496D01*
X70580444Y-112025796D01*
X70619940Y-112094205D01*
X70675795Y-112150060D01*
X70744204Y-112189556D01*
X70820504Y-112210000D01*
X70899496Y-112210000D01*
X70975796Y-112189556D01*
X71044205Y-112150060D01*
X71100060Y-112094205D01*
X71139556Y-112025796D01*
X71160000Y-111949496D01*
X71160000Y-111909999D01*
X71213553Y-111909999D01*
X71213553Y-111910001D01*
X71796288Y-112492736D01*
X71847007Y-112488747D01*
X71915384Y-112503113D01*
X71957049Y-112539479D01*
X72016852Y-112621789D01*
X72020586Y-112626928D01*
X72143072Y-112749414D01*
X72283212Y-112851232D01*
X72437555Y-112929873D01*
X72602299Y-112983402D01*
X72773389Y-113010500D01*
X72773390Y-113010500D01*
X72946610Y-113010500D01*
X72946611Y-113010500D01*
X73117701Y-112983402D01*
X73282445Y-112929873D01*
X73436788Y-112851232D01*
X73576928Y-112749414D01*
X73699414Y-112626928D01*
X73801232Y-112486788D01*
X73879873Y-112332445D01*
X73933402Y-112167701D01*
X73960500Y-111996611D01*
X73960500Y-111823389D01*
X73933402Y-111652299D01*
X73879873Y-111487555D01*
X73801232Y-111333212D01*
X73699414Y-111193072D01*
X73576928Y-111070586D01*
X73436788Y-110968768D01*
X73282445Y-110890127D01*
X73117701Y-110836598D01*
X73117699Y-110836597D01*
X73117698Y-110836597D01*
X72986271Y-110815781D01*
X72946611Y-110809500D01*
X72773389Y-110809500D01*
X72733728Y-110815781D01*
X72602302Y-110836597D01*
X72437552Y-110890128D01*
X72283211Y-110968768D01*
X72255651Y-110988792D01*
X72143072Y-111070586D01*
X72143070Y-111070588D01*
X72143069Y-111070588D01*
X72020588Y-111193069D01*
X72020581Y-111193078D01*
X71957049Y-111280521D01*
X71901719Y-111323187D01*
X71847003Y-111331253D01*
X71796289Y-111327261D01*
X71213553Y-111909999D01*
X71160000Y-111909999D01*
X71160000Y-111870504D01*
X71139556Y-111794204D01*
X71100060Y-111725795D01*
X71044205Y-111669940D01*
X70975796Y-111630444D01*
X70899496Y-111610000D01*
X70820504Y-111610000D01*
X70744204Y-111630444D01*
X70675795Y-111669940D01*
X70619940Y-111725795D01*
X70580444Y-111794204D01*
X70560000Y-111870504D01*
X70466951Y-111870504D01*
X69923709Y-111327261D01*
X69923708Y-111327261D01*
X69919203Y-111333463D01*
X69919193Y-111333480D01*
X69840592Y-111487740D01*
X69787085Y-111652415D01*
X69760000Y-111823428D01*
X66658220Y-111823428D01*
X66627547Y-111782455D01*
X66627544Y-111782452D01*
X66512335Y-111696206D01*
X66512328Y-111696202D01*
X66380917Y-111647189D01*
X66324983Y-111605318D01*
X66300566Y-111539853D01*
X66315418Y-111471580D01*
X66336563Y-111443332D01*
X66450104Y-111329792D01*
X66497870Y-111264048D01*
X66575048Y-111157820D01*
X66575047Y-111157820D01*
X66575051Y-111157816D01*
X66668859Y-110973708D01*
X70277261Y-110973708D01*
X70277261Y-110973709D01*
X70860000Y-111556446D01*
X70860001Y-111556446D01*
X71442737Y-110973709D01*
X71436525Y-110969196D01*
X71282259Y-110890592D01*
X71117584Y-110837085D01*
X70946571Y-110810000D01*
X70773429Y-110810000D01*
X70602415Y-110837085D01*
X70437740Y-110890592D01*
X70283480Y-110969193D01*
X70283463Y-110969203D01*
X70277261Y-110973708D01*
X66668859Y-110973708D01*
X66671557Y-110968412D01*
X66737246Y-110766243D01*
X66770500Y-110556287D01*
X66770500Y-110343713D01*
X66737246Y-110133757D01*
X66671557Y-109931588D01*
X66575051Y-109742184D01*
X66575049Y-109742181D01*
X66575048Y-109742179D01*
X66450109Y-109570213D01*
X66299786Y-109419890D01*
X66127820Y-109294951D01*
X65938414Y-109198444D01*
X65938413Y-109198443D01*
X65938412Y-109198443D01*
X65736243Y-109132754D01*
X65736241Y-109132753D01*
X65736240Y-109132753D01*
X65574957Y-109107208D01*
X65526287Y-109099500D01*
X65313713Y-109099500D01*
X65265042Y-109107208D01*
X65103760Y-109132753D01*
X64901585Y-109198444D01*
X64712179Y-109294951D01*
X64540213Y-109419890D01*
X64389890Y-109570213D01*
X64264951Y-109742179D01*
X64168444Y-109931585D01*
X64168443Y-109931587D01*
X64168443Y-109931588D01*
X64149722Y-109989204D01*
X64102753Y-110133760D01*
X64098051Y-110163449D01*
X64069500Y-110343713D01*
X52867711Y-110343713D01*
X52867571Y-107637682D01*
X69050000Y-107637682D01*
X69050000Y-107842317D01*
X69082009Y-108044417D01*
X69145244Y-108239031D01*
X69238141Y-108421350D01*
X69238147Y-108421359D01*
X69270523Y-108465921D01*
X69270524Y-108465922D01*
X69950000Y-107786446D01*
X69950000Y-107792661D01*
X69977259Y-107894394D01*
X70029920Y-107985606D01*
X70104394Y-108060080D01*
X70195606Y-108112741D01*
X70297339Y-108140000D01*
X70303553Y-108140000D01*
X69624076Y-108819474D01*
X69668650Y-108851859D01*
X69850968Y-108944755D01*
X70045582Y-109007990D01*
X70247683Y-109040000D01*
X70452317Y-109040000D01*
X70654417Y-109007990D01*
X70849031Y-108944755D01*
X71031349Y-108851859D01*
X71075921Y-108819474D01*
X70396447Y-108140000D01*
X70402661Y-108140000D01*
X70504394Y-108112741D01*
X70595606Y-108060080D01*
X70670080Y-107985606D01*
X70722741Y-107894394D01*
X70750000Y-107792661D01*
X70750000Y-107786446D01*
X71429474Y-108465921D01*
X71461859Y-108421349D01*
X71489233Y-108367624D01*
X71537207Y-108316827D01*
X71605028Y-108300031D01*
X71671163Y-108322567D01*
X71710203Y-108367621D01*
X71737713Y-108421611D01*
X71858028Y-108587213D01*
X72002786Y-108731971D01*
X72123226Y-108819474D01*
X72168390Y-108852287D01*
X72282535Y-108910447D01*
X72350776Y-108945218D01*
X72350778Y-108945218D01*
X72350781Y-108945220D01*
X72455137Y-108979127D01*
X72545465Y-109008477D01*
X72646557Y-109024488D01*
X72747648Y-109040500D01*
X72747649Y-109040500D01*
X72952351Y-109040500D01*
X72952352Y-109040500D01*
X73154534Y-109008477D01*
X73349219Y-108945220D01*
X73531610Y-108852287D01*
X73635935Y-108776491D01*
X73697213Y-108731971D01*
X73697215Y-108731968D01*
X73697219Y-108731966D01*
X73841966Y-108587219D01*
X73841968Y-108587215D01*
X73841971Y-108587213D01*
X73894732Y-108514590D01*
X73962287Y-108421610D01*
X74055220Y-108239219D01*
X74118477Y-108044534D01*
X74150500Y-107842352D01*
X74150500Y-107637648D01*
X74138712Y-107563223D01*
X74118477Y-107435465D01*
X74060119Y-107255860D01*
X74055220Y-107240781D01*
X74055218Y-107240778D01*
X74055218Y-107240776D01*
X74018510Y-107168733D01*
X73962287Y-107058390D01*
X73930092Y-107014077D01*
X73841971Y-106892786D01*
X73697213Y-106748028D01*
X73531613Y-106627715D01*
X73531612Y-106627714D01*
X73531610Y-106627713D01*
X73474653Y-106598691D01*
X73349223Y-106534781D01*
X73154534Y-106471522D01*
X72979995Y-106443878D01*
X72952352Y-106439500D01*
X72747648Y-106439500D01*
X72648897Y-106455140D01*
X72579604Y-106446185D01*
X72526152Y-106401189D01*
X72505513Y-106334437D01*
X72505500Y-106332667D01*
X72505500Y-67823322D01*
X72513318Y-67779988D01*
X72544091Y-67697483D01*
X72550500Y-67637873D01*
X72550499Y-66031135D01*
X75078100Y-66031135D01*
X75078100Y-67826870D01*
X75078101Y-67826876D01*
X75084508Y-67886483D01*
X75134802Y-68021328D01*
X75134806Y-68021335D01*
X75221052Y-68136544D01*
X75221055Y-68136547D01*
X75336264Y-68222793D01*
X75336271Y-68222797D01*
X75467682Y-68271810D01*
X75523616Y-68313681D01*
X75548033Y-68379145D01*
X75533182Y-68447418D01*
X75512031Y-68475673D01*
X75398489Y-68589215D01*
X75273551Y-68761179D01*
X75177044Y-68950585D01*
X75111353Y-69152760D01*
X75078100Y-69362713D01*
X75078100Y-69575287D01*
X75111354Y-69785243D01*
X75175668Y-69983181D01*
X75177044Y-69987414D01*
X75273551Y-70176820D01*
X75398490Y-70348786D01*
X75548813Y-70499109D01*
X75720782Y-70624050D01*
X75729546Y-70628516D01*
X75780342Y-70676491D01*
X75797136Y-70744312D01*
X75774598Y-70810447D01*
X75729546Y-70849484D01*
X75720782Y-70853949D01*
X75548813Y-70978890D01*
X75398490Y-71129213D01*
X75273551Y-71301179D01*
X75177044Y-71490585D01*
X75111353Y-71692760D01*
X75085939Y-71853220D01*
X75078100Y-71902713D01*
X75078100Y-72115287D01*
X75081381Y-72136000D01*
X75107469Y-72300718D01*
X75111354Y-72325243D01*
X75166465Y-72494857D01*
X75177044Y-72527414D01*
X75273551Y-72716820D01*
X75398490Y-72888786D01*
X75548813Y-73039109D01*
X75720782Y-73164050D01*
X75729546Y-73168516D01*
X75780342Y-73216491D01*
X75797136Y-73284312D01*
X75774598Y-73350447D01*
X75729546Y-73389484D01*
X75720782Y-73393949D01*
X75548813Y-73518890D01*
X75398490Y-73669213D01*
X75273551Y-73841179D01*
X75177044Y-74030585D01*
X75111353Y-74232760D01*
X75078100Y-74442713D01*
X75078100Y-74655286D01*
X75104350Y-74821026D01*
X75111354Y-74865243D01*
X75166803Y-75035898D01*
X75177044Y-75067414D01*
X75273551Y-75256820D01*
X75398490Y-75428786D01*
X75548813Y-75579109D01*
X75720782Y-75704050D01*
X75729546Y-75708516D01*
X75780342Y-75756491D01*
X75797136Y-75824312D01*
X75774598Y-75890447D01*
X75729546Y-75929484D01*
X75720782Y-75933949D01*
X75548813Y-76058890D01*
X75398490Y-76209213D01*
X75273551Y-76381179D01*
X75177044Y-76570585D01*
X75111353Y-76772760D01*
X75078100Y-76982713D01*
X75078100Y-77195286D01*
X75111353Y-77405239D01*
X75177044Y-77607414D01*
X75273551Y-77796820D01*
X75398490Y-77968786D01*
X75548813Y-78119109D01*
X75720782Y-78244050D01*
X75729546Y-78248516D01*
X75780342Y-78296491D01*
X75797136Y-78364312D01*
X75774598Y-78430447D01*
X75729546Y-78469484D01*
X75720782Y-78473949D01*
X75548813Y-78598890D01*
X75398490Y-78749213D01*
X75273551Y-78921179D01*
X75177044Y-79110585D01*
X75111353Y-79312760D01*
X75096374Y-79407334D01*
X75078100Y-79522713D01*
X75078100Y-79735287D01*
X75088134Y-79798644D01*
X75111353Y-79945239D01*
X75111353Y-79945241D01*
X75111354Y-79945243D01*
X75172312Y-80132853D01*
X75177044Y-80147414D01*
X75273551Y-80336820D01*
X75398490Y-80508786D01*
X75548813Y-80659109D01*
X75720782Y-80784050D01*
X75729546Y-80788516D01*
X75780342Y-80836491D01*
X75797136Y-80904312D01*
X75774598Y-80970447D01*
X75729546Y-81009484D01*
X75720782Y-81013949D01*
X75548813Y-81138890D01*
X75398490Y-81289213D01*
X75273551Y-81461179D01*
X75177044Y-81650585D01*
X75111353Y-81852760D01*
X75078100Y-82062713D01*
X75078100Y-82275286D01*
X75111335Y-82485127D01*
X75111354Y-82485243D01*
X75127051Y-82533554D01*
X75177044Y-82687414D01*
X75273551Y-82876820D01*
X75398490Y-83048786D01*
X75548813Y-83199109D01*
X75720782Y-83324050D01*
X75729546Y-83328516D01*
X75780342Y-83376491D01*
X75797136Y-83444312D01*
X75774598Y-83510447D01*
X75729546Y-83549484D01*
X75720782Y-83553949D01*
X75548813Y-83678890D01*
X75398490Y-83829213D01*
X75273551Y-84001179D01*
X75177044Y-84190585D01*
X75111353Y-84392760D01*
X75078100Y-84602713D01*
X75078100Y-84815286D01*
X75111353Y-85025239D01*
X75177044Y-85227414D01*
X75273551Y-85416820D01*
X75398490Y-85588786D01*
X75548813Y-85739109D01*
X75720782Y-85864050D01*
X75729546Y-85868516D01*
X75780342Y-85916491D01*
X75797136Y-85984312D01*
X75774598Y-86050447D01*
X75729546Y-86089484D01*
X75720782Y-86093949D01*
X75548813Y-86218890D01*
X75398490Y-86369213D01*
X75273551Y-86541179D01*
X75177044Y-86730585D01*
X75111353Y-86932760D01*
X75096783Y-87024752D01*
X75078100Y-87142713D01*
X75078100Y-87355287D01*
X75081381Y-87376000D01*
X75091806Y-87441826D01*
X75111354Y-87565243D01*
X75112572Y-87568993D01*
X75177044Y-87767414D01*
X75273551Y-87956820D01*
X75398490Y-88128786D01*
X75548813Y-88279109D01*
X75720782Y-88404050D01*
X75729546Y-88408516D01*
X75780342Y-88456491D01*
X75797136Y-88524312D01*
X75774598Y-88590447D01*
X75729546Y-88629484D01*
X75720782Y-88633949D01*
X75548813Y-88758890D01*
X75398490Y-88909213D01*
X75273551Y-89081179D01*
X75177044Y-89270585D01*
X75111353Y-89472760D01*
X75078100Y-89682713D01*
X75078100Y-89895286D01*
X75111353Y-90105239D01*
X75177044Y-90307414D01*
X75273551Y-90496820D01*
X75398490Y-90668786D01*
X75548813Y-90819109D01*
X75720782Y-90944050D01*
X75729546Y-90948516D01*
X75780342Y-90996491D01*
X75797136Y-91064312D01*
X75774598Y-91130447D01*
X75729546Y-91169484D01*
X75720782Y-91173949D01*
X75548813Y-91298890D01*
X75398490Y-91449213D01*
X75273551Y-91621179D01*
X75177044Y-91810585D01*
X75111353Y-92012760D01*
X75078100Y-92222713D01*
X75078100Y-92435286D01*
X75105673Y-92609379D01*
X75111354Y-92645243D01*
X75163544Y-92805868D01*
X75177044Y-92847414D01*
X75273551Y-93036820D01*
X75398490Y-93208786D01*
X75548813Y-93359109D01*
X75720782Y-93484050D01*
X75729546Y-93488516D01*
X75780342Y-93536491D01*
X75797136Y-93604312D01*
X75774598Y-93670447D01*
X75729546Y-93709484D01*
X75720782Y-93713949D01*
X75548813Y-93838890D01*
X75398490Y-93989213D01*
X75273551Y-94161179D01*
X75177044Y-94350585D01*
X75111353Y-94552760D01*
X75078100Y-94762713D01*
X75078100Y-94975286D01*
X75104609Y-95142661D01*
X75111354Y-95185243D01*
X75130573Y-95244394D01*
X75177044Y-95387414D01*
X75273551Y-95576820D01*
X75398490Y-95748786D01*
X75548813Y-95899109D01*
X75720782Y-96024050D01*
X75729546Y-96028516D01*
X75780342Y-96076491D01*
X75797136Y-96144312D01*
X75774598Y-96210447D01*
X75729546Y-96249484D01*
X75720782Y-96253949D01*
X75548813Y-96378890D01*
X75398490Y-96529213D01*
X75273551Y-96701179D01*
X75177044Y-96890585D01*
X75111353Y-97092760D01*
X75078100Y-97302713D01*
X75078100Y-97515286D01*
X75111324Y-97725059D01*
X75111354Y-97725243D01*
X75160539Y-97876619D01*
X75177044Y-97927414D01*
X75273551Y-98116820D01*
X75398490Y-98288786D01*
X75548813Y-98439109D01*
X75720779Y-98564048D01*
X75720781Y-98564049D01*
X75720784Y-98564051D01*
X75730093Y-98568794D01*
X75780890Y-98616766D01*
X75797687Y-98684587D01*
X75775152Y-98750722D01*
X75730105Y-98789760D01*
X75721046Y-98794376D01*
X75721040Y-98794380D01*
X75666882Y-98833727D01*
X75666882Y-98833728D01*
X76299191Y-99466037D01*
X76235607Y-99483075D01*
X76121593Y-99548901D01*
X76028501Y-99641993D01*
X75962675Y-99756007D01*
X75945637Y-99819591D01*
X75313328Y-99187282D01*
X75313327Y-99187282D01*
X75273980Y-99241439D01*
X75177504Y-99430782D01*
X75111842Y-99632869D01*
X75111842Y-99632872D01*
X75078600Y-99842753D01*
X75078600Y-100055246D01*
X75111842Y-100265127D01*
X75111842Y-100265130D01*
X75177504Y-100467217D01*
X75273975Y-100656550D01*
X75313328Y-100710716D01*
X75945637Y-100078408D01*
X75962675Y-100141993D01*
X76028501Y-100256007D01*
X76121593Y-100349099D01*
X76235607Y-100414925D01*
X76299190Y-100431962D01*
X75666882Y-101064269D01*
X75666882Y-101064270D01*
X75721052Y-101103626D01*
X75721051Y-101103626D01*
X75730095Y-101108234D01*
X75780892Y-101156208D01*
X75797687Y-101224029D01*
X75775150Y-101290164D01*
X75730099Y-101329202D01*
X75720782Y-101333949D01*
X75548813Y-101458890D01*
X75398490Y-101609213D01*
X75273551Y-101781179D01*
X75177044Y-101970585D01*
X75111353Y-102172760D01*
X75078100Y-102382713D01*
X75078100Y-102595286D01*
X75111353Y-102805239D01*
X75177044Y-103007414D01*
X75273551Y-103196820D01*
X75398490Y-103368786D01*
X75548813Y-103519109D01*
X75720782Y-103644050D01*
X75729546Y-103648516D01*
X75780342Y-103696491D01*
X75797136Y-103764312D01*
X75774598Y-103830447D01*
X75729546Y-103869484D01*
X75720782Y-103873949D01*
X75548813Y-103998890D01*
X75398490Y-104149213D01*
X75273551Y-104321179D01*
X75177044Y-104510585D01*
X75111353Y-104712760D01*
X75078100Y-104922713D01*
X75078100Y-105135286D01*
X75111353Y-105345239D01*
X75177044Y-105547414D01*
X75273551Y-105736820D01*
X75398490Y-105908786D01*
X75548813Y-106059109D01*
X75720782Y-106184050D01*
X75729546Y-106188516D01*
X75780342Y-106236491D01*
X75797136Y-106304312D01*
X75774598Y-106370447D01*
X75729546Y-106409484D01*
X75720782Y-106413949D01*
X75548813Y-106538890D01*
X75398490Y-106689213D01*
X75273551Y-106861179D01*
X75177044Y-107050585D01*
X75111353Y-107252760D01*
X75078100Y-107462713D01*
X75078100Y-107675286D01*
X75104560Y-107842352D01*
X75111354Y-107885243D01*
X75168162Y-108060080D01*
X75177044Y-108087414D01*
X75273551Y-108276820D01*
X75398490Y-108448786D01*
X75548813Y-108599109D01*
X75720782Y-108724050D01*
X75729546Y-108728516D01*
X75780342Y-108776491D01*
X75797136Y-108844312D01*
X75774598Y-108910447D01*
X75729546Y-108949484D01*
X75720782Y-108953949D01*
X75548813Y-109078890D01*
X75398490Y-109229213D01*
X75273551Y-109401179D01*
X75177044Y-109590585D01*
X75111353Y-109792760D01*
X75078100Y-110002713D01*
X75078100Y-110215286D01*
X75108159Y-110405075D01*
X75111354Y-110425243D01*
X75153473Y-110554872D01*
X75177044Y-110627414D01*
X75273551Y-110816820D01*
X75398490Y-110988786D01*
X75548813Y-111139109D01*
X75720782Y-111264050D01*
X75729546Y-111268516D01*
X75780342Y-111316491D01*
X75797136Y-111384312D01*
X75774598Y-111450447D01*
X75729546Y-111489484D01*
X75720782Y-111493949D01*
X75548813Y-111618890D01*
X75398490Y-111769213D01*
X75273551Y-111941179D01*
X75177044Y-112130585D01*
X75177043Y-112130587D01*
X75177043Y-112130588D01*
X75164984Y-112167701D01*
X75111353Y-112332760D01*
X75078100Y-112542713D01*
X75078100Y-112755286D01*
X75105751Y-112929871D01*
X75111354Y-112965243D01*
X75125896Y-113010000D01*
X75177044Y-113167414D01*
X75273551Y-113356820D01*
X75398490Y-113528786D01*
X75548813Y-113679109D01*
X75720779Y-113804048D01*
X75720781Y-113804049D01*
X75720784Y-113804051D01*
X75910188Y-113900557D01*
X76112357Y-113966246D01*
X76322313Y-113999500D01*
X76322314Y-113999500D01*
X76534886Y-113999500D01*
X76534887Y-113999500D01*
X76744843Y-113966246D01*
X76947012Y-113900557D01*
X77136416Y-113804051D01*
X77158389Y-113788086D01*
X77308386Y-113679109D01*
X77308388Y-113679106D01*
X77308392Y-113679104D01*
X77458704Y-113528792D01*
X77458706Y-113528788D01*
X77458709Y-113528786D01*
X77583648Y-113356820D01*
X77583647Y-113356820D01*
X77583651Y-113356816D01*
X77680157Y-113167412D01*
X77745846Y-112965243D01*
X77779100Y-112755287D01*
X77779100Y-112542713D01*
X77745846Y-112332757D01*
X77680157Y-112130588D01*
X77583651Y-111941184D01*
X77583649Y-111941181D01*
X77583648Y-111941179D01*
X77458709Y-111769213D01*
X77308386Y-111618890D01*
X77136420Y-111493951D01*
X77135715Y-111493591D01*
X77127654Y-111489485D01*
X77076859Y-111441512D01*
X77060063Y-111373692D01*
X77082599Y-111307556D01*
X77127654Y-111268515D01*
X77136416Y-111264051D01*
X77158389Y-111248086D01*
X77308386Y-111139109D01*
X77308388Y-111139106D01*
X77308392Y-111139104D01*
X77458704Y-110988792D01*
X77458706Y-110988788D01*
X77458709Y-110988786D01*
X77583648Y-110816820D01*
X77583647Y-110816820D01*
X77583651Y-110816816D01*
X77680157Y-110627412D01*
X77745846Y-110425243D01*
X77779100Y-110215287D01*
X77779100Y-110002713D01*
X77745846Y-109792757D01*
X77680157Y-109590588D01*
X77583651Y-109401184D01*
X77583649Y-109401181D01*
X77583648Y-109401179D01*
X77458709Y-109229213D01*
X77308386Y-109078890D01*
X77136420Y-108953951D01*
X77135715Y-108953591D01*
X77127654Y-108949485D01*
X77076859Y-108901512D01*
X77060063Y-108833692D01*
X77082599Y-108767556D01*
X77127654Y-108728515D01*
X77136416Y-108724051D01*
X77158389Y-108708086D01*
X77308386Y-108599109D01*
X77308388Y-108599106D01*
X77308392Y-108599104D01*
X77458704Y-108448792D01*
X77458706Y-108448788D01*
X77458709Y-108448786D01*
X77583648Y-108276820D01*
X77583647Y-108276820D01*
X77583651Y-108276816D01*
X77680157Y-108087412D01*
X77745846Y-107885243D01*
X77779100Y-107675287D01*
X77779100Y-107462713D01*
X77745846Y-107252757D01*
X77680157Y-107050588D01*
X77583651Y-106861184D01*
X77583649Y-106861181D01*
X77583648Y-106861179D01*
X77458709Y-106689213D01*
X77308386Y-106538890D01*
X77136420Y-106413951D01*
X77135715Y-106413591D01*
X77127654Y-106409485D01*
X77076859Y-106361512D01*
X77060063Y-106293692D01*
X77082599Y-106227556D01*
X77127654Y-106188515D01*
X77136416Y-106184051D01*
X77255931Y-106097219D01*
X77308386Y-106059109D01*
X77308388Y-106059106D01*
X77308392Y-106059104D01*
X77458704Y-105908792D01*
X77458706Y-105908788D01*
X77458709Y-105908786D01*
X77583648Y-105736820D01*
X77583647Y-105736820D01*
X77583651Y-105736816D01*
X77680157Y-105547412D01*
X77745846Y-105345243D01*
X77779100Y-105135287D01*
X77779100Y-104922713D01*
X77745846Y-104712757D01*
X77680157Y-104510588D01*
X77583651Y-104321184D01*
X77583649Y-104321181D01*
X77583648Y-104321179D01*
X77458709Y-104149213D01*
X77308386Y-103998890D01*
X77136420Y-103873951D01*
X77135715Y-103873591D01*
X77127654Y-103869485D01*
X77076859Y-103821512D01*
X77060063Y-103753692D01*
X77082599Y-103687556D01*
X77127654Y-103648515D01*
X77136416Y-103644051D01*
X77158389Y-103628086D01*
X77308386Y-103519109D01*
X77308388Y-103519106D01*
X77308392Y-103519104D01*
X77458704Y-103368792D01*
X77458706Y-103368788D01*
X77458709Y-103368786D01*
X77583648Y-103196820D01*
X77583647Y-103196820D01*
X77583651Y-103196816D01*
X77680157Y-103007412D01*
X77745846Y-102805243D01*
X77779100Y-102595287D01*
X77779100Y-102382713D01*
X77745846Y-102172757D01*
X77680157Y-101970588D01*
X77583651Y-101781184D01*
X77583649Y-101781181D01*
X77583648Y-101781179D01*
X77458709Y-101609213D01*
X77308386Y-101458890D01*
X77136417Y-101333949D01*
X77127104Y-101329204D01*
X77076307Y-101281230D01*
X77059512Y-101213409D01*
X77082049Y-101147274D01*
X77127107Y-101108232D01*
X77136155Y-101103622D01*
X77190316Y-101064270D01*
X77190317Y-101064270D01*
X76558008Y-100431962D01*
X76621593Y-100414925D01*
X76735607Y-100349099D01*
X76828699Y-100256007D01*
X76894525Y-100141993D01*
X76911562Y-100078408D01*
X77543870Y-100710717D01*
X77543870Y-100710716D01*
X77583222Y-100656554D01*
X77679695Y-100467217D01*
X77745357Y-100265130D01*
X77745357Y-100265127D01*
X77778600Y-100055246D01*
X77778600Y-99842753D01*
X77745357Y-99632872D01*
X77745357Y-99632869D01*
X77679695Y-99430782D01*
X77583224Y-99241449D01*
X77543870Y-99187282D01*
X77543869Y-99187282D01*
X76911562Y-99819590D01*
X76894525Y-99756007D01*
X76828699Y-99641993D01*
X76735607Y-99548901D01*
X76621593Y-99483075D01*
X76558009Y-99466037D01*
X77190316Y-98833728D01*
X77136147Y-98794373D01*
X77136147Y-98794372D01*
X77127100Y-98789763D01*
X77076306Y-98741788D01*
X77059512Y-98673966D01*
X77082051Y-98607832D01*
X77127108Y-98568793D01*
X77136416Y-98564051D01*
X77215607Y-98506515D01*
X77308386Y-98439109D01*
X77308388Y-98439106D01*
X77308392Y-98439104D01*
X77458704Y-98288792D01*
X77458706Y-98288788D01*
X77458709Y-98288786D01*
X77583648Y-98116820D01*
X77583647Y-98116820D01*
X77583651Y-98116816D01*
X77680157Y-97927412D01*
X77745846Y-97725243D01*
X77779100Y-97515287D01*
X77779100Y-97302713D01*
X77745846Y-97092757D01*
X77680157Y-96890588D01*
X77583651Y-96701184D01*
X77583649Y-96701181D01*
X77583648Y-96701179D01*
X77458709Y-96529213D01*
X77308386Y-96378890D01*
X77136420Y-96253951D01*
X77135715Y-96253591D01*
X77127654Y-96249485D01*
X77076859Y-96201512D01*
X77060063Y-96133692D01*
X77082599Y-96067556D01*
X77127654Y-96028515D01*
X77136416Y-96024051D01*
X77256377Y-95936895D01*
X77308386Y-95899109D01*
X77308388Y-95899106D01*
X77308392Y-95899104D01*
X77458704Y-95748792D01*
X77458706Y-95748788D01*
X77458709Y-95748786D01*
X77583648Y-95576820D01*
X77583647Y-95576820D01*
X77583651Y-95576816D01*
X77680157Y-95387412D01*
X77745846Y-95185243D01*
X77779100Y-94975287D01*
X77779100Y-94762713D01*
X77745846Y-94552757D01*
X77680157Y-94350588D01*
X77583651Y-94161184D01*
X77583649Y-94161181D01*
X77583648Y-94161179D01*
X77458709Y-93989213D01*
X77308386Y-93838890D01*
X77136420Y-93713951D01*
X77133631Y-93712530D01*
X77127654Y-93709485D01*
X77076859Y-93661512D01*
X77060063Y-93593692D01*
X77082599Y-93527556D01*
X77127654Y-93488515D01*
X77136416Y-93484051D01*
X77158389Y-93468086D01*
X77308386Y-93359109D01*
X77308388Y-93359106D01*
X77308392Y-93359104D01*
X77458704Y-93208792D01*
X77458706Y-93208788D01*
X77458709Y-93208786D01*
X77583648Y-93036820D01*
X77583647Y-93036820D01*
X77583651Y-93036816D01*
X77680157Y-92847412D01*
X77745846Y-92645243D01*
X77779100Y-92435287D01*
X77779100Y-92222713D01*
X77745846Y-92012757D01*
X77680157Y-91810588D01*
X77583651Y-91621184D01*
X77583649Y-91621181D01*
X77583648Y-91621179D01*
X77458709Y-91449213D01*
X77308386Y-91298890D01*
X77136420Y-91173951D01*
X77135715Y-91173591D01*
X77127654Y-91169485D01*
X77076859Y-91121512D01*
X77060063Y-91053692D01*
X77082599Y-90987556D01*
X77127654Y-90948515D01*
X77136416Y-90944051D01*
X77158389Y-90928086D01*
X77308386Y-90819109D01*
X77308388Y-90819106D01*
X77308392Y-90819104D01*
X77458704Y-90668792D01*
X77458706Y-90668788D01*
X77458709Y-90668786D01*
X77583648Y-90496820D01*
X77583647Y-90496820D01*
X77583651Y-90496816D01*
X77680157Y-90307412D01*
X77745846Y-90105243D01*
X77779100Y-89895287D01*
X77779100Y-89682713D01*
X77745846Y-89472757D01*
X77680157Y-89270588D01*
X77583651Y-89081184D01*
X77583649Y-89081181D01*
X77583648Y-89081179D01*
X77458709Y-88909213D01*
X77308386Y-88758890D01*
X77136420Y-88633951D01*
X77135715Y-88633591D01*
X77127654Y-88629485D01*
X77076859Y-88581512D01*
X77060063Y-88513692D01*
X77082599Y-88447556D01*
X77127654Y-88408515D01*
X77136416Y-88404051D01*
X77158389Y-88388086D01*
X77308386Y-88279109D01*
X77308388Y-88279106D01*
X77308392Y-88279104D01*
X77458704Y-88128792D01*
X77458706Y-88128788D01*
X77458709Y-88128786D01*
X77583648Y-87956820D01*
X77583647Y-87956820D01*
X77583651Y-87956816D01*
X77680157Y-87767412D01*
X77745846Y-87565243D01*
X77779100Y-87355287D01*
X77779100Y-87142713D01*
X77745846Y-86932757D01*
X77680157Y-86730588D01*
X77583651Y-86541184D01*
X77583649Y-86541181D01*
X77583648Y-86541179D01*
X77458709Y-86369213D01*
X77308386Y-86218890D01*
X77136420Y-86093951D01*
X77134718Y-86093084D01*
X77127654Y-86089485D01*
X77076859Y-86041512D01*
X77060063Y-85973692D01*
X77082599Y-85907556D01*
X77127654Y-85868515D01*
X77136416Y-85864051D01*
X77158389Y-85848086D01*
X77308386Y-85739109D01*
X77308388Y-85739106D01*
X77308392Y-85739104D01*
X77458704Y-85588792D01*
X77458706Y-85588788D01*
X77458709Y-85588786D01*
X77583648Y-85416820D01*
X77583647Y-85416820D01*
X77583651Y-85416816D01*
X77680157Y-85227412D01*
X77745846Y-85025243D01*
X77779100Y-84815287D01*
X77779100Y-84602713D01*
X77745846Y-84392757D01*
X77680157Y-84190588D01*
X77583651Y-84001184D01*
X77583649Y-84001181D01*
X77583648Y-84001179D01*
X77458709Y-83829213D01*
X77308386Y-83678890D01*
X77136420Y-83553951D01*
X77135715Y-83553591D01*
X77127654Y-83549485D01*
X77076859Y-83501512D01*
X77060063Y-83433692D01*
X77082599Y-83367556D01*
X77127654Y-83328515D01*
X77136416Y-83324051D01*
X77191172Y-83284269D01*
X77308386Y-83199109D01*
X77308388Y-83199106D01*
X77308392Y-83199104D01*
X77458704Y-83048792D01*
X77458706Y-83048788D01*
X77458709Y-83048786D01*
X77583648Y-82876820D01*
X77583647Y-82876820D01*
X77583651Y-82876816D01*
X77680157Y-82687412D01*
X77745846Y-82485243D01*
X77779100Y-82275287D01*
X77779100Y-82062713D01*
X77745846Y-81852757D01*
X77680157Y-81650588D01*
X77583651Y-81461184D01*
X77583649Y-81461181D01*
X77583648Y-81461179D01*
X77458709Y-81289213D01*
X77308386Y-81138890D01*
X77136420Y-81013951D01*
X77135715Y-81013591D01*
X77127654Y-81009485D01*
X77076859Y-80961512D01*
X77060063Y-80893692D01*
X77082599Y-80827556D01*
X77127654Y-80788515D01*
X77136416Y-80784051D01*
X77158389Y-80768086D01*
X77308386Y-80659109D01*
X77308388Y-80659106D01*
X77308392Y-80659104D01*
X77458704Y-80508792D01*
X77458706Y-80508788D01*
X77458709Y-80508786D01*
X77583648Y-80336820D01*
X77583647Y-80336820D01*
X77583651Y-80336816D01*
X77680157Y-80147412D01*
X77745846Y-79945243D01*
X77779100Y-79735287D01*
X77779100Y-79522713D01*
X77745846Y-79312757D01*
X77680157Y-79110588D01*
X77583651Y-78921184D01*
X77583649Y-78921181D01*
X77583648Y-78921179D01*
X77458709Y-78749213D01*
X77308386Y-78598890D01*
X77136420Y-78473951D01*
X77135715Y-78473591D01*
X77127654Y-78469485D01*
X77076859Y-78421512D01*
X77060063Y-78353692D01*
X77082599Y-78287556D01*
X77127654Y-78248515D01*
X77136416Y-78244051D01*
X77158389Y-78228086D01*
X77308386Y-78119109D01*
X77308388Y-78119106D01*
X77308392Y-78119104D01*
X77458704Y-77968792D01*
X77458706Y-77968788D01*
X77458709Y-77968786D01*
X77583648Y-77796820D01*
X77583647Y-77796820D01*
X77583651Y-77796816D01*
X77680157Y-77607412D01*
X77745846Y-77405243D01*
X77779100Y-77195287D01*
X77779100Y-76982713D01*
X77745846Y-76772757D01*
X77680157Y-76570588D01*
X77583651Y-76381184D01*
X77583649Y-76381181D01*
X77583648Y-76381179D01*
X77458709Y-76209213D01*
X77308386Y-76058890D01*
X77136420Y-75933951D01*
X77135715Y-75933591D01*
X77127654Y-75929485D01*
X77076859Y-75881512D01*
X77060063Y-75813692D01*
X77082599Y-75747556D01*
X77127654Y-75708515D01*
X77136416Y-75704051D01*
X77255770Y-75617336D01*
X77308386Y-75579109D01*
X77308388Y-75579106D01*
X77308392Y-75579104D01*
X77458704Y-75428792D01*
X77458706Y-75428788D01*
X77458709Y-75428786D01*
X77583648Y-75256820D01*
X77583647Y-75256820D01*
X77583651Y-75256816D01*
X77680157Y-75067412D01*
X77745846Y-74865243D01*
X77779100Y-74655287D01*
X77779100Y-74442713D01*
X77745846Y-74232757D01*
X77680157Y-74030588D01*
X77583651Y-73841184D01*
X77583649Y-73841181D01*
X77583648Y-73841179D01*
X77458709Y-73669213D01*
X77308386Y-73518890D01*
X77136420Y-73393951D01*
X77135715Y-73393591D01*
X77127654Y-73389485D01*
X77076859Y-73341512D01*
X77060063Y-73273692D01*
X77082599Y-73207556D01*
X77127654Y-73168515D01*
X77136416Y-73164051D01*
X77158389Y-73148086D01*
X77308386Y-73039109D01*
X77308388Y-73039106D01*
X77308392Y-73039104D01*
X77458704Y-72888792D01*
X77458706Y-72888788D01*
X77458709Y-72888786D01*
X77583648Y-72716820D01*
X77583650Y-72716817D01*
X77583651Y-72716816D01*
X77680157Y-72527412D01*
X77745846Y-72325243D01*
X77779100Y-72115287D01*
X77779100Y-71902713D01*
X77745846Y-71692757D01*
X77680157Y-71490588D01*
X77583651Y-71301184D01*
X77583649Y-71301181D01*
X77583648Y-71301179D01*
X77458709Y-71129213D01*
X77308386Y-70978890D01*
X77136420Y-70853951D01*
X77135715Y-70853591D01*
X77127654Y-70849485D01*
X77076859Y-70801512D01*
X77060063Y-70733692D01*
X77082599Y-70667556D01*
X77127654Y-70628515D01*
X77136416Y-70624051D01*
X77158389Y-70608086D01*
X77308386Y-70499109D01*
X77308388Y-70499106D01*
X77308392Y-70499104D01*
X77458704Y-70348792D01*
X77458706Y-70348788D01*
X77458709Y-70348786D01*
X77583648Y-70176820D01*
X77583647Y-70176820D01*
X77583651Y-70176816D01*
X77680157Y-69987412D01*
X77745846Y-69785243D01*
X77779100Y-69575287D01*
X77779100Y-69362713D01*
X77745846Y-69152757D01*
X77680157Y-68950588D01*
X77583651Y-68761184D01*
X77583649Y-68761181D01*
X77583648Y-68761179D01*
X77458709Y-68589213D01*
X77345169Y-68475673D01*
X77311684Y-68414350D01*
X77316668Y-68344658D01*
X77358540Y-68288725D01*
X77389515Y-68271810D01*
X77520931Y-68222796D01*
X77636146Y-68136546D01*
X77672747Y-68087653D01*
X77728680Y-68045783D01*
X77798372Y-68040799D01*
X77859694Y-68074284D01*
X91171263Y-81385855D01*
X91171267Y-81385858D01*
X91273710Y-81454309D01*
X91273711Y-81454309D01*
X91273715Y-81454312D01*
X91340397Y-81481932D01*
X91387548Y-81501463D01*
X91407597Y-81505451D01*
X91472624Y-81518385D01*
X91508392Y-81525501D01*
X91508394Y-81525501D01*
X91637721Y-81525501D01*
X91637741Y-81525500D01*
X100599941Y-81525500D01*
X100666980Y-81545185D01*
X100712735Y-81597989D01*
X100722679Y-81667147D01*
X100717872Y-81687819D01*
X100664241Y-81852873D01*
X100631000Y-82062753D01*
X100631000Y-82275246D01*
X100664242Y-82485127D01*
X100664242Y-82485130D01*
X100729904Y-82687217D01*
X100826375Y-82876550D01*
X100865728Y-82930716D01*
X101498036Y-82298407D01*
X101515075Y-82361993D01*
X101580901Y-82476007D01*
X101673993Y-82569099D01*
X101788007Y-82634925D01*
X101851590Y-82651962D01*
X101219282Y-83284269D01*
X101219282Y-83284270D01*
X101273452Y-83323626D01*
X101273451Y-83323626D01*
X101282495Y-83328234D01*
X101333292Y-83376208D01*
X101350087Y-83444029D01*
X101327550Y-83510164D01*
X101282499Y-83549202D01*
X101273182Y-83553949D01*
X101101213Y-83678890D01*
X100950890Y-83829213D01*
X100825951Y-84001179D01*
X100729444Y-84190585D01*
X100663753Y-84392760D01*
X100630500Y-84602713D01*
X100630500Y-84815286D01*
X100663753Y-85025239D01*
X100729444Y-85227414D01*
X100825951Y-85416820D01*
X100950890Y-85588786D01*
X101101213Y-85739109D01*
X101273182Y-85864050D01*
X101281946Y-85868516D01*
X101332742Y-85916491D01*
X101349536Y-85984312D01*
X101326998Y-86050447D01*
X101281946Y-86089484D01*
X101273182Y-86093949D01*
X101101213Y-86218890D01*
X100950890Y-86369213D01*
X100825951Y-86541179D01*
X100729444Y-86730585D01*
X100663753Y-86932760D01*
X100649183Y-87024752D01*
X100630500Y-87142713D01*
X100630500Y-87355287D01*
X100633781Y-87376000D01*
X100644206Y-87441826D01*
X100663754Y-87565243D01*
X100664972Y-87568993D01*
X100729444Y-87767414D01*
X100825951Y-87956820D01*
X100950890Y-88128786D01*
X101101213Y-88279109D01*
X101273182Y-88404050D01*
X101281946Y-88408516D01*
X101332742Y-88456491D01*
X101349536Y-88524312D01*
X101326998Y-88590447D01*
X101281946Y-88629484D01*
X101273182Y-88633949D01*
X101101213Y-88758890D01*
X100950890Y-88909213D01*
X100825951Y-89081179D01*
X100729444Y-89270585D01*
X100663753Y-89472760D01*
X100630500Y-89682713D01*
X100630500Y-89895286D01*
X100663753Y-90105239D01*
X100729444Y-90307414D01*
X100825951Y-90496820D01*
X100950890Y-90668786D01*
X101101213Y-90819109D01*
X101273182Y-90944050D01*
X101281946Y-90948516D01*
X101332742Y-90996491D01*
X101349536Y-91064312D01*
X101326998Y-91130447D01*
X101281946Y-91169484D01*
X101273182Y-91173949D01*
X101101213Y-91298890D01*
X100950890Y-91449213D01*
X100825951Y-91621179D01*
X100729444Y-91810585D01*
X100663753Y-92012760D01*
X100630500Y-92222713D01*
X100630500Y-92435286D01*
X100658073Y-92609379D01*
X100663754Y-92645243D01*
X100715944Y-92805868D01*
X100729444Y-92847414D01*
X100825951Y-93036820D01*
X100950890Y-93208786D01*
X101101213Y-93359109D01*
X101273182Y-93484050D01*
X101281946Y-93488516D01*
X101332742Y-93536491D01*
X101349536Y-93604312D01*
X101326998Y-93670447D01*
X101281946Y-93709484D01*
X101273182Y-93713949D01*
X101101213Y-93838890D01*
X100950890Y-93989213D01*
X100825951Y-94161179D01*
X100729444Y-94350585D01*
X100663753Y-94552760D01*
X100630500Y-94762713D01*
X100630500Y-94975286D01*
X100657009Y-95142661D01*
X100663754Y-95185243D01*
X100682973Y-95244394D01*
X100729444Y-95387414D01*
X100825951Y-95576820D01*
X100950890Y-95748786D01*
X101101213Y-95899109D01*
X101273182Y-96024050D01*
X101281946Y-96028516D01*
X101332742Y-96076491D01*
X101349536Y-96144312D01*
X101326998Y-96210447D01*
X101281946Y-96249484D01*
X101273182Y-96253949D01*
X101101213Y-96378890D01*
X100950890Y-96529213D01*
X100825951Y-96701179D01*
X100729444Y-96890585D01*
X100663753Y-97092760D01*
X100630500Y-97302713D01*
X100630500Y-97515286D01*
X100663724Y-97725059D01*
X100663754Y-97725243D01*
X100712939Y-97876619D01*
X100729444Y-97927414D01*
X100825951Y-98116820D01*
X100950890Y-98288786D01*
X101101213Y-98439109D01*
X101273182Y-98564050D01*
X101281946Y-98568516D01*
X101332742Y-98616491D01*
X101349536Y-98684312D01*
X101326998Y-98750447D01*
X101281946Y-98789484D01*
X101273182Y-98793949D01*
X101101213Y-98918890D01*
X100950890Y-99069213D01*
X100825951Y-99241179D01*
X100729444Y-99430585D01*
X100663753Y-99632760D01*
X100630500Y-99842713D01*
X100630500Y-100055286D01*
X100663753Y-100265239D01*
X100729444Y-100467414D01*
X100825951Y-100656820D01*
X100950890Y-100828786D01*
X101101213Y-100979109D01*
X101273182Y-101104050D01*
X101281946Y-101108516D01*
X101332742Y-101156491D01*
X101349536Y-101224312D01*
X101326998Y-101290447D01*
X101281946Y-101329484D01*
X101273182Y-101333949D01*
X101101213Y-101458890D01*
X100950890Y-101609213D01*
X100825951Y-101781179D01*
X100729444Y-101970585D01*
X100663753Y-102172760D01*
X100630500Y-102382713D01*
X100630500Y-102595286D01*
X100663753Y-102805239D01*
X100729444Y-103007414D01*
X100825951Y-103196820D01*
X100950890Y-103368786D01*
X101101213Y-103519109D01*
X101273182Y-103644050D01*
X101281946Y-103648516D01*
X101332742Y-103696491D01*
X101349536Y-103764312D01*
X101326998Y-103830447D01*
X101281946Y-103869484D01*
X101273182Y-103873949D01*
X101101213Y-103998890D01*
X100950890Y-104149213D01*
X100825951Y-104321179D01*
X100729444Y-104510585D01*
X100663753Y-104712760D01*
X100630500Y-104922713D01*
X100630500Y-105135286D01*
X100663753Y-105345239D01*
X100729444Y-105547414D01*
X100825951Y-105736820D01*
X100950890Y-105908786D01*
X101101213Y-106059109D01*
X101273182Y-106184050D01*
X101281946Y-106188516D01*
X101332742Y-106236491D01*
X101349536Y-106304312D01*
X101326998Y-106370447D01*
X101281946Y-106409484D01*
X101273182Y-106413949D01*
X101101213Y-106538890D01*
X100950890Y-106689213D01*
X100825951Y-106861179D01*
X100729444Y-107050585D01*
X100663753Y-107252760D01*
X100630500Y-107462713D01*
X100630500Y-107675286D01*
X100656960Y-107842352D01*
X100663754Y-107885243D01*
X100720562Y-108060080D01*
X100729444Y-108087414D01*
X100825951Y-108276820D01*
X100950890Y-108448786D01*
X101101213Y-108599109D01*
X101273182Y-108724050D01*
X101281946Y-108728516D01*
X101332742Y-108776491D01*
X101349536Y-108844312D01*
X101326998Y-108910447D01*
X101281946Y-108949484D01*
X101273182Y-108953949D01*
X101101213Y-109078890D01*
X100950890Y-109229213D01*
X100825951Y-109401179D01*
X100729444Y-109590585D01*
X100663753Y-109792760D01*
X100630500Y-110002713D01*
X100630500Y-110215286D01*
X100660559Y-110405075D01*
X100663754Y-110425243D01*
X100705873Y-110554872D01*
X100729444Y-110627414D01*
X100825951Y-110816820D01*
X100950890Y-110988786D01*
X101101213Y-111139109D01*
X101273182Y-111264050D01*
X101281946Y-111268516D01*
X101332742Y-111316491D01*
X101349536Y-111384312D01*
X101326998Y-111450447D01*
X101281946Y-111489484D01*
X101273182Y-111493949D01*
X101101213Y-111618890D01*
X100950890Y-111769213D01*
X100825951Y-111941179D01*
X100729444Y-112130585D01*
X100729443Y-112130587D01*
X100729443Y-112130588D01*
X100717384Y-112167701D01*
X100663753Y-112332760D01*
X100630500Y-112542713D01*
X100630500Y-112755286D01*
X100658151Y-112929871D01*
X100663754Y-112965243D01*
X100678296Y-113010000D01*
X100729444Y-113167414D01*
X100825951Y-113356820D01*
X100950890Y-113528786D01*
X101101213Y-113679109D01*
X101273179Y-113804048D01*
X101273181Y-113804049D01*
X101273184Y-113804051D01*
X101462588Y-113900557D01*
X101664757Y-113966246D01*
X101874713Y-113999500D01*
X101874714Y-113999500D01*
X102087286Y-113999500D01*
X102087287Y-113999500D01*
X102297243Y-113966246D01*
X102499412Y-113900557D01*
X102688816Y-113804051D01*
X102710789Y-113788086D01*
X102860786Y-113679109D01*
X102860788Y-113679106D01*
X102860792Y-113679104D01*
X103011104Y-113528792D01*
X103011106Y-113528788D01*
X103011109Y-113528786D01*
X103136048Y-113356820D01*
X103136047Y-113356820D01*
X103136051Y-113356816D01*
X103232557Y-113167412D01*
X103298246Y-112965243D01*
X103331500Y-112755287D01*
X103331500Y-112542713D01*
X103298246Y-112332757D01*
X103232557Y-112130588D01*
X103136051Y-111941184D01*
X103136049Y-111941181D01*
X103136048Y-111941179D01*
X103011109Y-111769213D01*
X102860786Y-111618890D01*
X102688820Y-111493951D01*
X102688115Y-111493591D01*
X102680054Y-111489485D01*
X102629259Y-111441512D01*
X102612463Y-111373692D01*
X102634999Y-111307556D01*
X102680054Y-111268515D01*
X102688816Y-111264051D01*
X102710789Y-111248086D01*
X102860786Y-111139109D01*
X102860788Y-111139106D01*
X102860792Y-111139104D01*
X103011104Y-110988792D01*
X103011106Y-110988788D01*
X103011109Y-110988786D01*
X103136048Y-110816820D01*
X103136047Y-110816820D01*
X103136051Y-110816816D01*
X103232557Y-110627412D01*
X103298246Y-110425243D01*
X103331500Y-110215287D01*
X103331500Y-110002713D01*
X103326815Y-109973135D01*
X107971100Y-109973135D01*
X107971100Y-111768870D01*
X107971101Y-111768876D01*
X107977508Y-111828483D01*
X108027802Y-111963328D01*
X108027806Y-111963335D01*
X108114052Y-112078544D01*
X108114055Y-112078547D01*
X108229264Y-112164793D01*
X108229271Y-112164797D01*
X108364117Y-112215091D01*
X108364116Y-112215091D01*
X108371044Y-112215835D01*
X108423727Y-112221500D01*
X110219472Y-112221499D01*
X110279083Y-112215091D01*
X110413931Y-112164796D01*
X110529146Y-112078546D01*
X110615396Y-111963331D01*
X110665691Y-111828483D01*
X110672100Y-111768873D01*
X110672099Y-111744979D01*
X110674930Y-111731963D01*
X110685540Y-111712525D01*
X110691779Y-111691275D01*
X110708403Y-111670643D01*
X110708408Y-111670636D01*
X110708411Y-111670634D01*
X110708418Y-111670626D01*
X111378637Y-111000408D01*
X111395675Y-111063993D01*
X111461501Y-111178007D01*
X111554593Y-111271099D01*
X111668607Y-111336925D01*
X111732190Y-111353962D01*
X111099882Y-111986269D01*
X111099882Y-111986270D01*
X111154049Y-112025624D01*
X111343382Y-112122095D01*
X111545470Y-112187757D01*
X111755354Y-112221000D01*
X111967846Y-112221000D01*
X112177727Y-112187757D01*
X112177730Y-112187757D01*
X112379817Y-112122095D01*
X112569154Y-112025622D01*
X112623316Y-111986270D01*
X112623317Y-111986270D01*
X111991008Y-111353962D01*
X112054593Y-111336925D01*
X112168607Y-111271099D01*
X112261699Y-111178007D01*
X112327525Y-111063993D01*
X112344562Y-111000408D01*
X112976870Y-111632717D01*
X112976870Y-111632716D01*
X113016222Y-111578554D01*
X113112695Y-111389217D01*
X113178357Y-111187130D01*
X113178357Y-111187127D01*
X113211600Y-110977246D01*
X113211600Y-110764753D01*
X113178357Y-110554872D01*
X113178357Y-110554869D01*
X113112695Y-110352782D01*
X113016224Y-110163449D01*
X112976870Y-110109282D01*
X112976869Y-110109282D01*
X112344562Y-110741590D01*
X112327525Y-110678007D01*
X112261699Y-110563993D01*
X112168607Y-110470901D01*
X112054593Y-110405075D01*
X111991009Y-110388037D01*
X112623316Y-109755728D01*
X112569150Y-109716375D01*
X112379817Y-109619904D01*
X112177729Y-109554242D01*
X111967846Y-109521000D01*
X111755354Y-109521000D01*
X111545472Y-109554242D01*
X111545469Y-109554242D01*
X111343382Y-109619904D01*
X111154039Y-109716380D01*
X111099882Y-109755727D01*
X111099882Y-109755728D01*
X111732191Y-110388037D01*
X111668607Y-110405075D01*
X111554593Y-110470901D01*
X111461501Y-110563993D01*
X111395675Y-110678007D01*
X111378637Y-110741591D01*
X110708418Y-110071372D01*
X110674933Y-110010049D01*
X110674930Y-110010036D01*
X110672099Y-109997015D01*
X110672099Y-109973128D01*
X110665691Y-109913517D01*
X110620652Y-109792760D01*
X110615398Y-109778673D01*
X110615393Y-109778664D01*
X110529147Y-109663455D01*
X110529144Y-109663452D01*
X110413935Y-109577206D01*
X110413928Y-109577202D01*
X110279082Y-109526908D01*
X110279083Y-109526908D01*
X110219483Y-109520501D01*
X110219481Y-109520500D01*
X110219473Y-109520500D01*
X110219464Y-109520500D01*
X108423729Y-109520500D01*
X108423723Y-109520501D01*
X108364116Y-109526908D01*
X108229271Y-109577202D01*
X108229264Y-109577206D01*
X108114055Y-109663452D01*
X108114052Y-109663455D01*
X108027806Y-109778664D01*
X108027802Y-109778671D01*
X107977508Y-109913517D01*
X107971101Y-109973116D01*
X107971100Y-109973135D01*
X103326815Y-109973135D01*
X103298246Y-109792757D01*
X103232557Y-109590588D01*
X103136051Y-109401184D01*
X103136049Y-109401181D01*
X103136048Y-109401179D01*
X103011109Y-109229213D01*
X102860786Y-109078890D01*
X102688820Y-108953951D01*
X102688115Y-108953591D01*
X102680054Y-108949485D01*
X102629259Y-108901512D01*
X102612463Y-108833692D01*
X102634999Y-108767556D01*
X102680054Y-108728515D01*
X102688816Y-108724051D01*
X102710789Y-108708086D01*
X102860786Y-108599109D01*
X102860788Y-108599106D01*
X102860792Y-108599104D01*
X103011104Y-108448792D01*
X103011106Y-108448788D01*
X103011109Y-108448786D01*
X103136048Y-108276820D01*
X103136047Y-108276820D01*
X103136051Y-108276816D01*
X103232557Y-108087412D01*
X103298246Y-107885243D01*
X103331500Y-107675287D01*
X103331500Y-107462713D01*
X103298246Y-107252757D01*
X103232557Y-107050588D01*
X103136051Y-106861184D01*
X103136049Y-106861181D01*
X103136048Y-106861179D01*
X103011109Y-106689213D01*
X102860786Y-106538890D01*
X102688820Y-106413951D01*
X102688115Y-106413591D01*
X102680054Y-106409485D01*
X102629259Y-106361512D01*
X102612463Y-106293692D01*
X102634999Y-106227556D01*
X102680054Y-106188515D01*
X102688816Y-106184051D01*
X102808331Y-106097219D01*
X102860786Y-106059109D01*
X102860788Y-106059106D01*
X102860792Y-106059104D01*
X103011104Y-105908792D01*
X103011106Y-105908788D01*
X103011109Y-105908786D01*
X103136048Y-105736820D01*
X103136047Y-105736820D01*
X103136051Y-105736816D01*
X103232557Y-105547412D01*
X103298246Y-105345243D01*
X103331500Y-105135287D01*
X103331500Y-104922713D01*
X103298246Y-104712757D01*
X103232557Y-104510588D01*
X103136051Y-104321184D01*
X103136049Y-104321181D01*
X103136048Y-104321179D01*
X103011109Y-104149213D01*
X102860786Y-103998890D01*
X102688820Y-103873951D01*
X102688115Y-103873591D01*
X102680054Y-103869485D01*
X102629259Y-103821512D01*
X102612463Y-103753692D01*
X102634999Y-103687556D01*
X102680054Y-103648515D01*
X102688816Y-103644051D01*
X102710789Y-103628086D01*
X102860786Y-103519109D01*
X102860788Y-103519106D01*
X102860792Y-103519104D01*
X103011104Y-103368792D01*
X103011106Y-103368788D01*
X103011109Y-103368786D01*
X103136048Y-103196820D01*
X103136047Y-103196820D01*
X103136051Y-103196816D01*
X103232557Y-103007412D01*
X103298246Y-102805243D01*
X103331500Y-102595287D01*
X103331500Y-102382713D01*
X103298246Y-102172757D01*
X103232557Y-101970588D01*
X103136051Y-101781184D01*
X103136049Y-101781181D01*
X103136048Y-101781179D01*
X103011109Y-101609213D01*
X102860786Y-101458890D01*
X102688820Y-101333951D01*
X102688115Y-101333591D01*
X102680054Y-101329485D01*
X102629259Y-101281512D01*
X102612463Y-101213692D01*
X102634999Y-101147556D01*
X102680054Y-101108515D01*
X102688816Y-101104051D01*
X102743572Y-101064269D01*
X102860786Y-100979109D01*
X102860788Y-100979106D01*
X102860792Y-100979104D01*
X103011104Y-100828792D01*
X103011106Y-100828788D01*
X103011109Y-100828786D01*
X103136048Y-100656820D01*
X103136047Y-100656820D01*
X103136051Y-100656816D01*
X103232557Y-100467412D01*
X103298246Y-100265243D01*
X103331500Y-100055287D01*
X103331500Y-99842713D01*
X103298246Y-99632757D01*
X103232557Y-99430588D01*
X103136051Y-99241184D01*
X103136049Y-99241181D01*
X103136048Y-99241179D01*
X103011109Y-99069213D01*
X102860786Y-98918890D01*
X102688820Y-98793951D01*
X102680600Y-98789763D01*
X102680054Y-98789485D01*
X102629259Y-98741512D01*
X102612463Y-98673692D01*
X102634999Y-98607556D01*
X102680054Y-98568515D01*
X102688816Y-98564051D01*
X102756654Y-98514764D01*
X102860786Y-98439109D01*
X102860788Y-98439106D01*
X102860792Y-98439104D01*
X103011104Y-98288792D01*
X103011106Y-98288788D01*
X103011109Y-98288786D01*
X103136048Y-98116820D01*
X103136047Y-98116820D01*
X103136051Y-98116816D01*
X103232557Y-97927412D01*
X103298246Y-97725243D01*
X103331500Y-97515287D01*
X103331500Y-97302713D01*
X103298246Y-97092757D01*
X103232557Y-96890588D01*
X103136051Y-96701184D01*
X103136049Y-96701181D01*
X103136048Y-96701179D01*
X103011109Y-96529213D01*
X102860786Y-96378890D01*
X102688820Y-96253951D01*
X102688115Y-96253591D01*
X102680054Y-96249485D01*
X102629259Y-96201512D01*
X102612463Y-96133692D01*
X102634999Y-96067556D01*
X102680054Y-96028515D01*
X102688816Y-96024051D01*
X102808777Y-95936895D01*
X102860786Y-95899109D01*
X102860788Y-95899106D01*
X102860792Y-95899104D01*
X103011104Y-95748792D01*
X103011106Y-95748788D01*
X103011109Y-95748786D01*
X103136048Y-95576820D01*
X103136047Y-95576820D01*
X103136051Y-95576816D01*
X103232557Y-95387412D01*
X103298246Y-95185243D01*
X103331500Y-94975287D01*
X103331500Y-94762713D01*
X103298246Y-94552757D01*
X103232557Y-94350588D01*
X103136051Y-94161184D01*
X103136049Y-94161181D01*
X103136048Y-94161179D01*
X103011109Y-93989213D01*
X102860786Y-93838890D01*
X102688820Y-93713951D01*
X102686031Y-93712530D01*
X102680054Y-93709485D01*
X102629259Y-93661512D01*
X102612463Y-93593692D01*
X102634999Y-93527556D01*
X102680054Y-93488515D01*
X102688816Y-93484051D01*
X102710789Y-93468086D01*
X102860786Y-93359109D01*
X102860788Y-93359106D01*
X102860792Y-93359104D01*
X103011104Y-93208792D01*
X103011106Y-93208788D01*
X103011109Y-93208786D01*
X103136048Y-93036820D01*
X103136047Y-93036820D01*
X103136051Y-93036816D01*
X103232557Y-92847412D01*
X103298246Y-92645243D01*
X103331500Y-92435287D01*
X103331500Y-92222713D01*
X103298246Y-92012757D01*
X103232557Y-91810588D01*
X103136051Y-91621184D01*
X103136049Y-91621181D01*
X103136048Y-91621179D01*
X103011109Y-91449213D01*
X102860786Y-91298890D01*
X102688820Y-91173951D01*
X102688115Y-91173591D01*
X102680054Y-91169485D01*
X102629259Y-91121512D01*
X102612463Y-91053692D01*
X102634999Y-90987556D01*
X102680054Y-90948515D01*
X102688816Y-90944051D01*
X102710789Y-90928086D01*
X102860786Y-90819109D01*
X102860788Y-90819106D01*
X102860792Y-90819104D01*
X103011104Y-90668792D01*
X103011106Y-90668788D01*
X103011109Y-90668786D01*
X103136048Y-90496820D01*
X103136047Y-90496820D01*
X103136051Y-90496816D01*
X103232557Y-90307412D01*
X103298246Y-90105243D01*
X103331500Y-89895287D01*
X103331500Y-89682713D01*
X103298246Y-89472757D01*
X103232557Y-89270588D01*
X103136051Y-89081184D01*
X103136049Y-89081181D01*
X103136048Y-89081179D01*
X103011109Y-88909213D01*
X102860786Y-88758890D01*
X102688820Y-88633951D01*
X102688115Y-88633591D01*
X102680054Y-88629485D01*
X102629259Y-88581512D01*
X102612463Y-88513692D01*
X102634999Y-88447556D01*
X102680054Y-88408515D01*
X102688816Y-88404051D01*
X102710789Y-88388086D01*
X102860786Y-88279109D01*
X102860788Y-88279106D01*
X102860792Y-88279104D01*
X103011104Y-88128792D01*
X103011106Y-88128788D01*
X103011109Y-88128786D01*
X103136048Y-87956820D01*
X103136047Y-87956820D01*
X103136051Y-87956816D01*
X103232557Y-87767412D01*
X103298246Y-87565243D01*
X103331500Y-87355287D01*
X103331500Y-87142713D01*
X103298246Y-86932757D01*
X103232557Y-86730588D01*
X103136051Y-86541184D01*
X103136049Y-86541181D01*
X103136048Y-86541179D01*
X103011109Y-86369213D01*
X102860786Y-86218890D01*
X102688820Y-86093951D01*
X102687118Y-86093084D01*
X102680054Y-86089485D01*
X102629259Y-86041512D01*
X102612463Y-85973692D01*
X102634999Y-85907556D01*
X102680054Y-85868515D01*
X102688816Y-85864051D01*
X102710789Y-85848086D01*
X102860786Y-85739109D01*
X102860788Y-85739106D01*
X102860792Y-85739104D01*
X103011104Y-85588792D01*
X103011106Y-85588788D01*
X103011109Y-85588786D01*
X103136048Y-85416820D01*
X103136047Y-85416820D01*
X103136051Y-85416816D01*
X103232557Y-85227412D01*
X103298246Y-85025243D01*
X103331500Y-84815287D01*
X103331500Y-84602713D01*
X103298246Y-84392757D01*
X103232557Y-84190588D01*
X103136051Y-84001184D01*
X103136049Y-84001181D01*
X103136048Y-84001179D01*
X103011109Y-83829213D01*
X102860786Y-83678890D01*
X102688817Y-83553949D01*
X102679504Y-83549204D01*
X102628707Y-83501230D01*
X102611912Y-83433409D01*
X102634449Y-83367274D01*
X102679507Y-83328232D01*
X102688555Y-83323622D01*
X102742716Y-83284270D01*
X102742717Y-83284270D01*
X102110408Y-82651962D01*
X102173993Y-82634925D01*
X102288007Y-82569099D01*
X102381099Y-82476007D01*
X102446925Y-82361993D01*
X102463962Y-82298409D01*
X103096270Y-82930717D01*
X103096270Y-82930716D01*
X103135622Y-82876554D01*
X103232095Y-82687217D01*
X103297757Y-82485130D01*
X103297757Y-82485127D01*
X103331000Y-82275246D01*
X103331000Y-82062753D01*
X103297758Y-81852873D01*
X103244128Y-81687819D01*
X103242133Y-81617977D01*
X103278213Y-81558144D01*
X103340914Y-81527316D01*
X103362059Y-81525500D01*
X116773607Y-81525500D01*
X116834029Y-81513481D01*
X116894452Y-81501463D01*
X116927792Y-81487652D01*
X117008286Y-81454312D01*
X117059509Y-81420084D01*
X117110733Y-81385858D01*
X117197858Y-81298733D01*
X117197859Y-81298731D01*
X117204925Y-81291665D01*
X117204928Y-81291661D01*
X119754454Y-78742135D01*
X121599500Y-78742135D01*
X121599500Y-80537870D01*
X121599501Y-80537876D01*
X121605908Y-80597483D01*
X121656202Y-80732328D01*
X121656206Y-80732335D01*
X121742452Y-80847544D01*
X121742455Y-80847547D01*
X121857664Y-80933793D01*
X121857671Y-80933797D01*
X121902618Y-80950561D01*
X121992517Y-80984091D01*
X122052127Y-80990500D01*
X122062685Y-80990499D01*
X122129723Y-81010179D01*
X122150372Y-81026818D01*
X122820591Y-81697037D01*
X122757007Y-81714075D01*
X122642993Y-81779901D01*
X122549901Y-81872993D01*
X122484075Y-81987007D01*
X122467037Y-82050591D01*
X121834728Y-81418282D01*
X121834727Y-81418282D01*
X121795380Y-81472439D01*
X121698904Y-81661782D01*
X121633242Y-81863869D01*
X121633242Y-81863872D01*
X121600000Y-82073753D01*
X121600000Y-82286246D01*
X121633242Y-82496127D01*
X121633242Y-82496130D01*
X121698904Y-82698217D01*
X121795375Y-82887550D01*
X121834728Y-82941716D01*
X122467037Y-82309408D01*
X122484075Y-82372993D01*
X122549901Y-82487007D01*
X122642993Y-82580099D01*
X122757007Y-82645925D01*
X122820590Y-82662962D01*
X122188282Y-83295269D01*
X122188282Y-83295270D01*
X122242452Y-83334626D01*
X122242451Y-83334626D01*
X122251495Y-83339234D01*
X122302292Y-83387208D01*
X122319087Y-83455029D01*
X122296550Y-83521164D01*
X122251499Y-83560202D01*
X122242182Y-83564949D01*
X122070213Y-83689890D01*
X121919890Y-83840213D01*
X121794951Y-84012179D01*
X121698444Y-84201585D01*
X121632753Y-84403760D01*
X121599500Y-84613713D01*
X121599500Y-84826286D01*
X121632753Y-85036239D01*
X121698444Y-85238414D01*
X121794951Y-85427820D01*
X121919890Y-85599786D01*
X122070213Y-85750109D01*
X122242182Y-85875050D01*
X122250946Y-85879516D01*
X122301742Y-85927491D01*
X122318536Y-85995312D01*
X122295998Y-86061447D01*
X122250946Y-86100484D01*
X122242182Y-86104949D01*
X122070213Y-86229890D01*
X121919890Y-86380213D01*
X121794951Y-86552179D01*
X121698444Y-86741585D01*
X121632753Y-86943760D01*
X121612918Y-87068993D01*
X121599500Y-87153713D01*
X121599500Y-87366287D01*
X121601039Y-87376001D01*
X121631605Y-87568993D01*
X121632754Y-87576243D01*
X121697691Y-87776099D01*
X121698444Y-87778414D01*
X121794951Y-87967820D01*
X121919890Y-88139786D01*
X122070213Y-88290109D01*
X122242182Y-88415050D01*
X122250946Y-88419516D01*
X122301742Y-88467491D01*
X122318536Y-88535312D01*
X122295998Y-88601447D01*
X122250946Y-88640484D01*
X122242182Y-88644949D01*
X122070213Y-88769890D01*
X121919890Y-88920213D01*
X121794951Y-89092179D01*
X121698444Y-89281585D01*
X121632753Y-89483760D01*
X121599500Y-89693713D01*
X121599500Y-89906286D01*
X121632753Y-90116239D01*
X121698444Y-90318414D01*
X121794951Y-90507820D01*
X121919890Y-90679786D01*
X122070213Y-90830109D01*
X122242182Y-90955050D01*
X122250946Y-90959516D01*
X122301742Y-91007491D01*
X122318536Y-91075312D01*
X122295998Y-91141447D01*
X122250946Y-91180484D01*
X122242182Y-91184949D01*
X122070213Y-91309890D01*
X121919890Y-91460213D01*
X121794951Y-91632179D01*
X121698444Y-91821585D01*
X121632753Y-92023760D01*
X121599500Y-92233713D01*
X121599500Y-92446286D01*
X121631011Y-92645243D01*
X121632754Y-92656243D01*
X121681370Y-92805868D01*
X121698444Y-92858414D01*
X121794951Y-93047820D01*
X121919890Y-93219786D01*
X122070213Y-93370109D01*
X122242182Y-93495050D01*
X122250946Y-93499516D01*
X122301742Y-93547491D01*
X122318536Y-93615312D01*
X122295998Y-93681447D01*
X122250946Y-93720484D01*
X122242182Y-93724949D01*
X122070213Y-93849890D01*
X121919890Y-94000213D01*
X121794951Y-94172179D01*
X121698444Y-94361585D01*
X121632753Y-94563760D01*
X121599500Y-94773713D01*
X121599500Y-94986286D01*
X121631011Y-95185243D01*
X121632754Y-95196243D01*
X121648399Y-95244394D01*
X121698444Y-95398414D01*
X121794951Y-95587820D01*
X121919890Y-95759786D01*
X122070213Y-95910109D01*
X122242182Y-96035050D01*
X122250946Y-96039516D01*
X122301742Y-96087491D01*
X122318536Y-96155312D01*
X122295998Y-96221447D01*
X122250946Y-96260484D01*
X122242182Y-96264949D01*
X122070213Y-96389890D01*
X121919890Y-96540213D01*
X121794951Y-96712179D01*
X121698444Y-96901585D01*
X121632753Y-97103760D01*
X121599500Y-97313713D01*
X121599500Y-97526286D01*
X121631011Y-97725243D01*
X121632754Y-97736243D01*
X121678365Y-97876620D01*
X121698444Y-97938414D01*
X121794951Y-98127820D01*
X121919890Y-98299786D01*
X122070213Y-98450109D01*
X122242179Y-98575048D01*
X122242181Y-98575049D01*
X122242184Y-98575051D01*
X122431588Y-98671557D01*
X122633757Y-98737246D01*
X122843713Y-98770500D01*
X122843714Y-98770500D01*
X123056286Y-98770500D01*
X123056287Y-98770500D01*
X123266243Y-98737246D01*
X123468412Y-98671557D01*
X123657816Y-98575051D01*
X123688814Y-98552530D01*
X123829786Y-98450109D01*
X123829788Y-98450106D01*
X123829792Y-98450104D01*
X123980104Y-98299792D01*
X123980106Y-98299788D01*
X123980109Y-98299786D01*
X124105048Y-98127820D01*
X124105047Y-98127820D01*
X124105051Y-98127816D01*
X124201557Y-97938412D01*
X124267246Y-97736243D01*
X124300500Y-97526287D01*
X124300500Y-97313713D01*
X124267246Y-97103757D01*
X124201557Y-96901588D01*
X124105051Y-96712184D01*
X124105049Y-96712181D01*
X124105048Y-96712179D01*
X123980109Y-96540213D01*
X123829786Y-96389890D01*
X123657820Y-96264951D01*
X123657115Y-96264591D01*
X123649054Y-96260485D01*
X123598259Y-96212512D01*
X123581463Y-96144692D01*
X123603999Y-96078556D01*
X123649054Y-96039515D01*
X123657816Y-96035051D01*
X123679789Y-96019086D01*
X123829786Y-95910109D01*
X123829788Y-95910106D01*
X123829792Y-95910104D01*
X123980104Y-95759792D01*
X123980106Y-95759788D01*
X123980109Y-95759786D01*
X124105048Y-95587820D01*
X124105047Y-95587820D01*
X124105051Y-95587816D01*
X124201557Y-95398412D01*
X124267246Y-95196243D01*
X124300500Y-94986287D01*
X124300500Y-94773713D01*
X124267246Y-94563757D01*
X124201557Y-94361588D01*
X124105051Y-94172184D01*
X124105049Y-94172181D01*
X124105048Y-94172179D01*
X123980109Y-94000213D01*
X123829786Y-93849890D01*
X123657820Y-93724951D01*
X123657115Y-93724591D01*
X123649054Y-93720485D01*
X123598259Y-93672512D01*
X123581463Y-93604692D01*
X123603999Y-93538556D01*
X123649054Y-93499515D01*
X123657816Y-93495051D01*
X123679789Y-93479086D01*
X123829786Y-93370109D01*
X123829788Y-93370106D01*
X123829792Y-93370104D01*
X123980104Y-93219792D01*
X123980106Y-93219788D01*
X123980109Y-93219786D01*
X124105048Y-93047820D01*
X124105047Y-93047820D01*
X124105051Y-93047816D01*
X124201557Y-92858412D01*
X124267246Y-92656243D01*
X124300500Y-92446287D01*
X124300500Y-92233713D01*
X124267246Y-92023757D01*
X124201557Y-91821588D01*
X124105051Y-91632184D01*
X124105049Y-91632181D01*
X124105048Y-91632179D01*
X123980109Y-91460213D01*
X123829786Y-91309890D01*
X123657820Y-91184951D01*
X123657115Y-91184591D01*
X123649054Y-91180485D01*
X123598259Y-91132512D01*
X123581463Y-91064692D01*
X123603999Y-90998556D01*
X123649054Y-90959515D01*
X123657816Y-90955051D01*
X123679789Y-90939086D01*
X123829786Y-90830109D01*
X123829788Y-90830106D01*
X123829792Y-90830104D01*
X123980104Y-90679792D01*
X123980106Y-90679788D01*
X123980109Y-90679786D01*
X124105048Y-90507820D01*
X124105047Y-90507820D01*
X124105051Y-90507816D01*
X124201557Y-90318412D01*
X124267246Y-90116243D01*
X124300500Y-89906287D01*
X124300500Y-89693713D01*
X124267246Y-89483757D01*
X124201557Y-89281588D01*
X124105051Y-89092184D01*
X124105049Y-89092181D01*
X124105048Y-89092179D01*
X123980109Y-88920213D01*
X123829786Y-88769890D01*
X123657820Y-88644951D01*
X123657115Y-88644591D01*
X123649054Y-88640485D01*
X123598259Y-88592512D01*
X123581463Y-88524692D01*
X123603999Y-88458556D01*
X123649054Y-88419515D01*
X123657816Y-88415051D01*
X123679789Y-88399086D01*
X123829786Y-88290109D01*
X123829788Y-88290106D01*
X123829792Y-88290104D01*
X123980104Y-88139792D01*
X123980106Y-88139788D01*
X123980109Y-88139786D01*
X124105048Y-87967820D01*
X124105047Y-87967820D01*
X124105051Y-87967816D01*
X124201557Y-87778412D01*
X124267246Y-87576243D01*
X124300500Y-87366287D01*
X124300500Y-87153713D01*
X124267246Y-86943757D01*
X124201557Y-86741588D01*
X124105051Y-86552184D01*
X124105049Y-86552181D01*
X124105048Y-86552179D01*
X123980109Y-86380213D01*
X123829786Y-86229890D01*
X123657820Y-86104951D01*
X123657115Y-86104591D01*
X123649054Y-86100485D01*
X123598259Y-86052512D01*
X123581463Y-85984692D01*
X123603999Y-85918556D01*
X123649054Y-85879515D01*
X123657816Y-85875051D01*
X123679789Y-85859086D01*
X123829786Y-85750109D01*
X123829788Y-85750106D01*
X123829792Y-85750104D01*
X123980104Y-85599792D01*
X123980106Y-85599788D01*
X123980109Y-85599786D01*
X124105048Y-85427820D01*
X124105047Y-85427820D01*
X124105051Y-85427816D01*
X124201557Y-85238412D01*
X124267246Y-85036243D01*
X124300500Y-84826287D01*
X124300500Y-84613713D01*
X124267246Y-84403757D01*
X124201557Y-84201588D01*
X124105051Y-84012184D01*
X124105049Y-84012181D01*
X124105048Y-84012179D01*
X123980109Y-83840213D01*
X123829786Y-83689890D01*
X123657817Y-83564949D01*
X123648504Y-83560204D01*
X123597707Y-83512230D01*
X123580912Y-83444409D01*
X123603449Y-83378274D01*
X123648507Y-83339232D01*
X123657555Y-83334622D01*
X123711716Y-83295270D01*
X123711717Y-83295270D01*
X123079408Y-82662962D01*
X123142993Y-82645925D01*
X123257007Y-82580099D01*
X123350099Y-82487007D01*
X123415925Y-82372993D01*
X123432962Y-82309409D01*
X124065270Y-82941717D01*
X124065270Y-82941716D01*
X124104622Y-82887554D01*
X124201095Y-82698217D01*
X124266757Y-82496130D01*
X124266757Y-82496127D01*
X124300000Y-82286246D01*
X124300000Y-82073753D01*
X124266757Y-81863872D01*
X124266757Y-81863869D01*
X124201095Y-81661782D01*
X124104624Y-81472449D01*
X124065270Y-81418282D01*
X124065269Y-81418282D01*
X123432962Y-82050590D01*
X123415925Y-81987007D01*
X123350099Y-81872993D01*
X123257007Y-81779901D01*
X123142993Y-81714075D01*
X123079409Y-81697037D01*
X123749627Y-81026818D01*
X123810950Y-80993333D01*
X123837307Y-80990499D01*
X123847872Y-80990499D01*
X123907483Y-80984091D01*
X124042331Y-80933796D01*
X124157546Y-80847546D01*
X124243796Y-80732331D01*
X124294091Y-80597483D01*
X124300500Y-80537873D01*
X124300499Y-78742128D01*
X124294091Y-78682517D01*
X124288869Y-78668517D01*
X124243797Y-78547671D01*
X124243793Y-78547664D01*
X124157547Y-78432455D01*
X124157544Y-78432452D01*
X124042335Y-78346206D01*
X124042328Y-78346202D01*
X123907482Y-78295908D01*
X123907483Y-78295908D01*
X123847883Y-78289501D01*
X123847881Y-78289500D01*
X123847873Y-78289500D01*
X123847864Y-78289500D01*
X122052129Y-78289500D01*
X122052123Y-78289501D01*
X121992516Y-78295908D01*
X121857671Y-78346202D01*
X121857664Y-78346206D01*
X121742455Y-78432452D01*
X121742452Y-78432455D01*
X121656206Y-78547664D01*
X121656202Y-78547671D01*
X121605908Y-78682517D01*
X121601005Y-78728127D01*
X121599501Y-78742123D01*
X121599500Y-78742135D01*
X119754454Y-78742135D01*
X122478162Y-76018426D01*
X122539483Y-75984943D01*
X122604162Y-75988179D01*
X122619757Y-75993246D01*
X122829713Y-76026500D01*
X122829714Y-76026500D01*
X123042286Y-76026500D01*
X123042287Y-76026500D01*
X123252243Y-75993246D01*
X123454412Y-75927557D01*
X123643816Y-75831051D01*
X123758738Y-75747556D01*
X123815786Y-75706109D01*
X123815788Y-75706106D01*
X123815792Y-75706104D01*
X123966104Y-75555792D01*
X123966106Y-75555788D01*
X123966109Y-75555786D01*
X124091048Y-75383820D01*
X124091047Y-75383820D01*
X124091051Y-75383816D01*
X124187557Y-75194412D01*
X124253246Y-74992243D01*
X124286500Y-74782287D01*
X124286500Y-74569713D01*
X124253246Y-74359757D01*
X124187557Y-74157588D01*
X124091051Y-73968184D01*
X124091049Y-73968181D01*
X124091048Y-73968179D01*
X123966109Y-73796213D01*
X123815786Y-73645890D01*
X123643817Y-73520949D01*
X123634504Y-73516204D01*
X123583707Y-73468230D01*
X123566912Y-73400409D01*
X123589449Y-73334274D01*
X123634507Y-73295232D01*
X123643555Y-73290622D01*
X123697716Y-73251270D01*
X123697717Y-73251270D01*
X123065408Y-72618962D01*
X123128993Y-72601925D01*
X123243007Y-72536099D01*
X123336099Y-72443007D01*
X123401925Y-72328993D01*
X123418962Y-72265408D01*
X124051270Y-72897717D01*
X124051270Y-72897716D01*
X124090622Y-72843554D01*
X124187095Y-72654217D01*
X124252757Y-72452130D01*
X124252757Y-72452127D01*
X124286000Y-72242246D01*
X124286000Y-72029753D01*
X124252757Y-71819872D01*
X124252757Y-71819869D01*
X124187095Y-71617782D01*
X124090624Y-71428449D01*
X124051270Y-71374282D01*
X124051269Y-71374282D01*
X123418962Y-72006590D01*
X123401925Y-71943007D01*
X123336099Y-71828993D01*
X123243007Y-71735901D01*
X123128993Y-71670075D01*
X123065408Y-71653037D01*
X123697716Y-71020728D01*
X123643547Y-70981373D01*
X123643547Y-70981372D01*
X123634500Y-70976763D01*
X123583706Y-70928788D01*
X123566912Y-70860966D01*
X123589451Y-70794832D01*
X123634508Y-70755793D01*
X123643816Y-70751051D01*
X123758738Y-70667556D01*
X123815786Y-70626109D01*
X123815788Y-70626106D01*
X123815792Y-70626104D01*
X123966104Y-70475792D01*
X123966106Y-70475788D01*
X123966109Y-70475786D01*
X124091048Y-70303820D01*
X124091047Y-70303820D01*
X124091051Y-70303816D01*
X124187557Y-70114412D01*
X124253246Y-69912243D01*
X124286500Y-69702287D01*
X124286500Y-69489713D01*
X124253246Y-69279757D01*
X124187557Y-69077588D01*
X124091051Y-68888184D01*
X124091049Y-68888181D01*
X124091048Y-68888179D01*
X123966109Y-68716213D01*
X123815786Y-68565890D01*
X123643820Y-68440951D01*
X123643115Y-68440591D01*
X123635054Y-68436485D01*
X123584259Y-68388512D01*
X123567463Y-68320692D01*
X123589999Y-68254556D01*
X123635054Y-68215515D01*
X123643816Y-68211051D01*
X123746363Y-68136547D01*
X123815786Y-68086109D01*
X123815788Y-68086106D01*
X123815792Y-68086104D01*
X123966104Y-67935792D01*
X123966106Y-67935788D01*
X123966109Y-67935786D01*
X124091048Y-67763820D01*
X124091047Y-67763820D01*
X124091051Y-67763816D01*
X124187557Y-67574412D01*
X124253246Y-67372243D01*
X124286500Y-67162287D01*
X124286500Y-66949713D01*
X124253246Y-66739757D01*
X124187557Y-66537588D01*
X124091051Y-66348184D01*
X124091049Y-66348181D01*
X124091048Y-66348179D01*
X123966109Y-66176213D01*
X123815786Y-66025890D01*
X123643820Y-65900951D01*
X123643115Y-65900591D01*
X123635054Y-65896485D01*
X123584259Y-65848512D01*
X123567463Y-65780692D01*
X123589999Y-65714556D01*
X123635054Y-65675515D01*
X123643816Y-65671051D01*
X123693158Y-65635202D01*
X123815786Y-65546109D01*
X123815788Y-65546106D01*
X123815792Y-65546104D01*
X123966104Y-65395792D01*
X123966106Y-65395788D01*
X123966109Y-65395786D01*
X124091048Y-65223820D01*
X124091047Y-65223820D01*
X124091051Y-65223816D01*
X124187557Y-65034412D01*
X124253246Y-64832243D01*
X124286500Y-64622287D01*
X124286500Y-64409713D01*
X124253246Y-64199757D01*
X124187557Y-63997588D01*
X124091051Y-63808184D01*
X124091049Y-63808181D01*
X124091048Y-63808179D01*
X123966109Y-63636213D01*
X123852569Y-63522673D01*
X123819084Y-63461350D01*
X123824068Y-63391658D01*
X123865940Y-63335725D01*
X123896915Y-63318810D01*
X124028331Y-63269796D01*
X124143546Y-63183546D01*
X124229796Y-63068331D01*
X124280091Y-62933483D01*
X124286500Y-62873873D01*
X124286499Y-61078128D01*
X124280091Y-61018517D01*
X124229796Y-60883669D01*
X124229795Y-60883668D01*
X124229793Y-60883664D01*
X124143547Y-60768455D01*
X124143544Y-60768452D01*
X124028335Y-60682206D01*
X124028328Y-60682202D01*
X123893482Y-60631908D01*
X123893483Y-60631908D01*
X123833883Y-60625501D01*
X123833881Y-60625500D01*
X123833873Y-60625500D01*
X123833864Y-60625500D01*
X122038129Y-60625500D01*
X122038123Y-60625501D01*
X121978516Y-60631908D01*
X121843671Y-60682202D01*
X121843664Y-60682206D01*
X121728455Y-60768452D01*
X121728452Y-60768455D01*
X121642206Y-60883664D01*
X121642202Y-60883671D01*
X121591908Y-61018517D01*
X121585501Y-61078116D01*
X121585501Y-61078123D01*
X121585500Y-61078135D01*
X121585500Y-62873870D01*
X121585501Y-62873876D01*
X121591908Y-62933483D01*
X121642202Y-63068328D01*
X121642206Y-63068335D01*
X121728452Y-63183544D01*
X121728455Y-63183547D01*
X121843664Y-63269793D01*
X121843671Y-63269797D01*
X121975082Y-63318810D01*
X122031016Y-63360681D01*
X122055433Y-63426145D01*
X122040582Y-63494418D01*
X122019431Y-63522673D01*
X121905889Y-63636215D01*
X121780951Y-63808179D01*
X121684444Y-63997585D01*
X121618753Y-64199760D01*
X121589421Y-64384957D01*
X121585500Y-64409713D01*
X121585500Y-64622287D01*
X121618754Y-64832243D01*
X121683806Y-65032452D01*
X121684444Y-65034414D01*
X121780951Y-65223820D01*
X121905890Y-65395786D01*
X122056213Y-65546109D01*
X122228182Y-65671050D01*
X122236946Y-65675516D01*
X122287742Y-65723491D01*
X122304536Y-65791312D01*
X122281998Y-65857447D01*
X122236946Y-65896484D01*
X122228182Y-65900949D01*
X122056213Y-66025890D01*
X121905890Y-66176213D01*
X121780951Y-66348179D01*
X121684444Y-66537585D01*
X121618753Y-66739760D01*
X121585500Y-66949713D01*
X121585500Y-67162286D01*
X121618753Y-67372241D01*
X121623821Y-67387837D01*
X121625816Y-67457678D01*
X121593571Y-67513837D01*
X117760229Y-71347181D01*
X117698906Y-71380666D01*
X117672548Y-71383500D01*
X105984200Y-71383500D01*
X105959730Y-71376314D01*
X105934433Y-71373075D01*
X105926765Y-71366635D01*
X105917161Y-71363815D01*
X105900462Y-71344543D01*
X105880930Y-71328139D01*
X105877961Y-71318576D01*
X105871406Y-71311011D01*
X105867776Y-71285768D01*
X105860215Y-71261411D01*
X105862886Y-71251763D01*
X105861462Y-71241853D01*
X105872057Y-71218652D01*
X105878864Y-71194076D01*
X105887231Y-71185425D01*
X105890487Y-71178297D01*
X105901563Y-71167050D01*
X105908065Y-71161237D01*
X105953533Y-71130858D01*
X106040658Y-71043733D01*
X106040660Y-71043729D01*
X112629371Y-64455018D01*
X112690694Y-64421533D01*
X112717052Y-64418699D01*
X114029471Y-64418699D01*
X114029472Y-64418699D01*
X114089083Y-64412291D01*
X114223931Y-64361996D01*
X114339146Y-64275746D01*
X114425396Y-64160531D01*
X114475691Y-64025683D01*
X114482100Y-63966073D01*
X114482099Y-62170328D01*
X114475691Y-62110717D01*
X114434468Y-62000193D01*
X114425397Y-61975871D01*
X114425393Y-61975864D01*
X114339147Y-61860655D01*
X114339144Y-61860652D01*
X114223935Y-61774406D01*
X114223928Y-61774402D01*
X114089082Y-61724108D01*
X114089083Y-61724108D01*
X114029483Y-61717701D01*
X114029481Y-61717700D01*
X114029473Y-61717700D01*
X114029464Y-61717700D01*
X112233729Y-61717700D01*
X112233723Y-61717701D01*
X112174116Y-61724108D01*
X112039271Y-61774402D01*
X112039264Y-61774406D01*
X111924055Y-61860652D01*
X111924052Y-61860655D01*
X111837806Y-61975864D01*
X111837802Y-61975871D01*
X111787508Y-62110717D01*
X111781101Y-62170316D01*
X111781101Y-62170323D01*
X111781100Y-62170335D01*
X111781100Y-62180890D01*
X111761415Y-62247929D01*
X111744781Y-62268571D01*
X111074562Y-62938790D01*
X111057525Y-62875207D01*
X110991699Y-62761193D01*
X110898607Y-62668101D01*
X110784593Y-62602275D01*
X110721009Y-62585237D01*
X111353316Y-61952928D01*
X111299150Y-61913575D01*
X111109817Y-61817104D01*
X110907729Y-61751442D01*
X110697846Y-61718200D01*
X110485354Y-61718200D01*
X110275472Y-61751442D01*
X110275469Y-61751442D01*
X110073382Y-61817104D01*
X109884039Y-61913580D01*
X109829882Y-61952927D01*
X109829882Y-61952928D01*
X110462191Y-62585237D01*
X110398607Y-62602275D01*
X110284593Y-62668101D01*
X110191501Y-62761193D01*
X110125675Y-62875207D01*
X110108637Y-62938791D01*
X109476328Y-62306482D01*
X109476327Y-62306482D01*
X109436980Y-62360639D01*
X109340504Y-62549982D01*
X109274842Y-62752069D01*
X109274842Y-62752072D01*
X109241600Y-62961953D01*
X109241600Y-63174446D01*
X109274842Y-63384327D01*
X109274842Y-63384330D01*
X109340504Y-63586417D01*
X109436975Y-63775750D01*
X109476328Y-63829916D01*
X110108637Y-63197608D01*
X110125675Y-63261193D01*
X110191501Y-63375207D01*
X110284593Y-63468299D01*
X110398607Y-63534125D01*
X110462190Y-63551162D01*
X109829882Y-64183469D01*
X109829882Y-64183470D01*
X109884049Y-64222824D01*
X110073382Y-64319295D01*
X110275470Y-64384957D01*
X110485354Y-64418200D01*
X110597646Y-64418200D01*
X110664685Y-64437885D01*
X110710440Y-64490689D01*
X110720384Y-64559847D01*
X110691359Y-64623403D01*
X110685327Y-64629881D01*
X105332029Y-69983181D01*
X105270706Y-70016666D01*
X105244348Y-70019500D01*
X103392802Y-70019500D01*
X103325763Y-69999815D01*
X103280008Y-69947011D01*
X103270064Y-69877853D01*
X103274871Y-69857182D01*
X103298246Y-69785243D01*
X103331500Y-69575287D01*
X103331500Y-69362713D01*
X103298246Y-69152757D01*
X103232557Y-68950588D01*
X103136051Y-68761184D01*
X103136049Y-68761181D01*
X103136048Y-68761179D01*
X103011109Y-68589213D01*
X102897181Y-68475285D01*
X102863696Y-68413962D01*
X102868680Y-68344270D01*
X102910552Y-68288337D01*
X102941529Y-68271422D01*
X103073086Y-68222354D01*
X103073093Y-68222350D01*
X103188187Y-68136190D01*
X103188190Y-68136187D01*
X103274350Y-68021093D01*
X103274354Y-68021086D01*
X103324596Y-67886379D01*
X103324598Y-67886372D01*
X103330999Y-67826844D01*
X103331000Y-67826827D01*
X103331000Y-67179000D01*
X102414012Y-67179000D01*
X102446925Y-67121993D01*
X102481000Y-66994826D01*
X102481000Y-66863174D01*
X102446925Y-66736007D01*
X102414012Y-66679000D01*
X103331000Y-66679000D01*
X103331000Y-66031172D01*
X103330999Y-66031155D01*
X103324598Y-65971627D01*
X103324596Y-65971620D01*
X103274354Y-65836913D01*
X103274350Y-65836906D01*
X103188190Y-65721812D01*
X103188187Y-65721809D01*
X103073093Y-65635649D01*
X103073086Y-65635645D01*
X102938379Y-65585403D01*
X102938372Y-65585401D01*
X102878844Y-65579000D01*
X102231000Y-65579000D01*
X102231000Y-66495988D01*
X102173993Y-66463075D01*
X102046826Y-66429000D01*
X101915174Y-66429000D01*
X101788007Y-66463075D01*
X101731000Y-66495988D01*
X101731000Y-65579000D01*
X101083155Y-65579000D01*
X101023627Y-65585401D01*
X101023620Y-65585403D01*
X100888913Y-65635645D01*
X100888906Y-65635649D01*
X100773812Y-65721809D01*
X100773809Y-65721812D01*
X100687649Y-65836906D01*
X100687645Y-65836913D01*
X100637403Y-65971620D01*
X100637401Y-65971627D01*
X100631000Y-66031155D01*
X100631000Y-66679000D01*
X101547988Y-66679000D01*
X101515075Y-66736007D01*
X101481000Y-66863174D01*
X101481000Y-66994826D01*
X101515075Y-67121993D01*
X101547988Y-67179000D01*
X100631000Y-67179000D01*
X100631000Y-67826844D01*
X100637401Y-67886372D01*
X100637403Y-67886379D01*
X100687645Y-68021086D01*
X100687649Y-68021093D01*
X100773809Y-68136187D01*
X100773812Y-68136190D01*
X100888906Y-68222350D01*
X100888913Y-68222354D01*
X101020470Y-68271422D01*
X101076404Y-68313293D01*
X101100821Y-68378758D01*
X101085969Y-68447031D01*
X101064819Y-68475285D01*
X100950889Y-68589215D01*
X100825951Y-68761179D01*
X100729444Y-68950585D01*
X100663753Y-69152760D01*
X100630500Y-69362713D01*
X100630500Y-69575287D01*
X100663754Y-69785243D01*
X100728068Y-69983181D01*
X100729444Y-69987414D01*
X100825948Y-70176815D01*
X100948655Y-70345708D01*
X100972134Y-70411515D01*
X100956308Y-70479569D01*
X100936017Y-70506274D01*
X96621269Y-74821024D01*
X96534144Y-74908148D01*
X96534138Y-74908156D01*
X96465690Y-75010592D01*
X96465688Y-75010597D01*
X96439123Y-75074732D01*
X96418539Y-75124425D01*
X96418535Y-75124439D01*
X96394500Y-75245273D01*
X96394500Y-78970638D01*
X96374815Y-79037677D01*
X96358181Y-79058319D01*
X96320538Y-79095961D01*
X96320535Y-79095965D01*
X96221990Y-79243446D01*
X96221983Y-79243459D01*
X96154106Y-79407332D01*
X96154103Y-79407341D01*
X96119500Y-79581304D01*
X96119500Y-79758695D01*
X96154103Y-79932658D01*
X96154106Y-79932667D01*
X96224318Y-80102176D01*
X96221900Y-80103177D01*
X96233822Y-80160460D01*
X96208817Y-80225702D01*
X96152508Y-80267067D01*
X96110223Y-80274500D01*
X91880453Y-80274500D01*
X91813414Y-80254815D01*
X91792772Y-80238181D01*
X78087896Y-66533305D01*
X78084860Y-66530269D01*
X78084858Y-66530267D01*
X77997733Y-66443142D01*
X77946509Y-66408915D01*
X77895286Y-66374688D01*
X77895283Y-66374686D01*
X77895280Y-66374685D01*
X77855647Y-66358269D01*
X77801243Y-66314428D01*
X77779178Y-66248134D01*
X77779099Y-66243708D01*
X77779099Y-66031129D01*
X77779098Y-66031123D01*
X77779097Y-66031116D01*
X77772691Y-65971517D01*
X77744706Y-65896486D01*
X77722397Y-65836671D01*
X77722393Y-65836664D01*
X77636147Y-65721455D01*
X77636144Y-65721452D01*
X77520935Y-65635206D01*
X77520928Y-65635202D01*
X77386082Y-65584908D01*
X77386083Y-65584908D01*
X77326483Y-65578501D01*
X77326481Y-65578500D01*
X77326473Y-65578500D01*
X77326464Y-65578500D01*
X75530729Y-65578500D01*
X75530723Y-65578501D01*
X75471116Y-65584908D01*
X75336271Y-65635202D01*
X75336264Y-65635206D01*
X75221055Y-65721452D01*
X75221052Y-65721455D01*
X75134806Y-65836664D01*
X75134802Y-65836671D01*
X75084508Y-65971517D01*
X75078663Y-66025890D01*
X75078101Y-66031123D01*
X75078100Y-66031135D01*
X72550499Y-66031135D01*
X72550499Y-65342128D01*
X72544091Y-65282517D01*
X72539124Y-65269201D01*
X72493797Y-65147671D01*
X72493793Y-65147664D01*
X72407547Y-65032455D01*
X72407544Y-65032452D01*
X72292335Y-64946206D01*
X72292328Y-64946202D01*
X72157482Y-64895908D01*
X72157483Y-64895908D01*
X72097883Y-64889501D01*
X72097881Y-64889500D01*
X72097873Y-64889500D01*
X72097864Y-64889500D01*
X69802129Y-64889500D01*
X69802123Y-64889501D01*
X69742516Y-64895908D01*
X69607671Y-64946202D01*
X69607664Y-64946206D01*
X69492455Y-65032452D01*
X69492452Y-65032455D01*
X69406206Y-65147664D01*
X69406202Y-65147671D01*
X69355908Y-65282517D01*
X69349501Y-65342116D01*
X69349501Y-65342123D01*
X69349500Y-65342135D01*
X69349500Y-67637870D01*
X69349501Y-67637876D01*
X69355908Y-67697483D01*
X69406202Y-67832328D01*
X69406206Y-67832335D01*
X69492452Y-67947544D01*
X69492455Y-67947547D01*
X69607664Y-68033793D01*
X69607671Y-68033797D01*
X69742517Y-68084091D01*
X69742516Y-68084091D01*
X69749444Y-68084835D01*
X69802127Y-68090500D01*
X71130500Y-68090499D01*
X71197539Y-68110184D01*
X71243294Y-68162987D01*
X71254500Y-68214499D01*
X71254500Y-106546904D01*
X71234815Y-106613943D01*
X71182011Y-106659698D01*
X71112853Y-106669642D01*
X71057616Y-106647223D01*
X71031352Y-106628141D01*
X70849031Y-106535244D01*
X70654417Y-106472009D01*
X70452317Y-106440000D01*
X70247683Y-106440000D01*
X70045582Y-106472009D01*
X69850968Y-106535244D01*
X69668644Y-106628143D01*
X69624077Y-106660523D01*
X69624077Y-106660524D01*
X70303554Y-107340000D01*
X70297339Y-107340000D01*
X70195606Y-107367259D01*
X70104394Y-107419920D01*
X70029920Y-107494394D01*
X69977259Y-107585606D01*
X69950000Y-107687339D01*
X69950000Y-107693553D01*
X69270524Y-107014077D01*
X69270523Y-107014077D01*
X69238143Y-107058644D01*
X69145244Y-107240968D01*
X69082009Y-107435582D01*
X69050000Y-107637682D01*
X52867571Y-107637682D01*
X52867437Y-105060000D01*
X61439652Y-105060000D01*
X62529252Y-105060000D01*
X62507482Y-105097708D01*
X62470000Y-105237591D01*
X62470000Y-105382409D01*
X62507482Y-105522292D01*
X62529252Y-105560000D01*
X61439652Y-105560000D01*
X61459397Y-105684668D01*
X61459397Y-105684671D01*
X61537219Y-105924184D01*
X61651557Y-106148583D01*
X61799590Y-106352331D01*
X61799590Y-106352332D01*
X61977667Y-106530409D01*
X62181416Y-106678442D01*
X62405815Y-106792780D01*
X62645329Y-106870602D01*
X62770000Y-106890348D01*
X62770000Y-105800747D01*
X62807708Y-105822518D01*
X62947591Y-105860000D01*
X63092409Y-105860000D01*
X63232292Y-105822518D01*
X63270000Y-105800747D01*
X63270000Y-106890347D01*
X63394668Y-106870602D01*
X63394671Y-106870602D01*
X63634184Y-106792780D01*
X63858583Y-106678442D01*
X64062331Y-106530409D01*
X64062332Y-106530409D01*
X64240409Y-106352332D01*
X64240409Y-106352331D01*
X64388442Y-106148583D01*
X64502780Y-105924184D01*
X64580602Y-105684671D01*
X64580602Y-105684668D01*
X64600348Y-105560000D01*
X63510748Y-105560000D01*
X63532518Y-105522292D01*
X63570000Y-105382409D01*
X63570000Y-105237591D01*
X63545900Y-105147648D01*
X66519500Y-105147648D01*
X66519500Y-105352351D01*
X66551522Y-105554534D01*
X66614781Y-105749223D01*
X66671226Y-105860000D01*
X66703929Y-105924184D01*
X66707715Y-105931613D01*
X66828028Y-106097213D01*
X66972786Y-106241971D01*
X67097621Y-106332667D01*
X67138390Y-106362287D01*
X67231023Y-106409486D01*
X67320776Y-106455218D01*
X67320778Y-106455218D01*
X67320781Y-106455220D01*
X67410920Y-106484508D01*
X67515465Y-106518477D01*
X67590800Y-106530409D01*
X67717648Y-106550500D01*
X67717649Y-106550500D01*
X67922351Y-106550500D01*
X67922352Y-106550500D01*
X68124534Y-106518477D01*
X68319219Y-106455220D01*
X68501610Y-106362287D01*
X68614103Y-106280557D01*
X68667213Y-106241971D01*
X68667215Y-106241968D01*
X68667219Y-106241966D01*
X68811966Y-106097219D01*
X68811968Y-106097215D01*
X68811971Y-106097213D01*
X68864732Y-106024590D01*
X68932287Y-105931610D01*
X69025220Y-105749219D01*
X69088477Y-105554534D01*
X69120500Y-105352352D01*
X69120500Y-105147648D01*
X69088477Y-104945466D01*
X69025220Y-104750781D01*
X69025218Y-104750778D01*
X69025218Y-104750776D01*
X68991503Y-104684607D01*
X68932287Y-104568390D01*
X68890290Y-104510585D01*
X68811971Y-104402786D01*
X68667213Y-104258028D01*
X68501613Y-104137715D01*
X68501612Y-104137714D01*
X68501610Y-104137713D01*
X68444653Y-104108691D01*
X68319223Y-104044781D01*
X68124534Y-103981522D01*
X67949995Y-103953878D01*
X67922352Y-103949500D01*
X67717648Y-103949500D01*
X67693329Y-103953351D01*
X67515465Y-103981522D01*
X67320776Y-104044781D01*
X67138386Y-104137715D01*
X66972786Y-104258028D01*
X66828028Y-104402786D01*
X66707715Y-104568386D01*
X66614781Y-104750776D01*
X66551522Y-104945465D01*
X66519500Y-105147648D01*
X63545900Y-105147648D01*
X63532518Y-105097708D01*
X63510748Y-105060000D01*
X64600348Y-105060000D01*
X64600348Y-105059999D01*
X64580602Y-104935331D01*
X64580602Y-104935328D01*
X64502780Y-104695815D01*
X64388442Y-104471416D01*
X64240409Y-104267668D01*
X64240409Y-104267667D01*
X64062332Y-104089590D01*
X63858583Y-103941557D01*
X63634184Y-103827219D01*
X63394670Y-103749397D01*
X63270000Y-103729650D01*
X63270000Y-104819252D01*
X63232292Y-104797482D01*
X63092409Y-104760000D01*
X62947591Y-104760000D01*
X62807708Y-104797482D01*
X62770000Y-104819252D01*
X62770000Y-103729650D01*
X62645330Y-103749397D01*
X62645327Y-103749397D01*
X62405815Y-103827219D01*
X62181416Y-103941557D01*
X61977668Y-104089590D01*
X61977667Y-104089590D01*
X61799590Y-104267667D01*
X61799590Y-104267668D01*
X61651557Y-104471416D01*
X61537219Y-104695815D01*
X61459397Y-104935328D01*
X61459397Y-104935331D01*
X61439652Y-105060000D01*
X52867437Y-105060000D01*
X52867157Y-99641993D01*
X52867117Y-98873486D01*
X53249700Y-98873486D01*
X53249700Y-99058513D01*
X53278645Y-99241265D01*
X53335819Y-99417232D01*
X53335820Y-99417235D01*
X53363712Y-99471975D01*
X53419822Y-99582096D01*
X53528579Y-99731787D01*
X53659413Y-99862621D01*
X53809104Y-99971378D01*
X53889963Y-100012577D01*
X53973964Y-100055379D01*
X53973967Y-100055380D01*
X54061950Y-100083967D01*
X54149936Y-100112555D01*
X54332686Y-100141500D01*
X54332687Y-100141500D01*
X54867713Y-100141500D01*
X54867714Y-100141500D01*
X55050464Y-100112555D01*
X55226435Y-100055379D01*
X55391296Y-99971378D01*
X55540987Y-99862621D01*
X55671821Y-99731787D01*
X55780578Y-99582096D01*
X55864579Y-99417235D01*
X55921755Y-99241264D01*
X55950700Y-99058514D01*
X55950700Y-98873486D01*
X55921755Y-98690736D01*
X55876851Y-98552534D01*
X55876850Y-98552530D01*
X56349700Y-98552530D01*
X56349700Y-98759469D01*
X56390068Y-98962412D01*
X56390070Y-98962420D01*
X56469258Y-99153596D01*
X56584224Y-99325657D01*
X56730542Y-99471975D01*
X56730545Y-99471977D01*
X56902602Y-99586941D01*
X57093780Y-99666130D01*
X57296730Y-99706499D01*
X57296734Y-99706500D01*
X57296735Y-99706500D01*
X57903666Y-99706500D01*
X57903667Y-99706499D01*
X58106620Y-99666130D01*
X58297798Y-99586941D01*
X58469855Y-99471977D01*
X58616177Y-99325655D01*
X58731141Y-99153598D01*
X58810330Y-98962420D01*
X58850700Y-98759465D01*
X58850700Y-98552535D01*
X58810330Y-98349580D01*
X58731141Y-98158402D01*
X58616177Y-97986345D01*
X58616175Y-97986342D01*
X58469857Y-97840024D01*
X58298067Y-97725239D01*
X58297798Y-97725059D01*
X58106620Y-97645870D01*
X58106612Y-97645868D01*
X57903669Y-97605500D01*
X57903665Y-97605500D01*
X57296735Y-97605500D01*
X57296730Y-97605500D01*
X57093787Y-97645868D01*
X57093779Y-97645870D01*
X56902603Y-97725058D01*
X56730542Y-97840024D01*
X56584224Y-97986342D01*
X56469258Y-98158403D01*
X56390070Y-98349579D01*
X56390068Y-98349587D01*
X56349700Y-98552530D01*
X55876850Y-98552530D01*
X55864581Y-98514770D01*
X55864579Y-98514764D01*
X55780577Y-98349903D01*
X55671821Y-98200213D01*
X55540987Y-98069379D01*
X55391296Y-97960622D01*
X55226435Y-97876620D01*
X55226432Y-97876619D01*
X55050465Y-97819445D01*
X54959089Y-97804972D01*
X54867714Y-97790500D01*
X54332686Y-97790500D01*
X54271769Y-97800148D01*
X54149934Y-97819445D01*
X53973967Y-97876619D01*
X53973964Y-97876620D01*
X53809103Y-97960622D01*
X53773703Y-97986342D01*
X53659413Y-98069379D01*
X53659411Y-98069381D01*
X53659410Y-98069381D01*
X53528581Y-98200210D01*
X53528581Y-98200211D01*
X53528579Y-98200213D01*
X53481872Y-98264499D01*
X53419822Y-98349903D01*
X53335820Y-98514764D01*
X53335819Y-98514767D01*
X53278645Y-98690734D01*
X53249700Y-98873486D01*
X52867117Y-98873486D01*
X52867117Y-98868620D01*
X52866908Y-94840000D01*
X52866834Y-93413486D01*
X53249700Y-93413486D01*
X53249700Y-93598513D01*
X53278645Y-93781265D01*
X53335819Y-93957232D01*
X53335820Y-93957235D01*
X53407757Y-94098417D01*
X53419822Y-94122096D01*
X53528579Y-94271787D01*
X53659413Y-94402621D01*
X53809104Y-94511378D01*
X53889963Y-94552577D01*
X53973964Y-94595379D01*
X53973967Y-94595380D01*
X54061950Y-94623967D01*
X54149936Y-94652555D01*
X54332686Y-94681500D01*
X54332687Y-94681500D01*
X54867713Y-94681500D01*
X54867714Y-94681500D01*
X55050464Y-94652555D01*
X55226435Y-94595379D01*
X55391296Y-94511378D01*
X55540987Y-94402621D01*
X55671821Y-94271787D01*
X55780578Y-94122096D01*
X55864579Y-93957235D01*
X55921755Y-93781264D01*
X55932641Y-93712530D01*
X56349700Y-93712530D01*
X56349700Y-93919469D01*
X56390068Y-94122412D01*
X56390070Y-94122420D01*
X56469258Y-94313596D01*
X56584224Y-94485657D01*
X56730542Y-94631975D01*
X56730545Y-94631977D01*
X56902602Y-94746941D01*
X57093780Y-94826130D01*
X57296730Y-94866499D01*
X57296734Y-94866500D01*
X57296735Y-94866500D01*
X57903666Y-94866500D01*
X57903667Y-94866499D01*
X58106620Y-94826130D01*
X58297798Y-94746941D01*
X58469855Y-94631977D01*
X58616177Y-94485655D01*
X58731141Y-94313598D01*
X58810330Y-94122420D01*
X58834256Y-94002135D01*
X61419500Y-94002135D01*
X61419500Y-96297870D01*
X61419501Y-96297876D01*
X61425908Y-96357483D01*
X61476202Y-96492328D01*
X61476206Y-96492335D01*
X61562452Y-96607544D01*
X61562455Y-96607547D01*
X61677664Y-96693793D01*
X61677671Y-96693797D01*
X61812517Y-96744091D01*
X61812516Y-96744091D01*
X61819444Y-96744835D01*
X61872127Y-96750500D01*
X64167872Y-96750499D01*
X64227483Y-96744091D01*
X64362331Y-96693796D01*
X64477546Y-96607546D01*
X64563796Y-96492331D01*
X64614091Y-96357483D01*
X64620500Y-96297873D01*
X64620499Y-94840000D01*
X66543391Y-94840000D01*
X67504314Y-94840000D01*
X67499920Y-94844394D01*
X67447259Y-94935606D01*
X67420000Y-95037339D01*
X67420000Y-95142661D01*
X67447259Y-95244394D01*
X67499920Y-95335606D01*
X67504314Y-95340000D01*
X66543391Y-95340000D01*
X66552009Y-95394413D01*
X66615244Y-95589029D01*
X66708140Y-95771349D01*
X66828417Y-95936894D01*
X66828417Y-95936895D01*
X66973104Y-96081582D01*
X67138650Y-96201859D01*
X67320968Y-96294754D01*
X67515578Y-96357988D01*
X67570000Y-96366607D01*
X67570000Y-95405686D01*
X67574394Y-95410080D01*
X67665606Y-95462741D01*
X67767339Y-95490000D01*
X67872661Y-95490000D01*
X67974394Y-95462741D01*
X68065606Y-95410080D01*
X68070000Y-95405686D01*
X68070000Y-96366606D01*
X68124421Y-96357988D01*
X68319031Y-96294754D01*
X68501349Y-96201859D01*
X68666894Y-96081582D01*
X68666895Y-96081582D01*
X68811582Y-95936895D01*
X68811582Y-95936894D01*
X68931859Y-95771349D01*
X69024755Y-95589029D01*
X69087990Y-95394413D01*
X69096609Y-95340000D01*
X68135686Y-95340000D01*
X68140080Y-95335606D01*
X68192741Y-95244394D01*
X68220000Y-95142661D01*
X68220000Y-95037339D01*
X68192741Y-94935606D01*
X68140080Y-94844394D01*
X68135686Y-94840000D01*
X69096609Y-94840000D01*
X69087990Y-94785586D01*
X69024755Y-94590970D01*
X68931859Y-94408650D01*
X68811582Y-94243105D01*
X68811582Y-94243104D01*
X68666895Y-94098417D01*
X68501349Y-93978140D01*
X68319029Y-93885244D01*
X68124413Y-93822009D01*
X68070000Y-93813390D01*
X68070000Y-94774314D01*
X68065606Y-94769920D01*
X67974394Y-94717259D01*
X67872661Y-94690000D01*
X67767339Y-94690000D01*
X67665606Y-94717259D01*
X67574394Y-94769920D01*
X67570000Y-94774314D01*
X67570000Y-93813390D01*
X67515586Y-93822009D01*
X67320970Y-93885244D01*
X67138650Y-93978140D01*
X66973105Y-94098417D01*
X66973104Y-94098417D01*
X66828417Y-94243104D01*
X66828417Y-94243105D01*
X66708140Y-94408650D01*
X66615244Y-94590970D01*
X66552009Y-94785586D01*
X66543391Y-94840000D01*
X64620499Y-94840000D01*
X64620499Y-94002128D01*
X64614091Y-93942517D01*
X64605493Y-93919465D01*
X64563797Y-93807671D01*
X64563793Y-93807664D01*
X64477547Y-93692455D01*
X64477544Y-93692452D01*
X64362335Y-93606206D01*
X64362328Y-93606202D01*
X64227482Y-93555908D01*
X64227483Y-93555908D01*
X64167883Y-93549501D01*
X64167881Y-93549500D01*
X64167873Y-93549500D01*
X64167864Y-93549500D01*
X61872129Y-93549500D01*
X61872123Y-93549501D01*
X61812516Y-93555908D01*
X61677671Y-93606202D01*
X61677664Y-93606206D01*
X61562455Y-93692452D01*
X61562452Y-93692455D01*
X61476206Y-93807664D01*
X61476202Y-93807671D01*
X61425908Y-93942517D01*
X61420889Y-93989208D01*
X61419501Y-94002123D01*
X61419500Y-94002135D01*
X58834256Y-94002135D01*
X58839725Y-93974644D01*
X58839730Y-93974616D01*
X58850700Y-93919463D01*
X58850700Y-93712534D01*
X58850699Y-93712530D01*
X58831361Y-93615312D01*
X58810330Y-93509580D01*
X58731141Y-93318402D01*
X58616177Y-93146345D01*
X58616175Y-93146342D01*
X58469857Y-93000024D01*
X58305049Y-92889904D01*
X58297798Y-92885059D01*
X58206915Y-92847414D01*
X58106620Y-92805870D01*
X58106612Y-92805868D01*
X57903669Y-92765500D01*
X57903665Y-92765500D01*
X57296735Y-92765500D01*
X57296730Y-92765500D01*
X57093787Y-92805868D01*
X57093779Y-92805870D01*
X56902603Y-92885058D01*
X56730542Y-93000024D01*
X56584224Y-93146342D01*
X56469258Y-93318403D01*
X56390070Y-93509579D01*
X56390068Y-93509587D01*
X56349700Y-93712530D01*
X55932641Y-93712530D01*
X55950700Y-93598514D01*
X55950700Y-93413486D01*
X55921755Y-93230736D01*
X55864579Y-93054765D01*
X55864579Y-93054764D01*
X55780577Y-92889903D01*
X55757699Y-92858414D01*
X55671821Y-92740213D01*
X55540987Y-92609379D01*
X55391296Y-92500622D01*
X55226435Y-92416620D01*
X55226432Y-92416619D01*
X55050465Y-92359445D01*
X54959089Y-92344972D01*
X54867714Y-92330500D01*
X54332686Y-92330500D01*
X54271769Y-92340148D01*
X54149934Y-92359445D01*
X53973967Y-92416619D01*
X53973964Y-92416620D01*
X53809103Y-92500622D01*
X53723699Y-92562672D01*
X53659413Y-92609379D01*
X53659411Y-92609381D01*
X53659410Y-92609381D01*
X53528581Y-92740210D01*
X53528581Y-92740211D01*
X53528579Y-92740213D01*
X53510207Y-92765500D01*
X53419822Y-92889903D01*
X53335820Y-93054764D01*
X53335819Y-93054767D01*
X53278645Y-93230734D01*
X53249700Y-93413486D01*
X52866834Y-93413486D01*
X52866516Y-87257947D01*
X64794000Y-87257947D01*
X64794000Y-87494052D01*
X64830934Y-87727247D01*
X64903897Y-87951802D01*
X65011087Y-88162174D01*
X65071338Y-88245104D01*
X65071340Y-88245105D01*
X65811037Y-87505408D01*
X65828075Y-87568993D01*
X65893901Y-87683007D01*
X65986993Y-87776099D01*
X66101007Y-87841925D01*
X66164590Y-87858962D01*
X65424893Y-88598658D01*
X65507828Y-88658914D01*
X65718197Y-88766102D01*
X65942752Y-88839065D01*
X65942751Y-88839065D01*
X66175948Y-88876000D01*
X66412052Y-88876000D01*
X66645247Y-88839065D01*
X66869802Y-88766102D01*
X67080163Y-88658918D01*
X67080169Y-88658914D01*
X67163104Y-88598658D01*
X67163105Y-88598658D01*
X66423408Y-87858962D01*
X66486993Y-87841925D01*
X66601007Y-87776099D01*
X66694099Y-87683007D01*
X66759925Y-87568993D01*
X66776962Y-87505409D01*
X67516658Y-88245105D01*
X67516658Y-88245104D01*
X67576914Y-88162169D01*
X67576918Y-88162163D01*
X67684102Y-87951802D01*
X67757065Y-87727247D01*
X67794000Y-87494052D01*
X67794000Y-87257947D01*
X67757065Y-87024752D01*
X67684102Y-86800197D01*
X67576914Y-86589828D01*
X67516658Y-86506894D01*
X67516658Y-86506893D01*
X66776962Y-87246590D01*
X66759925Y-87183007D01*
X66694099Y-87068993D01*
X66601007Y-86975901D01*
X66486993Y-86910075D01*
X66423409Y-86893037D01*
X67163105Y-86153340D01*
X67163104Y-86153338D01*
X67080174Y-86093087D01*
X66869802Y-85985897D01*
X66645247Y-85912934D01*
X66645248Y-85912934D01*
X66412052Y-85876000D01*
X66175948Y-85876000D01*
X65942752Y-85912934D01*
X65718197Y-85985897D01*
X65507830Y-86093084D01*
X65424894Y-86153340D01*
X66164591Y-86893037D01*
X66101007Y-86910075D01*
X65986993Y-86975901D01*
X65893901Y-87068993D01*
X65828075Y-87183007D01*
X65811037Y-87246591D01*
X65071340Y-86506894D01*
X65011084Y-86589830D01*
X64903897Y-86800197D01*
X64830934Y-87024752D01*
X64794000Y-87257947D01*
X52866516Y-87257947D01*
X52866470Y-86369208D01*
X52866461Y-86200605D01*
X52866074Y-78728135D01*
X64793500Y-78728135D01*
X64793500Y-80823870D01*
X64793501Y-80823876D01*
X64799908Y-80883483D01*
X64850202Y-81018328D01*
X64850206Y-81018335D01*
X64936452Y-81133544D01*
X64936455Y-81133547D01*
X65051664Y-81219793D01*
X65051671Y-81219797D01*
X65186517Y-81270091D01*
X65186516Y-81270091D01*
X65193444Y-81270835D01*
X65246127Y-81276500D01*
X67341872Y-81276499D01*
X67401483Y-81270091D01*
X67536331Y-81219796D01*
X67651546Y-81133546D01*
X67737796Y-81018331D01*
X67788091Y-80883483D01*
X67794500Y-80823873D01*
X67794499Y-78728128D01*
X67788091Y-78668517D01*
X67743018Y-78547671D01*
X67737797Y-78533671D01*
X67737793Y-78533664D01*
X67651547Y-78418455D01*
X67651544Y-78418452D01*
X67536335Y-78332206D01*
X67536328Y-78332202D01*
X67401482Y-78281908D01*
X67401483Y-78281908D01*
X67341883Y-78275501D01*
X67341881Y-78275500D01*
X67341873Y-78275500D01*
X67341864Y-78275500D01*
X65246129Y-78275500D01*
X65246123Y-78275501D01*
X65186516Y-78281908D01*
X65051671Y-78332202D01*
X65051664Y-78332206D01*
X64936455Y-78418452D01*
X64936452Y-78418455D01*
X64850206Y-78533664D01*
X64850202Y-78533671D01*
X64799908Y-78668517D01*
X64793856Y-78724812D01*
X64793501Y-78728123D01*
X64793500Y-78728135D01*
X52866074Y-78728135D01*
X52866074Y-78724812D01*
X52865676Y-71039113D01*
X59380900Y-71039113D01*
X59380900Y-71251686D01*
X59408896Y-71428449D01*
X59414154Y-71461643D01*
X59470806Y-71636000D01*
X59479844Y-71663814D01*
X59576351Y-71853220D01*
X59701290Y-72025186D01*
X59814830Y-72138726D01*
X59848315Y-72200049D01*
X59843331Y-72269741D01*
X59801459Y-72325674D01*
X59770483Y-72342589D01*
X59639069Y-72391603D01*
X59639064Y-72391606D01*
X59523855Y-72477852D01*
X59523852Y-72477855D01*
X59437606Y-72593064D01*
X59437602Y-72593071D01*
X59387308Y-72727917D01*
X59380901Y-72787516D01*
X59380901Y-72787523D01*
X59380900Y-72787535D01*
X59380900Y-74583270D01*
X59380901Y-74583276D01*
X59387308Y-74642883D01*
X59437602Y-74777728D01*
X59437606Y-74777735D01*
X59523852Y-74892944D01*
X59523855Y-74892947D01*
X59639064Y-74979193D01*
X59639071Y-74979197D01*
X59773917Y-75029491D01*
X59773916Y-75029491D01*
X59780844Y-75030235D01*
X59833527Y-75035900D01*
X61629272Y-75035899D01*
X61688883Y-75029491D01*
X61823731Y-74979196D01*
X61938946Y-74892946D01*
X62025196Y-74777731D01*
X62075491Y-74642883D01*
X62081900Y-74583273D01*
X62081899Y-72787528D01*
X62075491Y-72727917D01*
X62065900Y-72702203D01*
X62025197Y-72593071D01*
X62025193Y-72593064D01*
X61938947Y-72477855D01*
X61938944Y-72477852D01*
X61823735Y-72391606D01*
X61823728Y-72391602D01*
X61692317Y-72342589D01*
X61636383Y-72300718D01*
X61611966Y-72235253D01*
X61626818Y-72166980D01*
X61647963Y-72138732D01*
X61761504Y-72025192D01*
X61821215Y-71943007D01*
X61886448Y-71853220D01*
X61886447Y-71853220D01*
X61886451Y-71853216D01*
X61982957Y-71663812D01*
X62048646Y-71461643D01*
X62081900Y-71251687D01*
X62081900Y-71039113D01*
X62048646Y-70829157D01*
X61982957Y-70626988D01*
X61886451Y-70437584D01*
X61886449Y-70437581D01*
X61886448Y-70437579D01*
X61761509Y-70265613D01*
X61611186Y-70115290D01*
X61439220Y-69990351D01*
X61249814Y-69893844D01*
X61249813Y-69893843D01*
X61249812Y-69893843D01*
X61047643Y-69828154D01*
X61047641Y-69828153D01*
X61047640Y-69828153D01*
X60886357Y-69802608D01*
X60837687Y-69794900D01*
X60625113Y-69794900D01*
X60576442Y-69802608D01*
X60415160Y-69828153D01*
X60212985Y-69893844D01*
X60023579Y-69990351D01*
X59851613Y-70115290D01*
X59701290Y-70265613D01*
X59576351Y-70437579D01*
X59479844Y-70626985D01*
X59414153Y-70829160D01*
X59380900Y-71039113D01*
X52865676Y-71039113D01*
X52865676Y-71034247D01*
X52865434Y-66364038D01*
X59189500Y-66364038D01*
X59189500Y-66615961D01*
X59228910Y-66864785D01*
X59306760Y-67104383D01*
X59421132Y-67328848D01*
X59569201Y-67532649D01*
X59569205Y-67532654D01*
X59747345Y-67710794D01*
X59747350Y-67710798D01*
X59902227Y-67823322D01*
X59951155Y-67858870D01*
X60094184Y-67931747D01*
X60175616Y-67973239D01*
X60175618Y-67973239D01*
X60175621Y-67973241D01*
X60415215Y-68051090D01*
X60664038Y-68090500D01*
X60664039Y-68090500D01*
X60915961Y-68090500D01*
X60915962Y-68090500D01*
X61164785Y-68051090D01*
X61404379Y-67973241D01*
X61628845Y-67858870D01*
X61832656Y-67710793D01*
X62010793Y-67532656D01*
X62158870Y-67328845D01*
X62273241Y-67104379D01*
X62351090Y-66864785D01*
X62390500Y-66615962D01*
X62390500Y-66364038D01*
X62351090Y-66115215D01*
X62273241Y-65875621D01*
X62273239Y-65875618D01*
X62273239Y-65875616D01*
X62194871Y-65721812D01*
X62158870Y-65651155D01*
X62139952Y-65625117D01*
X62010798Y-65447350D01*
X62010794Y-65447345D01*
X61832654Y-65269205D01*
X61832649Y-65269201D01*
X61628848Y-65121132D01*
X61628847Y-65121131D01*
X61628845Y-65121130D01*
X61558747Y-65085413D01*
X61404383Y-65006760D01*
X61164785Y-64928910D01*
X60915962Y-64889500D01*
X60664038Y-64889500D01*
X60539626Y-64909205D01*
X60415214Y-64928910D01*
X60175616Y-65006760D01*
X59951151Y-65121132D01*
X59747350Y-65269201D01*
X59747345Y-65269205D01*
X59569205Y-65447345D01*
X59569201Y-65447350D01*
X59421132Y-65651151D01*
X59306760Y-65875616D01*
X59228910Y-66115214D01*
X59189500Y-66364038D01*
X52865434Y-66364038D01*
X52865434Y-66359172D01*
X52865258Y-62957087D01*
X52865208Y-62000193D01*
X52865075Y-59435248D01*
X58592700Y-59435248D01*
X58592700Y-59639951D01*
X58624722Y-59842134D01*
X58687981Y-60036823D01*
X58780915Y-60219213D01*
X58901228Y-60384813D01*
X59045986Y-60529571D01*
X59178024Y-60625500D01*
X59211590Y-60649887D01*
X59275016Y-60682204D01*
X59393976Y-60742818D01*
X59393978Y-60742818D01*
X59393981Y-60742820D01*
X59498337Y-60776727D01*
X59588665Y-60806077D01*
X59689757Y-60822088D01*
X59790848Y-60838100D01*
X59790849Y-60838100D01*
X59995551Y-60838100D01*
X59995552Y-60838100D01*
X60197734Y-60806077D01*
X60392419Y-60742820D01*
X60574810Y-60649887D01*
X60667790Y-60582332D01*
X60740413Y-60529571D01*
X60740415Y-60529568D01*
X60740419Y-60529566D01*
X60885166Y-60384819D01*
X60885168Y-60384815D01*
X60885171Y-60384813D01*
X60937932Y-60312190D01*
X61005487Y-60219210D01*
X61098420Y-60036819D01*
X61161677Y-59842134D01*
X61193700Y-59639952D01*
X61193700Y-59435248D01*
X61170314Y-59287600D01*
X68776591Y-59287600D01*
X69737514Y-59287600D01*
X69733120Y-59291994D01*
X69680459Y-59383206D01*
X69653200Y-59484939D01*
X69653200Y-59590261D01*
X69680459Y-59691994D01*
X69733120Y-59783206D01*
X69737514Y-59787600D01*
X68776591Y-59787600D01*
X68785209Y-59842013D01*
X68848444Y-60036629D01*
X68941340Y-60218949D01*
X69061617Y-60384494D01*
X69061617Y-60384495D01*
X69206304Y-60529182D01*
X69371850Y-60649459D01*
X69554168Y-60742354D01*
X69748778Y-60805588D01*
X69803200Y-60814207D01*
X69803200Y-59853286D01*
X69807594Y-59857680D01*
X69898806Y-59910341D01*
X70000539Y-59937600D01*
X70105861Y-59937600D01*
X70207594Y-59910341D01*
X70298806Y-59857680D01*
X70303200Y-59853286D01*
X70303200Y-60814206D01*
X70357621Y-60805588D01*
X70552231Y-60742354D01*
X70734549Y-60649459D01*
X70900094Y-60529182D01*
X70900095Y-60529182D01*
X71044782Y-60384495D01*
X71044782Y-60384494D01*
X71165059Y-60218949D01*
X71257955Y-60036629D01*
X71321190Y-59842013D01*
X71329809Y-59787600D01*
X70368886Y-59787600D01*
X70373280Y-59783206D01*
X70425941Y-59691994D01*
X70453200Y-59590261D01*
X70453200Y-59484939D01*
X70425941Y-59383206D01*
X70373280Y-59291994D01*
X70368886Y-59287600D01*
X71329809Y-59287600D01*
X71321190Y-59233186D01*
X71257955Y-59038570D01*
X71165059Y-58856250D01*
X71044782Y-58690705D01*
X71044782Y-58690704D01*
X70900095Y-58546017D01*
X70734549Y-58425740D01*
X70552229Y-58332844D01*
X70357613Y-58269609D01*
X70303200Y-58260990D01*
X70303200Y-59221914D01*
X70298806Y-59217520D01*
X70207594Y-59164859D01*
X70105861Y-59137600D01*
X70000539Y-59137600D01*
X69898806Y-59164859D01*
X69807594Y-59217520D01*
X69803200Y-59221914D01*
X69803200Y-58260990D01*
X69748786Y-58269609D01*
X69554170Y-58332844D01*
X69371850Y-58425740D01*
X69206305Y-58546017D01*
X69206304Y-58546017D01*
X69061617Y-58690704D01*
X69061617Y-58690705D01*
X68941340Y-58856250D01*
X68848444Y-59038570D01*
X68785209Y-59233186D01*
X68776591Y-59287600D01*
X61170314Y-59287600D01*
X61161677Y-59233066D01*
X61098420Y-59038381D01*
X61098418Y-59038378D01*
X61098418Y-59038376D01*
X61005619Y-58856250D01*
X61005487Y-58855990D01*
X60997756Y-58845349D01*
X60885171Y-58690386D01*
X60740413Y-58545628D01*
X60574813Y-58425315D01*
X60574812Y-58425314D01*
X60574810Y-58425313D01*
X60517853Y-58396291D01*
X60392423Y-58332381D01*
X60197734Y-58269122D01*
X60023195Y-58241478D01*
X59995552Y-58237100D01*
X59790848Y-58237100D01*
X59766529Y-58240951D01*
X59588665Y-58269122D01*
X59393976Y-58332381D01*
X59211586Y-58425315D01*
X59045986Y-58545628D01*
X58901228Y-58690386D01*
X58780915Y-58855986D01*
X58687981Y-59038376D01*
X58624722Y-59233065D01*
X58592700Y-59435248D01*
X52865075Y-59435248D01*
X52865075Y-59430382D01*
X52864684Y-51883335D01*
X58796700Y-51883335D01*
X58796700Y-53679070D01*
X58796701Y-53679076D01*
X58803108Y-53738683D01*
X58853402Y-53873528D01*
X58853406Y-53873535D01*
X58939652Y-53988744D01*
X58939655Y-53988747D01*
X59054864Y-54074993D01*
X59054871Y-54074997D01*
X59186282Y-54124010D01*
X59242216Y-54165881D01*
X59266633Y-54231345D01*
X59251782Y-54299618D01*
X59230631Y-54327873D01*
X59117089Y-54441415D01*
X58992151Y-54613379D01*
X58895644Y-54802785D01*
X58829953Y-55004960D01*
X58796700Y-55214913D01*
X58796700Y-55427486D01*
X58829953Y-55637439D01*
X58895644Y-55839614D01*
X58992151Y-56029020D01*
X59117090Y-56200986D01*
X59267413Y-56351309D01*
X59439379Y-56476248D01*
X59439381Y-56476249D01*
X59439384Y-56476251D01*
X59628788Y-56572757D01*
X59830957Y-56638446D01*
X60040913Y-56671700D01*
X60040914Y-56671700D01*
X60253486Y-56671700D01*
X60253487Y-56671700D01*
X60463443Y-56638446D01*
X60665612Y-56572757D01*
X60855016Y-56476251D01*
X60876989Y-56460286D01*
X61026986Y-56351309D01*
X61026988Y-56351306D01*
X61026992Y-56351304D01*
X61177304Y-56200992D01*
X61177306Y-56200988D01*
X61177309Y-56200986D01*
X61302248Y-56029020D01*
X61302247Y-56029020D01*
X61302251Y-56029016D01*
X61398757Y-55839612D01*
X61464446Y-55637443D01*
X61497700Y-55427487D01*
X61497700Y-55214913D01*
X61464446Y-55004957D01*
X61398757Y-54802788D01*
X61302251Y-54613384D01*
X61302249Y-54613381D01*
X61302248Y-54613379D01*
X61177309Y-54441413D01*
X61063769Y-54327873D01*
X61030284Y-54266550D01*
X61035268Y-54196858D01*
X61077140Y-54140925D01*
X61108115Y-54124010D01*
X61239531Y-54074996D01*
X61354746Y-53988746D01*
X61440996Y-53873531D01*
X61491291Y-53738683D01*
X61497700Y-53679073D01*
X61497699Y-51883328D01*
X61491291Y-51823717D01*
X61440996Y-51688869D01*
X61440995Y-51688868D01*
X61440993Y-51688864D01*
X61354747Y-51573655D01*
X61354744Y-51573652D01*
X61239535Y-51487406D01*
X61239528Y-51487402D01*
X61104682Y-51437108D01*
X61104683Y-51437108D01*
X61045083Y-51430701D01*
X61045081Y-51430700D01*
X61045073Y-51430700D01*
X61045064Y-51430700D01*
X59249329Y-51430700D01*
X59249323Y-51430701D01*
X59189716Y-51437108D01*
X59054871Y-51487402D01*
X59054864Y-51487406D01*
X58939655Y-51573652D01*
X58939652Y-51573655D01*
X58853406Y-51688864D01*
X58853402Y-51688871D01*
X58803108Y-51823717D01*
X58797056Y-51880012D01*
X58796701Y-51883323D01*
X58796700Y-51883335D01*
X52864684Y-51883335D01*
X52864684Y-51880012D01*
X52864316Y-44775644D01*
X52864201Y-42555412D01*
X52863906Y-36850713D01*
X70404500Y-36850713D01*
X70404500Y-37063286D01*
X70437753Y-37273239D01*
X70503444Y-37475414D01*
X70599951Y-37664820D01*
X70724890Y-37836786D01*
X70875213Y-37987109D01*
X71047182Y-38112050D01*
X71055946Y-38116516D01*
X71106742Y-38164491D01*
X71123536Y-38232312D01*
X71100998Y-38298447D01*
X71055946Y-38337484D01*
X71047182Y-38341949D01*
X70875213Y-38466890D01*
X70724890Y-38617213D01*
X70599951Y-38789179D01*
X70503444Y-38978585D01*
X70437753Y-39180760D01*
X70404500Y-39390713D01*
X70404500Y-39603286D01*
X70437753Y-39813239D01*
X70503444Y-40015414D01*
X70599951Y-40204820D01*
X70724890Y-40376786D01*
X70875213Y-40527109D01*
X71047182Y-40652050D01*
X71055946Y-40656516D01*
X71106742Y-40704491D01*
X71123536Y-40772312D01*
X71100998Y-40838447D01*
X71055946Y-40877484D01*
X71047182Y-40881949D01*
X70875213Y-41006890D01*
X70724890Y-41157213D01*
X70599951Y-41329179D01*
X70503444Y-41518585D01*
X70437753Y-41720760D01*
X70404500Y-41930713D01*
X70404500Y-42143286D01*
X70437753Y-42353239D01*
X70503444Y-42555414D01*
X70599951Y-42744820D01*
X70724890Y-42916786D01*
X70838818Y-43030714D01*
X70872303Y-43092037D01*
X70867319Y-43161729D01*
X70825447Y-43217662D01*
X70794471Y-43234577D01*
X70662912Y-43283646D01*
X70662906Y-43283649D01*
X70547812Y-43369809D01*
X70547809Y-43369812D01*
X70461649Y-43484906D01*
X70461645Y-43484913D01*
X70411403Y-43619620D01*
X70411401Y-43619627D01*
X70405000Y-43679155D01*
X70405000Y-44327000D01*
X71321988Y-44327000D01*
X71289075Y-44384007D01*
X71255000Y-44511174D01*
X71255000Y-44642826D01*
X71289075Y-44769993D01*
X71321988Y-44827000D01*
X70405000Y-44827000D01*
X70405000Y-45474844D01*
X70411401Y-45534372D01*
X70411403Y-45534379D01*
X70461645Y-45669086D01*
X70461649Y-45669093D01*
X70547809Y-45784187D01*
X70547812Y-45784190D01*
X70662906Y-45870350D01*
X70662913Y-45870354D01*
X70797620Y-45920596D01*
X70797627Y-45920598D01*
X70857155Y-45926999D01*
X70857172Y-45927000D01*
X71505000Y-45927000D01*
X71505000Y-45010012D01*
X71562007Y-45042925D01*
X71689174Y-45077000D01*
X71820826Y-45077000D01*
X71947993Y-45042925D01*
X72005000Y-45010012D01*
X72005000Y-45927000D01*
X72652828Y-45927000D01*
X72652844Y-45926999D01*
X72712372Y-45920598D01*
X72712379Y-45920596D01*
X72847086Y-45870354D01*
X72847093Y-45870350D01*
X72962187Y-45784190D01*
X72962190Y-45784187D01*
X73048350Y-45669093D01*
X73048354Y-45669086D01*
X73098596Y-45534379D01*
X73098598Y-45534372D01*
X73104999Y-45474844D01*
X73105000Y-45474827D01*
X73105000Y-44827000D01*
X72188012Y-44827000D01*
X72220925Y-44769993D01*
X72255000Y-44642826D01*
X72255000Y-44511174D01*
X72220925Y-44384007D01*
X72188012Y-44327000D01*
X73105000Y-44327000D01*
X73105000Y-43679172D01*
X73104999Y-43679155D01*
X73098598Y-43619627D01*
X73098596Y-43619620D01*
X73048354Y-43484913D01*
X73048350Y-43484906D01*
X72962190Y-43369812D01*
X72962187Y-43369809D01*
X72847093Y-43283649D01*
X72847088Y-43283646D01*
X72715528Y-43234577D01*
X72659595Y-43192705D01*
X72635178Y-43127241D01*
X72650030Y-43058968D01*
X72671175Y-43030720D01*
X72785104Y-42916792D01*
X72910051Y-42744816D01*
X73006557Y-42555412D01*
X73072246Y-42353243D01*
X73105500Y-42143287D01*
X73105500Y-41930713D01*
X73072246Y-41720757D01*
X73006557Y-41518588D01*
X72910051Y-41329184D01*
X72910049Y-41329181D01*
X72910048Y-41329179D01*
X72785109Y-41157213D01*
X72634786Y-41006890D01*
X72462820Y-40881951D01*
X72462115Y-40881591D01*
X72454054Y-40877485D01*
X72403259Y-40829512D01*
X72386463Y-40761692D01*
X72408999Y-40695556D01*
X72454054Y-40656515D01*
X72462816Y-40652051D01*
X72484789Y-40636086D01*
X72634786Y-40527109D01*
X72634788Y-40527106D01*
X72634792Y-40527104D01*
X72785104Y-40376792D01*
X72785106Y-40376788D01*
X72785109Y-40376786D01*
X72910048Y-40204820D01*
X72910047Y-40204820D01*
X72910051Y-40204816D01*
X73006557Y-40015412D01*
X73072246Y-39813243D01*
X73105500Y-39603287D01*
X73105500Y-39390713D01*
X73072246Y-39180757D01*
X73006557Y-38978588D01*
X72910051Y-38789184D01*
X72910049Y-38789181D01*
X72910048Y-38789179D01*
X72785109Y-38617213D01*
X72634786Y-38466890D01*
X72462820Y-38341951D01*
X72462115Y-38341591D01*
X72454054Y-38337485D01*
X72403259Y-38289512D01*
X72386463Y-38221692D01*
X72408999Y-38155556D01*
X72454054Y-38116515D01*
X72462816Y-38112051D01*
X72484789Y-38096086D01*
X72634786Y-37987109D01*
X72634788Y-37987106D01*
X72634792Y-37987104D01*
X72785104Y-37836792D01*
X72785106Y-37836788D01*
X72785109Y-37836786D01*
X72910048Y-37664820D01*
X72910047Y-37664820D01*
X72910051Y-37664816D01*
X73006557Y-37475412D01*
X73072246Y-37273243D01*
X73105500Y-37063287D01*
X73105500Y-36850713D01*
X73072246Y-36640757D01*
X73006557Y-36438588D01*
X72910051Y-36249184D01*
X72910049Y-36249181D01*
X72910048Y-36249179D01*
X72785109Y-36077213D01*
X72634786Y-35926890D01*
X72462820Y-35801951D01*
X72273414Y-35705444D01*
X72273413Y-35705443D01*
X72273412Y-35705443D01*
X72071243Y-35639754D01*
X72071241Y-35639753D01*
X72071240Y-35639753D01*
X71909957Y-35614208D01*
X71861287Y-35606500D01*
X71648713Y-35606500D01*
X71600042Y-35614208D01*
X71438760Y-35639753D01*
X71236585Y-35705444D01*
X71047179Y-35801951D01*
X70875213Y-35926890D01*
X70724890Y-36077213D01*
X70599951Y-36249179D01*
X70503444Y-36438585D01*
X70437753Y-36640760D01*
X70404500Y-36850713D01*
X52863906Y-36850713D01*
X52863586Y-30682486D01*
X55019500Y-30682486D01*
X55019500Y-30977513D01*
X55051571Y-31221113D01*
X55058007Y-31269993D01*
X55134361Y-31554951D01*
X55134364Y-31554961D01*
X55247254Y-31827500D01*
X55247258Y-31827510D01*
X55394761Y-32082993D01*
X55574352Y-32317040D01*
X55574358Y-32317047D01*
X55782952Y-32525641D01*
X55782959Y-32525647D01*
X56017006Y-32705238D01*
X56272489Y-32852741D01*
X56272490Y-32852741D01*
X56272493Y-32852743D01*
X56545048Y-32965639D01*
X56830007Y-33041993D01*
X57122494Y-33080500D01*
X57122501Y-33080500D01*
X57417499Y-33080500D01*
X57417506Y-33080500D01*
X57709993Y-33041993D01*
X57994952Y-32965639D01*
X58267507Y-32852743D01*
X58522994Y-32705238D01*
X58757042Y-32525646D01*
X58965646Y-32317042D01*
X59145238Y-32082994D01*
X59292743Y-31827507D01*
X59405639Y-31554952D01*
X59481993Y-31269993D01*
X59520500Y-30977506D01*
X59520500Y-30742486D01*
X124409500Y-30742486D01*
X124409500Y-31037513D01*
X124440107Y-31269984D01*
X124448007Y-31329993D01*
X124448008Y-31329995D01*
X124524361Y-31614951D01*
X124524364Y-31614961D01*
X124637254Y-31887500D01*
X124637258Y-31887510D01*
X124784761Y-32142993D01*
X124964352Y-32377040D01*
X124964358Y-32377047D01*
X125172952Y-32585641D01*
X125172959Y-32585647D01*
X125407006Y-32765238D01*
X125662489Y-32912741D01*
X125662490Y-32912741D01*
X125662493Y-32912743D01*
X125935048Y-33025639D01*
X126220007Y-33101993D01*
X126512494Y-33140500D01*
X126512501Y-33140500D01*
X126807499Y-33140500D01*
X126807506Y-33140500D01*
X127099993Y-33101993D01*
X127384952Y-33025639D01*
X127657507Y-32912743D01*
X127912994Y-32765238D01*
X128147042Y-32585646D01*
X128355646Y-32377042D01*
X128535238Y-32142994D01*
X128682743Y-31887507D01*
X128795639Y-31614952D01*
X128871993Y-31329993D01*
X128910500Y-31037506D01*
X128910500Y-30742494D01*
X128871993Y-30450007D01*
X128795639Y-30165048D01*
X128682743Y-29892493D01*
X128593529Y-29737970D01*
X128535238Y-29637006D01*
X128355647Y-29402959D01*
X128355641Y-29402952D01*
X128147047Y-29194358D01*
X128147040Y-29194352D01*
X127912993Y-29014761D01*
X127657510Y-28867258D01*
X127657500Y-28867254D01*
X127384961Y-28754364D01*
X127384954Y-28754362D01*
X127384952Y-28754361D01*
X127099993Y-28678007D01*
X127051113Y-28671571D01*
X126807513Y-28639500D01*
X126807506Y-28639500D01*
X126512494Y-28639500D01*
X126512486Y-28639500D01*
X126234085Y-28676153D01*
X126220007Y-28678007D01*
X125935048Y-28754361D01*
X125935038Y-28754364D01*
X125662499Y-28867254D01*
X125662489Y-28867258D01*
X125407006Y-29014761D01*
X125172959Y-29194352D01*
X125172952Y-29194358D01*
X124964358Y-29402952D01*
X124964352Y-29402959D01*
X124784761Y-29637006D01*
X124637258Y-29892489D01*
X124637254Y-29892499D01*
X124524364Y-30165038D01*
X124524361Y-30165048D01*
X124448008Y-30450004D01*
X124448006Y-30450015D01*
X124409500Y-30742486D01*
X59520500Y-30742486D01*
X59520500Y-30682494D01*
X59481993Y-30390007D01*
X59405639Y-30105048D01*
X59395255Y-30079980D01*
X59317598Y-29892499D01*
X59292743Y-29832493D01*
X59241336Y-29743454D01*
X59145238Y-29577006D01*
X58965647Y-29342959D01*
X58965641Y-29342952D01*
X58757047Y-29134358D01*
X58757040Y-29134352D01*
X58522993Y-28954761D01*
X58267510Y-28807258D01*
X58267500Y-28807254D01*
X57994961Y-28694364D01*
X57994954Y-28694362D01*
X57994952Y-28694361D01*
X57709993Y-28618007D01*
X57661113Y-28611571D01*
X57417513Y-28579500D01*
X57417506Y-28579500D01*
X57122494Y-28579500D01*
X57122486Y-28579500D01*
X56844085Y-28616153D01*
X56830007Y-28618007D01*
X56606079Y-28678008D01*
X56545048Y-28694361D01*
X56545038Y-28694364D01*
X56272499Y-28807254D01*
X56272489Y-28807258D01*
X56017006Y-28954761D01*
X55782959Y-29134352D01*
X55782952Y-29134358D01*
X55574358Y-29342952D01*
X55574352Y-29342959D01*
X55394761Y-29577006D01*
X55247258Y-29832489D01*
X55247254Y-29832499D01*
X55134364Y-30105038D01*
X55134361Y-30105048D01*
X55058008Y-30390004D01*
X55058006Y-30390015D01*
X55019500Y-30682486D01*
X52863586Y-30682486D01*
X52863555Y-30087211D01*
X52864385Y-30072885D01*
X52868797Y-30034956D01*
X52902586Y-29744458D01*
X52903518Y-29737970D01*
X52914270Y-29675069D01*
X52915237Y-29670049D01*
X52979565Y-29370322D01*
X52981341Y-29363114D01*
X52981488Y-29362586D01*
X52994173Y-29317017D01*
X52995386Y-29312938D01*
X53092585Y-29006383D01*
X53095321Y-28998660D01*
X53105515Y-28972663D01*
X53106814Y-28969484D01*
X53240313Y-28656061D01*
X53245444Y-28645451D01*
X53417499Y-28329220D01*
X53423646Y-28319108D01*
X53625088Y-28020779D01*
X53632171Y-28011300D01*
X53861185Y-27733559D01*
X53869135Y-27724805D01*
X54123622Y-27470196D01*
X54132357Y-27462254D01*
X54410012Y-27233089D01*
X54419468Y-27226016D01*
X54717735Y-27024408D01*
X54727816Y-27018275D01*
X54982435Y-26879584D01*
X54983939Y-26878781D01*
X55059879Y-26839082D01*
X55068628Y-26834937D01*
X55289813Y-26740601D01*
X55292333Y-26739561D01*
X55421140Y-26688188D01*
X55429472Y-26685208D01*
X55625062Y-26623090D01*
X55628493Y-26622057D01*
X55798001Y-26573808D01*
X55805772Y-26571869D01*
X55977908Y-26534838D01*
X55982312Y-26533975D01*
X56187444Y-26497684D01*
X56194600Y-26496634D01*
X56342247Y-26479389D01*
X56347510Y-26478890D01*
X56586697Y-26461421D01*
X56593089Y-26461121D01*
X56735841Y-26458173D01*
X56740318Y-26458165D01*
X56824939Y-26459580D01*
G37*
%TD.AperFunction*%
%TD*%
M02*
