%TF.GenerationSoftware,KiCad,Pcbnew,9.0.1*%
%TF.CreationDate,2025-07-05T17:29:08+03:00*%
%TF.ProjectId,Main,4d61696e-2e6b-4696-9361-645f70636258,rev?*%
%TF.SameCoordinates,Original*%
%TF.FileFunction,Soldermask,Top*%
%TF.FilePolarity,Negative*%
%FSLAX46Y46*%
G04 Gerber Fmt 4.6, Leading zero omitted, Abs format (unit mm)*
G04 Created by KiCad (PCBNEW 9.0.1) date 2025-07-05 17:29:08*
%MOMM*%
%LPD*%
G01*
G04 APERTURE LIST*
%ADD10C,1.200000*%
%ADD11C,1.600000*%
%ADD12O,1.600000X1.600000*%
%ADD13R,2.200000X2.200000*%
%ADD14O,2.200000X2.200000*%
%ADD15R,0.700000X1.825000*%
%ADD16R,1.500000X2.000000*%
%ADD17R,2.000000X1.350000*%
%ADD18O,1.700000X1.350000*%
%ADD19O,1.500000X1.100000*%
%ADD20R,2.500000X1.430000*%
%ADD21R,1.650000X0.400000*%
%ADD22C,4.000000*%
%ADD23R,1.700000X1.700000*%
%ADD24C,1.700000*%
%ADD25R,2.000000X2.000000*%
%ADD26C,2.000000*%
G04 APERTURE END LIST*
D10*
%TO.C,C1*%
X70860000Y-111910000D03*
X72860000Y-111910000D03*
%TD*%
D11*
%TO.C,C2*%
X72850000Y-107740000D03*
X70350000Y-107740000D03*
%TD*%
D12*
%TO.C,R1*%
X70053200Y-59537600D03*
D11*
X59893200Y-59537600D03*
%TD*%
D13*
%TO.C,D2*%
X63020000Y-95150000D03*
D14*
X63020000Y-105310000D03*
%TD*%
D13*
%TO.C,D1*%
X70950000Y-66490000D03*
D14*
X60790000Y-66490000D03*
%TD*%
D15*
%TO.C,J6*%
X56280200Y-99236000D03*
D16*
X57600200Y-99136000D03*
D17*
X55530200Y-98986000D03*
D18*
X54600200Y-98966000D03*
D19*
X57600200Y-98656000D03*
D20*
X54330200Y-97196000D03*
X54330200Y-95276000D03*
D19*
X57600200Y-93816000D03*
D18*
X54600200Y-93506000D03*
D17*
X55530200Y-93506000D03*
D16*
X57580200Y-93386000D03*
D15*
X56280200Y-93286000D03*
D21*
X57480200Y-97536000D03*
X57480200Y-96886000D03*
X57480200Y-96236000D03*
X57480200Y-95586000D03*
X57480200Y-94936000D03*
%TD*%
D22*
%TO.C,H4*%
X57270000Y-30830000D03*
%TD*%
%TO.C,H3*%
X57240000Y-116210000D03*
%TD*%
%TO.C,H2*%
X126460000Y-115700000D03*
%TD*%
%TO.C,H1*%
X126660000Y-30890000D03*
%TD*%
D23*
%TO.C,J4*%
X122950000Y-79640000D03*
D24*
X122950000Y-82180000D03*
X122950000Y-84720000D03*
X122950000Y-87260000D03*
X122950000Y-89800000D03*
X122950000Y-92340000D03*
X122950000Y-94880000D03*
X122950000Y-97420000D03*
%TD*%
D23*
%TO.C,SW2*%
X109321600Y-110871000D03*
D24*
X111861600Y-110871000D03*
%TD*%
D25*
%TO.C,BZ1*%
X66294000Y-79776000D03*
D26*
X66294000Y-87376000D03*
%TD*%
D23*
%TO.C,J5*%
X122936000Y-61976000D03*
D24*
X122936000Y-64516000D03*
X122936000Y-67056000D03*
X122936000Y-69596000D03*
X122936000Y-72136000D03*
X122936000Y-74676000D03*
%TD*%
D23*
%TO.C,J1*%
X101981000Y-66929000D03*
D24*
X101981000Y-69469000D03*
X101981000Y-72009000D03*
X101981000Y-74549000D03*
X101981000Y-77089000D03*
X101981000Y-79629000D03*
X101981000Y-82169000D03*
X101981000Y-84709000D03*
X101981000Y-87249000D03*
X101981000Y-89789000D03*
X101981000Y-92329000D03*
X101981000Y-94869000D03*
X101981000Y-97409000D03*
X101981000Y-99949000D03*
X101981000Y-102489000D03*
X101981000Y-105029000D03*
X101981000Y-107569000D03*
X101981000Y-110109000D03*
X101981000Y-112649000D03*
%TD*%
D11*
%TO.C,R4*%
X67820000Y-105250000D03*
D12*
X67820000Y-95090000D03*
%TD*%
D23*
%TO.C,R2*%
X60147200Y-52781200D03*
D24*
X60147200Y-55321200D03*
%TD*%
D23*
%TO.C,R3*%
X65420000Y-112990000D03*
D24*
X65420000Y-110450000D03*
%TD*%
D23*
%TO.C,J3*%
X71755000Y-44577000D03*
D24*
X71755000Y-42037000D03*
X71755000Y-39497000D03*
X71755000Y-36957000D03*
%TD*%
D23*
%TO.C,J2*%
X76428600Y-66929000D03*
D24*
X76428600Y-69469000D03*
X76428600Y-72009000D03*
X76428600Y-74549000D03*
X76428600Y-77089000D03*
X76428600Y-79629000D03*
X76428600Y-82169000D03*
X76428600Y-84709000D03*
X76428600Y-87249000D03*
X76428600Y-89789000D03*
X76428600Y-92329000D03*
X76428600Y-94869000D03*
X76428600Y-97409000D03*
X76428600Y-99949000D03*
X76428600Y-102489000D03*
X76428600Y-105029000D03*
X76428600Y-107569000D03*
X76428600Y-110109000D03*
X76428600Y-112649000D03*
%TD*%
D23*
%TO.C,SW1*%
X113131600Y-63068200D03*
D24*
X110591600Y-63068200D03*
%TD*%
D23*
%TO.C,SW3*%
X60731400Y-73685400D03*
D24*
X60731400Y-71145400D03*
%TD*%
M02*
