%TF.GenerationSoftware,KiCad,Pcbnew,9.0.1*%
%TF.CreationDate,2025-07-05T17:29:08+03:00*%
%TF.ProjectId,Main,4d61696e-2e6b-4696-9361-645f70636258,rev?*%
%TF.SameCoordinates,Original*%
%TF.FileFunction,Legend,Bot*%
%TF.FilePolarity,Positive*%
%FSLAX46Y46*%
G04 Gerber Fmt 4.6, Leading zero omitted, Abs format (unit mm)*
G04 Created by KiCad (PCBNEW 9.0.1) date 2025-07-05 17:29:08*
%MOMM*%
%LPD*%
G01*
G04 APERTURE LIST*
%ADD10C,0.400000*%
%ADD11C,0.010000*%
%ADD12C,0.000000*%
G04 APERTURE END LIST*
D10*
G36*
X116270823Y-30584382D02*
G01*
X116270823Y-32645059D01*
X116142107Y-32677299D01*
X115989577Y-32703799D01*
X115827400Y-32721995D01*
X115669253Y-32729078D01*
X115493666Y-32714827D01*
X115344776Y-32674490D01*
X115253267Y-32632247D01*
X115173444Y-32580504D01*
X115104075Y-32519152D01*
X115018380Y-32408955D01*
X114954354Y-32275519D01*
X114916006Y-32127331D01*
X114902574Y-31956416D01*
X114903215Y-31946524D01*
X115327923Y-31946524D01*
X115338587Y-32073462D01*
X115368190Y-32176062D01*
X115414629Y-32259155D01*
X115480344Y-32323844D01*
X115564207Y-32363283D01*
X115672061Y-32377369D01*
X115775620Y-32373217D01*
X115853900Y-32363325D01*
X115853900Y-31599822D01*
X115811018Y-31577700D01*
X115751807Y-31557934D01*
X115688354Y-31545281D01*
X115624434Y-31541081D01*
X115535000Y-31552027D01*
X115465042Y-31582591D01*
X115409844Y-31632318D01*
X115367392Y-31704646D01*
X115338762Y-31806308D01*
X115327923Y-31946524D01*
X114903215Y-31946524D01*
X114913513Y-31787705D01*
X114944584Y-31641587D01*
X114997301Y-31508381D01*
X115067682Y-31399420D01*
X115158340Y-31310321D01*
X115269183Y-31243960D01*
X115395618Y-31203607D01*
X115546154Y-31189371D01*
X115631225Y-31193704D01*
X115708454Y-31206224D01*
X115853900Y-31253729D01*
X115853900Y-30517215D01*
X116270823Y-30584382D01*
G37*
G36*
X113313042Y-31220635D02*
G01*
X113443697Y-31637741D01*
X113576091Y-32016622D01*
X113720034Y-32383636D01*
X113875533Y-32737016D01*
X113936368Y-32856947D01*
X113993014Y-32950484D01*
X114055836Y-33032149D01*
X114121730Y-33095565D01*
X114196082Y-33145055D01*
X114279877Y-33179340D01*
X114372021Y-33198787D01*
X114485408Y-33205840D01*
X114581193Y-33201119D01*
X114665903Y-33187644D01*
X114801580Y-33147100D01*
X114728918Y-32814930D01*
X114614246Y-32845704D01*
X114507878Y-32854131D01*
X114435588Y-32846713D01*
X114379460Y-32826286D01*
X114335809Y-32794047D01*
X114282105Y-32725601D01*
X114233593Y-32627840D01*
X114372985Y-32338956D01*
X114519113Y-32001113D01*
X114654343Y-31641507D01*
X114787658Y-31220635D01*
X114345578Y-31220635D01*
X114279877Y-31456329D01*
X114200132Y-31713028D01*
X114114769Y-31965453D01*
X114032215Y-32188569D01*
X113956744Y-31965453D01*
X113879807Y-31713028D01*
X113807023Y-31456329D01*
X113744008Y-31220635D01*
X113313042Y-31220635D01*
G37*
G36*
X110953412Y-30751688D02*
G01*
X110953412Y-31126845D01*
X111538251Y-31126845D01*
X111538251Y-32690000D01*
X111974713Y-32690000D01*
X111974713Y-31126845D01*
X112559553Y-31126845D01*
X112559553Y-30751688D01*
X110953412Y-30751688D01*
G37*
G36*
X110480924Y-32393000D02*
G01*
X110374786Y-32386205D01*
X110318625Y-32370652D01*
X110283593Y-32339029D01*
X110270997Y-32283946D01*
X110284895Y-32238881D01*
X110332546Y-32195774D01*
X110402941Y-32158972D01*
X110520003Y-32110778D01*
X110697689Y-32035917D01*
X110772569Y-31992322D01*
X110833488Y-31942372D01*
X110882908Y-31882776D01*
X110920195Y-31812069D01*
X110942742Y-31731756D01*
X110950969Y-31629863D01*
X110940868Y-31529311D01*
X110911891Y-31442947D01*
X110864497Y-31367830D01*
X110797096Y-31302090D01*
X110717947Y-31251846D01*
X110623226Y-31214237D01*
X110509962Y-31190165D01*
X110374556Y-31181556D01*
X110241947Y-31187610D01*
X110117124Y-31205369D01*
X110000693Y-31231705D01*
X109921241Y-31257027D01*
X109994026Y-31581992D01*
X110152173Y-31537295D01*
X110240268Y-31522802D01*
X110343782Y-31517634D01*
X110442485Y-31527166D01*
X110499581Y-31550340D01*
X110529615Y-31582880D01*
X110539664Y-31626688D01*
X110531238Y-31671507D01*
X110497655Y-31709242D01*
X110429144Y-31747588D01*
X110318625Y-31791674D01*
X110188102Y-31841806D01*
X110091967Y-31886807D01*
X110009419Y-31938151D01*
X109950673Y-31991465D01*
X109906356Y-32052842D01*
X109877888Y-32119815D01*
X109862460Y-32193436D01*
X109856883Y-32283335D01*
X109867856Y-32390077D01*
X109898950Y-32478859D01*
X109949316Y-32553474D01*
X110020648Y-32616238D01*
X110103656Y-32662423D01*
X110205841Y-32697748D01*
X110331011Y-32720752D01*
X110483611Y-32729078D01*
X110671154Y-32719825D01*
X110809675Y-32695495D01*
X110990048Y-32639563D01*
X110920195Y-32303485D01*
X110812454Y-32340946D01*
X110701964Y-32369309D01*
X110590066Y-32387146D01*
X110480924Y-32393000D01*
G37*
G36*
X109145282Y-32690000D02*
G01*
X109284348Y-32397408D01*
X109434832Y-32036406D01*
X109575404Y-31652546D01*
X109713269Y-31220635D01*
X109271189Y-31220635D01*
X109205488Y-31456695D01*
X109127086Y-31713639D01*
X109045875Y-31966430D01*
X108966130Y-32189790D01*
X108887850Y-31966430D01*
X108805296Y-31713639D01*
X108727016Y-31456695D01*
X108661193Y-31220635D01*
X108230348Y-31220635D01*
X108368213Y-31652546D01*
X108508785Y-32036406D01*
X108659269Y-32397408D01*
X108798335Y-32690000D01*
X109145282Y-32690000D01*
G37*
G36*
X107541858Y-31194076D02*
G01*
X107671276Y-31231870D01*
X107791038Y-31293862D01*
X107896468Y-31379881D01*
X107983644Y-31487861D01*
X108054615Y-31624368D01*
X108087077Y-31723810D01*
X108107520Y-31837110D01*
X108114699Y-31966430D01*
X108102884Y-32124681D01*
X108068537Y-32268192D01*
X108009387Y-32399158D01*
X107925899Y-32509870D01*
X107857267Y-32571930D01*
X107776594Y-32625465D01*
X107682389Y-32670460D01*
X107582773Y-32702047D01*
X107468382Y-32722033D01*
X107336908Y-32729078D01*
X107180226Y-32720652D01*
X107033314Y-32699647D01*
X106908750Y-32670338D01*
X106819235Y-32636755D01*
X106875167Y-32296769D01*
X106950703Y-32323774D01*
X107055662Y-32348548D01*
X107166963Y-32364278D01*
X107280854Y-32369553D01*
X107398250Y-32360337D01*
X107491802Y-32334974D01*
X107566252Y-32295669D01*
X107627375Y-32239996D01*
X107666846Y-32174305D01*
X107686542Y-32096001D01*
X106740833Y-32096001D01*
X106735216Y-32018820D01*
X106732407Y-31938953D01*
X106741689Y-31806817D01*
X107135408Y-31806817D01*
X107686542Y-31806817D01*
X107659919Y-31702404D01*
X107637711Y-31653671D01*
X107608262Y-31611912D01*
X107570887Y-31576973D01*
X107524364Y-31549141D01*
X107470781Y-31531720D01*
X107403953Y-31525450D01*
X107335053Y-31532195D01*
X107282320Y-31550607D01*
X107237138Y-31579457D01*
X107201231Y-31614598D01*
X107173312Y-31656161D01*
X107153604Y-31703747D01*
X107135408Y-31806817D01*
X106741689Y-31806817D01*
X106745597Y-31751179D01*
X106782115Y-31598401D01*
X106838764Y-31474275D01*
X106914368Y-31373775D01*
X107011109Y-31291298D01*
X107123631Y-31231758D01*
X107255033Y-31194636D01*
X107409570Y-31181556D01*
X107541858Y-31194076D01*
G37*
G36*
X106425271Y-30857934D02*
G01*
X106008349Y-30790767D01*
X106008349Y-31220635D01*
X105507529Y-31220635D01*
X105507529Y-31564528D01*
X106008349Y-31564528D01*
X106008349Y-32081591D01*
X105995669Y-32204734D01*
X105962187Y-32291273D01*
X105924512Y-32332314D01*
X105865427Y-32359209D01*
X105776074Y-32369553D01*
X105637710Y-32356974D01*
X105507529Y-32322048D01*
X105448666Y-32645669D01*
X105616583Y-32698792D01*
X105714234Y-32715118D01*
X105843241Y-32721263D01*
X106005626Y-32708724D01*
X106125952Y-32675345D01*
X106228102Y-32619248D01*
X106304982Y-32547240D01*
X106361299Y-32457859D01*
X106398771Y-32348060D01*
X106418356Y-32227616D01*
X106425271Y-32089040D01*
X106425271Y-30857934D01*
G37*
G36*
X104722693Y-31195825D02*
G01*
X104860041Y-31237487D01*
X104984296Y-31304811D01*
X105089507Y-31393925D01*
X105174667Y-31503578D01*
X105240572Y-31636946D01*
X105281081Y-31784558D01*
X105295160Y-31952508D01*
X105281478Y-32120723D01*
X105242037Y-32269535D01*
X105177452Y-32404356D01*
X105093659Y-32515366D01*
X104989553Y-32605509D01*
X104865659Y-32673269D01*
X104727504Y-32714720D01*
X104570491Y-32729078D01*
X104410936Y-32714652D01*
X104272515Y-32673269D01*
X104148518Y-32605501D01*
X104044392Y-32515366D01*
X103961257Y-32404258D01*
X103898946Y-32269535D01*
X103861519Y-32120846D01*
X103848509Y-31952508D01*
X104273858Y-31952508D01*
X104283512Y-32078480D01*
X104309980Y-32178213D01*
X104350795Y-32256957D01*
X104409457Y-32319554D01*
X104481244Y-32356607D01*
X104570491Y-32369553D01*
X104659723Y-32356643D01*
X104731996Y-32319608D01*
X104791531Y-32256957D01*
X104833097Y-32178113D01*
X104860006Y-32078379D01*
X104869811Y-31952508D01*
X104859945Y-31826634D01*
X104832991Y-31727952D01*
X104791531Y-31650868D01*
X104732210Y-31589937D01*
X104659944Y-31553737D01*
X104570491Y-31541081D01*
X104481020Y-31553774D01*
X104409242Y-31589992D01*
X104350795Y-31650868D01*
X104310086Y-31727850D01*
X104283572Y-31826531D01*
X104273858Y-31952508D01*
X103848509Y-31952508D01*
X103862253Y-31784494D01*
X103901754Y-31636946D01*
X103966239Y-31503528D01*
X104050010Y-31393925D01*
X104154043Y-31304889D01*
X104278133Y-31237487D01*
X104415844Y-31195888D01*
X104570491Y-31181556D01*
X104722693Y-31195825D01*
G37*
G36*
X102718642Y-31904759D02*
G01*
X102725991Y-31768885D01*
X102744604Y-31677111D01*
X102770421Y-31617773D01*
X102811478Y-31572084D01*
X102868759Y-31543690D01*
X102947986Y-31533265D01*
X103029197Y-31537540D01*
X103110285Y-31547309D01*
X103110285Y-32690000D01*
X103527208Y-32690000D01*
X103527208Y-31265575D01*
X103402766Y-31236144D01*
X103251580Y-31208178D01*
X103087937Y-31188639D01*
X102922829Y-31181556D01*
X102771655Y-31192815D01*
X102664054Y-31222222D01*
X102570993Y-31268045D01*
X102500289Y-31318698D01*
X102405363Y-31261943D01*
X102294636Y-31217948D01*
X102180078Y-31190150D01*
X102080680Y-31181556D01*
X101963527Y-31187730D01*
X101868168Y-31204715D01*
X101791008Y-31230648D01*
X101688139Y-31290742D01*
X101610512Y-31369501D01*
X101554515Y-31466031D01*
X101518188Y-31582480D01*
X101499627Y-31709543D01*
X101493031Y-31857254D01*
X101493031Y-32690000D01*
X101909954Y-32690000D01*
X101909954Y-31904759D01*
X101917303Y-31768885D01*
X101935916Y-31677111D01*
X101961733Y-31617773D01*
X102002794Y-31572091D01*
X102060110Y-31543693D01*
X102139420Y-31533265D01*
X102233209Y-31550118D01*
X102289967Y-31569761D01*
X102332494Y-31592006D01*
X102307337Y-31728538D01*
X102301719Y-31882044D01*
X102301719Y-32690000D01*
X102718642Y-32690000D01*
X102718642Y-31904759D01*
G37*
G36*
X100697166Y-32690000D02*
G01*
X101114089Y-32690000D01*
X101114089Y-31220635D01*
X100697166Y-31220635D01*
X100697166Y-32690000D01*
G37*
G36*
X100658087Y-30794675D02*
G01*
X100666862Y-30867799D01*
X100691650Y-30926879D01*
X100732215Y-30975170D01*
X100784701Y-31011729D01*
X100842411Y-31033458D01*
X100907093Y-31040872D01*
X100971775Y-31033458D01*
X101029485Y-31011729D01*
X101081971Y-30975170D01*
X101122536Y-30926879D01*
X101147324Y-30867799D01*
X101156098Y-30794675D01*
X101147321Y-30721555D01*
X101122531Y-30662519D01*
X101081971Y-30614302D01*
X101029476Y-30577671D01*
X100971767Y-30555904D01*
X100907093Y-30548478D01*
X100842418Y-30555904D01*
X100784709Y-30577671D01*
X100732215Y-30614302D01*
X100691654Y-30662519D01*
X100666865Y-30721555D01*
X100658087Y-30794675D01*
G37*
G36*
X99418188Y-31585900D02*
G01*
X99549713Y-31556468D01*
X99626799Y-31545045D01*
X99712013Y-31541081D01*
X99805680Y-31548042D01*
X99888234Y-31563429D01*
X99888234Y-32690000D01*
X100305156Y-32690000D01*
X100305156Y-31298548D01*
X100187855Y-31261746D01*
X100040763Y-31224420D01*
X99883456Y-31198547D01*
X99700777Y-31189371D01*
X99619689Y-31193646D01*
X99524556Y-31204759D01*
X99429424Y-31221612D01*
X99348213Y-31245303D01*
X99418188Y-31585900D01*
G37*
G36*
X97898021Y-32353921D02*
G01*
X97809766Y-32349692D01*
X97745613Y-32338656D01*
X97689337Y-32319603D01*
X97649015Y-32296769D01*
X97617768Y-32267264D01*
X97598701Y-32234120D01*
X97584657Y-32153154D01*
X97594276Y-32094475D01*
X97623087Y-32042757D01*
X97674172Y-31995739D01*
X97781507Y-31936896D01*
X97981918Y-31860184D01*
X98172184Y-31783248D01*
X98262872Y-31734026D01*
X98342909Y-31674193D01*
X98411054Y-31601974D01*
X98466008Y-31514825D01*
X98500883Y-31414454D01*
X98513513Y-31286702D01*
X98500552Y-31157199D01*
X98463199Y-31044658D01*
X98402314Y-30945036D01*
X98320439Y-30861475D01*
X98220295Y-30795676D01*
X98096590Y-30745338D01*
X97960105Y-30715401D01*
X97800080Y-30704794D01*
X97611411Y-30716069D01*
X97461559Y-30746803D01*
X97326049Y-30792948D01*
X97226475Y-30839127D01*
X97352382Y-31186196D01*
X97436479Y-31147397D01*
X97532878Y-31112191D01*
X97637737Y-31088640D01*
X97771992Y-31079951D01*
X97876735Y-31085980D01*
X97949091Y-31101418D01*
X97997306Y-31123182D01*
X98035139Y-31156813D01*
X98057785Y-31199898D01*
X98065816Y-31255561D01*
X98059232Y-31305412D01*
X98040659Y-31344832D01*
X98011215Y-31378470D01*
X97969340Y-31410411D01*
X97863094Y-31463412D01*
X97730104Y-31512383D01*
X97467177Y-31622903D01*
X97362530Y-31683408D01*
X97281063Y-31750153D01*
X97216414Y-31829067D01*
X97170544Y-31920757D01*
X97143956Y-32024569D01*
X97134151Y-32158405D01*
X97146905Y-32290760D01*
X97183170Y-32402533D01*
X97241848Y-32497864D01*
X97324417Y-32579480D01*
X97421729Y-32640173D01*
X97545622Y-32686973D01*
X97702033Y-32717796D01*
X97898021Y-32729078D01*
X98023618Y-32725018D01*
X98130296Y-32713691D01*
X98313478Y-32675956D01*
X98450620Y-32628328D01*
X98547096Y-32580701D01*
X98423998Y-32230823D01*
X98331317Y-32274246D01*
X98210041Y-32316186D01*
X98075111Y-32343649D01*
X97898021Y-32353921D01*
G37*
G36*
X96839228Y-30857934D02*
G01*
X96422306Y-30790767D01*
X96422306Y-31220635D01*
X95921486Y-31220635D01*
X95921486Y-31564528D01*
X96422306Y-31564528D01*
X96422306Y-32081591D01*
X96409626Y-32204734D01*
X96376144Y-32291273D01*
X96338469Y-32332314D01*
X96279383Y-32359209D01*
X96190031Y-32369553D01*
X96051667Y-32356974D01*
X95921486Y-32322048D01*
X95862623Y-32645669D01*
X96030540Y-32698792D01*
X96128191Y-32715118D01*
X96257197Y-32721263D01*
X96419583Y-32708724D01*
X96539909Y-32675345D01*
X96642059Y-32619248D01*
X96718939Y-32547240D01*
X96775256Y-32457859D01*
X96812728Y-32348060D01*
X96832312Y-32227616D01*
X96839228Y-32089040D01*
X96839228Y-30857934D01*
G37*
G36*
X95254458Y-31188517D02*
G01*
X95390135Y-31205369D01*
X95509082Y-31227718D01*
X95599940Y-31251409D01*
X95546817Y-31584190D01*
X95467338Y-31560119D01*
X95367787Y-31540837D01*
X95157860Y-31525450D01*
X95053148Y-31534239D01*
X94981544Y-31556932D01*
X94934012Y-31590052D01*
X94898872Y-31636683D01*
X94877284Y-31692883D01*
X94869654Y-31761388D01*
X94869654Y-31800711D01*
X94971869Y-31782515D01*
X95115851Y-31775554D01*
X95234863Y-31781580D01*
X95348248Y-31799368D01*
X95455248Y-31831002D01*
X95546817Y-31876304D01*
X95624649Y-31938378D01*
X95685303Y-32018942D01*
X95723409Y-32115237D01*
X95737082Y-32237173D01*
X95725121Y-32364915D01*
X95692386Y-32463831D01*
X95637722Y-32547511D01*
X95563670Y-32613551D01*
X95473552Y-32662088D01*
X95363513Y-32696106D01*
X95243810Y-32714672D01*
X95104738Y-32721263D01*
X94886374Y-32714006D01*
X94718590Y-32694640D01*
X94469584Y-32648478D01*
X94469584Y-32073653D01*
X94869654Y-32073653D01*
X94869654Y-32389703D01*
X94959291Y-32398007D01*
X95076772Y-32400816D01*
X95184101Y-32390329D01*
X95257267Y-32363080D01*
X95292704Y-32332629D01*
X95314801Y-32289036D01*
X95322969Y-32227526D01*
X95317055Y-32180129D01*
X95300620Y-32143628D01*
X95274295Y-32113813D01*
X95239071Y-32090505D01*
X95197727Y-32074314D01*
X95148091Y-32063883D01*
X95037571Y-32056922D01*
X94945247Y-32062540D01*
X94869654Y-32073653D01*
X94469584Y-32073653D01*
X94469584Y-31782271D01*
X94477606Y-31649040D01*
X94500359Y-31533632D01*
X94542440Y-31429410D01*
X94605261Y-31343611D01*
X94689315Y-31275850D01*
X94802487Y-31223443D01*
X94933897Y-31193021D01*
X95110355Y-31181556D01*
X95254458Y-31188517D01*
G37*
G36*
X92822044Y-31220635D02*
G01*
X92952699Y-31637741D01*
X93085093Y-32016622D01*
X93229036Y-32383636D01*
X93384535Y-32737016D01*
X93445370Y-32856947D01*
X93502016Y-32950484D01*
X93564839Y-33032149D01*
X93630732Y-33095565D01*
X93705084Y-33145055D01*
X93788879Y-33179340D01*
X93881023Y-33198787D01*
X93994410Y-33205840D01*
X94090195Y-33201119D01*
X94174905Y-33187644D01*
X94310582Y-33147100D01*
X94237920Y-32814930D01*
X94123248Y-32845704D01*
X94016880Y-32854131D01*
X93944590Y-32846713D01*
X93888462Y-32826286D01*
X93844811Y-32794047D01*
X93791107Y-32725601D01*
X93742595Y-32627840D01*
X93881987Y-32338956D01*
X94028115Y-32001113D01*
X94163345Y-31641507D01*
X94296660Y-31220635D01*
X93854581Y-31220635D01*
X93788879Y-31456329D01*
X93709134Y-31713028D01*
X93623771Y-31965453D01*
X93541217Y-32188569D01*
X93465746Y-31965453D01*
X93388809Y-31713028D01*
X93316025Y-31456329D01*
X93253010Y-31220635D01*
X92822044Y-31220635D01*
G37*
G36*
X92181883Y-31743558D02*
G01*
X92054633Y-31605928D01*
X91927260Y-31464267D01*
X91811245Y-31330788D01*
X91717456Y-31220635D01*
X91222131Y-31220635D01*
X91511803Y-31545844D01*
X91821015Y-31865436D01*
X91738012Y-31945877D01*
X91647602Y-32045809D01*
X91474068Y-32262452D01*
X91320195Y-32486057D01*
X91202592Y-32690000D01*
X91681063Y-32690000D01*
X91783279Y-32529410D01*
X91904912Y-32353433D01*
X92040589Y-32184417D01*
X92113314Y-32107964D01*
X92181883Y-32047519D01*
X92181883Y-32690000D01*
X92598806Y-32690000D01*
X92598806Y-30584382D01*
X92181883Y-30517215D01*
X92181883Y-31743558D01*
G37*
G36*
X90576148Y-31195825D02*
G01*
X90713495Y-31237487D01*
X90837750Y-31304811D01*
X90942962Y-31393925D01*
X91028121Y-31503578D01*
X91094026Y-31636946D01*
X91134535Y-31784558D01*
X91148614Y-31952508D01*
X91134932Y-32120723D01*
X91095491Y-32269535D01*
X91030907Y-32404356D01*
X90947114Y-32515366D01*
X90843007Y-32605509D01*
X90719113Y-32673269D01*
X90580958Y-32714720D01*
X90423946Y-32729078D01*
X90264390Y-32714652D01*
X90125969Y-32673269D01*
X90001973Y-32605501D01*
X89897846Y-32515366D01*
X89814711Y-32404258D01*
X89752400Y-32269535D01*
X89714973Y-32120846D01*
X89701964Y-31952508D01*
X90127313Y-31952508D01*
X90136966Y-32078480D01*
X90163435Y-32178213D01*
X90204249Y-32256957D01*
X90262912Y-32319554D01*
X90334698Y-32356607D01*
X90423946Y-32369553D01*
X90513177Y-32356643D01*
X90585450Y-32319608D01*
X90644985Y-32256957D01*
X90686551Y-32178113D01*
X90713460Y-32078379D01*
X90723265Y-31952508D01*
X90713400Y-31826634D01*
X90686445Y-31727952D01*
X90644985Y-31650868D01*
X90585664Y-31589937D01*
X90513399Y-31553737D01*
X90423946Y-31541081D01*
X90334474Y-31553774D01*
X90262697Y-31589992D01*
X90204249Y-31650868D01*
X90163540Y-31727850D01*
X90137026Y-31826531D01*
X90127313Y-31952508D01*
X89701964Y-31952508D01*
X89715707Y-31784494D01*
X89755209Y-31636946D01*
X89819693Y-31503528D01*
X89903464Y-31393925D01*
X90007497Y-31304889D01*
X90131587Y-31237487D01*
X90269298Y-31195888D01*
X90423946Y-31181556D01*
X90576148Y-31195825D01*
G37*
G36*
X89019671Y-32690000D02*
G01*
X89158737Y-32397408D01*
X89309221Y-32036406D01*
X89449793Y-31652546D01*
X89587658Y-31220635D01*
X89145578Y-31220635D01*
X89079877Y-31456695D01*
X89001475Y-31713639D01*
X88920264Y-31966430D01*
X88840519Y-32189790D01*
X88762239Y-31966430D01*
X88679685Y-31713639D01*
X88601405Y-31456695D01*
X88535582Y-31220635D01*
X88104738Y-31220635D01*
X88242602Y-31652546D01*
X88383174Y-32036406D01*
X88533658Y-32397408D01*
X88672724Y-32690000D01*
X89019671Y-32690000D01*
G37*
G36*
X86798527Y-31853712D02*
G01*
X86786857Y-32071661D01*
X86752294Y-32280679D01*
X86695090Y-32482149D01*
X86617699Y-32677213D01*
X86527144Y-32855511D01*
X86423614Y-33018384D01*
X86714629Y-33205840D01*
X86861050Y-33013966D01*
X86982966Y-32807723D01*
X87081116Y-32585708D01*
X87152166Y-32353554D01*
X87195234Y-32110209D01*
X87209832Y-31853712D01*
X87195232Y-31597216D01*
X87152163Y-31353913D01*
X87081116Y-31121838D01*
X86982960Y-30899745D01*
X86861043Y-30693462D01*
X86714629Y-30501584D01*
X86423614Y-30689040D01*
X86527144Y-30851913D01*
X86617699Y-31030211D01*
X86695090Y-31225275D01*
X86752294Y-31426745D01*
X86786857Y-31635763D01*
X86798527Y-31853712D01*
G37*
G36*
X85040253Y-31194076D02*
G01*
X85169671Y-31231870D01*
X85289432Y-31293862D01*
X85394863Y-31379881D01*
X85482039Y-31487861D01*
X85553010Y-31624368D01*
X85585472Y-31723810D01*
X85605915Y-31837110D01*
X85613094Y-31966430D01*
X85601279Y-32124681D01*
X85566932Y-32268192D01*
X85507782Y-32399158D01*
X85424294Y-32509870D01*
X85355662Y-32571930D01*
X85274989Y-32625465D01*
X85180784Y-32670460D01*
X85081168Y-32702047D01*
X84966777Y-32722033D01*
X84835303Y-32729078D01*
X84678621Y-32720652D01*
X84531709Y-32699647D01*
X84407145Y-32670338D01*
X84317630Y-32636755D01*
X84373562Y-32296769D01*
X84449098Y-32323774D01*
X84554057Y-32348548D01*
X84665358Y-32364278D01*
X84779249Y-32369553D01*
X84896645Y-32360337D01*
X84990197Y-32334974D01*
X85064647Y-32295669D01*
X85125770Y-32239996D01*
X85165241Y-32174305D01*
X85184936Y-32096001D01*
X84239228Y-32096001D01*
X84233611Y-32018820D01*
X84230802Y-31938953D01*
X84240084Y-31806817D01*
X84633802Y-31806817D01*
X85184936Y-31806817D01*
X85158314Y-31702404D01*
X85136106Y-31653671D01*
X85106657Y-31611912D01*
X85069282Y-31576973D01*
X85022759Y-31549141D01*
X84969176Y-31531720D01*
X84902348Y-31525450D01*
X84833448Y-31532195D01*
X84780715Y-31550607D01*
X84735533Y-31579457D01*
X84699626Y-31614598D01*
X84671707Y-31656161D01*
X84651999Y-31703747D01*
X84633802Y-31806817D01*
X84240084Y-31806817D01*
X84243992Y-31751179D01*
X84280510Y-31598401D01*
X84337159Y-31474275D01*
X84412763Y-31373775D01*
X84509504Y-31291298D01*
X84622026Y-31231758D01*
X84753428Y-31194636D01*
X84907965Y-31181556D01*
X85040253Y-31194076D01*
G37*
G36*
X82935948Y-31087766D02*
G01*
X83088450Y-31100126D01*
X83208623Y-31134020D01*
X83303084Y-31186431D01*
X83376685Y-31256905D01*
X83433404Y-31344071D01*
X83475712Y-31447981D01*
X83502720Y-31571827D01*
X83512361Y-31719501D01*
X83503611Y-31858093D01*
X83478778Y-31978032D01*
X83436079Y-32087349D01*
X83378028Y-32177822D01*
X83302780Y-32252042D01*
X83210111Y-32307882D01*
X83103813Y-32341846D01*
X82975027Y-32353921D01*
X82850585Y-32351113D01*
X82759605Y-32339877D01*
X82759605Y-31666133D01*
X82323143Y-31666133D01*
X82323143Y-32628328D01*
X82413975Y-32657137D01*
X82575080Y-32694030D01*
X82758572Y-32719458D01*
X83002993Y-32729078D01*
X83147347Y-32721235D01*
X83278829Y-32698518D01*
X83399033Y-32661789D01*
X83512758Y-32609481D01*
X83613474Y-32544171D01*
X83702505Y-32465540D01*
X83778981Y-32374549D01*
X83843832Y-32269523D01*
X83897044Y-32148757D01*
X83934179Y-32021692D01*
X83957438Y-31879396D01*
X83965554Y-31719745D01*
X83956612Y-31558495D01*
X83931003Y-31415386D01*
X83890083Y-31288046D01*
X83832454Y-31167333D01*
X83763441Y-31061758D01*
X83682965Y-30969797D01*
X83590402Y-30890048D01*
X83487698Y-30824292D01*
X83373754Y-30772083D01*
X83253681Y-30734946D01*
X83127673Y-30712429D01*
X82994689Y-30704794D01*
X82860894Y-30709589D01*
X82747027Y-30722990D01*
X82556761Y-30765000D01*
X82425237Y-30813970D01*
X82351109Y-30853171D01*
X82477016Y-31205369D01*
X82570795Y-31161881D01*
X82682669Y-31122815D01*
X82802135Y-31096797D01*
X82935948Y-31087766D01*
G37*
G36*
X80689647Y-32637365D02*
G01*
X80804048Y-32665523D01*
X80963932Y-32694640D01*
X81134110Y-32714468D01*
X81316374Y-32721263D01*
X81440955Y-32715000D01*
X81543839Y-32697673D01*
X81628394Y-32671071D01*
X81707570Y-32631993D01*
X81772759Y-32585070D01*
X81825742Y-32530265D01*
X81887261Y-32432256D01*
X81929179Y-32314110D01*
X81951958Y-32184967D01*
X81959954Y-32037871D01*
X81959954Y-31220635D01*
X81543031Y-31220635D01*
X81543031Y-31989389D01*
X81535627Y-32124090D01*
X81516644Y-32217570D01*
X81489909Y-32280160D01*
X81446997Y-32327770D01*
X81383396Y-32358137D01*
X81291217Y-32369553D01*
X81196207Y-32365401D01*
X81106569Y-32355631D01*
X81106569Y-31220635D01*
X80689647Y-31220635D01*
X80689647Y-32637365D01*
G37*
G36*
X79912100Y-31188517D02*
G01*
X80047777Y-31205369D01*
X80166723Y-31227718D01*
X80257581Y-31251409D01*
X80204458Y-31584190D01*
X80124979Y-31560119D01*
X80025428Y-31540837D01*
X79815502Y-31525450D01*
X79710789Y-31534239D01*
X79639185Y-31556932D01*
X79591653Y-31590052D01*
X79556514Y-31636683D01*
X79534925Y-31692883D01*
X79527295Y-31761388D01*
X79527295Y-31800711D01*
X79629511Y-31782515D01*
X79773492Y-31775554D01*
X79892505Y-31781580D01*
X80005889Y-31799368D01*
X80112889Y-31831002D01*
X80204458Y-31876304D01*
X80282290Y-31938378D01*
X80342944Y-32018942D01*
X80381050Y-32115237D01*
X80394724Y-32237173D01*
X80382762Y-32364915D01*
X80350027Y-32463831D01*
X80295363Y-32547511D01*
X80221311Y-32613551D01*
X80131194Y-32662088D01*
X80021154Y-32696106D01*
X79901451Y-32714672D01*
X79762379Y-32721263D01*
X79544016Y-32714006D01*
X79376231Y-32694640D01*
X79127225Y-32648478D01*
X79127225Y-32073653D01*
X79527295Y-32073653D01*
X79527295Y-32389703D01*
X79616932Y-32398007D01*
X79734413Y-32400816D01*
X79841743Y-32390329D01*
X79914909Y-32363080D01*
X79950346Y-32332629D01*
X79972442Y-32289036D01*
X79980610Y-32227526D01*
X79974697Y-32180129D01*
X79958262Y-32143628D01*
X79931936Y-32113813D01*
X79896712Y-32090505D01*
X79855368Y-32074314D01*
X79805732Y-32063883D01*
X79695212Y-32056922D01*
X79602888Y-32062540D01*
X79527295Y-32073653D01*
X79127225Y-32073653D01*
X79127225Y-31782271D01*
X79135247Y-31649040D01*
X79158000Y-31533632D01*
X79200081Y-31429410D01*
X79262902Y-31343611D01*
X79346956Y-31275850D01*
X79460128Y-31223443D01*
X79591538Y-31193021D01*
X79767996Y-31181556D01*
X79912100Y-31188517D01*
G37*
G36*
X77862292Y-31585900D02*
G01*
X77993816Y-31556468D01*
X78070902Y-31545045D01*
X78156116Y-31541081D01*
X78249783Y-31548042D01*
X78332337Y-31563429D01*
X78332337Y-32690000D01*
X78749260Y-32690000D01*
X78749260Y-31298548D01*
X78631958Y-31261746D01*
X78484867Y-31224420D01*
X78327559Y-31198547D01*
X78144881Y-31189371D01*
X78063792Y-31193646D01*
X77968659Y-31204759D01*
X77873527Y-31221612D01*
X77792316Y-31245303D01*
X77862292Y-31585900D01*
G37*
G36*
X76715083Y-30584382D02*
G01*
X76715083Y-31253729D01*
X76853569Y-31206224D01*
X76924568Y-31193815D01*
X77008907Y-31189371D01*
X77159717Y-31203236D01*
X77287344Y-31242616D01*
X77399711Y-31307780D01*
X77492996Y-31396612D01*
X77565992Y-31506085D01*
X77621712Y-31641587D01*
X77654745Y-31790949D01*
X77666409Y-31964842D01*
X77652949Y-32135583D01*
X77614629Y-32282602D01*
X77550618Y-32414535D01*
X77464909Y-32523304D01*
X77395589Y-32583744D01*
X77315813Y-32634598D01*
X77224329Y-32675956D01*
X77075408Y-32715200D01*
X76899731Y-32729078D01*
X76741706Y-32721995D01*
X76579406Y-32703799D01*
X76426876Y-32677299D01*
X76298160Y-32645059D01*
X76298160Y-31599822D01*
X76715083Y-31599822D01*
X76715083Y-32363325D01*
X76793485Y-32373217D01*
X76896922Y-32377369D01*
X77004776Y-32363283D01*
X77088639Y-32323844D01*
X77154354Y-32259155D01*
X77200793Y-32176062D01*
X77230396Y-32073462D01*
X77241060Y-31946524D01*
X77230221Y-31806308D01*
X77201591Y-31704646D01*
X77159139Y-31632318D01*
X77103941Y-31582591D01*
X77033983Y-31552027D01*
X76944549Y-31541081D01*
X76880646Y-31545283D01*
X76817299Y-31557934D01*
X76757981Y-31577705D01*
X76715083Y-31599822D01*
X76298160Y-31599822D01*
X76298160Y-30517215D01*
X76715083Y-30584382D01*
G37*
G36*
X75489350Y-32690000D02*
G01*
X75906273Y-32690000D01*
X75906273Y-31220635D01*
X75489350Y-31220635D01*
X75489350Y-32690000D01*
G37*
G36*
X75450271Y-30794675D02*
G01*
X75459046Y-30867799D01*
X75483834Y-30926879D01*
X75524399Y-30975170D01*
X75576885Y-31011729D01*
X75634595Y-31033458D01*
X75699277Y-31040872D01*
X75763959Y-31033458D01*
X75821669Y-31011729D01*
X75874155Y-30975170D01*
X75914720Y-30926879D01*
X75939508Y-30867799D01*
X75948283Y-30794675D01*
X75939505Y-30721555D01*
X75914716Y-30662519D01*
X75874155Y-30614302D01*
X75821661Y-30577671D01*
X75763952Y-30555904D01*
X75699277Y-30548478D01*
X75634603Y-30555904D01*
X75576893Y-30577671D01*
X75524399Y-30614302D01*
X75483839Y-30662519D01*
X75459049Y-30721555D01*
X75450271Y-30794675D01*
G37*
G36*
X74712658Y-31188517D02*
G01*
X74848335Y-31205369D01*
X74967281Y-31227718D01*
X75058140Y-31251409D01*
X75005017Y-31584190D01*
X74925538Y-31560119D01*
X74825987Y-31540837D01*
X74616060Y-31525450D01*
X74511347Y-31534239D01*
X74439743Y-31556932D01*
X74392211Y-31590052D01*
X74357072Y-31636683D01*
X74335483Y-31692883D01*
X74327853Y-31761388D01*
X74327853Y-31800711D01*
X74430069Y-31782515D01*
X74574050Y-31775554D01*
X74693063Y-31781580D01*
X74806447Y-31799368D01*
X74913447Y-31831002D01*
X75005017Y-31876304D01*
X75082848Y-31938378D01*
X75143502Y-32018942D01*
X75181609Y-32115237D01*
X75195282Y-32237173D01*
X75183321Y-32364915D01*
X75150585Y-32463831D01*
X75095922Y-32547511D01*
X75021869Y-32613551D01*
X74931752Y-32662088D01*
X74821712Y-32696106D01*
X74702009Y-32714672D01*
X74562937Y-32721263D01*
X74344574Y-32714006D01*
X74176789Y-32694640D01*
X73927784Y-32648478D01*
X73927784Y-32073653D01*
X74327853Y-32073653D01*
X74327853Y-32389703D01*
X74417491Y-32398007D01*
X74534971Y-32400816D01*
X74642301Y-32390329D01*
X74715467Y-32363080D01*
X74750904Y-32332629D01*
X74773000Y-32289036D01*
X74781168Y-32227526D01*
X74775255Y-32180129D01*
X74758820Y-32143628D01*
X74732494Y-32113813D01*
X74697271Y-32090505D01*
X74655927Y-32074314D01*
X74606290Y-32063883D01*
X74495770Y-32056922D01*
X74403447Y-32062540D01*
X74327853Y-32073653D01*
X73927784Y-32073653D01*
X73927784Y-31782271D01*
X73935806Y-31649040D01*
X73958558Y-31533632D01*
X74000639Y-31429410D01*
X74063461Y-31343611D01*
X74147515Y-31275850D01*
X74260687Y-31223443D01*
X74392097Y-31193021D01*
X74568555Y-31181556D01*
X74712658Y-31188517D01*
G37*
G36*
X73549818Y-31265575D02*
G01*
X73435431Y-31237387D01*
X73275655Y-31208178D01*
X73105369Y-31188349D01*
X72923091Y-31181556D01*
X72798449Y-31187687D01*
X72695562Y-31204644D01*
X72611070Y-31230648D01*
X72531865Y-31269028D01*
X72466728Y-31315306D01*
X72413844Y-31369501D01*
X72352176Y-31466306D01*
X72310285Y-31582480D01*
X72287553Y-31709770D01*
X72279511Y-31857254D01*
X72279511Y-32690000D01*
X72696433Y-32690000D01*
X72696433Y-31904759D01*
X72703976Y-31769001D01*
X72723095Y-31677222D01*
X72749678Y-31617773D01*
X72792090Y-31573071D01*
X72855563Y-31544198D01*
X72948248Y-31533265D01*
X73043380Y-31537540D01*
X73132895Y-31547309D01*
X73132895Y-32690000D01*
X73549818Y-32690000D01*
X73549818Y-31265575D01*
G37*
G36*
X71558017Y-30738011D02*
G01*
X71719787Y-30752482D01*
X71872724Y-30775746D01*
X71872724Y-32663133D01*
X71720588Y-32688612D01*
X71564978Y-32703677D01*
X71290694Y-32713447D01*
X71119782Y-32706198D01*
X70965559Y-32685351D01*
X70826266Y-32652020D01*
X70692302Y-32602884D01*
X70575909Y-32541279D01*
X70475045Y-32467494D01*
X70387045Y-32379184D01*
X70313047Y-32276276D01*
X70252662Y-32157062D01*
X70210326Y-32029848D01*
X70183642Y-31884470D01*
X70174343Y-31719501D01*
X70624766Y-31719501D01*
X70635786Y-31863827D01*
X70666810Y-31985127D01*
X70715939Y-32087451D01*
X70782913Y-32173914D01*
X70866440Y-32242030D01*
X70971700Y-32293145D01*
X71103575Y-32326257D01*
X71268345Y-32338290D01*
X71364943Y-32336946D01*
X71436262Y-32332672D01*
X71436262Y-31111824D01*
X71346747Y-31104863D01*
X71254424Y-31103398D01*
X71088778Y-31115042D01*
X70958126Y-31146843D01*
X70855641Y-31195460D01*
X70775952Y-31259591D01*
X70713026Y-31341464D01*
X70665981Y-31442501D01*
X70635697Y-31566784D01*
X70624766Y-31719501D01*
X70174343Y-31719501D01*
X70174260Y-31718035D01*
X70183785Y-31543998D01*
X70210604Y-31395157D01*
X70252662Y-31267896D01*
X70313271Y-31148923D01*
X70387747Y-31047037D01*
X70476510Y-30960394D01*
X70578077Y-30888420D01*
X70693569Y-30829617D01*
X70824800Y-30784173D01*
X70961122Y-30753797D01*
X71111270Y-30734825D01*
X71276772Y-30728241D01*
X71558017Y-30738011D01*
G37*
G36*
X69334461Y-31194076D02*
G01*
X69463879Y-31231870D01*
X69583640Y-31293862D01*
X69689071Y-31379881D01*
X69776247Y-31487861D01*
X69847218Y-31624368D01*
X69879680Y-31723810D01*
X69900122Y-31837110D01*
X69907302Y-31966430D01*
X69895487Y-32124681D01*
X69861140Y-32268192D01*
X69801990Y-32399158D01*
X69718502Y-32509870D01*
X69649870Y-32571930D01*
X69569197Y-32625465D01*
X69474992Y-32670460D01*
X69375376Y-32702047D01*
X69260984Y-32722033D01*
X69129511Y-32729078D01*
X68972829Y-32720652D01*
X68825917Y-32699647D01*
X68701353Y-32670338D01*
X68611838Y-32636755D01*
X68667770Y-32296769D01*
X68743306Y-32323774D01*
X68848265Y-32348548D01*
X68959566Y-32364278D01*
X69073457Y-32369553D01*
X69190853Y-32360337D01*
X69284405Y-32334974D01*
X69358855Y-32295669D01*
X69419978Y-32239996D01*
X69459449Y-32174305D01*
X69479144Y-32096001D01*
X68533436Y-32096001D01*
X68527819Y-32018820D01*
X68525010Y-31938953D01*
X68534292Y-31806817D01*
X68928010Y-31806817D01*
X69479144Y-31806817D01*
X69452522Y-31702404D01*
X69430314Y-31653671D01*
X69400865Y-31611912D01*
X69363490Y-31576973D01*
X69316967Y-31549141D01*
X69263384Y-31531720D01*
X69196555Y-31525450D01*
X69127656Y-31532195D01*
X69074923Y-31550607D01*
X69029741Y-31579457D01*
X68993834Y-31614598D01*
X68965915Y-31656161D01*
X68946207Y-31703747D01*
X68928010Y-31806817D01*
X68534292Y-31806817D01*
X68538200Y-31751179D01*
X68574718Y-31598401D01*
X68631367Y-31474275D01*
X68706971Y-31373775D01*
X68803712Y-31291298D01*
X68916234Y-31231758D01*
X69047636Y-31194636D01*
X69202173Y-31181556D01*
X69334461Y-31194076D01*
G37*
G36*
X67803761Y-32690000D02*
G01*
X67942827Y-32397408D01*
X68093311Y-32036406D01*
X68233883Y-31652546D01*
X68371747Y-31220635D01*
X67929668Y-31220635D01*
X67863966Y-31456695D01*
X67785565Y-31713639D01*
X67704354Y-31966430D01*
X67624609Y-32189790D01*
X67546329Y-31966430D01*
X67463775Y-31713639D01*
X67385495Y-31456695D01*
X67319671Y-31220635D01*
X66888827Y-31220635D01*
X67026692Y-31652546D01*
X67167264Y-32036406D01*
X67317747Y-32397408D01*
X67456814Y-32690000D01*
X67803761Y-32690000D01*
G37*
G36*
X65800847Y-31853712D02*
G01*
X65812530Y-31635767D01*
X65847134Y-31426750D01*
X65904406Y-31225275D01*
X65981727Y-31030215D01*
X66072241Y-30851917D01*
X66175760Y-30689040D01*
X65884867Y-30501584D01*
X65738380Y-30693469D01*
X65616424Y-30899752D01*
X65518258Y-31121838D01*
X65447211Y-31353913D01*
X65404142Y-31597216D01*
X65389542Y-31853712D01*
X65404140Y-32110209D01*
X65447208Y-32353554D01*
X65518258Y-32585708D01*
X65616418Y-32807716D01*
X65738374Y-33013959D01*
X65884867Y-33205840D01*
X66175760Y-33018384D01*
X66072241Y-32855507D01*
X65981727Y-32677209D01*
X65904406Y-32482149D01*
X65847134Y-32280674D01*
X65812530Y-32071657D01*
X65800847Y-31853712D01*
G37*
D11*
%TO.C,REF\u002A\u002A*%
X84591185Y-91935989D02*
X84616906Y-91951687D01*
X84643557Y-91973267D01*
X84643557Y-92620724D01*
X84616906Y-92642304D01*
X84585546Y-92659779D01*
X84549745Y-92660615D01*
X84518307Y-92640122D01*
X84514431Y-92635456D01*
X84508965Y-92625989D01*
X84504758Y-92612307D01*
X84501646Y-92591788D01*
X84499466Y-92561808D01*
X84498055Y-92519744D01*
X84497250Y-92462972D01*
X84496886Y-92388870D01*
X84496801Y-92294813D01*
X84496801Y-91973267D01*
X84523452Y-91951687D01*
X84547165Y-91936917D01*
X84570179Y-91930107D01*
X84591185Y-91935989D01*
G36*
X84591185Y-91935989D02*
G01*
X84616906Y-91951687D01*
X84643557Y-91973267D01*
X84643557Y-92620724D01*
X84616906Y-92642304D01*
X84585546Y-92659779D01*
X84549745Y-92660615D01*
X84518307Y-92640122D01*
X84514431Y-92635456D01*
X84508965Y-92625989D01*
X84504758Y-92612307D01*
X84501646Y-92591788D01*
X84499466Y-92561808D01*
X84498055Y-92519744D01*
X84497250Y-92462972D01*
X84496886Y-92388870D01*
X84496801Y-92294813D01*
X84496801Y-91973267D01*
X84523452Y-91951687D01*
X84547165Y-91936917D01*
X84570179Y-91930107D01*
X84591185Y-91935989D01*
G37*
X91721916Y-91934503D02*
X91756070Y-91957816D01*
X91783779Y-91985525D01*
X91783779Y-92298577D01*
X91783738Y-92382607D01*
X91783480Y-92456829D01*
X91782809Y-92513581D01*
X91781531Y-92555552D01*
X91779452Y-92585429D01*
X91776378Y-92605901D01*
X91772113Y-92619654D01*
X91766463Y-92629377D01*
X91759234Y-92637757D01*
X91727770Y-92659221D01*
X91692605Y-92660987D01*
X91659601Y-92641307D01*
X91654295Y-92635438D01*
X91648845Y-92626354D01*
X91644679Y-92613013D01*
X91641625Y-92592797D01*
X91639511Y-92563089D01*
X91638165Y-92521272D01*
X91637417Y-92464729D01*
X91637093Y-92390842D01*
X91637024Y-92296996D01*
X91637063Y-92221334D01*
X91637318Y-92143425D01*
X91637962Y-92083415D01*
X91639166Y-92038688D01*
X91641103Y-92006625D01*
X91643943Y-91984611D01*
X91647858Y-91970027D01*
X91653021Y-91960258D01*
X91659601Y-91952685D01*
X91688785Y-91933663D01*
X91721916Y-91934503D01*
G36*
X91721916Y-91934503D02*
G01*
X91756070Y-91957816D01*
X91783779Y-91985525D01*
X91783779Y-92298577D01*
X91783738Y-92382607D01*
X91783480Y-92456829D01*
X91782809Y-92513581D01*
X91781531Y-92555552D01*
X91779452Y-92585429D01*
X91776378Y-92605901D01*
X91772113Y-92619654D01*
X91766463Y-92629377D01*
X91759234Y-92637757D01*
X91727770Y-92659221D01*
X91692605Y-92660987D01*
X91659601Y-92641307D01*
X91654295Y-92635438D01*
X91648845Y-92626354D01*
X91644679Y-92613013D01*
X91641625Y-92592797D01*
X91639511Y-92563089D01*
X91638165Y-92521272D01*
X91637417Y-92464729D01*
X91637093Y-92390842D01*
X91637024Y-92296996D01*
X91637063Y-92221334D01*
X91637318Y-92143425D01*
X91637962Y-92083415D01*
X91639166Y-92038688D01*
X91641103Y-92006625D01*
X91643943Y-91984611D01*
X91647858Y-91970027D01*
X91653021Y-91960258D01*
X91659601Y-91952685D01*
X91688785Y-91933663D01*
X91721916Y-91934503D01*
G37*
X91688499Y-85321429D02*
X91794023Y-85347284D01*
X91894047Y-85393689D01*
X91985421Y-85460651D01*
X92064992Y-85548176D01*
X92129607Y-85656274D01*
X92146930Y-85694354D01*
X92160964Y-85732951D01*
X92168839Y-85771537D01*
X92172290Y-85819263D01*
X92173055Y-85885281D01*
X92172592Y-85940229D01*
X92169806Y-85990728D01*
X92162974Y-86030128D01*
X92150391Y-86067476D01*
X92130351Y-86111821D01*
X92124553Y-86123639D01*
X92056032Y-86231849D01*
X91969852Y-86320881D01*
X91868459Y-86388645D01*
X91754298Y-86433054D01*
X91695721Y-86445446D01*
X91576886Y-86451245D01*
X91461787Y-86432482D01*
X91353799Y-86391080D01*
X91256296Y-86328963D01*
X91172655Y-86248055D01*
X91106250Y-86150280D01*
X91060456Y-86037562D01*
X91043701Y-85945319D01*
X91042192Y-85843525D01*
X91055819Y-85744508D01*
X91083932Y-85658740D01*
X91116417Y-85597421D01*
X91188734Y-85500136D01*
X91274465Y-85423355D01*
X91370460Y-85367086D01*
X91473566Y-85331338D01*
X91580629Y-85316116D01*
X91688499Y-85321429D01*
G36*
X91688499Y-85321429D02*
G01*
X91794023Y-85347284D01*
X91894047Y-85393689D01*
X91985421Y-85460651D01*
X92064992Y-85548176D01*
X92129607Y-85656274D01*
X92146930Y-85694354D01*
X92160964Y-85732951D01*
X92168839Y-85771537D01*
X92172290Y-85819263D01*
X92173055Y-85885281D01*
X92172592Y-85940229D01*
X92169806Y-85990728D01*
X92162974Y-86030128D01*
X92150391Y-86067476D01*
X92130351Y-86111821D01*
X92124553Y-86123639D01*
X92056032Y-86231849D01*
X91969852Y-86320881D01*
X91868459Y-86388645D01*
X91754298Y-86433054D01*
X91695721Y-86445446D01*
X91576886Y-86451245D01*
X91461787Y-86432482D01*
X91353799Y-86391080D01*
X91256296Y-86328963D01*
X91172655Y-86248055D01*
X91106250Y-86150280D01*
X91060456Y-86037562D01*
X91043701Y-85945319D01*
X91042192Y-85843525D01*
X91055819Y-85744508D01*
X91083932Y-85658740D01*
X91116417Y-85597421D01*
X91188734Y-85500136D01*
X91274465Y-85423355D01*
X91370460Y-85367086D01*
X91473566Y-85331338D01*
X91580629Y-85316116D01*
X91688499Y-85321429D01*
G37*
X83891546Y-91930108D02*
X83985669Y-91930198D01*
X84060184Y-91930538D01*
X84117590Y-91931279D01*
X84160390Y-91932575D01*
X84191083Y-91934577D01*
X84212170Y-91937436D01*
X84226152Y-91941306D01*
X84235529Y-91946338D01*
X84242801Y-91952685D01*
X84261607Y-91985402D01*
X84263054Y-92022979D01*
X84246696Y-92056218D01*
X84245336Y-92057671D01*
X84234133Y-92066032D01*
X84217031Y-92071587D01*
X84189861Y-92074880D01*
X84148457Y-92076458D01*
X84088652Y-92076862D01*
X83949290Y-92076862D01*
X83949290Y-92340629D01*
X83949215Y-92416457D01*
X83948807Y-92483123D01*
X83947825Y-92532907D01*
X83946029Y-92568824D01*
X83943178Y-92593890D01*
X83939032Y-92611121D01*
X83933350Y-92623532D01*
X83925893Y-92634140D01*
X83923603Y-92636946D01*
X83892425Y-92659588D01*
X83858045Y-92661152D01*
X83825113Y-92641307D01*
X83818134Y-92633231D01*
X83812662Y-92622633D01*
X83808642Y-92606789D01*
X83805851Y-92582813D01*
X83804067Y-92547814D01*
X83803068Y-92498904D01*
X83802631Y-92433194D01*
X83802535Y-92347796D01*
X83802535Y-92076862D01*
X83656599Y-92076862D01*
X83645499Y-92076861D01*
X83588981Y-92076636D01*
X83550137Y-92075497D01*
X83524744Y-92072697D01*
X83508583Y-92067490D01*
X83497431Y-92059129D01*
X83487068Y-92046866D01*
X83471220Y-92016178D01*
X83474322Y-91982398D01*
X83499966Y-91949862D01*
X83504908Y-91946145D01*
X83515117Y-91941309D01*
X83530543Y-91937546D01*
X83553665Y-91934723D01*
X83586962Y-91932710D01*
X83632916Y-91931373D01*
X83694007Y-91930582D01*
X83772714Y-91930203D01*
X83871519Y-91930107D01*
X83891546Y-91930108D01*
G36*
X83891546Y-91930108D02*
G01*
X83985669Y-91930198D01*
X84060184Y-91930538D01*
X84117590Y-91931279D01*
X84160390Y-91932575D01*
X84191083Y-91934577D01*
X84212170Y-91937436D01*
X84226152Y-91941306D01*
X84235529Y-91946338D01*
X84242801Y-91952685D01*
X84261607Y-91985402D01*
X84263054Y-92022979D01*
X84246696Y-92056218D01*
X84245336Y-92057671D01*
X84234133Y-92066032D01*
X84217031Y-92071587D01*
X84189861Y-92074880D01*
X84148457Y-92076458D01*
X84088652Y-92076862D01*
X83949290Y-92076862D01*
X83949290Y-92340629D01*
X83949215Y-92416457D01*
X83948807Y-92483123D01*
X83947825Y-92532907D01*
X83946029Y-92568824D01*
X83943178Y-92593890D01*
X83939032Y-92611121D01*
X83933350Y-92623532D01*
X83925893Y-92634140D01*
X83923603Y-92636946D01*
X83892425Y-92659588D01*
X83858045Y-92661152D01*
X83825113Y-92641307D01*
X83818134Y-92633231D01*
X83812662Y-92622633D01*
X83808642Y-92606789D01*
X83805851Y-92582813D01*
X83804067Y-92547814D01*
X83803068Y-92498904D01*
X83802631Y-92433194D01*
X83802535Y-92347796D01*
X83802535Y-92076862D01*
X83656599Y-92076862D01*
X83645499Y-92076861D01*
X83588981Y-92076636D01*
X83550137Y-92075497D01*
X83524744Y-92072697D01*
X83508583Y-92067490D01*
X83497431Y-92059129D01*
X83487068Y-92046866D01*
X83471220Y-92016178D01*
X83474322Y-91982398D01*
X83499966Y-91949862D01*
X83504908Y-91946145D01*
X83515117Y-91941309D01*
X83530543Y-91937546D01*
X83553665Y-91934723D01*
X83586962Y-91932710D01*
X83632916Y-91931373D01*
X83694007Y-91930582D01*
X83772714Y-91930203D01*
X83871519Y-91930107D01*
X83891546Y-91930108D01*
G37*
X83215513Y-91952685D02*
X83221145Y-91958875D01*
X83226235Y-91967081D01*
X83230322Y-91978857D01*
X83233500Y-91996316D01*
X83235866Y-92021570D01*
X83237517Y-92056730D01*
X83238548Y-92103909D01*
X83239056Y-92165217D01*
X83239138Y-92242767D01*
X83238888Y-92338671D01*
X83238404Y-92455040D01*
X83238336Y-92469215D01*
X83237750Y-92530977D01*
X83236427Y-92574660D01*
X83233882Y-92604041D01*
X83229627Y-92622895D01*
X83223175Y-92634999D01*
X83214041Y-92644129D01*
X83180583Y-92661546D01*
X83145635Y-92658644D01*
X83114732Y-92634140D01*
X83105723Y-92620937D01*
X83098271Y-92602401D01*
X83093903Y-92576373D01*
X83091848Y-92537827D01*
X83091335Y-92481740D01*
X83091335Y-92359085D01*
X82594624Y-92359085D01*
X82594624Y-92493911D01*
X82594551Y-92529702D01*
X82593788Y-92576032D01*
X82591612Y-92606566D01*
X82587315Y-92625597D01*
X82580191Y-92637414D01*
X82569534Y-92646311D01*
X82537283Y-92661381D01*
X82501996Y-92658713D01*
X82471265Y-92634140D01*
X82466610Y-92627885D01*
X82460674Y-92617361D01*
X82456143Y-92603431D01*
X82452827Y-92583357D01*
X82450538Y-92554400D01*
X82449087Y-92513820D01*
X82448284Y-92458880D01*
X82447941Y-92386839D01*
X82447868Y-92294960D01*
X82447868Y-91985525D01*
X82475577Y-91957816D01*
X82506956Y-91935573D01*
X82540185Y-91932884D01*
X82572046Y-91952685D01*
X82580332Y-91962455D01*
X82587744Y-91978347D01*
X82592081Y-92002315D01*
X82594117Y-92039188D01*
X82594624Y-92093796D01*
X82594624Y-92212329D01*
X83091335Y-92212329D01*
X83091335Y-92096816D01*
X83091773Y-92045118D01*
X83093737Y-92010594D01*
X83098253Y-91988018D01*
X83106346Y-91972166D01*
X83119044Y-91957816D01*
X83150422Y-91935573D01*
X83183651Y-91932884D01*
X83215513Y-91952685D01*
G36*
X83215513Y-91952685D02*
G01*
X83221145Y-91958875D01*
X83226235Y-91967081D01*
X83230322Y-91978857D01*
X83233500Y-91996316D01*
X83235866Y-92021570D01*
X83237517Y-92056730D01*
X83238548Y-92103909D01*
X83239056Y-92165217D01*
X83239138Y-92242767D01*
X83238888Y-92338671D01*
X83238404Y-92455040D01*
X83238336Y-92469215D01*
X83237750Y-92530977D01*
X83236427Y-92574660D01*
X83233882Y-92604041D01*
X83229627Y-92622895D01*
X83223175Y-92634999D01*
X83214041Y-92644129D01*
X83180583Y-92661546D01*
X83145635Y-92658644D01*
X83114732Y-92634140D01*
X83105723Y-92620937D01*
X83098271Y-92602401D01*
X83093903Y-92576373D01*
X83091848Y-92537827D01*
X83091335Y-92481740D01*
X83091335Y-92359085D01*
X82594624Y-92359085D01*
X82594624Y-92493911D01*
X82594551Y-92529702D01*
X82593788Y-92576032D01*
X82591612Y-92606566D01*
X82587315Y-92625597D01*
X82580191Y-92637414D01*
X82569534Y-92646311D01*
X82537283Y-92661381D01*
X82501996Y-92658713D01*
X82471265Y-92634140D01*
X82466610Y-92627885D01*
X82460674Y-92617361D01*
X82456143Y-92603431D01*
X82452827Y-92583357D01*
X82450538Y-92554400D01*
X82449087Y-92513820D01*
X82448284Y-92458880D01*
X82447941Y-92386839D01*
X82447868Y-92294960D01*
X82447868Y-91985525D01*
X82475577Y-91957816D01*
X82506956Y-91935573D01*
X82540185Y-91932884D01*
X82572046Y-91952685D01*
X82580332Y-91962455D01*
X82587744Y-91978347D01*
X82592081Y-92002315D01*
X82594117Y-92039188D01*
X82594624Y-92093796D01*
X82594624Y-92212329D01*
X83091335Y-92212329D01*
X83091335Y-92096816D01*
X83091773Y-92045118D01*
X83093737Y-92010594D01*
X83098253Y-91988018D01*
X83106346Y-91972166D01*
X83119044Y-91957816D01*
X83150422Y-91935573D01*
X83183651Y-91932884D01*
X83215513Y-91952685D01*
G37*
X87920912Y-92541436D02*
X87918942Y-92574215D01*
X87916014Y-92597135D01*
X87911937Y-92612937D01*
X87906522Y-92624359D01*
X87899582Y-92634140D01*
X87876185Y-92663885D01*
X87710493Y-92663291D01*
X87675697Y-92662993D01*
X87577214Y-92659562D01*
X87496252Y-92651879D01*
X87429158Y-92639322D01*
X87372275Y-92621267D01*
X87321948Y-92597092D01*
X87318589Y-92595175D01*
X87260777Y-92558457D01*
X87218423Y-92521491D01*
X87185607Y-92478006D01*
X87156407Y-92421729D01*
X87152125Y-92412113D01*
X87129548Y-92348927D01*
X87123813Y-92303373D01*
X87273058Y-92303373D01*
X87278671Y-92328101D01*
X87284397Y-92343979D01*
X87317327Y-92403887D01*
X87364665Y-92449640D01*
X87428431Y-92482776D01*
X87510640Y-92504830D01*
X87513434Y-92505332D01*
X87559719Y-92511295D01*
X87616115Y-92515523D01*
X87671053Y-92517129D01*
X87764935Y-92517129D01*
X87764935Y-92076862D01*
X87677446Y-92077310D01*
X87610526Y-92079786D01*
X87518128Y-92091038D01*
X87438813Y-92110577D01*
X87376839Y-92137551D01*
X87345899Y-92158280D01*
X87317779Y-92188046D01*
X87294439Y-92230474D01*
X87287312Y-92246440D01*
X87275488Y-92278942D01*
X87273058Y-92303373D01*
X87123813Y-92303373D01*
X87122576Y-92293549D01*
X87131178Y-92238523D01*
X87155320Y-92176391D01*
X87156116Y-92174698D01*
X87196567Y-92105276D01*
X87247252Y-92048678D01*
X87309977Y-92004110D01*
X87386553Y-91970781D01*
X87478788Y-91947901D01*
X87588491Y-91934676D01*
X87717470Y-91930315D01*
X87721042Y-91930310D01*
X87781062Y-91930450D01*
X87822993Y-91931486D01*
X87851107Y-91934080D01*
X87869676Y-91938893D01*
X87882973Y-91946584D01*
X87895270Y-91957816D01*
X87922979Y-91985525D01*
X87922979Y-92294960D01*
X87922954Y-92356566D01*
X87922729Y-92435351D01*
X87922111Y-92496061D01*
X87921554Y-92517129D01*
X87920912Y-92541436D01*
G36*
X87920912Y-92541436D02*
G01*
X87918942Y-92574215D01*
X87916014Y-92597135D01*
X87911937Y-92612937D01*
X87906522Y-92624359D01*
X87899582Y-92634140D01*
X87876185Y-92663885D01*
X87710493Y-92663291D01*
X87675697Y-92662993D01*
X87577214Y-92659562D01*
X87496252Y-92651879D01*
X87429158Y-92639322D01*
X87372275Y-92621267D01*
X87321948Y-92597092D01*
X87318589Y-92595175D01*
X87260777Y-92558457D01*
X87218423Y-92521491D01*
X87185607Y-92478006D01*
X87156407Y-92421729D01*
X87152125Y-92412113D01*
X87129548Y-92348927D01*
X87123813Y-92303373D01*
X87273058Y-92303373D01*
X87278671Y-92328101D01*
X87284397Y-92343979D01*
X87317327Y-92403887D01*
X87364665Y-92449640D01*
X87428431Y-92482776D01*
X87510640Y-92504830D01*
X87513434Y-92505332D01*
X87559719Y-92511295D01*
X87616115Y-92515523D01*
X87671053Y-92517129D01*
X87764935Y-92517129D01*
X87764935Y-92076862D01*
X87677446Y-92077310D01*
X87610526Y-92079786D01*
X87518128Y-92091038D01*
X87438813Y-92110577D01*
X87376839Y-92137551D01*
X87345899Y-92158280D01*
X87317779Y-92188046D01*
X87294439Y-92230474D01*
X87287312Y-92246440D01*
X87275488Y-92278942D01*
X87273058Y-92303373D01*
X87123813Y-92303373D01*
X87122576Y-92293549D01*
X87131178Y-92238523D01*
X87155320Y-92176391D01*
X87156116Y-92174698D01*
X87196567Y-92105276D01*
X87247252Y-92048678D01*
X87309977Y-92004110D01*
X87386553Y-91970781D01*
X87478788Y-91947901D01*
X87588491Y-91934676D01*
X87717470Y-91930315D01*
X87721042Y-91930310D01*
X87781062Y-91930450D01*
X87822993Y-91931486D01*
X87851107Y-91934080D01*
X87869676Y-91938893D01*
X87882973Y-91946584D01*
X87895270Y-91957816D01*
X87922979Y-91985525D01*
X87922979Y-92294960D01*
X87922954Y-92356566D01*
X87922729Y-92435351D01*
X87922111Y-92496061D01*
X87921554Y-92517129D01*
X87920912Y-92541436D01*
G37*
X95012596Y-92115467D02*
X95012649Y-92196081D01*
X95012401Y-92296996D01*
X95012362Y-92372657D01*
X95012107Y-92450566D01*
X95011463Y-92510576D01*
X95010259Y-92555304D01*
X95008322Y-92587366D01*
X95005482Y-92609380D01*
X95001567Y-92623964D01*
X94996405Y-92633734D01*
X94989824Y-92641307D01*
X94982856Y-92647541D01*
X94969858Y-92654841D01*
X94950710Y-92659594D01*
X94921307Y-92662332D01*
X94877541Y-92663585D01*
X94815307Y-92663885D01*
X94766361Y-92663509D01*
X94659501Y-92659081D01*
X94570273Y-92648993D01*
X94495475Y-92632405D01*
X94431904Y-92608475D01*
X94376358Y-92576361D01*
X94325633Y-92535222D01*
X94319645Y-92529370D01*
X94282778Y-92480861D01*
X94251678Y-92420053D01*
X94230196Y-92355809D01*
X94224915Y-92317066D01*
X94372132Y-92317066D01*
X94390414Y-92368001D01*
X94420084Y-92413918D01*
X94466781Y-92456327D01*
X94528171Y-92486130D01*
X94607317Y-92505266D01*
X94608807Y-92505504D01*
X94657778Y-92511296D01*
X94716472Y-92515436D01*
X94772513Y-92517044D01*
X94865646Y-92517129D01*
X94865646Y-92076862D01*
X94789446Y-92076848D01*
X94786418Y-92076857D01*
X94735298Y-92078822D01*
X94675195Y-92083547D01*
X94618487Y-92090075D01*
X94568529Y-92099371D01*
X94493777Y-92125640D01*
X94436268Y-92164939D01*
X94394767Y-92217973D01*
X94373550Y-92269240D01*
X94372132Y-92317066D01*
X94224915Y-92317066D01*
X94222179Y-92296996D01*
X94223458Y-92275779D01*
X94235770Y-92218363D01*
X94258299Y-92158453D01*
X94287529Y-92104403D01*
X94319946Y-92064572D01*
X94339487Y-92047550D01*
X94394199Y-92008362D01*
X94454502Y-91978233D01*
X94523698Y-91956272D01*
X94605090Y-91941590D01*
X94701979Y-91933299D01*
X94817668Y-91930507D01*
X94857150Y-91930106D01*
X94902861Y-91929693D01*
X94938662Y-91931497D01*
X94965753Y-91937779D01*
X94985335Y-91950799D01*
X94998609Y-91972818D01*
X95006777Y-92006095D01*
X95011039Y-92052891D01*
X95011636Y-92076862D01*
X95012596Y-92115467D01*
G36*
X95012596Y-92115467D02*
G01*
X95012649Y-92196081D01*
X95012401Y-92296996D01*
X95012362Y-92372657D01*
X95012107Y-92450566D01*
X95011463Y-92510576D01*
X95010259Y-92555304D01*
X95008322Y-92587366D01*
X95005482Y-92609380D01*
X95001567Y-92623964D01*
X94996405Y-92633734D01*
X94989824Y-92641307D01*
X94982856Y-92647541D01*
X94969858Y-92654841D01*
X94950710Y-92659594D01*
X94921307Y-92662332D01*
X94877541Y-92663585D01*
X94815307Y-92663885D01*
X94766361Y-92663509D01*
X94659501Y-92659081D01*
X94570273Y-92648993D01*
X94495475Y-92632405D01*
X94431904Y-92608475D01*
X94376358Y-92576361D01*
X94325633Y-92535222D01*
X94319645Y-92529370D01*
X94282778Y-92480861D01*
X94251678Y-92420053D01*
X94230196Y-92355809D01*
X94224915Y-92317066D01*
X94372132Y-92317066D01*
X94390414Y-92368001D01*
X94420084Y-92413918D01*
X94466781Y-92456327D01*
X94528171Y-92486130D01*
X94607317Y-92505266D01*
X94608807Y-92505504D01*
X94657778Y-92511296D01*
X94716472Y-92515436D01*
X94772513Y-92517044D01*
X94865646Y-92517129D01*
X94865646Y-92076862D01*
X94789446Y-92076848D01*
X94786418Y-92076857D01*
X94735298Y-92078822D01*
X94675195Y-92083547D01*
X94618487Y-92090075D01*
X94568529Y-92099371D01*
X94493777Y-92125640D01*
X94436268Y-92164939D01*
X94394767Y-92217973D01*
X94373550Y-92269240D01*
X94372132Y-92317066D01*
X94224915Y-92317066D01*
X94222179Y-92296996D01*
X94223458Y-92275779D01*
X94235770Y-92218363D01*
X94258299Y-92158453D01*
X94287529Y-92104403D01*
X94319946Y-92064572D01*
X94339487Y-92047550D01*
X94394199Y-92008362D01*
X94454502Y-91978233D01*
X94523698Y-91956272D01*
X94605090Y-91941590D01*
X94701979Y-91933299D01*
X94817668Y-91930507D01*
X94857150Y-91930106D01*
X94902861Y-91929693D01*
X94938662Y-91931497D01*
X94965753Y-91937779D01*
X94985335Y-91950799D01*
X94998609Y-91972818D01*
X95006777Y-92006095D01*
X95011039Y-92052891D01*
X95011636Y-92076862D01*
X95012596Y-92115467D01*
G37*
X90067672Y-91928932D02*
X90079080Y-91935069D01*
X90089629Y-91945731D01*
X90100915Y-91959851D01*
X90105368Y-91965812D01*
X90111367Y-91976308D01*
X90115946Y-91990133D01*
X90119298Y-92010038D01*
X90121612Y-92038772D01*
X90123080Y-92079085D01*
X90123892Y-92133727D01*
X90124239Y-92205447D01*
X90124313Y-92296996D01*
X90124290Y-92355526D01*
X90124071Y-92434613D01*
X90123462Y-92495556D01*
X90122271Y-92541102D01*
X90120308Y-92574003D01*
X90117382Y-92597008D01*
X90113302Y-92612866D01*
X90107876Y-92624326D01*
X90100915Y-92634140D01*
X90070487Y-92658533D01*
X90035544Y-92661412D01*
X89998563Y-92642322D01*
X89994379Y-92638847D01*
X89986203Y-92630319D01*
X89980143Y-92618768D01*
X89975760Y-92600936D01*
X89972618Y-92573564D01*
X89970281Y-92533394D01*
X89968310Y-92477168D01*
X89966268Y-92401629D01*
X89960624Y-92182498D01*
X89695335Y-92423139D01*
X89621501Y-92489915D01*
X89556321Y-92548031D01*
X89504127Y-92592989D01*
X89463052Y-92625911D01*
X89431234Y-92647919D01*
X89406805Y-92660134D01*
X89387903Y-92663679D01*
X89372662Y-92659676D01*
X89359218Y-92649247D01*
X89345706Y-92633514D01*
X89339461Y-92625031D01*
X89333829Y-92614453D01*
X89329618Y-92600295D01*
X89326666Y-92579843D01*
X89324811Y-92550382D01*
X89323892Y-92509201D01*
X89323747Y-92453584D01*
X89324214Y-92380819D01*
X89325131Y-92288191D01*
X89328446Y-91973239D01*
X89355097Y-91951673D01*
X89381162Y-91935481D01*
X89414020Y-91932710D01*
X89448551Y-91951663D01*
X89452863Y-91955248D01*
X89460995Y-91963777D01*
X89467024Y-91975369D01*
X89471385Y-91993275D01*
X89474513Y-92020746D01*
X89476842Y-92061034D01*
X89478808Y-92117391D01*
X89480846Y-92193069D01*
X89486490Y-92412918D01*
X89667113Y-92249124D01*
X89753851Y-92170491D01*
X89829622Y-92102098D01*
X89891759Y-92046748D01*
X89941857Y-92003378D01*
X89981514Y-91970921D01*
X90012327Y-91948313D01*
X90035893Y-91934488D01*
X90053809Y-91928383D01*
X90067672Y-91928932D01*
G36*
X90067672Y-91928932D02*
G01*
X90079080Y-91935069D01*
X90089629Y-91945731D01*
X90100915Y-91959851D01*
X90105368Y-91965812D01*
X90111367Y-91976308D01*
X90115946Y-91990133D01*
X90119298Y-92010038D01*
X90121612Y-92038772D01*
X90123080Y-92079085D01*
X90123892Y-92133727D01*
X90124239Y-92205447D01*
X90124313Y-92296996D01*
X90124290Y-92355526D01*
X90124071Y-92434613D01*
X90123462Y-92495556D01*
X90122271Y-92541102D01*
X90120308Y-92574003D01*
X90117382Y-92597008D01*
X90113302Y-92612866D01*
X90107876Y-92624326D01*
X90100915Y-92634140D01*
X90070487Y-92658533D01*
X90035544Y-92661412D01*
X89998563Y-92642322D01*
X89994379Y-92638847D01*
X89986203Y-92630319D01*
X89980143Y-92618768D01*
X89975760Y-92600936D01*
X89972618Y-92573564D01*
X89970281Y-92533394D01*
X89968310Y-92477168D01*
X89966268Y-92401629D01*
X89960624Y-92182498D01*
X89695335Y-92423139D01*
X89621501Y-92489915D01*
X89556321Y-92548031D01*
X89504127Y-92592989D01*
X89463052Y-92625911D01*
X89431234Y-92647919D01*
X89406805Y-92660134D01*
X89387903Y-92663679D01*
X89372662Y-92659676D01*
X89359218Y-92649247D01*
X89345706Y-92633514D01*
X89339461Y-92625031D01*
X89333829Y-92614453D01*
X89329618Y-92600295D01*
X89326666Y-92579843D01*
X89324811Y-92550382D01*
X89323892Y-92509201D01*
X89323747Y-92453584D01*
X89324214Y-92380819D01*
X89325131Y-92288191D01*
X89328446Y-91973239D01*
X89355097Y-91951673D01*
X89381162Y-91935481D01*
X89414020Y-91932710D01*
X89448551Y-91951663D01*
X89452863Y-91955248D01*
X89460995Y-91963777D01*
X89467024Y-91975369D01*
X89471385Y-91993275D01*
X89474513Y-92020746D01*
X89476842Y-92061034D01*
X89478808Y-92117391D01*
X89480846Y-92193069D01*
X89486490Y-92412918D01*
X89667113Y-92249124D01*
X89753851Y-92170491D01*
X89829622Y-92102098D01*
X89891759Y-92046748D01*
X89941857Y-92003378D01*
X89981514Y-91970921D01*
X90012327Y-91948313D01*
X90035893Y-91934488D01*
X90053809Y-91928383D01*
X90067672Y-91928932D01*
G37*
X90864929Y-91935219D02*
X90970936Y-91951534D01*
X91064748Y-91979585D01*
X91143544Y-92018492D01*
X91204498Y-92067374D01*
X91230568Y-92100235D01*
X91260076Y-92149434D01*
X91285347Y-92203292D01*
X91302997Y-92254459D01*
X91309637Y-92295584D01*
X91308077Y-92315299D01*
X91295136Y-92366632D01*
X91271973Y-92423158D01*
X91242081Y-92477075D01*
X91208952Y-92520579D01*
X91198756Y-92530927D01*
X91131671Y-92582702D01*
X91051545Y-92622594D01*
X90965335Y-92646996D01*
X90910371Y-92655108D01*
X90816918Y-92661713D01*
X90727137Y-92659626D01*
X90644648Y-92649380D01*
X90573065Y-92631510D01*
X90516007Y-92606548D01*
X90477090Y-92575028D01*
X90475715Y-92573052D01*
X90468627Y-92547826D01*
X90464388Y-92500575D01*
X90462979Y-92431111D01*
X90463839Y-92368878D01*
X90468559Y-92321496D01*
X90480249Y-92289393D01*
X90502018Y-92269840D01*
X90536977Y-92260110D01*
X90588235Y-92257473D01*
X90658902Y-92259201D01*
X90707522Y-92262213D01*
X90757718Y-92270406D01*
X90790212Y-92284459D01*
X90807671Y-92305694D01*
X90812762Y-92335434D01*
X90812656Y-92339976D01*
X90803954Y-92374770D01*
X90779944Y-92398187D01*
X90738679Y-92411387D01*
X90678210Y-92415529D01*
X90609735Y-92415529D01*
X90609735Y-92453881D01*
X90609785Y-92463016D01*
X90612006Y-92480267D01*
X90621273Y-92490561D01*
X90642654Y-92497499D01*
X90681215Y-92504681D01*
X90686689Y-92505615D01*
X90783639Y-92515518D01*
X90873631Y-92512599D01*
X90954539Y-92497869D01*
X91024238Y-92472339D01*
X91080603Y-92437018D01*
X91121508Y-92392919D01*
X91144830Y-92341052D01*
X91148442Y-92282428D01*
X91142924Y-92253534D01*
X91116240Y-92197644D01*
X91070052Y-92151985D01*
X91005070Y-92117148D01*
X90922008Y-92093730D01*
X90897334Y-92089281D01*
X90808005Y-92078782D01*
X90728198Y-92080011D01*
X90650105Y-92092946D01*
X90614962Y-92099736D01*
X90569524Y-92100753D01*
X90538209Y-92088222D01*
X90518056Y-92061435D01*
X90511672Y-92033188D01*
X90521158Y-92001964D01*
X90530487Y-91988539D01*
X90564722Y-91965007D01*
X90617344Y-91947135D01*
X90685860Y-91935639D01*
X90767779Y-91931232D01*
X90864929Y-91935219D01*
G36*
X90864929Y-91935219D02*
G01*
X90970936Y-91951534D01*
X91064748Y-91979585D01*
X91143544Y-92018492D01*
X91204498Y-92067374D01*
X91230568Y-92100235D01*
X91260076Y-92149434D01*
X91285347Y-92203292D01*
X91302997Y-92254459D01*
X91309637Y-92295584D01*
X91308077Y-92315299D01*
X91295136Y-92366632D01*
X91271973Y-92423158D01*
X91242081Y-92477075D01*
X91208952Y-92520579D01*
X91198756Y-92530927D01*
X91131671Y-92582702D01*
X91051545Y-92622594D01*
X90965335Y-92646996D01*
X90910371Y-92655108D01*
X90816918Y-92661713D01*
X90727137Y-92659626D01*
X90644648Y-92649380D01*
X90573065Y-92631510D01*
X90516007Y-92606548D01*
X90477090Y-92575028D01*
X90475715Y-92573052D01*
X90468627Y-92547826D01*
X90464388Y-92500575D01*
X90462979Y-92431111D01*
X90463839Y-92368878D01*
X90468559Y-92321496D01*
X90480249Y-92289393D01*
X90502018Y-92269840D01*
X90536977Y-92260110D01*
X90588235Y-92257473D01*
X90658902Y-92259201D01*
X90707522Y-92262213D01*
X90757718Y-92270406D01*
X90790212Y-92284459D01*
X90807671Y-92305694D01*
X90812762Y-92335434D01*
X90812656Y-92339976D01*
X90803954Y-92374770D01*
X90779944Y-92398187D01*
X90738679Y-92411387D01*
X90678210Y-92415529D01*
X90609735Y-92415529D01*
X90609735Y-92453881D01*
X90609785Y-92463016D01*
X90612006Y-92480267D01*
X90621273Y-92490561D01*
X90642654Y-92497499D01*
X90681215Y-92504681D01*
X90686689Y-92505615D01*
X90783639Y-92515518D01*
X90873631Y-92512599D01*
X90954539Y-92497869D01*
X91024238Y-92472339D01*
X91080603Y-92437018D01*
X91121508Y-92392919D01*
X91144830Y-92341052D01*
X91148442Y-92282428D01*
X91142924Y-92253534D01*
X91116240Y-92197644D01*
X91070052Y-92151985D01*
X91005070Y-92117148D01*
X90922008Y-92093730D01*
X90897334Y-92089281D01*
X90808005Y-92078782D01*
X90728198Y-92080011D01*
X90650105Y-92092946D01*
X90614962Y-92099736D01*
X90569524Y-92100753D01*
X90538209Y-92088222D01*
X90518056Y-92061435D01*
X90511672Y-92033188D01*
X90521158Y-92001964D01*
X90530487Y-91988539D01*
X90564722Y-91965007D01*
X90617344Y-91947135D01*
X90685860Y-91935639D01*
X90767779Y-91931232D01*
X90864929Y-91935219D01*
G37*
X88915582Y-91959851D02*
X88920531Y-91966535D01*
X88926375Y-91977106D01*
X88930836Y-91991193D01*
X88934100Y-92011518D01*
X88936353Y-92040805D01*
X88937781Y-92081777D01*
X88938571Y-92137157D01*
X88938908Y-92209668D01*
X88938979Y-92302034D01*
X88938950Y-92367951D01*
X88938718Y-92446268D01*
X88938098Y-92506536D01*
X88936905Y-92551433D01*
X88934958Y-92583642D01*
X88932073Y-92605840D01*
X88928067Y-92620709D01*
X88922758Y-92630929D01*
X88915962Y-92639178D01*
X88911447Y-92643835D01*
X88903217Y-92650322D01*
X88891857Y-92655234D01*
X88874589Y-92658789D01*
X88848634Y-92661207D01*
X88811215Y-92662707D01*
X88759552Y-92663507D01*
X88690868Y-92663827D01*
X88602385Y-92663885D01*
X88582710Y-92663878D01*
X88495685Y-92663612D01*
X88428033Y-92662846D01*
X88377078Y-92661432D01*
X88340146Y-92659220D01*
X88314562Y-92656062D01*
X88297650Y-92651809D01*
X88286736Y-92646311D01*
X88276243Y-92636325D01*
X88262982Y-92605208D01*
X88264165Y-92569320D01*
X88280329Y-92537773D01*
X88282518Y-92535497D01*
X88291206Y-92529229D01*
X88304548Y-92524563D01*
X88325531Y-92521267D01*
X88357142Y-92519108D01*
X88402369Y-92517854D01*
X88464199Y-92517271D01*
X88545618Y-92517129D01*
X88792224Y-92517129D01*
X88792224Y-92359085D01*
X88629785Y-92359085D01*
X88594117Y-92359004D01*
X88538347Y-92358207D01*
X88499209Y-92356202D01*
X88472755Y-92352561D01*
X88455038Y-92346852D01*
X88442108Y-92338647D01*
X88438465Y-92335463D01*
X88420057Y-92304488D01*
X88419423Y-92268152D01*
X88436962Y-92234533D01*
X88437024Y-92234464D01*
X88446695Y-92225838D01*
X88459988Y-92219782D01*
X88480696Y-92215851D01*
X88512607Y-92213596D01*
X88559513Y-92212571D01*
X88625203Y-92212329D01*
X88793350Y-92212329D01*
X88789965Y-92147418D01*
X88786579Y-92082507D01*
X88544502Y-92079454D01*
X88519486Y-92079126D01*
X88437866Y-92077646D01*
X88375547Y-92075262D01*
X88329933Y-92071267D01*
X88298431Y-92064953D01*
X88278446Y-92055614D01*
X88267383Y-92042543D01*
X88262648Y-92025032D01*
X88261646Y-92002375D01*
X88261652Y-92000010D01*
X88262806Y-91979979D01*
X88267603Y-91964186D01*
X88278411Y-91952130D01*
X88297596Y-91943307D01*
X88327524Y-91937215D01*
X88370562Y-91933351D01*
X88429078Y-91931214D01*
X88505436Y-91930300D01*
X88602005Y-91930107D01*
X88892185Y-91930107D01*
X88915582Y-91959851D01*
G36*
X88915582Y-91959851D02*
G01*
X88920531Y-91966535D01*
X88926375Y-91977106D01*
X88930836Y-91991193D01*
X88934100Y-92011518D01*
X88936353Y-92040805D01*
X88937781Y-92081777D01*
X88938571Y-92137157D01*
X88938908Y-92209668D01*
X88938979Y-92302034D01*
X88938950Y-92367951D01*
X88938718Y-92446268D01*
X88938098Y-92506536D01*
X88936905Y-92551433D01*
X88934958Y-92583642D01*
X88932073Y-92605840D01*
X88928067Y-92620709D01*
X88922758Y-92630929D01*
X88915962Y-92639178D01*
X88911447Y-92643835D01*
X88903217Y-92650322D01*
X88891857Y-92655234D01*
X88874589Y-92658789D01*
X88848634Y-92661207D01*
X88811215Y-92662707D01*
X88759552Y-92663507D01*
X88690868Y-92663827D01*
X88602385Y-92663885D01*
X88582710Y-92663878D01*
X88495685Y-92663612D01*
X88428033Y-92662846D01*
X88377078Y-92661432D01*
X88340146Y-92659220D01*
X88314562Y-92656062D01*
X88297650Y-92651809D01*
X88286736Y-92646311D01*
X88276243Y-92636325D01*
X88262982Y-92605208D01*
X88264165Y-92569320D01*
X88280329Y-92537773D01*
X88282518Y-92535497D01*
X88291206Y-92529229D01*
X88304548Y-92524563D01*
X88325531Y-92521267D01*
X88357142Y-92519108D01*
X88402369Y-92517854D01*
X88464199Y-92517271D01*
X88545618Y-92517129D01*
X88792224Y-92517129D01*
X88792224Y-92359085D01*
X88629785Y-92359085D01*
X88594117Y-92359004D01*
X88538347Y-92358207D01*
X88499209Y-92356202D01*
X88472755Y-92352561D01*
X88455038Y-92346852D01*
X88442108Y-92338647D01*
X88438465Y-92335463D01*
X88420057Y-92304488D01*
X88419423Y-92268152D01*
X88436962Y-92234533D01*
X88437024Y-92234464D01*
X88446695Y-92225838D01*
X88459988Y-92219782D01*
X88480696Y-92215851D01*
X88512607Y-92213596D01*
X88559513Y-92212571D01*
X88625203Y-92212329D01*
X88793350Y-92212329D01*
X88789965Y-92147418D01*
X88786579Y-92082507D01*
X88544502Y-92079454D01*
X88519486Y-92079126D01*
X88437866Y-92077646D01*
X88375547Y-92075262D01*
X88329933Y-92071267D01*
X88298431Y-92064953D01*
X88278446Y-92055614D01*
X88267383Y-92042543D01*
X88262648Y-92025032D01*
X88261646Y-92002375D01*
X88261652Y-92000010D01*
X88262806Y-91979979D01*
X88267603Y-91964186D01*
X88278411Y-91952130D01*
X88297596Y-91943307D01*
X88327524Y-91937215D01*
X88370562Y-91933351D01*
X88429078Y-91931214D01*
X88505436Y-91930300D01*
X88602005Y-91930107D01*
X88892185Y-91930107D01*
X88915582Y-91959851D01*
G37*
X93592513Y-91930123D02*
X93669610Y-91930315D01*
X93728556Y-91930900D01*
X93772143Y-91932091D01*
X93803162Y-91934104D01*
X93824404Y-91937152D01*
X93838661Y-91941449D01*
X93848724Y-91947212D01*
X93857385Y-91954652D01*
X93859170Y-91956333D01*
X93866414Y-91963872D01*
X93872056Y-91972890D01*
X93876296Y-91986024D01*
X93879335Y-92005912D01*
X93881373Y-92035191D01*
X93882609Y-92076498D01*
X93883244Y-92132471D01*
X93883479Y-92205747D01*
X93883513Y-92298963D01*
X93883476Y-92371753D01*
X93883227Y-92449929D01*
X93882591Y-92510143D01*
X93881394Y-92555022D01*
X93879463Y-92587192D01*
X93876625Y-92609279D01*
X93872706Y-92623910D01*
X93867534Y-92633710D01*
X93860935Y-92641307D01*
X93857601Y-92644484D01*
X93849079Y-92650594D01*
X93837077Y-92655269D01*
X93818866Y-92658699D01*
X93791719Y-92661076D01*
X93752908Y-92662592D01*
X93699703Y-92663438D01*
X93629377Y-92663805D01*
X93539201Y-92663885D01*
X93497093Y-92663873D01*
X93415946Y-92663691D01*
X93353454Y-92663138D01*
X93306888Y-92662022D01*
X93273520Y-92660153D01*
X93250623Y-92657338D01*
X93235467Y-92653386D01*
X93225325Y-92648106D01*
X93217468Y-92641307D01*
X93202742Y-92619707D01*
X93194890Y-92590507D01*
X93200389Y-92566600D01*
X93217468Y-92539707D01*
X93222447Y-92535099D01*
X93232222Y-92528812D01*
X93246338Y-92524186D01*
X93267833Y-92520970D01*
X93299747Y-92518910D01*
X93345121Y-92517752D01*
X93406992Y-92517242D01*
X93488401Y-92517129D01*
X93736757Y-92517129D01*
X93736757Y-92359085D01*
X93575580Y-92359085D01*
X93539762Y-92358939D01*
X93474138Y-92357216D01*
X93426897Y-92352781D01*
X93395162Y-92344677D01*
X93376056Y-92331946D01*
X93366702Y-92313632D01*
X93364224Y-92288778D01*
X93365021Y-92268522D01*
X93370273Y-92246696D01*
X93383067Y-92231344D01*
X93406407Y-92221349D01*
X93443296Y-92215593D01*
X93496738Y-92212959D01*
X93569737Y-92212329D01*
X93737884Y-92212329D01*
X93734498Y-92147418D01*
X93731113Y-92082507D01*
X93483396Y-92079458D01*
X93420805Y-92078579D01*
X93352344Y-92077135D01*
X93301440Y-92075204D01*
X93265187Y-92072554D01*
X93240680Y-92068950D01*
X93225014Y-92064161D01*
X93215285Y-92057953D01*
X93209270Y-92051550D01*
X93196261Y-92019868D01*
X93199822Y-91984182D01*
X93219597Y-91953124D01*
X93222848Y-91950201D01*
X93231828Y-91943850D01*
X93243932Y-91938997D01*
X93261938Y-91935443D01*
X93288626Y-91932986D01*
X93326776Y-91931425D01*
X93379165Y-91930558D01*
X93448573Y-91930186D01*
X93537780Y-91930107D01*
X93592513Y-91930123D01*
G36*
X93592513Y-91930123D02*
G01*
X93669610Y-91930315D01*
X93728556Y-91930900D01*
X93772143Y-91932091D01*
X93803162Y-91934104D01*
X93824404Y-91937152D01*
X93838661Y-91941449D01*
X93848724Y-91947212D01*
X93857385Y-91954652D01*
X93859170Y-91956333D01*
X93866414Y-91963872D01*
X93872056Y-91972890D01*
X93876296Y-91986024D01*
X93879335Y-92005912D01*
X93881373Y-92035191D01*
X93882609Y-92076498D01*
X93883244Y-92132471D01*
X93883479Y-92205747D01*
X93883513Y-92298963D01*
X93883476Y-92371753D01*
X93883227Y-92449929D01*
X93882591Y-92510143D01*
X93881394Y-92555022D01*
X93879463Y-92587192D01*
X93876625Y-92609279D01*
X93872706Y-92623910D01*
X93867534Y-92633710D01*
X93860935Y-92641307D01*
X93857601Y-92644484D01*
X93849079Y-92650594D01*
X93837077Y-92655269D01*
X93818866Y-92658699D01*
X93791719Y-92661076D01*
X93752908Y-92662592D01*
X93699703Y-92663438D01*
X93629377Y-92663805D01*
X93539201Y-92663885D01*
X93497093Y-92663873D01*
X93415946Y-92663691D01*
X93353454Y-92663138D01*
X93306888Y-92662022D01*
X93273520Y-92660153D01*
X93250623Y-92657338D01*
X93235467Y-92653386D01*
X93225325Y-92648106D01*
X93217468Y-92641307D01*
X93202742Y-92619707D01*
X93194890Y-92590507D01*
X93200389Y-92566600D01*
X93217468Y-92539707D01*
X93222447Y-92535099D01*
X93232222Y-92528812D01*
X93246338Y-92524186D01*
X93267833Y-92520970D01*
X93299747Y-92518910D01*
X93345121Y-92517752D01*
X93406992Y-92517242D01*
X93488401Y-92517129D01*
X93736757Y-92517129D01*
X93736757Y-92359085D01*
X93575580Y-92359085D01*
X93539762Y-92358939D01*
X93474138Y-92357216D01*
X93426897Y-92352781D01*
X93395162Y-92344677D01*
X93376056Y-92331946D01*
X93366702Y-92313632D01*
X93364224Y-92288778D01*
X93365021Y-92268522D01*
X93370273Y-92246696D01*
X93383067Y-92231344D01*
X93406407Y-92221349D01*
X93443296Y-92215593D01*
X93496738Y-92212959D01*
X93569737Y-92212329D01*
X93737884Y-92212329D01*
X93734498Y-92147418D01*
X93731113Y-92082507D01*
X93483396Y-92079458D01*
X93420805Y-92078579D01*
X93352344Y-92077135D01*
X93301440Y-92075204D01*
X93265187Y-92072554D01*
X93240680Y-92068950D01*
X93225014Y-92064161D01*
X93215285Y-92057953D01*
X93209270Y-92051550D01*
X93196261Y-92019868D01*
X93199822Y-91984182D01*
X93219597Y-91953124D01*
X93222848Y-91950201D01*
X93231828Y-91943850D01*
X93243932Y-91938997D01*
X93261938Y-91935443D01*
X93288626Y-91932986D01*
X93326776Y-91931425D01*
X93379165Y-91930558D01*
X93448573Y-91930186D01*
X93537780Y-91930107D01*
X93592513Y-91930123D01*
G37*
X85025481Y-91939518D02*
X85043442Y-91958029D01*
X85064042Y-91989111D01*
X85088874Y-92034796D01*
X85119529Y-92097118D01*
X85157599Y-92178111D01*
X85172233Y-92209494D01*
X85201982Y-92272678D01*
X85228076Y-92327284D01*
X85249071Y-92370330D01*
X85263518Y-92398833D01*
X85269970Y-92409810D01*
X85271329Y-92409229D01*
X85281321Y-92395282D01*
X85298612Y-92365744D01*
X85321209Y-92324127D01*
X85347117Y-92273943D01*
X85363090Y-92242454D01*
X85392040Y-92187101D01*
X85414528Y-92148084D01*
X85432744Y-92122606D01*
X85448875Y-92107871D01*
X85465109Y-92101082D01*
X85483636Y-92099440D01*
X85494139Y-92099915D01*
X85510255Y-92104122D01*
X85525569Y-92114986D01*
X85542167Y-92135259D01*
X85562136Y-92167694D01*
X85587562Y-92215044D01*
X85620531Y-92280062D01*
X85630264Y-92299317D01*
X85654722Y-92345986D01*
X85674957Y-92382149D01*
X85689090Y-92404537D01*
X85695239Y-92409885D01*
X85696606Y-92406613D01*
X85705981Y-92385704D01*
X85722841Y-92348765D01*
X85745758Y-92298914D01*
X85773299Y-92239266D01*
X85804034Y-92172938D01*
X85830749Y-92115717D01*
X85860372Y-92053728D01*
X85883443Y-92007989D01*
X85901422Y-91975948D01*
X85915769Y-91955054D01*
X85927945Y-91942758D01*
X85939411Y-91936506D01*
X85948821Y-91933614D01*
X85973926Y-91933465D01*
X86001069Y-91948808D01*
X86002369Y-91949793D01*
X86024453Y-91972428D01*
X86035502Y-91994653D01*
X86035548Y-91995293D01*
X86031007Y-92012955D01*
X86018143Y-92047521D01*
X85998384Y-92095866D01*
X85973160Y-92154865D01*
X85943898Y-92221395D01*
X85912029Y-92292331D01*
X85878980Y-92364547D01*
X85846180Y-92434920D01*
X85815059Y-92500325D01*
X85787044Y-92557637D01*
X85763565Y-92603732D01*
X85746051Y-92635486D01*
X85735930Y-92649773D01*
X85701522Y-92663142D01*
X85659825Y-92656781D01*
X85654460Y-92652084D01*
X85638631Y-92629933D01*
X85616429Y-92593172D01*
X85590012Y-92545455D01*
X85561539Y-92490433D01*
X85481765Y-92331190D01*
X85408578Y-92477782D01*
X85398882Y-92497072D01*
X85371904Y-92549420D01*
X85347875Y-92594210D01*
X85329111Y-92627194D01*
X85317925Y-92644129D01*
X85316779Y-92645372D01*
X85288658Y-92660659D01*
X85253596Y-92662342D01*
X85222555Y-92649773D01*
X85220129Y-92646924D01*
X85207869Y-92626299D01*
X85188131Y-92588748D01*
X85162227Y-92536920D01*
X85131464Y-92473463D01*
X85097154Y-92401025D01*
X85060604Y-92322256D01*
X85040364Y-92278133D01*
X85003591Y-92197405D01*
X84975134Y-92133727D01*
X84954110Y-92084792D01*
X84939633Y-92048297D01*
X84930818Y-92021935D01*
X84926783Y-92003401D01*
X84926641Y-91990392D01*
X84929509Y-91980601D01*
X84944166Y-91959718D01*
X84970769Y-91939417D01*
X84971524Y-91939075D01*
X84991114Y-91932074D01*
X85008569Y-91931544D01*
X85025481Y-91939518D01*
G36*
X85025481Y-91939518D02*
G01*
X85043442Y-91958029D01*
X85064042Y-91989111D01*
X85088874Y-92034796D01*
X85119529Y-92097118D01*
X85157599Y-92178111D01*
X85172233Y-92209494D01*
X85201982Y-92272678D01*
X85228076Y-92327284D01*
X85249071Y-92370330D01*
X85263518Y-92398833D01*
X85269970Y-92409810D01*
X85271329Y-92409229D01*
X85281321Y-92395282D01*
X85298612Y-92365744D01*
X85321209Y-92324127D01*
X85347117Y-92273943D01*
X85363090Y-92242454D01*
X85392040Y-92187101D01*
X85414528Y-92148084D01*
X85432744Y-92122606D01*
X85448875Y-92107871D01*
X85465109Y-92101082D01*
X85483636Y-92099440D01*
X85494139Y-92099915D01*
X85510255Y-92104122D01*
X85525569Y-92114986D01*
X85542167Y-92135259D01*
X85562136Y-92167694D01*
X85587562Y-92215044D01*
X85620531Y-92280062D01*
X85630264Y-92299317D01*
X85654722Y-92345986D01*
X85674957Y-92382149D01*
X85689090Y-92404537D01*
X85695239Y-92409885D01*
X85696606Y-92406613D01*
X85705981Y-92385704D01*
X85722841Y-92348765D01*
X85745758Y-92298914D01*
X85773299Y-92239266D01*
X85804034Y-92172938D01*
X85830749Y-92115717D01*
X85860372Y-92053728D01*
X85883443Y-92007989D01*
X85901422Y-91975948D01*
X85915769Y-91955054D01*
X85927945Y-91942758D01*
X85939411Y-91936506D01*
X85948821Y-91933614D01*
X85973926Y-91933465D01*
X86001069Y-91948808D01*
X86002369Y-91949793D01*
X86024453Y-91972428D01*
X86035502Y-91994653D01*
X86035548Y-91995293D01*
X86031007Y-92012955D01*
X86018143Y-92047521D01*
X85998384Y-92095866D01*
X85973160Y-92154865D01*
X85943898Y-92221395D01*
X85912029Y-92292331D01*
X85878980Y-92364547D01*
X85846180Y-92434920D01*
X85815059Y-92500325D01*
X85787044Y-92557637D01*
X85763565Y-92603732D01*
X85746051Y-92635486D01*
X85735930Y-92649773D01*
X85701522Y-92663142D01*
X85659825Y-92656781D01*
X85654460Y-92652084D01*
X85638631Y-92629933D01*
X85616429Y-92593172D01*
X85590012Y-92545455D01*
X85561539Y-92490433D01*
X85481765Y-92331190D01*
X85408578Y-92477782D01*
X85398882Y-92497072D01*
X85371904Y-92549420D01*
X85347875Y-92594210D01*
X85329111Y-92627194D01*
X85317925Y-92644129D01*
X85316779Y-92645372D01*
X85288658Y-92660659D01*
X85253596Y-92662342D01*
X85222555Y-92649773D01*
X85220129Y-92646924D01*
X85207869Y-92626299D01*
X85188131Y-92588748D01*
X85162227Y-92536920D01*
X85131464Y-92473463D01*
X85097154Y-92401025D01*
X85060604Y-92322256D01*
X85040364Y-92278133D01*
X85003591Y-92197405D01*
X84975134Y-92133727D01*
X84954110Y-92084792D01*
X84939633Y-92048297D01*
X84930818Y-92021935D01*
X84926783Y-92003401D01*
X84926641Y-91990392D01*
X84929509Y-91980601D01*
X84944166Y-91959718D01*
X84970769Y-91939417D01*
X84971524Y-91939075D01*
X84991114Y-91932074D01*
X85008569Y-91931544D01*
X85025481Y-91939518D01*
G37*
X92576632Y-91930976D02*
X92642879Y-91936406D01*
X92698179Y-91946004D01*
X92749062Y-91960865D01*
X92820374Y-91993998D01*
X92871531Y-92036680D01*
X92902354Y-92088745D01*
X92912668Y-92150023D01*
X92911731Y-92181272D01*
X92905939Y-92206069D01*
X92891132Y-92227739D01*
X92863159Y-92255089D01*
X92855181Y-92262418D01*
X92831471Y-92283321D01*
X92809077Y-92300291D01*
X92785044Y-92314245D01*
X92756416Y-92326096D01*
X92720239Y-92336760D01*
X92673559Y-92347151D01*
X92613420Y-92358186D01*
X92536869Y-92370778D01*
X92440950Y-92385844D01*
X92422587Y-92388878D01*
X92360257Y-92402498D01*
X92315039Y-92418232D01*
X92288755Y-92435303D01*
X92283226Y-92452937D01*
X92285847Y-92457208D01*
X92303779Y-92472273D01*
X92331905Y-92488907D01*
X92344705Y-92494897D01*
X92366003Y-92502090D01*
X92392389Y-92506867D01*
X92428233Y-92509686D01*
X92477907Y-92511004D01*
X92545779Y-92511277D01*
X92563564Y-92511204D01*
X92631185Y-92510093D01*
X92696124Y-92507868D01*
X92751749Y-92504802D01*
X92791430Y-92501167D01*
X92826941Y-92497099D01*
X92856194Y-92496316D01*
X92875094Y-92500916D01*
X92890208Y-92511591D01*
X92893864Y-92515184D01*
X92910206Y-92546958D01*
X92908886Y-92582612D01*
X92889929Y-92613230D01*
X92869559Y-92624836D01*
X92833575Y-92637531D01*
X92791151Y-92647581D01*
X92787701Y-92648180D01*
X92745031Y-92653396D01*
X92687645Y-92657770D01*
X92622628Y-92660858D01*
X92557068Y-92662217D01*
X92540836Y-92662258D01*
X92442523Y-92659781D01*
X92362471Y-92651775D01*
X92297292Y-92637243D01*
X92243596Y-92615189D01*
X92197995Y-92584616D01*
X92157102Y-92544526D01*
X92136981Y-92518299D01*
X92125355Y-92488752D01*
X92122446Y-92449035D01*
X92122587Y-92437066D01*
X92126460Y-92404385D01*
X92138844Y-92377859D01*
X92164009Y-92347011D01*
X92185221Y-92324871D01*
X92211617Y-92302325D01*
X92241334Y-92283957D01*
X92277564Y-92268701D01*
X92323496Y-92255489D01*
X92382323Y-92243254D01*
X92457235Y-92230929D01*
X92551424Y-92217446D01*
X92596736Y-92210436D01*
X92664690Y-92195877D01*
X92713826Y-92179377D01*
X92743393Y-92161479D01*
X92752643Y-92142725D01*
X92740827Y-92123655D01*
X92707195Y-92104811D01*
X92704149Y-92103597D01*
X92657790Y-92091519D01*
X92595140Y-92083319D01*
X92521706Y-92079159D01*
X92442996Y-92079201D01*
X92364518Y-92083609D01*
X92291779Y-92092545D01*
X92287852Y-92093194D01*
X92239036Y-92100901D01*
X92206784Y-92104513D01*
X92185787Y-92103916D01*
X92170733Y-92098994D01*
X92156313Y-92089636D01*
X92155143Y-92088765D01*
X92130626Y-92058391D01*
X92125833Y-92022890D01*
X92141639Y-91988309D01*
X92146185Y-91983853D01*
X92175799Y-91968713D01*
X92222781Y-91955590D01*
X92283085Y-91944790D01*
X92352667Y-91936621D01*
X92427482Y-91931391D01*
X92503485Y-91929407D01*
X92576632Y-91930976D01*
G36*
X92576632Y-91930976D02*
G01*
X92642879Y-91936406D01*
X92698179Y-91946004D01*
X92749062Y-91960865D01*
X92820374Y-91993998D01*
X92871531Y-92036680D01*
X92902354Y-92088745D01*
X92912668Y-92150023D01*
X92911731Y-92181272D01*
X92905939Y-92206069D01*
X92891132Y-92227739D01*
X92863159Y-92255089D01*
X92855181Y-92262418D01*
X92831471Y-92283321D01*
X92809077Y-92300291D01*
X92785044Y-92314245D01*
X92756416Y-92326096D01*
X92720239Y-92336760D01*
X92673559Y-92347151D01*
X92613420Y-92358186D01*
X92536869Y-92370778D01*
X92440950Y-92385844D01*
X92422587Y-92388878D01*
X92360257Y-92402498D01*
X92315039Y-92418232D01*
X92288755Y-92435303D01*
X92283226Y-92452937D01*
X92285847Y-92457208D01*
X92303779Y-92472273D01*
X92331905Y-92488907D01*
X92344705Y-92494897D01*
X92366003Y-92502090D01*
X92392389Y-92506867D01*
X92428233Y-92509686D01*
X92477907Y-92511004D01*
X92545779Y-92511277D01*
X92563564Y-92511204D01*
X92631185Y-92510093D01*
X92696124Y-92507868D01*
X92751749Y-92504802D01*
X92791430Y-92501167D01*
X92826941Y-92497099D01*
X92856194Y-92496316D01*
X92875094Y-92500916D01*
X92890208Y-92511591D01*
X92893864Y-92515184D01*
X92910206Y-92546958D01*
X92908886Y-92582612D01*
X92889929Y-92613230D01*
X92869559Y-92624836D01*
X92833575Y-92637531D01*
X92791151Y-92647581D01*
X92787701Y-92648180D01*
X92745031Y-92653396D01*
X92687645Y-92657770D01*
X92622628Y-92660858D01*
X92557068Y-92662217D01*
X92540836Y-92662258D01*
X92442523Y-92659781D01*
X92362471Y-92651775D01*
X92297292Y-92637243D01*
X92243596Y-92615189D01*
X92197995Y-92584616D01*
X92157102Y-92544526D01*
X92136981Y-92518299D01*
X92125355Y-92488752D01*
X92122446Y-92449035D01*
X92122587Y-92437066D01*
X92126460Y-92404385D01*
X92138844Y-92377859D01*
X92164009Y-92347011D01*
X92185221Y-92324871D01*
X92211617Y-92302325D01*
X92241334Y-92283957D01*
X92277564Y-92268701D01*
X92323496Y-92255489D01*
X92382323Y-92243254D01*
X92457235Y-92230929D01*
X92551424Y-92217446D01*
X92596736Y-92210436D01*
X92664690Y-92195877D01*
X92713826Y-92179377D01*
X92743393Y-92161479D01*
X92752643Y-92142725D01*
X92740827Y-92123655D01*
X92707195Y-92104811D01*
X92704149Y-92103597D01*
X92657790Y-92091519D01*
X92595140Y-92083319D01*
X92521706Y-92079159D01*
X92442996Y-92079201D01*
X92364518Y-92083609D01*
X92291779Y-92092545D01*
X92287852Y-92093194D01*
X92239036Y-92100901D01*
X92206784Y-92104513D01*
X92185787Y-92103916D01*
X92170733Y-92098994D01*
X92156313Y-92089636D01*
X92155143Y-92088765D01*
X92130626Y-92058391D01*
X92125833Y-92022890D01*
X92141639Y-91988309D01*
X92146185Y-91983853D01*
X92175799Y-91968713D01*
X92222781Y-91955590D01*
X92283085Y-91944790D01*
X92352667Y-91936621D01*
X92427482Y-91931391D01*
X92503485Y-91929407D01*
X92576632Y-91930976D01*
G37*
X88576334Y-86452926D02*
X88760835Y-86469863D01*
X88932236Y-86504022D01*
X89096914Y-86556839D01*
X89261243Y-86629753D01*
X89423911Y-86722849D01*
X89598486Y-86849762D01*
X89760375Y-86996498D01*
X89906015Y-87159424D01*
X90031839Y-87334907D01*
X90134284Y-87519316D01*
X90143583Y-87539044D01*
X90221460Y-87729461D01*
X90280635Y-87927325D01*
X90321874Y-88136418D01*
X90345939Y-88360518D01*
X90353598Y-88603407D01*
X90344286Y-88854491D01*
X90314731Y-89101760D01*
X90264474Y-89333231D01*
X90193064Y-89550547D01*
X90100053Y-89755350D01*
X89984991Y-89949281D01*
X89876909Y-90097442D01*
X89727671Y-90264148D01*
X89565008Y-90406937D01*
X89388992Y-90525762D01*
X89199694Y-90620577D01*
X88997184Y-90691335D01*
X88781535Y-90737990D01*
X88779074Y-90738353D01*
X88737545Y-90741997D01*
X88674875Y-90744700D01*
X88596860Y-90746335D01*
X88509295Y-90746778D01*
X88417974Y-90745900D01*
X88353971Y-90744615D01*
X88259010Y-90741638D01*
X88182915Y-90737376D01*
X88120199Y-90731374D01*
X88065372Y-90723177D01*
X88012947Y-90712330D01*
X87953964Y-90698313D01*
X87892427Y-90682351D01*
X87836773Y-90665606D01*
X87781950Y-90646116D01*
X87722909Y-90621921D01*
X87654598Y-90591058D01*
X87571965Y-90551567D01*
X87469960Y-90501487D01*
X87187839Y-90362063D01*
X87413800Y-89990915D01*
X87443383Y-89942338D01*
X87496530Y-89855137D01*
X87544101Y-89777179D01*
X87584355Y-89711306D01*
X87615555Y-89660364D01*
X87635963Y-89627195D01*
X87643839Y-89614643D01*
X87646029Y-89615018D01*
X87663675Y-89627302D01*
X87694676Y-89652795D01*
X87734134Y-89687542D01*
X87804407Y-89747577D01*
X87929858Y-89836354D01*
X88051576Y-89898242D01*
X88139532Y-89929148D01*
X88288304Y-89960733D01*
X88434476Y-89966332D01*
X88575930Y-89946325D01*
X88710545Y-89901094D01*
X88836201Y-89831021D01*
X88950780Y-89736487D01*
X89014536Y-89666859D01*
X89104354Y-89538072D01*
X89178054Y-89388621D01*
X89235988Y-89217740D01*
X89278508Y-89024665D01*
X89280438Y-89012679D01*
X89289350Y-88934991D01*
X89295984Y-88838465D01*
X89300287Y-88729697D01*
X89302206Y-88615282D01*
X89301685Y-88501816D01*
X89298672Y-88395894D01*
X89293113Y-88304111D01*
X89284954Y-88233065D01*
X89253681Y-88072128D01*
X89201061Y-87884134D01*
X89134882Y-87719548D01*
X89055234Y-87578497D01*
X88962204Y-87461108D01*
X88855881Y-87367511D01*
X88736354Y-87297830D01*
X88603711Y-87252195D01*
X88574282Y-87246531D01*
X88500531Y-87239136D01*
X88414343Y-87236722D01*
X88325371Y-87239156D01*
X88243273Y-87246308D01*
X88177704Y-87258043D01*
X88068473Y-87295409D01*
X87941714Y-87363626D01*
X87828845Y-87453398D01*
X87808924Y-87472309D01*
X87772827Y-87505766D01*
X87747316Y-87528286D01*
X87736951Y-87535776D01*
X87734400Y-87532194D01*
X87718693Y-87509571D01*
X87690319Y-87468495D01*
X87651151Y-87411684D01*
X87603065Y-87341860D01*
X87547935Y-87261741D01*
X87487636Y-87174049D01*
X87241001Y-86815250D01*
X87296098Y-86798743D01*
X87301847Y-86796872D01*
X87339272Y-86782014D01*
X87393231Y-86758056D01*
X87457389Y-86727879D01*
X87525416Y-86694365D01*
X87555059Y-86679548D01*
X87719663Y-86603049D01*
X87871377Y-86543893D01*
X88016035Y-86500566D01*
X88159473Y-86471555D01*
X88307525Y-86455347D01*
X88466028Y-86450428D01*
X88576334Y-86452926D01*
G36*
X88576334Y-86452926D02*
G01*
X88760835Y-86469863D01*
X88932236Y-86504022D01*
X89096914Y-86556839D01*
X89261243Y-86629753D01*
X89423911Y-86722849D01*
X89598486Y-86849762D01*
X89760375Y-86996498D01*
X89906015Y-87159424D01*
X90031839Y-87334907D01*
X90134284Y-87519316D01*
X90143583Y-87539044D01*
X90221460Y-87729461D01*
X90280635Y-87927325D01*
X90321874Y-88136418D01*
X90345939Y-88360518D01*
X90353598Y-88603407D01*
X90344286Y-88854491D01*
X90314731Y-89101760D01*
X90264474Y-89333231D01*
X90193064Y-89550547D01*
X90100053Y-89755350D01*
X89984991Y-89949281D01*
X89876909Y-90097442D01*
X89727671Y-90264148D01*
X89565008Y-90406937D01*
X89388992Y-90525762D01*
X89199694Y-90620577D01*
X88997184Y-90691335D01*
X88781535Y-90737990D01*
X88779074Y-90738353D01*
X88737545Y-90741997D01*
X88674875Y-90744700D01*
X88596860Y-90746335D01*
X88509295Y-90746778D01*
X88417974Y-90745900D01*
X88353971Y-90744615D01*
X88259010Y-90741638D01*
X88182915Y-90737376D01*
X88120199Y-90731374D01*
X88065372Y-90723177D01*
X88012947Y-90712330D01*
X87953964Y-90698313D01*
X87892427Y-90682351D01*
X87836773Y-90665606D01*
X87781950Y-90646116D01*
X87722909Y-90621921D01*
X87654598Y-90591058D01*
X87571965Y-90551567D01*
X87469960Y-90501487D01*
X87187839Y-90362063D01*
X87413800Y-89990915D01*
X87443383Y-89942338D01*
X87496530Y-89855137D01*
X87544101Y-89777179D01*
X87584355Y-89711306D01*
X87615555Y-89660364D01*
X87635963Y-89627195D01*
X87643839Y-89614643D01*
X87646029Y-89615018D01*
X87663675Y-89627302D01*
X87694676Y-89652795D01*
X87734134Y-89687542D01*
X87804407Y-89747577D01*
X87929858Y-89836354D01*
X88051576Y-89898242D01*
X88139532Y-89929148D01*
X88288304Y-89960733D01*
X88434476Y-89966332D01*
X88575930Y-89946325D01*
X88710545Y-89901094D01*
X88836201Y-89831021D01*
X88950780Y-89736487D01*
X89014536Y-89666859D01*
X89104354Y-89538072D01*
X89178054Y-89388621D01*
X89235988Y-89217740D01*
X89278508Y-89024665D01*
X89280438Y-89012679D01*
X89289350Y-88934991D01*
X89295984Y-88838465D01*
X89300287Y-88729697D01*
X89302206Y-88615282D01*
X89301685Y-88501816D01*
X89298672Y-88395894D01*
X89293113Y-88304111D01*
X89284954Y-88233065D01*
X89253681Y-88072128D01*
X89201061Y-87884134D01*
X89134882Y-87719548D01*
X89055234Y-87578497D01*
X88962204Y-87461108D01*
X88855881Y-87367511D01*
X88736354Y-87297830D01*
X88603711Y-87252195D01*
X88574282Y-87246531D01*
X88500531Y-87239136D01*
X88414343Y-87236722D01*
X88325371Y-87239156D01*
X88243273Y-87246308D01*
X88177704Y-87258043D01*
X88068473Y-87295409D01*
X87941714Y-87363626D01*
X87828845Y-87453398D01*
X87808924Y-87472309D01*
X87772827Y-87505766D01*
X87747316Y-87528286D01*
X87736951Y-87535776D01*
X87734400Y-87532194D01*
X87718693Y-87509571D01*
X87690319Y-87468495D01*
X87651151Y-87411684D01*
X87603065Y-87341860D01*
X87547935Y-87261741D01*
X87487636Y-87174049D01*
X87241001Y-86815250D01*
X87296098Y-86798743D01*
X87301847Y-86796872D01*
X87339272Y-86782014D01*
X87393231Y-86758056D01*
X87457389Y-86727879D01*
X87525416Y-86694365D01*
X87555059Y-86679548D01*
X87719663Y-86603049D01*
X87871377Y-86543893D01*
X88016035Y-86500566D01*
X88159473Y-86471555D01*
X88307525Y-86455347D01*
X88466028Y-86450428D01*
X88576334Y-86452926D01*
G37*
X84091242Y-89313849D02*
X84088329Y-89440905D01*
X84079999Y-89552957D01*
X84065607Y-89656100D01*
X84044508Y-89756429D01*
X84016057Y-89860038D01*
X83972915Y-89983881D01*
X83893677Y-90151064D01*
X83796480Y-90300809D01*
X83682812Y-90431700D01*
X83554159Y-90542322D01*
X83412008Y-90631260D01*
X83257846Y-90697098D01*
X83093161Y-90738422D01*
X83091179Y-90738754D01*
X82970824Y-90750334D01*
X82838586Y-90748789D01*
X82703891Y-90735070D01*
X82576171Y-90710131D01*
X82464853Y-90674925D01*
X82417338Y-90653501D01*
X82355456Y-90620938D01*
X82291867Y-90583694D01*
X82233208Y-90545869D01*
X82186113Y-90511562D01*
X82157217Y-90484872D01*
X82150584Y-90477544D01*
X82142676Y-90474983D01*
X82137390Y-90487699D01*
X82133495Y-90519747D01*
X82129758Y-90575179D01*
X82122893Y-90690686D01*
X81597056Y-90694282D01*
X81071219Y-90697879D01*
X81107603Y-90635794D01*
X81109772Y-90632124D01*
X81120352Y-90614892D01*
X81129950Y-90599541D01*
X81138618Y-90584737D01*
X81146407Y-90569147D01*
X81153369Y-90551437D01*
X81159556Y-90530272D01*
X81165018Y-90504321D01*
X81169809Y-90472248D01*
X81173979Y-90432720D01*
X81177581Y-90384405D01*
X81180665Y-90325967D01*
X81183284Y-90256074D01*
X81185489Y-90173392D01*
X81187331Y-90076587D01*
X81188863Y-89964325D01*
X81190136Y-89835273D01*
X81191202Y-89688098D01*
X81192112Y-89521466D01*
X81192918Y-89334042D01*
X81193672Y-89124494D01*
X81194425Y-88891488D01*
X81195229Y-88633690D01*
X81195938Y-88411830D01*
X82191541Y-88411830D01*
X82191541Y-89839053D01*
X82260190Y-89884081D01*
X82286590Y-89900301D01*
X82347039Y-89932705D01*
X82404352Y-89958509D01*
X82429452Y-89967246D01*
X82509318Y-89984689D01*
X82610298Y-89993596D01*
X82661646Y-89995449D01*
X82709310Y-89995027D01*
X82744791Y-89990267D01*
X82776616Y-89979862D01*
X82813310Y-89962507D01*
X82883829Y-89916017D01*
X82944922Y-89850254D01*
X82993824Y-89765506D01*
X83031002Y-89660445D01*
X83056919Y-89533743D01*
X83072043Y-89384070D01*
X83076837Y-89210100D01*
X83076604Y-89170548D01*
X83069712Y-88987292D01*
X83052975Y-88827833D01*
X83025988Y-88690491D01*
X82988342Y-88573582D01*
X82939631Y-88475425D01*
X82879448Y-88394336D01*
X82854480Y-88369588D01*
X82777100Y-88318029D01*
X82686263Y-88286655D01*
X82585906Y-88275643D01*
X82479962Y-88285172D01*
X82372366Y-88315420D01*
X82267055Y-88366566D01*
X82191541Y-88411830D01*
X81195938Y-88411830D01*
X81196136Y-88349767D01*
X81203001Y-86255983D01*
X81748758Y-86252393D01*
X81788446Y-86252152D01*
X81905217Y-86251673D01*
X82012022Y-86251575D01*
X82105945Y-86251840D01*
X82184071Y-86252447D01*
X82243485Y-86253376D01*
X82281271Y-86254607D01*
X82294514Y-86256120D01*
X82292820Y-86260917D01*
X82280181Y-86283658D01*
X82259247Y-86316729D01*
X82257159Y-86319891D01*
X82240929Y-86345425D01*
X82227320Y-86370269D01*
X82216103Y-86396982D01*
X82207046Y-86428122D01*
X82199918Y-86466250D01*
X82194490Y-86513923D01*
X82190530Y-86573701D01*
X82187807Y-86648143D01*
X82186092Y-86739808D01*
X82185152Y-86851256D01*
X82184757Y-86985044D01*
X82184676Y-87143733D01*
X82184820Y-87267629D01*
X82185261Y-87389267D01*
X82185966Y-87499559D01*
X82186904Y-87595821D01*
X82188044Y-87675367D01*
X82189352Y-87735511D01*
X82190797Y-87773566D01*
X82192346Y-87786848D01*
X82197345Y-87784787D01*
X82219318Y-87770270D01*
X82250698Y-87746429D01*
X82296191Y-87714367D01*
X82381665Y-87667127D01*
X82479359Y-87624988D01*
X82580153Y-87592218D01*
X82664839Y-87575508D01*
X82770310Y-87564857D01*
X82884458Y-87561166D01*
X82998476Y-87564442D01*
X83103554Y-87574688D01*
X83190883Y-87591908D01*
X83279804Y-87620916D01*
X83428145Y-87691237D01*
X83565497Y-87784725D01*
X83689328Y-87899225D01*
X83797102Y-88032587D01*
X83886286Y-88182656D01*
X83908427Y-88228674D01*
X83970474Y-88383896D01*
X84018983Y-88552361D01*
X84054567Y-88737040D01*
X84077840Y-88940901D01*
X84089414Y-89166915D01*
X84089952Y-89210100D01*
X84091242Y-89313849D01*
G36*
X84091242Y-89313849D02*
G01*
X84088329Y-89440905D01*
X84079999Y-89552957D01*
X84065607Y-89656100D01*
X84044508Y-89756429D01*
X84016057Y-89860038D01*
X83972915Y-89983881D01*
X83893677Y-90151064D01*
X83796480Y-90300809D01*
X83682812Y-90431700D01*
X83554159Y-90542322D01*
X83412008Y-90631260D01*
X83257846Y-90697098D01*
X83093161Y-90738422D01*
X83091179Y-90738754D01*
X82970824Y-90750334D01*
X82838586Y-90748789D01*
X82703891Y-90735070D01*
X82576171Y-90710131D01*
X82464853Y-90674925D01*
X82417338Y-90653501D01*
X82355456Y-90620938D01*
X82291867Y-90583694D01*
X82233208Y-90545869D01*
X82186113Y-90511562D01*
X82157217Y-90484872D01*
X82150584Y-90477544D01*
X82142676Y-90474983D01*
X82137390Y-90487699D01*
X82133495Y-90519747D01*
X82129758Y-90575179D01*
X82122893Y-90690686D01*
X81597056Y-90694282D01*
X81071219Y-90697879D01*
X81107603Y-90635794D01*
X81109772Y-90632124D01*
X81120352Y-90614892D01*
X81129950Y-90599541D01*
X81138618Y-90584737D01*
X81146407Y-90569147D01*
X81153369Y-90551437D01*
X81159556Y-90530272D01*
X81165018Y-90504321D01*
X81169809Y-90472248D01*
X81173979Y-90432720D01*
X81177581Y-90384405D01*
X81180665Y-90325967D01*
X81183284Y-90256074D01*
X81185489Y-90173392D01*
X81187331Y-90076587D01*
X81188863Y-89964325D01*
X81190136Y-89835273D01*
X81191202Y-89688098D01*
X81192112Y-89521466D01*
X81192918Y-89334042D01*
X81193672Y-89124494D01*
X81194425Y-88891488D01*
X81195229Y-88633690D01*
X81195938Y-88411830D01*
X82191541Y-88411830D01*
X82191541Y-89839053D01*
X82260190Y-89884081D01*
X82286590Y-89900301D01*
X82347039Y-89932705D01*
X82404352Y-89958509D01*
X82429452Y-89967246D01*
X82509318Y-89984689D01*
X82610298Y-89993596D01*
X82661646Y-89995449D01*
X82709310Y-89995027D01*
X82744791Y-89990267D01*
X82776616Y-89979862D01*
X82813310Y-89962507D01*
X82883829Y-89916017D01*
X82944922Y-89850254D01*
X82993824Y-89765506D01*
X83031002Y-89660445D01*
X83056919Y-89533743D01*
X83072043Y-89384070D01*
X83076837Y-89210100D01*
X83076604Y-89170548D01*
X83069712Y-88987292D01*
X83052975Y-88827833D01*
X83025988Y-88690491D01*
X82988342Y-88573582D01*
X82939631Y-88475425D01*
X82879448Y-88394336D01*
X82854480Y-88369588D01*
X82777100Y-88318029D01*
X82686263Y-88286655D01*
X82585906Y-88275643D01*
X82479962Y-88285172D01*
X82372366Y-88315420D01*
X82267055Y-88366566D01*
X82191541Y-88411830D01*
X81195938Y-88411830D01*
X81196136Y-88349767D01*
X81203001Y-86255983D01*
X81748758Y-86252393D01*
X81788446Y-86252152D01*
X81905217Y-86251673D01*
X82012022Y-86251575D01*
X82105945Y-86251840D01*
X82184071Y-86252447D01*
X82243485Y-86253376D01*
X82281271Y-86254607D01*
X82294514Y-86256120D01*
X82292820Y-86260917D01*
X82280181Y-86283658D01*
X82259247Y-86316729D01*
X82257159Y-86319891D01*
X82240929Y-86345425D01*
X82227320Y-86370269D01*
X82216103Y-86396982D01*
X82207046Y-86428122D01*
X82199918Y-86466250D01*
X82194490Y-86513923D01*
X82190530Y-86573701D01*
X82187807Y-86648143D01*
X82186092Y-86739808D01*
X82185152Y-86851256D01*
X82184757Y-86985044D01*
X82184676Y-87143733D01*
X82184820Y-87267629D01*
X82185261Y-87389267D01*
X82185966Y-87499559D01*
X82186904Y-87595821D01*
X82188044Y-87675367D01*
X82189352Y-87735511D01*
X82190797Y-87773566D01*
X82192346Y-87786848D01*
X82197345Y-87784787D01*
X82219318Y-87770270D01*
X82250698Y-87746429D01*
X82296191Y-87714367D01*
X82381665Y-87667127D01*
X82479359Y-87624988D01*
X82580153Y-87592218D01*
X82664839Y-87575508D01*
X82770310Y-87564857D01*
X82884458Y-87561166D01*
X82998476Y-87564442D01*
X83103554Y-87574688D01*
X83190883Y-87591908D01*
X83279804Y-87620916D01*
X83428145Y-87691237D01*
X83565497Y-87784725D01*
X83689328Y-87899225D01*
X83797102Y-88032587D01*
X83886286Y-88182656D01*
X83908427Y-88228674D01*
X83970474Y-88383896D01*
X84018983Y-88552361D01*
X84054567Y-88737040D01*
X84077840Y-88940901D01*
X84089414Y-89166915D01*
X84089952Y-89210100D01*
X84091242Y-89313849D01*
G37*
X87194615Y-89745882D02*
X87188449Y-89856584D01*
X87175122Y-89959587D01*
X87155013Y-90045389D01*
X87122927Y-90133666D01*
X87048550Y-90279147D01*
X86953481Y-90407143D01*
X86838705Y-90516781D01*
X86705206Y-90607190D01*
X86553967Y-90677496D01*
X86385974Y-90726829D01*
X86317470Y-90737956D01*
X86219580Y-90745689D01*
X86112971Y-90747428D01*
X86006552Y-90743313D01*
X85909232Y-90733485D01*
X85829920Y-90718084D01*
X85790066Y-90705958D01*
X85699550Y-90670474D01*
X85607539Y-90625423D01*
X85523525Y-90575691D01*
X85457002Y-90526164D01*
X85456184Y-90525449D01*
X85419730Y-90494540D01*
X85391683Y-90472531D01*
X85378056Y-90464146D01*
X85376566Y-90466148D01*
X85373195Y-90487774D01*
X85370852Y-90528108D01*
X85369974Y-90580848D01*
X85369974Y-90697551D01*
X84855109Y-90697551D01*
X84841403Y-90697549D01*
X84726452Y-90697348D01*
X84620951Y-90696847D01*
X84527901Y-90696085D01*
X84450304Y-90695097D01*
X84391161Y-90693922D01*
X84353473Y-90692597D01*
X84340244Y-90691159D01*
X84340552Y-90689902D01*
X84349207Y-90671349D01*
X84367350Y-90636493D01*
X84391731Y-90591618D01*
X84443217Y-90498470D01*
X84450766Y-89578829D01*
X85424893Y-89578829D01*
X85425276Y-89651488D01*
X85427131Y-89727833D01*
X85430766Y-89783016D01*
X85436445Y-89820630D01*
X85444433Y-89844269D01*
X85454709Y-89861149D01*
X85493405Y-89907165D01*
X85545252Y-89955069D01*
X85602079Y-89997752D01*
X85655712Y-90028101D01*
X85685469Y-90039237D01*
X85753986Y-90054064D01*
X85843475Y-90061644D01*
X85937825Y-90060496D01*
X86027421Y-90044904D01*
X86102205Y-90012694D01*
X86166908Y-89962415D01*
X86185109Y-89943818D01*
X86232498Y-89880394D01*
X86258139Y-89812032D01*
X86265839Y-89729773D01*
X86263753Y-89686315D01*
X86243122Y-89596853D01*
X86199782Y-89520067D01*
X86132944Y-89455091D01*
X86041818Y-89401063D01*
X85925615Y-89357118D01*
X85878768Y-89345586D01*
X85822055Y-89337690D01*
X85750682Y-89333305D01*
X85658298Y-89331830D01*
X85643291Y-89331831D01*
X85574176Y-89332675D01*
X85514807Y-89334714D01*
X85471087Y-89337681D01*
X85448920Y-89341309D01*
X85446369Y-89342487D01*
X85438122Y-89349883D01*
X85432281Y-89364747D01*
X85428442Y-89391075D01*
X85426200Y-89432866D01*
X85425152Y-89494118D01*
X85424893Y-89578829D01*
X84450766Y-89578829D01*
X84451163Y-89530524D01*
X84452344Y-89389543D01*
X84453996Y-89209741D01*
X84455730Y-89053647D01*
X84457687Y-88919053D01*
X84460006Y-88803753D01*
X84462827Y-88705537D01*
X84466291Y-88622200D01*
X84470537Y-88551533D01*
X84475707Y-88491328D01*
X84481939Y-88439379D01*
X84489374Y-88393478D01*
X84498153Y-88351417D01*
X84508414Y-88310989D01*
X84520300Y-88269985D01*
X84533948Y-88226200D01*
X84587717Y-88088933D01*
X84661352Y-87962070D01*
X84753053Y-87853456D01*
X84863662Y-87762522D01*
X84994017Y-87688701D01*
X85144958Y-87631423D01*
X85317324Y-87590121D01*
X85511956Y-87564226D01*
X85579982Y-87559077D01*
X85694549Y-87555312D01*
X85808103Y-87558702D01*
X85925960Y-87569820D01*
X86053437Y-87589236D01*
X86195850Y-87617522D01*
X86358514Y-87655251D01*
X86396114Y-87664380D01*
X86490536Y-87686844D01*
X86580030Y-87707527D01*
X86659168Y-87725209D01*
X86722523Y-87738668D01*
X86764667Y-87746681D01*
X86861901Y-87762651D01*
X86725203Y-88093966D01*
X86691010Y-88176688D01*
X86657372Y-88257744D01*
X86628510Y-88326949D01*
X86605842Y-88380916D01*
X86590784Y-88416260D01*
X86584754Y-88429594D01*
X86583806Y-88429785D01*
X86566331Y-88423832D01*
X86531970Y-88408576D01*
X86486921Y-88386731D01*
X86393289Y-88344191D01*
X86264445Y-88297678D01*
X86132573Y-88262058D01*
X86002831Y-88238226D01*
X85880376Y-88227075D01*
X85770364Y-88229502D01*
X85677952Y-88246400D01*
X85613456Y-88273212D01*
X85540207Y-88328158D01*
X85483820Y-88402700D01*
X85445908Y-88494543D01*
X85428086Y-88601395D01*
X85421810Y-88699875D01*
X85749432Y-88700772D01*
X85859919Y-88701699D01*
X85982125Y-88704989D01*
X86086522Y-88711199D01*
X86178511Y-88720932D01*
X86263491Y-88734791D01*
X86346864Y-88753381D01*
X86434028Y-88777306D01*
X86564447Y-88822844D01*
X86717847Y-88897836D01*
X86852475Y-88989695D01*
X86967003Y-89097128D01*
X87060103Y-89218843D01*
X87130448Y-89353549D01*
X87176710Y-89499953D01*
X87183955Y-89539384D01*
X87193243Y-89636981D01*
X87194413Y-89729773D01*
X87194615Y-89745882D01*
G36*
X87194615Y-89745882D02*
G01*
X87188449Y-89856584D01*
X87175122Y-89959587D01*
X87155013Y-90045389D01*
X87122927Y-90133666D01*
X87048550Y-90279147D01*
X86953481Y-90407143D01*
X86838705Y-90516781D01*
X86705206Y-90607190D01*
X86553967Y-90677496D01*
X86385974Y-90726829D01*
X86317470Y-90737956D01*
X86219580Y-90745689D01*
X86112971Y-90747428D01*
X86006552Y-90743313D01*
X85909232Y-90733485D01*
X85829920Y-90718084D01*
X85790066Y-90705958D01*
X85699550Y-90670474D01*
X85607539Y-90625423D01*
X85523525Y-90575691D01*
X85457002Y-90526164D01*
X85456184Y-90525449D01*
X85419730Y-90494540D01*
X85391683Y-90472531D01*
X85378056Y-90464146D01*
X85376566Y-90466148D01*
X85373195Y-90487774D01*
X85370852Y-90528108D01*
X85369974Y-90580848D01*
X85369974Y-90697551D01*
X84855109Y-90697551D01*
X84841403Y-90697549D01*
X84726452Y-90697348D01*
X84620951Y-90696847D01*
X84527901Y-90696085D01*
X84450304Y-90695097D01*
X84391161Y-90693922D01*
X84353473Y-90692597D01*
X84340244Y-90691159D01*
X84340552Y-90689902D01*
X84349207Y-90671349D01*
X84367350Y-90636493D01*
X84391731Y-90591618D01*
X84443217Y-90498470D01*
X84450766Y-89578829D01*
X85424893Y-89578829D01*
X85425276Y-89651488D01*
X85427131Y-89727833D01*
X85430766Y-89783016D01*
X85436445Y-89820630D01*
X85444433Y-89844269D01*
X85454709Y-89861149D01*
X85493405Y-89907165D01*
X85545252Y-89955069D01*
X85602079Y-89997752D01*
X85655712Y-90028101D01*
X85685469Y-90039237D01*
X85753986Y-90054064D01*
X85843475Y-90061644D01*
X85937825Y-90060496D01*
X86027421Y-90044904D01*
X86102205Y-90012694D01*
X86166908Y-89962415D01*
X86185109Y-89943818D01*
X86232498Y-89880394D01*
X86258139Y-89812032D01*
X86265839Y-89729773D01*
X86263753Y-89686315D01*
X86243122Y-89596853D01*
X86199782Y-89520067D01*
X86132944Y-89455091D01*
X86041818Y-89401063D01*
X85925615Y-89357118D01*
X85878768Y-89345586D01*
X85822055Y-89337690D01*
X85750682Y-89333305D01*
X85658298Y-89331830D01*
X85643291Y-89331831D01*
X85574176Y-89332675D01*
X85514807Y-89334714D01*
X85471087Y-89337681D01*
X85448920Y-89341309D01*
X85446369Y-89342487D01*
X85438122Y-89349883D01*
X85432281Y-89364747D01*
X85428442Y-89391075D01*
X85426200Y-89432866D01*
X85425152Y-89494118D01*
X85424893Y-89578829D01*
X84450766Y-89578829D01*
X84451163Y-89530524D01*
X84452344Y-89389543D01*
X84453996Y-89209741D01*
X84455730Y-89053647D01*
X84457687Y-88919053D01*
X84460006Y-88803753D01*
X84462827Y-88705537D01*
X84466291Y-88622200D01*
X84470537Y-88551533D01*
X84475707Y-88491328D01*
X84481939Y-88439379D01*
X84489374Y-88393478D01*
X84498153Y-88351417D01*
X84508414Y-88310989D01*
X84520300Y-88269985D01*
X84533948Y-88226200D01*
X84587717Y-88088933D01*
X84661352Y-87962070D01*
X84753053Y-87853456D01*
X84863662Y-87762522D01*
X84994017Y-87688701D01*
X85144958Y-87631423D01*
X85317324Y-87590121D01*
X85511956Y-87564226D01*
X85579982Y-87559077D01*
X85694549Y-87555312D01*
X85808103Y-87558702D01*
X85925960Y-87569820D01*
X86053437Y-87589236D01*
X86195850Y-87617522D01*
X86358514Y-87655251D01*
X86396114Y-87664380D01*
X86490536Y-87686844D01*
X86580030Y-87707527D01*
X86659168Y-87725209D01*
X86722523Y-87738668D01*
X86764667Y-87746681D01*
X86861901Y-87762651D01*
X86725203Y-88093966D01*
X86691010Y-88176688D01*
X86657372Y-88257744D01*
X86628510Y-88326949D01*
X86605842Y-88380916D01*
X86590784Y-88416260D01*
X86584754Y-88429594D01*
X86583806Y-88429785D01*
X86566331Y-88423832D01*
X86531970Y-88408576D01*
X86486921Y-88386731D01*
X86393289Y-88344191D01*
X86264445Y-88297678D01*
X86132573Y-88262058D01*
X86002831Y-88238226D01*
X85880376Y-88227075D01*
X85770364Y-88229502D01*
X85677952Y-88246400D01*
X85613456Y-88273212D01*
X85540207Y-88328158D01*
X85483820Y-88402700D01*
X85445908Y-88494543D01*
X85428086Y-88601395D01*
X85421810Y-88699875D01*
X85749432Y-88700772D01*
X85859919Y-88701699D01*
X85982125Y-88704989D01*
X86086522Y-88711199D01*
X86178511Y-88720932D01*
X86263491Y-88734791D01*
X86346864Y-88753381D01*
X86434028Y-88777306D01*
X86564447Y-88822844D01*
X86717847Y-88897836D01*
X86852475Y-88989695D01*
X86967003Y-89097128D01*
X87060103Y-89218843D01*
X87130448Y-89353549D01*
X87176710Y-89499953D01*
X87183955Y-89539384D01*
X87193243Y-89636981D01*
X87194413Y-89729773D01*
X87194615Y-89745882D01*
G37*
X96405432Y-90724688D02*
X96404019Y-90831158D01*
X96402264Y-90922872D01*
X96400133Y-91000965D01*
X96397589Y-91066572D01*
X96394598Y-91120829D01*
X96391122Y-91164871D01*
X96387127Y-91199833D01*
X96382576Y-91226851D01*
X96377434Y-91247060D01*
X96371666Y-91261595D01*
X96365235Y-91271592D01*
X96358106Y-91278186D01*
X96350242Y-91282513D01*
X96341609Y-91285707D01*
X96332171Y-91288904D01*
X96321891Y-91293239D01*
X96316107Y-91295411D01*
X96305497Y-91297784D01*
X96289732Y-91299958D01*
X96267697Y-91301941D01*
X96238277Y-91303744D01*
X96200356Y-91305373D01*
X96152819Y-91306839D01*
X96094551Y-91308149D01*
X96024437Y-91309313D01*
X95941361Y-91310339D01*
X95844208Y-91311236D01*
X95731863Y-91312013D01*
X95603212Y-91312678D01*
X95457137Y-91313240D01*
X95292525Y-91313708D01*
X95108260Y-91314090D01*
X94903227Y-91314396D01*
X94676311Y-91314633D01*
X94426396Y-91314811D01*
X94152368Y-91314939D01*
X93853110Y-91315024D01*
X93527508Y-91315076D01*
X93424326Y-91315086D01*
X93105790Y-91315093D01*
X92813274Y-91315053D01*
X92545675Y-91314958D01*
X92301891Y-91314801D01*
X92080819Y-91314573D01*
X91881359Y-91314267D01*
X91702408Y-91313873D01*
X91542863Y-91313386D01*
X91401623Y-91312795D01*
X91277586Y-91312095D01*
X91169650Y-91311275D01*
X91076713Y-91310329D01*
X90997672Y-91309248D01*
X90931426Y-91308025D01*
X90876872Y-91306651D01*
X90832909Y-91305119D01*
X90798434Y-91303420D01*
X90772346Y-91301546D01*
X90753543Y-91299490D01*
X90740922Y-91297244D01*
X90733381Y-91294798D01*
X90730982Y-91293710D01*
X90721160Y-91290135D01*
X90712153Y-91287524D01*
X90703924Y-91284741D01*
X90696437Y-91280648D01*
X90689655Y-91274108D01*
X90683542Y-91263985D01*
X90678062Y-91249141D01*
X90673177Y-91228439D01*
X90668851Y-91200743D01*
X90665048Y-91164916D01*
X90661731Y-91119821D01*
X90658863Y-91064320D01*
X90656409Y-90997277D01*
X90654331Y-90917555D01*
X90652594Y-90824018D01*
X90651160Y-90715527D01*
X90650689Y-90665288D01*
X91012742Y-90665288D01*
X91013139Y-90670099D01*
X91020422Y-90673998D01*
X91036876Y-90677080D01*
X91064788Y-90679442D01*
X91106444Y-90681178D01*
X91164129Y-90682384D01*
X91240129Y-90683156D01*
X91336731Y-90683589D01*
X91456221Y-90683779D01*
X91600883Y-90683821D01*
X92206860Y-90683821D01*
X92155633Y-90591146D01*
X92104406Y-90498470D01*
X92104406Y-87807443D01*
X92155633Y-87714767D01*
X92206860Y-87622092D01*
X91123698Y-87622092D01*
X91115866Y-90471010D01*
X91077468Y-90553016D01*
X91057223Y-90593663D01*
X91034300Y-90634380D01*
X91016988Y-90659422D01*
X91016945Y-90659470D01*
X91012742Y-90665288D01*
X90650689Y-90665288D01*
X90649993Y-90590946D01*
X90649057Y-90449138D01*
X90648315Y-90288967D01*
X90647730Y-90109295D01*
X90647266Y-89908985D01*
X90646887Y-89686900D01*
X90646556Y-89441904D01*
X90646236Y-89172860D01*
X90645891Y-88878630D01*
X90645485Y-88558078D01*
X90645432Y-88519272D01*
X90644979Y-88200751D01*
X90644546Y-87908420D01*
X90644164Y-87641141D01*
X90643867Y-87397777D01*
X90643685Y-87177190D01*
X90643652Y-86978243D01*
X90643798Y-86799798D01*
X90644157Y-86640719D01*
X90644761Y-86499867D01*
X90645641Y-86376105D01*
X90646829Y-86268295D01*
X90648358Y-86175301D01*
X90650259Y-86095985D01*
X90652565Y-86029208D01*
X90655308Y-85973835D01*
X90658519Y-85928727D01*
X90662232Y-85892747D01*
X90666477Y-85864757D01*
X90671288Y-85843620D01*
X90676695Y-85828199D01*
X90682732Y-85817356D01*
X90689430Y-85809954D01*
X90696822Y-85804855D01*
X90704938Y-85800921D01*
X90713812Y-85797016D01*
X90723476Y-85792002D01*
X90726304Y-85790404D01*
X90769091Y-85774937D01*
X90815930Y-85768580D01*
X90868731Y-85768582D01*
X90869611Y-85888715D01*
X90869834Y-85902540D01*
X90886616Y-86043063D01*
X90929360Y-86175283D01*
X90997470Y-86297800D01*
X91090355Y-86409211D01*
X91140199Y-86454651D01*
X91251182Y-86529968D01*
X91372275Y-86582491D01*
X91499952Y-86612190D01*
X91630684Y-86619038D01*
X91760947Y-86603007D01*
X91887212Y-86564069D01*
X91991009Y-86509983D01*
X92450394Y-86509983D01*
X92510806Y-86553447D01*
X92561897Y-86594296D01*
X92633890Y-86660924D01*
X92715547Y-86744428D01*
X92803777Y-86841626D01*
X92895487Y-86949335D01*
X92919104Y-86978138D01*
X92959314Y-87027540D01*
X93011874Y-87092353D01*
X93075043Y-87170414D01*
X93147079Y-87259559D01*
X93226241Y-87357626D01*
X93310789Y-87462452D01*
X93398980Y-87571872D01*
X93439431Y-87622092D01*
X93489073Y-87683724D01*
X93579327Y-87795845D01*
X93668002Y-87906072D01*
X93753355Y-88012240D01*
X93833645Y-88112188D01*
X93907131Y-88203751D01*
X93972072Y-88284767D01*
X94026727Y-88353072D01*
X94069353Y-88406503D01*
X94098211Y-88442896D01*
X94111558Y-88460090D01*
X94112660Y-88466551D01*
X94108995Y-88478840D01*
X94099500Y-88498173D01*
X94083225Y-88525922D01*
X94059223Y-88563458D01*
X94026547Y-88612152D01*
X93984248Y-88673377D01*
X93931378Y-88748502D01*
X93866990Y-88838900D01*
X93790135Y-88945942D01*
X93699867Y-89071000D01*
X93595236Y-89215444D01*
X93475296Y-89380646D01*
X93379729Y-89512145D01*
X93263135Y-89672453D01*
X93160575Y-89813235D01*
X93070856Y-89936052D01*
X92992787Y-90042467D01*
X92925175Y-90134043D01*
X92866825Y-90212342D01*
X92816547Y-90278927D01*
X92773148Y-90335359D01*
X92735433Y-90383202D01*
X92702212Y-90424017D01*
X92672290Y-90459368D01*
X92644476Y-90490816D01*
X92617577Y-90519924D01*
X92590400Y-90548254D01*
X92561752Y-90577370D01*
X92456179Y-90683821D01*
X93875541Y-90683879D01*
X93871082Y-90597867D01*
X93870866Y-90593545D01*
X93870019Y-90559161D01*
X93871624Y-90526216D01*
X93876753Y-90492906D01*
X93886480Y-90457426D01*
X93901878Y-90417973D01*
X93924021Y-90372741D01*
X93953982Y-90319925D01*
X93992835Y-90257722D01*
X94041653Y-90184325D01*
X94101509Y-90097932D01*
X94173477Y-89996738D01*
X94258630Y-89878936D01*
X94358041Y-89742724D01*
X94472785Y-89586297D01*
X94877812Y-89034889D01*
X94881380Y-89674230D01*
X94881696Y-89733868D01*
X94882254Y-89894505D01*
X94882000Y-90031137D01*
X94880637Y-90146350D01*
X94877864Y-90242731D01*
X94873385Y-90322864D01*
X94866900Y-90389335D01*
X94858110Y-90444731D01*
X94846717Y-90491636D01*
X94832422Y-90532636D01*
X94814927Y-90570317D01*
X94793934Y-90607265D01*
X94769142Y-90646065D01*
X94744221Y-90683821D01*
X96039371Y-90683821D01*
X96005916Y-90639200D01*
X96000677Y-90632141D01*
X95958789Y-90567442D01*
X95929914Y-90502038D01*
X95910953Y-90427096D01*
X95898808Y-90333781D01*
X95898474Y-90329713D01*
X95896712Y-90291223D01*
X95895120Y-90227004D01*
X95893707Y-90138524D01*
X95892479Y-90027251D01*
X95891443Y-89894651D01*
X95890605Y-89742193D01*
X95889973Y-89571344D01*
X95889554Y-89383570D01*
X95889355Y-89180341D01*
X95889382Y-88963122D01*
X95889642Y-88733383D01*
X95890142Y-88492589D01*
X95890672Y-88276596D01*
X95891239Y-88041483D01*
X95891798Y-87831127D01*
X95892417Y-87644054D01*
X95893168Y-87478790D01*
X95894121Y-87333861D01*
X95895345Y-87207795D01*
X95896910Y-87099116D01*
X95898888Y-87006352D01*
X95901347Y-86928028D01*
X95904358Y-86862670D01*
X95907991Y-86808806D01*
X95912316Y-86764961D01*
X95917403Y-86729661D01*
X95923322Y-86701433D01*
X95930144Y-86678803D01*
X95937938Y-86660297D01*
X95946775Y-86644442D01*
X95956724Y-86629763D01*
X95967856Y-86614788D01*
X95980241Y-86598041D01*
X95992219Y-86581260D01*
X96015372Y-86548079D01*
X96029240Y-86527146D01*
X96029575Y-86526269D01*
X96024733Y-86522310D01*
X96007644Y-86519007D01*
X95976408Y-86516309D01*
X95929122Y-86514165D01*
X95863885Y-86512524D01*
X95778797Y-86511337D01*
X95671954Y-86510551D01*
X95541456Y-86510117D01*
X95385401Y-86509983D01*
X94731209Y-86509983D01*
X94765687Y-86550958D01*
X94785669Y-86579101D01*
X94818930Y-86645456D01*
X94848078Y-86727983D01*
X94870325Y-86819527D01*
X94871743Y-86828217D01*
X94875961Y-86874031D01*
X94879156Y-86944837D01*
X94881336Y-87041123D01*
X94882508Y-87163380D01*
X94882682Y-87312099D01*
X94881865Y-87487770D01*
X94877812Y-88074260D01*
X94459055Y-87544707D01*
X94447061Y-87529538D01*
X94340868Y-87395103D01*
X94250208Y-87279972D01*
X94173638Y-87182187D01*
X94109714Y-87099791D01*
X94056994Y-87030826D01*
X94014036Y-86973334D01*
X93979396Y-86925358D01*
X93951632Y-86884941D01*
X93929301Y-86850124D01*
X93910959Y-86818951D01*
X93895165Y-86789463D01*
X93880475Y-86759703D01*
X93857877Y-86707025D01*
X93843278Y-86651454D01*
X93839395Y-86591514D01*
X93839785Y-86509983D01*
X92450394Y-86509983D01*
X91991009Y-86509983D01*
X92005953Y-86502196D01*
X92113644Y-86417359D01*
X92143581Y-86387450D01*
X92232064Y-86276710D01*
X92294851Y-86156532D01*
X92332276Y-86026139D01*
X92344676Y-85884758D01*
X92344676Y-85768578D01*
X94315575Y-85768578D01*
X94438707Y-85768573D01*
X94703230Y-85768537D01*
X94942189Y-85768511D01*
X95156905Y-85768547D01*
X95348700Y-85768697D01*
X95518894Y-85769014D01*
X95668810Y-85769550D01*
X95799769Y-85770356D01*
X95913092Y-85771486D01*
X96010101Y-85772992D01*
X96092116Y-85774925D01*
X96160461Y-85777339D01*
X96216455Y-85780284D01*
X96261420Y-85783814D01*
X96296678Y-85787981D01*
X96323550Y-85792837D01*
X96343358Y-85798434D01*
X96357422Y-85804824D01*
X96367065Y-85812060D01*
X96373608Y-85820194D01*
X96378372Y-85829279D01*
X96382679Y-85839366D01*
X96387850Y-85850507D01*
X96387942Y-85850689D01*
X96390453Y-85857982D01*
X96392755Y-85870195D01*
X96394859Y-85888453D01*
X96396773Y-85913885D01*
X96398505Y-85947617D01*
X96400065Y-85990776D01*
X96401460Y-86044489D01*
X96402700Y-86109883D01*
X96403794Y-86188086D01*
X96404750Y-86280224D01*
X96405577Y-86387424D01*
X96406284Y-86510814D01*
X96406880Y-86651519D01*
X96407372Y-86810668D01*
X96407771Y-86989388D01*
X96408084Y-87188805D01*
X96408320Y-87410046D01*
X96408489Y-87654238D01*
X96408599Y-87922509D01*
X96408659Y-88215985D01*
X96408676Y-88535794D01*
X96408677Y-88598621D01*
X96408707Y-88915097D01*
X96408754Y-89205463D01*
X96408782Y-89470855D01*
X96408754Y-89712408D01*
X96408637Y-89931258D01*
X96408392Y-90128539D01*
X96407985Y-90305387D01*
X96407380Y-90462938D01*
X96406541Y-90602327D01*
X96405802Y-90683821D01*
X96405432Y-90724688D01*
G36*
X96405432Y-90724688D02*
G01*
X96404019Y-90831158D01*
X96402264Y-90922872D01*
X96400133Y-91000965D01*
X96397589Y-91066572D01*
X96394598Y-91120829D01*
X96391122Y-91164871D01*
X96387127Y-91199833D01*
X96382576Y-91226851D01*
X96377434Y-91247060D01*
X96371666Y-91261595D01*
X96365235Y-91271592D01*
X96358106Y-91278186D01*
X96350242Y-91282513D01*
X96341609Y-91285707D01*
X96332171Y-91288904D01*
X96321891Y-91293239D01*
X96316107Y-91295411D01*
X96305497Y-91297784D01*
X96289732Y-91299958D01*
X96267697Y-91301941D01*
X96238277Y-91303744D01*
X96200356Y-91305373D01*
X96152819Y-91306839D01*
X96094551Y-91308149D01*
X96024437Y-91309313D01*
X95941361Y-91310339D01*
X95844208Y-91311236D01*
X95731863Y-91312013D01*
X95603212Y-91312678D01*
X95457137Y-91313240D01*
X95292525Y-91313708D01*
X95108260Y-91314090D01*
X94903227Y-91314396D01*
X94676311Y-91314633D01*
X94426396Y-91314811D01*
X94152368Y-91314939D01*
X93853110Y-91315024D01*
X93527508Y-91315076D01*
X93424326Y-91315086D01*
X93105790Y-91315093D01*
X92813274Y-91315053D01*
X92545675Y-91314958D01*
X92301891Y-91314801D01*
X92080819Y-91314573D01*
X91881359Y-91314267D01*
X91702408Y-91313873D01*
X91542863Y-91313386D01*
X91401623Y-91312795D01*
X91277586Y-91312095D01*
X91169650Y-91311275D01*
X91076713Y-91310329D01*
X90997672Y-91309248D01*
X90931426Y-91308025D01*
X90876872Y-91306651D01*
X90832909Y-91305119D01*
X90798434Y-91303420D01*
X90772346Y-91301546D01*
X90753543Y-91299490D01*
X90740922Y-91297244D01*
X90733381Y-91294798D01*
X90730982Y-91293710D01*
X90721160Y-91290135D01*
X90712153Y-91287524D01*
X90703924Y-91284741D01*
X90696437Y-91280648D01*
X90689655Y-91274108D01*
X90683542Y-91263985D01*
X90678062Y-91249141D01*
X90673177Y-91228439D01*
X90668851Y-91200743D01*
X90665048Y-91164916D01*
X90661731Y-91119821D01*
X90658863Y-91064320D01*
X90656409Y-90997277D01*
X90654331Y-90917555D01*
X90652594Y-90824018D01*
X90651160Y-90715527D01*
X90650689Y-90665288D01*
X91012742Y-90665288D01*
X91013139Y-90670099D01*
X91020422Y-90673998D01*
X91036876Y-90677080D01*
X91064788Y-90679442D01*
X91106444Y-90681178D01*
X91164129Y-90682384D01*
X91240129Y-90683156D01*
X91336731Y-90683589D01*
X91456221Y-90683779D01*
X91600883Y-90683821D01*
X92206860Y-90683821D01*
X92155633Y-90591146D01*
X92104406Y-90498470D01*
X92104406Y-87807443D01*
X92155633Y-87714767D01*
X92206860Y-87622092D01*
X91123698Y-87622092D01*
X91115866Y-90471010D01*
X91077468Y-90553016D01*
X91057223Y-90593663D01*
X91034300Y-90634380D01*
X91016988Y-90659422D01*
X91016945Y-90659470D01*
X91012742Y-90665288D01*
X90650689Y-90665288D01*
X90649993Y-90590946D01*
X90649057Y-90449138D01*
X90648315Y-90288967D01*
X90647730Y-90109295D01*
X90647266Y-89908985D01*
X90646887Y-89686900D01*
X90646556Y-89441904D01*
X90646236Y-89172860D01*
X90645891Y-88878630D01*
X90645485Y-88558078D01*
X90645432Y-88519272D01*
X90644979Y-88200751D01*
X90644546Y-87908420D01*
X90644164Y-87641141D01*
X90643867Y-87397777D01*
X90643685Y-87177190D01*
X90643652Y-86978243D01*
X90643798Y-86799798D01*
X90644157Y-86640719D01*
X90644761Y-86499867D01*
X90645641Y-86376105D01*
X90646829Y-86268295D01*
X90648358Y-86175301D01*
X90650259Y-86095985D01*
X90652565Y-86029208D01*
X90655308Y-85973835D01*
X90658519Y-85928727D01*
X90662232Y-85892747D01*
X90666477Y-85864757D01*
X90671288Y-85843620D01*
X90676695Y-85828199D01*
X90682732Y-85817356D01*
X90689430Y-85809954D01*
X90696822Y-85804855D01*
X90704938Y-85800921D01*
X90713812Y-85797016D01*
X90723476Y-85792002D01*
X90726304Y-85790404D01*
X90769091Y-85774937D01*
X90815930Y-85768580D01*
X90868731Y-85768582D01*
X90869611Y-85888715D01*
X90869834Y-85902540D01*
X90886616Y-86043063D01*
X90929360Y-86175283D01*
X90997470Y-86297800D01*
X91090355Y-86409211D01*
X91140199Y-86454651D01*
X91251182Y-86529968D01*
X91372275Y-86582491D01*
X91499952Y-86612190D01*
X91630684Y-86619038D01*
X91760947Y-86603007D01*
X91887212Y-86564069D01*
X91991009Y-86509983D01*
X92450394Y-86509983D01*
X92510806Y-86553447D01*
X92561897Y-86594296D01*
X92633890Y-86660924D01*
X92715547Y-86744428D01*
X92803777Y-86841626D01*
X92895487Y-86949335D01*
X92919104Y-86978138D01*
X92959314Y-87027540D01*
X93011874Y-87092353D01*
X93075043Y-87170414D01*
X93147079Y-87259559D01*
X93226241Y-87357626D01*
X93310789Y-87462452D01*
X93398980Y-87571872D01*
X93439431Y-87622092D01*
X93489073Y-87683724D01*
X93579327Y-87795845D01*
X93668002Y-87906072D01*
X93753355Y-88012240D01*
X93833645Y-88112188D01*
X93907131Y-88203751D01*
X93972072Y-88284767D01*
X94026727Y-88353072D01*
X94069353Y-88406503D01*
X94098211Y-88442896D01*
X94111558Y-88460090D01*
X94112660Y-88466551D01*
X94108995Y-88478840D01*
X94099500Y-88498173D01*
X94083225Y-88525922D01*
X94059223Y-88563458D01*
X94026547Y-88612152D01*
X93984248Y-88673377D01*
X93931378Y-88748502D01*
X93866990Y-88838900D01*
X93790135Y-88945942D01*
X93699867Y-89071000D01*
X93595236Y-89215444D01*
X93475296Y-89380646D01*
X93379729Y-89512145D01*
X93263135Y-89672453D01*
X93160575Y-89813235D01*
X93070856Y-89936052D01*
X92992787Y-90042467D01*
X92925175Y-90134043D01*
X92866825Y-90212342D01*
X92816547Y-90278927D01*
X92773148Y-90335359D01*
X92735433Y-90383202D01*
X92702212Y-90424017D01*
X92672290Y-90459368D01*
X92644476Y-90490816D01*
X92617577Y-90519924D01*
X92590400Y-90548254D01*
X92561752Y-90577370D01*
X92456179Y-90683821D01*
X93875541Y-90683879D01*
X93871082Y-90597867D01*
X93870866Y-90593545D01*
X93870019Y-90559161D01*
X93871624Y-90526216D01*
X93876753Y-90492906D01*
X93886480Y-90457426D01*
X93901878Y-90417973D01*
X93924021Y-90372741D01*
X93953982Y-90319925D01*
X93992835Y-90257722D01*
X94041653Y-90184325D01*
X94101509Y-90097932D01*
X94173477Y-89996738D01*
X94258630Y-89878936D01*
X94358041Y-89742724D01*
X94472785Y-89586297D01*
X94877812Y-89034889D01*
X94881380Y-89674230D01*
X94881696Y-89733868D01*
X94882254Y-89894505D01*
X94882000Y-90031137D01*
X94880637Y-90146350D01*
X94877864Y-90242731D01*
X94873385Y-90322864D01*
X94866900Y-90389335D01*
X94858110Y-90444731D01*
X94846717Y-90491636D01*
X94832422Y-90532636D01*
X94814927Y-90570317D01*
X94793934Y-90607265D01*
X94769142Y-90646065D01*
X94744221Y-90683821D01*
X96039371Y-90683821D01*
X96005916Y-90639200D01*
X96000677Y-90632141D01*
X95958789Y-90567442D01*
X95929914Y-90502038D01*
X95910953Y-90427096D01*
X95898808Y-90333781D01*
X95898474Y-90329713D01*
X95896712Y-90291223D01*
X95895120Y-90227004D01*
X95893707Y-90138524D01*
X95892479Y-90027251D01*
X95891443Y-89894651D01*
X95890605Y-89742193D01*
X95889973Y-89571344D01*
X95889554Y-89383570D01*
X95889355Y-89180341D01*
X95889382Y-88963122D01*
X95889642Y-88733383D01*
X95890142Y-88492589D01*
X95890672Y-88276596D01*
X95891239Y-88041483D01*
X95891798Y-87831127D01*
X95892417Y-87644054D01*
X95893168Y-87478790D01*
X95894121Y-87333861D01*
X95895345Y-87207795D01*
X95896910Y-87099116D01*
X95898888Y-87006352D01*
X95901347Y-86928028D01*
X95904358Y-86862670D01*
X95907991Y-86808806D01*
X95912316Y-86764961D01*
X95917403Y-86729661D01*
X95923322Y-86701433D01*
X95930144Y-86678803D01*
X95937938Y-86660297D01*
X95946775Y-86644442D01*
X95956724Y-86629763D01*
X95967856Y-86614788D01*
X95980241Y-86598041D01*
X95992219Y-86581260D01*
X96015372Y-86548079D01*
X96029240Y-86527146D01*
X96029575Y-86526269D01*
X96024733Y-86522310D01*
X96007644Y-86519007D01*
X95976408Y-86516309D01*
X95929122Y-86514165D01*
X95863885Y-86512524D01*
X95778797Y-86511337D01*
X95671954Y-86510551D01*
X95541456Y-86510117D01*
X95385401Y-86509983D01*
X94731209Y-86509983D01*
X94765687Y-86550958D01*
X94785669Y-86579101D01*
X94818930Y-86645456D01*
X94848078Y-86727983D01*
X94870325Y-86819527D01*
X94871743Y-86828217D01*
X94875961Y-86874031D01*
X94879156Y-86944837D01*
X94881336Y-87041123D01*
X94882508Y-87163380D01*
X94882682Y-87312099D01*
X94881865Y-87487770D01*
X94877812Y-88074260D01*
X94459055Y-87544707D01*
X94447061Y-87529538D01*
X94340868Y-87395103D01*
X94250208Y-87279972D01*
X94173638Y-87182187D01*
X94109714Y-87099791D01*
X94056994Y-87030826D01*
X94014036Y-86973334D01*
X93979396Y-86925358D01*
X93951632Y-86884941D01*
X93929301Y-86850124D01*
X93910959Y-86818951D01*
X93895165Y-86789463D01*
X93880475Y-86759703D01*
X93857877Y-86707025D01*
X93843278Y-86651454D01*
X93839395Y-86591514D01*
X93839785Y-86509983D01*
X92450394Y-86509983D01*
X91991009Y-86509983D01*
X92005953Y-86502196D01*
X92113644Y-86417359D01*
X92143581Y-86387450D01*
X92232064Y-86276710D01*
X92294851Y-86156532D01*
X92332276Y-86026139D01*
X92344676Y-85884758D01*
X92344676Y-85768578D01*
X94315575Y-85768578D01*
X94438707Y-85768573D01*
X94703230Y-85768537D01*
X94942189Y-85768511D01*
X95156905Y-85768547D01*
X95348700Y-85768697D01*
X95518894Y-85769014D01*
X95668810Y-85769550D01*
X95799769Y-85770356D01*
X95913092Y-85771486D01*
X96010101Y-85772992D01*
X96092116Y-85774925D01*
X96160461Y-85777339D01*
X96216455Y-85780284D01*
X96261420Y-85783814D01*
X96296678Y-85787981D01*
X96323550Y-85792837D01*
X96343358Y-85798434D01*
X96357422Y-85804824D01*
X96367065Y-85812060D01*
X96373608Y-85820194D01*
X96378372Y-85829279D01*
X96382679Y-85839366D01*
X96387850Y-85850507D01*
X96387942Y-85850689D01*
X96390453Y-85857982D01*
X96392755Y-85870195D01*
X96394859Y-85888453D01*
X96396773Y-85913885D01*
X96398505Y-85947617D01*
X96400065Y-85990776D01*
X96401460Y-86044489D01*
X96402700Y-86109883D01*
X96403794Y-86188086D01*
X96404750Y-86280224D01*
X96405577Y-86387424D01*
X96406284Y-86510814D01*
X96406880Y-86651519D01*
X96407372Y-86810668D01*
X96407771Y-86989388D01*
X96408084Y-87188805D01*
X96408320Y-87410046D01*
X96408489Y-87654238D01*
X96408599Y-87922509D01*
X96408659Y-88215985D01*
X96408676Y-88535794D01*
X96408677Y-88598621D01*
X96408707Y-88915097D01*
X96408754Y-89205463D01*
X96408782Y-89470855D01*
X96408754Y-89712408D01*
X96408637Y-89931258D01*
X96408392Y-90128539D01*
X96407985Y-90305387D01*
X96407380Y-90462938D01*
X96406541Y-90602327D01*
X96405802Y-90683821D01*
X96405432Y-90724688D01*
G37*
D12*
%TO.C,G\u002A\u002A\u002A*%
G36*
X105380777Y-42188963D02*
G01*
X105380777Y-42452175D01*
X105117565Y-42452175D01*
X104854353Y-42452175D01*
X104854353Y-42188963D01*
X104854353Y-41925750D01*
X105117565Y-41925750D01*
X105380777Y-41925750D01*
X105380777Y-42188963D01*
G37*
G36*
X105380777Y-47453211D02*
G01*
X105380777Y-47716424D01*
X105117565Y-47716424D01*
X104854353Y-47716424D01*
X104854353Y-47453211D01*
X104854353Y-47189999D01*
X105117565Y-47189999D01*
X105380777Y-47189999D01*
X105380777Y-47453211D01*
G37*
G36*
X105380777Y-56402434D02*
G01*
X105380777Y-57192071D01*
X105117565Y-57192071D01*
X104854353Y-57192071D01*
X104854353Y-56402434D01*
X104854353Y-55612797D01*
X105117565Y-55612797D01*
X105380777Y-55612797D01*
X105380777Y-56402434D01*
G37*
G36*
X107486477Y-39556838D02*
G01*
X107486477Y-40346476D01*
X106696840Y-40346476D01*
X105907202Y-40346476D01*
X105907202Y-39556838D01*
X105907202Y-38767201D01*
X106696840Y-38767201D01*
X107486477Y-38767201D01*
X107486477Y-39556838D01*
G37*
G36*
X106433627Y-48769273D02*
G01*
X106433627Y-49295698D01*
X106170415Y-49295698D01*
X105907202Y-49295698D01*
X105907202Y-48769273D01*
X105907202Y-48242849D01*
X106170415Y-48242849D01*
X106433627Y-48242849D01*
X106433627Y-48769273D01*
G37*
G36*
X106960052Y-44031450D02*
G01*
X106960052Y-44557875D01*
X106696840Y-44557875D01*
X106433627Y-44557875D01*
X106433627Y-44031450D01*
X106433627Y-43505025D01*
X106696840Y-43505025D01*
X106960052Y-43505025D01*
X106960052Y-44031450D01*
G37*
G36*
X106960052Y-50085336D02*
G01*
X106960052Y-50348548D01*
X106696840Y-50348548D01*
X106433627Y-50348548D01*
X106433627Y-50085336D01*
X106433627Y-49822123D01*
X106696840Y-49822123D01*
X106960052Y-49822123D01*
X106960052Y-50085336D01*
G37*
G36*
X108012902Y-47453211D02*
G01*
X108012902Y-47716424D01*
X107749689Y-47716424D01*
X107486477Y-47716424D01*
X107486477Y-47453211D01*
X107486477Y-47189999D01*
X107749689Y-47189999D01*
X108012902Y-47189999D01*
X108012902Y-47453211D01*
G37*
G36*
X108539327Y-53770310D02*
G01*
X108539327Y-54033522D01*
X108276114Y-54033522D01*
X108012902Y-54033522D01*
X108012902Y-53770310D01*
X108012902Y-53507097D01*
X108276114Y-53507097D01*
X108539327Y-53507097D01*
X108539327Y-53770310D01*
G37*
G36*
X111171451Y-52717460D02*
G01*
X111171451Y-52980672D01*
X110645026Y-52980672D01*
X110118601Y-52980672D01*
X110118601Y-52717460D01*
X110118601Y-52454248D01*
X110645026Y-52454248D01*
X111171451Y-52454248D01*
X111171451Y-52717460D01*
G37*
G36*
X110645026Y-56928859D02*
G01*
X110645026Y-57192071D01*
X110381814Y-57192071D01*
X110118601Y-57192071D01*
X110118601Y-56928859D01*
X110118601Y-56665647D01*
X110381814Y-56665647D01*
X110645026Y-56665647D01*
X110645026Y-56928859D01*
G37*
G36*
X111171451Y-53770310D02*
G01*
X111171451Y-54033522D01*
X110908239Y-54033522D01*
X110645026Y-54033522D01*
X110645026Y-53770310D01*
X110645026Y-53507097D01*
X110908239Y-53507097D01*
X111171451Y-53507097D01*
X111171451Y-53770310D01*
G37*
G36*
X112224301Y-44031450D02*
G01*
X112224301Y-44557875D01*
X111697876Y-44557875D01*
X111171451Y-44557875D01*
X111171451Y-44031450D01*
X111171451Y-43505025D01*
X111697876Y-43505025D01*
X112224301Y-43505025D01*
X112224301Y-44031450D01*
G37*
G36*
X111697876Y-56928859D02*
G01*
X111697876Y-57192071D01*
X111434663Y-57192071D01*
X111171451Y-57192071D01*
X111171451Y-56928859D01*
X111171451Y-56665647D01*
X111434663Y-56665647D01*
X111697876Y-56665647D01*
X111697876Y-56928859D01*
G37*
G36*
X112224301Y-45873937D02*
G01*
X112224301Y-46137149D01*
X111961088Y-46137149D01*
X111697876Y-46137149D01*
X111697876Y-45873937D01*
X111697876Y-45610724D01*
X111961088Y-45610724D01*
X112224301Y-45610724D01*
X112224301Y-45873937D01*
G37*
G36*
X112224301Y-47979636D02*
G01*
X112224301Y-48242849D01*
X111961088Y-48242849D01*
X111697876Y-48242849D01*
X111697876Y-47979636D01*
X111697876Y-47716424D01*
X111961088Y-47716424D01*
X112224301Y-47716424D01*
X112224301Y-47979636D01*
G37*
G36*
X113277151Y-44294662D02*
G01*
X113277151Y-44557875D01*
X113013938Y-44557875D01*
X112750726Y-44557875D01*
X112750726Y-44294662D01*
X112750726Y-44031450D01*
X113013938Y-44031450D01*
X113277151Y-44031450D01*
X113277151Y-44294662D01*
G37*
G36*
X115382850Y-43768237D02*
G01*
X115382850Y-44031450D01*
X115119638Y-44031450D01*
X114856425Y-44031450D01*
X114856425Y-43768237D01*
X114856425Y-43505025D01*
X115119638Y-43505025D01*
X115382850Y-43505025D01*
X115382850Y-43768237D01*
G37*
G36*
X115909275Y-49032486D02*
G01*
X115909275Y-49295698D01*
X115646062Y-49295698D01*
X115382850Y-49295698D01*
X115382850Y-49032486D01*
X115382850Y-48769273D01*
X115646062Y-48769273D01*
X115909275Y-48769273D01*
X115909275Y-49032486D01*
G37*
G36*
X116962125Y-46663574D02*
G01*
X116962125Y-47189999D01*
X116698912Y-47189999D01*
X116435700Y-47189999D01*
X116435700Y-46663574D01*
X116435700Y-46137149D01*
X116698912Y-46137149D01*
X116962125Y-46137149D01*
X116962125Y-46663574D01*
G37*
G36*
X117488549Y-56928859D02*
G01*
X117488549Y-57192071D01*
X117225337Y-57192071D01*
X116962125Y-57192071D01*
X116962125Y-56928859D01*
X116962125Y-56665647D01*
X117225337Y-56665647D01*
X117488549Y-56665647D01*
X117488549Y-56928859D01*
G37*
G36*
X118014974Y-41136113D02*
G01*
X118014974Y-41399325D01*
X117751762Y-41399325D01*
X117488549Y-41399325D01*
X117488549Y-41136113D01*
X117488549Y-40872900D01*
X117751762Y-40872900D01*
X118014974Y-40872900D01*
X118014974Y-41136113D01*
G37*
G36*
X118014974Y-50085336D02*
G01*
X118014974Y-50348548D01*
X117751762Y-50348548D01*
X117488549Y-50348548D01*
X117488549Y-50085336D01*
X117488549Y-49822123D01*
X117751762Y-49822123D01*
X118014974Y-49822123D01*
X118014974Y-50085336D01*
G37*
G36*
X119594249Y-51138185D02*
G01*
X119594249Y-51401398D01*
X119331037Y-51401398D01*
X119067824Y-51401398D01*
X119067824Y-51138185D01*
X119067824Y-50874973D01*
X119331037Y-50874973D01*
X119594249Y-50874973D01*
X119594249Y-51138185D01*
G37*
G36*
X123279223Y-39556838D02*
G01*
X123279223Y-40346476D01*
X122489586Y-40346476D01*
X121699948Y-40346476D01*
X121699948Y-39556838D01*
X121699948Y-38767201D01*
X122489586Y-38767201D01*
X123279223Y-38767201D01*
X123279223Y-39556838D01*
G37*
G36*
X123279223Y-55349584D02*
G01*
X123279223Y-56139222D01*
X122489586Y-56139222D01*
X121699948Y-56139222D01*
X121699948Y-55349584D01*
X121699948Y-54559947D01*
X122489586Y-54559947D01*
X123279223Y-54559947D01*
X123279223Y-55349584D01*
G37*
G36*
X105907202Y-43505025D02*
G01*
X105907202Y-44031450D01*
X105643990Y-44031450D01*
X105380777Y-44031450D01*
X105380777Y-44294662D01*
X105380777Y-44557875D01*
X105117565Y-44557875D01*
X104854353Y-44557875D01*
X104854353Y-43768237D01*
X104854353Y-42978600D01*
X105380777Y-42978600D01*
X105907202Y-42978600D01*
X105907202Y-43505025D01*
G37*
G36*
X114330000Y-43768237D02*
G01*
X114330000Y-44557875D01*
X114593213Y-44557875D01*
X114856425Y-44557875D01*
X114856425Y-44821087D01*
X114856425Y-45084299D01*
X114330000Y-45084299D01*
X113803575Y-45084299D01*
X113803575Y-44031450D01*
X113803575Y-42978600D01*
X114066788Y-42978600D01*
X114330000Y-42978600D01*
X114330000Y-43768237D01*
G37*
G36*
X119067824Y-56402434D02*
G01*
X119067824Y-57192071D01*
X118541399Y-57192071D01*
X118014974Y-57192071D01*
X118014974Y-56928859D01*
X118014974Y-56665647D01*
X118278187Y-56665647D01*
X118541399Y-56665647D01*
X118541399Y-56139222D01*
X118541399Y-55612797D01*
X118804612Y-55612797D01*
X119067824Y-55612797D01*
X119067824Y-56402434D01*
G37*
G36*
X108276114Y-51401398D02*
G01*
X108539327Y-51401398D01*
X108539327Y-51664610D01*
X108539327Y-51927823D01*
X108276114Y-51927823D01*
X108012902Y-51927823D01*
X108012902Y-51664610D01*
X108012902Y-51401398D01*
X108276114Y-51401398D01*
G37*
G36*
X108012902Y-51138185D02*
G01*
X108012902Y-51401398D01*
X107749689Y-51401398D01*
X107486477Y-51401398D01*
X107486477Y-51138185D01*
X107486477Y-50874973D01*
X107749689Y-50874973D01*
X108012902Y-50874973D01*
X108012902Y-51138185D01*
G37*
G36*
X116962125Y-44031450D02*
G01*
X117488549Y-44031450D01*
X117488549Y-44294662D01*
X117488549Y-44557875D01*
X116962125Y-44557875D01*
X116435700Y-44557875D01*
X116435700Y-44294662D01*
X116435700Y-44031450D01*
X116962125Y-44031450D01*
G37*
G36*
X116435700Y-43768237D02*
G01*
X116435700Y-44031450D01*
X116172487Y-44031450D01*
X115909275Y-44031450D01*
X115909275Y-43768237D01*
X115909275Y-43505025D01*
X116172487Y-43505025D01*
X116435700Y-43505025D01*
X116435700Y-43768237D01*
G37*
G36*
X108539327Y-41399325D02*
G01*
X106696840Y-41399325D01*
X104854353Y-41399325D01*
X104854353Y-39556838D01*
X104854353Y-38240776D01*
X105380777Y-38240776D01*
X105380777Y-39556838D01*
X105380777Y-40872900D01*
X106696840Y-40872900D01*
X108012902Y-40872900D01*
X108012902Y-39556838D01*
X108012902Y-38240776D01*
X106696840Y-38240776D01*
X105380777Y-38240776D01*
X104854353Y-38240776D01*
X104854353Y-37714351D01*
X106696840Y-37714351D01*
X108539327Y-37714351D01*
X108539327Y-39556838D01*
X108539327Y-41399325D01*
G37*
G36*
X124332073Y-41399325D02*
G01*
X122489586Y-41399325D01*
X120647099Y-41399325D01*
X120647099Y-39556838D01*
X120647099Y-38240776D01*
X121173524Y-38240776D01*
X121173524Y-39556838D01*
X121173524Y-40872900D01*
X122489586Y-40872900D01*
X123805648Y-40872900D01*
X123805648Y-39556838D01*
X123805648Y-38240776D01*
X122489586Y-38240776D01*
X121173524Y-38240776D01*
X120647099Y-38240776D01*
X120647099Y-37714351D01*
X122489586Y-37714351D01*
X124332073Y-37714351D01*
X124332073Y-39556838D01*
X124332073Y-41399325D01*
G37*
G36*
X124332073Y-57192071D02*
G01*
X122489586Y-57192071D01*
X120647099Y-57192071D01*
X120647099Y-55349584D01*
X120647099Y-54033522D01*
X121173524Y-54033522D01*
X121173524Y-55349584D01*
X121173524Y-56665647D01*
X122489586Y-56665647D01*
X123805648Y-56665647D01*
X123805648Y-55349584D01*
X123805648Y-54033522D01*
X122489586Y-54033522D01*
X121173524Y-54033522D01*
X120647099Y-54033522D01*
X120647099Y-53507097D01*
X122489586Y-53507097D01*
X124332073Y-53507097D01*
X124332073Y-55349584D01*
X124332073Y-57192071D01*
G37*
G36*
X109592176Y-38240776D02*
G01*
X109592176Y-38767201D01*
X109855389Y-38767201D01*
X110118601Y-38767201D01*
X110118601Y-38240776D01*
X110118601Y-37714351D01*
X110908239Y-37714351D01*
X111697876Y-37714351D01*
X111697876Y-37977564D01*
X111697876Y-38240776D01*
X111171451Y-38240776D01*
X110645026Y-38240776D01*
X110645026Y-38503989D01*
X110645026Y-38767201D01*
X110381814Y-38767201D01*
X110118601Y-38767201D01*
X110118601Y-39293626D01*
X110118601Y-39820051D01*
X109592176Y-39820051D01*
X109065752Y-39820051D01*
X109065752Y-38767201D01*
X109065752Y-37714351D01*
X109328964Y-37714351D01*
X109592176Y-37714351D01*
X109592176Y-38240776D01*
G37*
G36*
X118804612Y-43505025D02*
G01*
X119067824Y-43505025D01*
X119067824Y-43768237D01*
X119067824Y-44031450D01*
X119331037Y-44031450D01*
X119594249Y-44031450D01*
X119594249Y-44557875D01*
X119594249Y-45084299D01*
X119331037Y-45084299D01*
X119067824Y-45084299D01*
X119067824Y-44821087D01*
X119067824Y-44557875D01*
X118804612Y-44557875D01*
X118541399Y-44557875D01*
X118541399Y-44031450D01*
X118541399Y-43505025D01*
X118804612Y-43505025D01*
G37*
G36*
X118541399Y-43241812D02*
G01*
X118541399Y-43505025D01*
X117488549Y-43505025D01*
X116435700Y-43505025D01*
X116435700Y-43241812D01*
X116435700Y-42978600D01*
X117488549Y-42978600D01*
X118541399Y-42978600D01*
X118541399Y-43241812D01*
G37*
G36*
X116435700Y-56139222D02*
G01*
X116172487Y-56139222D01*
X115909275Y-56139222D01*
X115909275Y-56402434D01*
X115909275Y-56665647D01*
X115646062Y-56665647D01*
X115382850Y-56665647D01*
X115382850Y-56928859D01*
X115382850Y-57192071D01*
X115119638Y-57192071D01*
X114856425Y-57192071D01*
X114856425Y-56665647D01*
X114856425Y-56139222D01*
X114593213Y-56139222D01*
X114330000Y-56139222D01*
X114330000Y-55876009D01*
X114330000Y-55612797D01*
X114856425Y-55612797D01*
X114856425Y-55876009D01*
X114856425Y-56139222D01*
X115119638Y-56139222D01*
X115382850Y-56139222D01*
X115382850Y-55876009D01*
X115382850Y-55612797D01*
X115119638Y-55612797D01*
X114856425Y-55612797D01*
X114330000Y-55612797D01*
X114066788Y-55612797D01*
X113803575Y-55612797D01*
X113803575Y-55876009D01*
X113803575Y-56139222D01*
X113540363Y-56139222D01*
X113277151Y-56139222D01*
X113277151Y-55876009D01*
X113277151Y-55612797D01*
X113013938Y-55612797D01*
X112750726Y-55612797D01*
X112750726Y-55349584D01*
X112750726Y-55086372D01*
X113540363Y-55086372D01*
X114330000Y-55086372D01*
X114330000Y-54559947D01*
X114330000Y-54033522D01*
X114593213Y-54033522D01*
X114856425Y-54033522D01*
X114856425Y-53770310D01*
X114856425Y-53507097D01*
X115119638Y-53507097D01*
X115382850Y-53507097D01*
X115382850Y-53770310D01*
X115382850Y-54033522D01*
X115909275Y-54033522D01*
X116435700Y-54033522D01*
X116435700Y-54296735D01*
X116435700Y-54559947D01*
X116172487Y-54559947D01*
X115909275Y-54559947D01*
X115909275Y-54823159D01*
X115909275Y-55086372D01*
X115646062Y-55086372D01*
X115382850Y-55086372D01*
X115382850Y-54823159D01*
X115382850Y-54559947D01*
X115119638Y-54559947D01*
X114856425Y-54559947D01*
X114856425Y-54823159D01*
X114856425Y-55086372D01*
X115119638Y-55086372D01*
X115382850Y-55086372D01*
X115382850Y-55349584D01*
X115382850Y-55612797D01*
X115646062Y-55612797D01*
X115909275Y-55612797D01*
X115909275Y-55349584D01*
X115909275Y-55086372D01*
X116435700Y-55086372D01*
X116962125Y-55086372D01*
X116962125Y-55349584D01*
X116962125Y-55612797D01*
X116698912Y-55612797D01*
X116435700Y-55612797D01*
X116435700Y-55876009D01*
X116435700Y-56139222D01*
G37*
G36*
X117751762Y-38767201D02*
G01*
X118014974Y-38767201D01*
X118014974Y-39030413D01*
X118014974Y-39293626D01*
X118541399Y-39293626D01*
X119067824Y-39293626D01*
X119067824Y-39030413D01*
X119067824Y-38767201D01*
X118804612Y-38767201D01*
X118541399Y-38767201D01*
X118541399Y-38240776D01*
X118541399Y-37714351D01*
X118804612Y-37714351D01*
X119067824Y-37714351D01*
X119067824Y-37977564D01*
X119067824Y-38240776D01*
X119331037Y-38240776D01*
X119594249Y-38240776D01*
X119594249Y-37977564D01*
X119594249Y-37714351D01*
X119857461Y-37714351D01*
X120120674Y-37714351D01*
X120120674Y-37977564D01*
X120120674Y-38240776D01*
X119857461Y-38240776D01*
X119594249Y-38240776D01*
X119594249Y-38503989D01*
X119594249Y-38767201D01*
X119857461Y-38767201D01*
X120120674Y-38767201D01*
X120120674Y-39030413D01*
X120120674Y-39293626D01*
X119857461Y-39293626D01*
X119594249Y-39293626D01*
X119594249Y-39556838D01*
X119594249Y-39820051D01*
X119857461Y-39820051D01*
X120120674Y-39820051D01*
X120120674Y-40083263D01*
X120120674Y-40346476D01*
X119594249Y-40346476D01*
X119067824Y-40346476D01*
X119067824Y-40083263D01*
X119067824Y-39820051D01*
X118278187Y-39820051D01*
X117488549Y-39820051D01*
X117488549Y-40083263D01*
X117488549Y-40346476D01*
X117225337Y-40346476D01*
X116962125Y-40346476D01*
X116962125Y-40083263D01*
X116962125Y-39820051D01*
X116435700Y-39820051D01*
X115909275Y-39820051D01*
X115909275Y-39556838D01*
X115909275Y-39293626D01*
X115646062Y-39293626D01*
X115382850Y-39293626D01*
X115382850Y-39030413D01*
X115382850Y-38767201D01*
X115646062Y-38767201D01*
X115909275Y-38767201D01*
X115909275Y-38503989D01*
X115909275Y-38240776D01*
X115646062Y-38240776D01*
X115382850Y-38240776D01*
X115382850Y-37977564D01*
X115382850Y-37714351D01*
X115646062Y-37714351D01*
X115909275Y-37714351D01*
X115909275Y-37977564D01*
X115909275Y-38240776D01*
X116172487Y-38240776D01*
X116435700Y-38240776D01*
X116435700Y-38767201D01*
X116435700Y-39293626D01*
X116698912Y-39293626D01*
X116962125Y-39293626D01*
X116962125Y-38767201D01*
X116962125Y-38240776D01*
X116698912Y-38240776D01*
X116435700Y-38240776D01*
X116435700Y-37977564D01*
X116435700Y-37714351D01*
X116962125Y-37714351D01*
X117488549Y-37714351D01*
X117488549Y-38240776D01*
X117488549Y-38767201D01*
X117751762Y-38767201D01*
G37*
G36*
X119594249Y-54033522D02*
G01*
X119331037Y-54033522D01*
X119067824Y-54033522D01*
X119067824Y-54559947D01*
X119067824Y-55086372D01*
X118804612Y-55086372D01*
X118541399Y-55086372D01*
X118541399Y-54823159D01*
X118541399Y-54559947D01*
X118278187Y-54559947D01*
X118014974Y-54559947D01*
X118014974Y-54823159D01*
X118014974Y-55086372D01*
X117488549Y-55086372D01*
X116962125Y-55086372D01*
X116962125Y-54823159D01*
X116962125Y-54559947D01*
X117225337Y-54559947D01*
X117488549Y-54559947D01*
X117488549Y-54296735D01*
X117488549Y-54033522D01*
X117751762Y-54033522D01*
X118014974Y-54033522D01*
X118014974Y-53770310D01*
X118014974Y-53507097D01*
X118541399Y-53507097D01*
X118541399Y-53770310D01*
X118541399Y-54033522D01*
X118804612Y-54033522D01*
X119067824Y-54033522D01*
X119067824Y-53770310D01*
X119067824Y-53507097D01*
X118804612Y-53507097D01*
X118541399Y-53507097D01*
X118014974Y-53507097D01*
X117751762Y-53507097D01*
X117488549Y-53507097D01*
X117488549Y-53770310D01*
X117488549Y-54033522D01*
X116962125Y-54033522D01*
X116435700Y-54033522D01*
X116435700Y-53770310D01*
X116435700Y-53507097D01*
X116698912Y-53507097D01*
X116962125Y-53507097D01*
X116962125Y-53243885D01*
X116962125Y-52980672D01*
X117225337Y-52980672D01*
X117488549Y-52980672D01*
X117488549Y-52717460D01*
X117488549Y-52454248D01*
X117225337Y-52454248D01*
X116962125Y-52454248D01*
X116962125Y-52191035D01*
X116962125Y-51927823D01*
X116698912Y-51927823D01*
X116435700Y-51927823D01*
X116435700Y-51664610D01*
X116435700Y-51401398D01*
X116698912Y-51401398D01*
X116962125Y-51401398D01*
X116962125Y-51138185D01*
X116962125Y-50874973D01*
X117488549Y-50874973D01*
X118014974Y-50874973D01*
X118014974Y-50611761D01*
X118014974Y-50348548D01*
X118541399Y-50348548D01*
X119067824Y-50348548D01*
X119067824Y-50611761D01*
X119067824Y-50874973D01*
X118804612Y-50874973D01*
X118541399Y-50874973D01*
X118541399Y-51927823D01*
X118541399Y-52980672D01*
X118804612Y-52980672D01*
X119067824Y-52980672D01*
X119067824Y-53243885D01*
X119067824Y-53507097D01*
X119331037Y-53507097D01*
X119594249Y-53507097D01*
X119594249Y-53243885D01*
X119594249Y-52980672D01*
X119857461Y-52980672D01*
X120120674Y-52980672D01*
X120120674Y-53243885D01*
X120120674Y-53507097D01*
X119857461Y-53507097D01*
X119594249Y-53507097D01*
X119594249Y-53770310D01*
X119594249Y-54033522D01*
G37*
G36*
X119857461Y-54033522D02*
G01*
X120120674Y-54033522D01*
X120120674Y-54296735D01*
X120120674Y-54559947D01*
X119857461Y-54559947D01*
X119594249Y-54559947D01*
X119594249Y-54296735D01*
X119594249Y-54033522D01*
X119857461Y-54033522D01*
G37*
G36*
X123805648Y-46137149D02*
G01*
X124068860Y-46137149D01*
X124332073Y-46137149D01*
X124332073Y-46400362D01*
X124332073Y-46663574D01*
X124068860Y-46663574D01*
X123805648Y-46663574D01*
X123805648Y-46926786D01*
X123805648Y-47189999D01*
X124068860Y-47189999D01*
X124332073Y-47189999D01*
X124332073Y-47453211D01*
X124332073Y-47716424D01*
X123805648Y-47716424D01*
X123279223Y-47716424D01*
X123279223Y-47189999D01*
X123279223Y-46663574D01*
X123016011Y-46663574D01*
X122752798Y-46663574D01*
X122752798Y-46400362D01*
X122752798Y-46137149D01*
X122489586Y-46137149D01*
X122226373Y-46137149D01*
X122226373Y-45873937D01*
X122226373Y-45610724D01*
X122752798Y-45610724D01*
X122752798Y-45873937D01*
X122752798Y-46137149D01*
X123016011Y-46137149D01*
X123279223Y-46137149D01*
X123279223Y-45873937D01*
X123279223Y-45610724D01*
X123016011Y-45610724D01*
X122752798Y-45610724D01*
X122226373Y-45610724D01*
X121963161Y-45610724D01*
X121699948Y-45610724D01*
X121699948Y-45347512D01*
X121699948Y-45084299D01*
X121436736Y-45084299D01*
X121173524Y-45084299D01*
X121173524Y-44821087D01*
X121173524Y-44557875D01*
X120647099Y-44557875D01*
X120120674Y-44557875D01*
X120120674Y-44294662D01*
X120120674Y-44031450D01*
X120647099Y-44031450D01*
X121173524Y-44031450D01*
X121173524Y-44294662D01*
X121173524Y-44557875D01*
X121963161Y-44557875D01*
X122752798Y-44557875D01*
X122752798Y-44294662D01*
X122752798Y-44031450D01*
X122489586Y-44031450D01*
X122226373Y-44031450D01*
X122226373Y-43768237D01*
X122226373Y-43505025D01*
X121963161Y-43505025D01*
X121699948Y-43505025D01*
X121699948Y-42978600D01*
X121699948Y-42452175D01*
X122226373Y-42452175D01*
X122752798Y-42452175D01*
X122752798Y-42715387D01*
X122752798Y-42978600D01*
X123542435Y-42978600D01*
X124332073Y-42978600D01*
X124332073Y-43505025D01*
X124332073Y-44031450D01*
X123805648Y-44031450D01*
X123279223Y-44031450D01*
X123279223Y-44294662D01*
X123279223Y-44557875D01*
X123016011Y-44557875D01*
X122752798Y-44557875D01*
X122752798Y-44821087D01*
X122752798Y-45084299D01*
X123016011Y-45084299D01*
X123279223Y-45084299D01*
X123279223Y-45347512D01*
X123279223Y-45610724D01*
X123542435Y-45610724D01*
X123805648Y-45610724D01*
X123805648Y-45084299D01*
X123805648Y-44557875D01*
X124068860Y-44557875D01*
X124332073Y-44557875D01*
X124332073Y-45084299D01*
X124332073Y-45610724D01*
X124068860Y-45610724D01*
X123805648Y-45610724D01*
X123805648Y-45873937D01*
X123805648Y-46137149D01*
G37*
G36*
X119857461Y-42452175D02*
G01*
X120120674Y-42452175D01*
X120120674Y-42715387D01*
X120120674Y-42978600D01*
X120647099Y-42978600D01*
X121173524Y-42978600D01*
X121173524Y-43241812D01*
X121173524Y-43505025D01*
X120647099Y-43505025D01*
X120120674Y-43505025D01*
X120120674Y-43768237D01*
X120120674Y-44031450D01*
X119857461Y-44031450D01*
X119594249Y-44031450D01*
X119594249Y-43241812D01*
X119594249Y-42452175D01*
X119857461Y-42452175D01*
G37*
G36*
X119067824Y-40872900D02*
G01*
X119067824Y-41399325D01*
X119331037Y-41399325D01*
X119594249Y-41399325D01*
X119594249Y-41136113D01*
X119594249Y-40872900D01*
X119857461Y-40872900D01*
X120120674Y-40872900D01*
X120120674Y-41399325D01*
X120120674Y-41925750D01*
X119857461Y-41925750D01*
X119594249Y-41925750D01*
X119594249Y-42188963D01*
X119594249Y-42452175D01*
X119331037Y-42452175D01*
X119067824Y-42452175D01*
X119067824Y-42715387D01*
X119067824Y-42978600D01*
X118804612Y-42978600D01*
X118541399Y-42978600D01*
X118541399Y-42452175D01*
X118541399Y-41925750D01*
X118278187Y-41925750D01*
X118014974Y-41925750D01*
X118014974Y-41662538D01*
X118014974Y-41399325D01*
X118278187Y-41399325D01*
X118541399Y-41399325D01*
X118541399Y-41136113D01*
X118541399Y-40872900D01*
X118278187Y-40872900D01*
X118014974Y-40872900D01*
X118014974Y-40609688D01*
X118014974Y-40346476D01*
X118541399Y-40346476D01*
X119067824Y-40346476D01*
X119067824Y-40872900D01*
G37*
G36*
X121699948Y-42188963D02*
G01*
X121699948Y-42452175D01*
X121173524Y-42452175D01*
X120647099Y-42452175D01*
X120647099Y-42188963D01*
X120647099Y-41925750D01*
X121173524Y-41925750D01*
X121699948Y-41925750D01*
X121699948Y-42188963D01*
G37*
G36*
X122226373Y-52980672D02*
G01*
X121963161Y-52980672D01*
X121699948Y-52980672D01*
X121699948Y-52717460D01*
X121699948Y-52454248D01*
X121436736Y-52454248D01*
X121173524Y-52454248D01*
X121173524Y-52717460D01*
X121173524Y-52980672D01*
X120647099Y-52980672D01*
X120120674Y-52980672D01*
X120120674Y-52717460D01*
X120120674Y-52454248D01*
X119857461Y-52454248D01*
X119594249Y-52454248D01*
X119594249Y-52717460D01*
X119594249Y-52980672D01*
X119331037Y-52980672D01*
X119067824Y-52980672D01*
X119067824Y-52454248D01*
X119067824Y-51927823D01*
X119331037Y-51927823D01*
X119594249Y-51927823D01*
X120120674Y-51927823D01*
X120120674Y-52191035D01*
X120120674Y-52454248D01*
X120647099Y-52454248D01*
X121173524Y-52454248D01*
X121173524Y-52191035D01*
X121173524Y-51927823D01*
X120647099Y-51927823D01*
X120120674Y-51927823D01*
X119594249Y-51927823D01*
X119594249Y-51664610D01*
X119594249Y-51401398D01*
X119857461Y-51401398D01*
X120120674Y-51401398D01*
X120120674Y-51138185D01*
X120647099Y-51138185D01*
X120647099Y-51401398D01*
X120910311Y-51401398D01*
X121173524Y-51401398D01*
X121173524Y-51664610D01*
X121173524Y-51927823D01*
X121436736Y-51927823D01*
X121699948Y-51927823D01*
X121699948Y-51401398D01*
X121699948Y-50874973D01*
X121173524Y-50874973D01*
X120647099Y-50874973D01*
X120647099Y-51138185D01*
X120120674Y-51138185D01*
X120120674Y-50874973D01*
X120120674Y-50348548D01*
X119594249Y-50348548D01*
X119067824Y-50348548D01*
X119067824Y-50085336D01*
X120647099Y-50085336D01*
X120647099Y-50348548D01*
X120910311Y-50348548D01*
X121173524Y-50348548D01*
X121173524Y-50085336D01*
X121173524Y-49822123D01*
X120910311Y-49822123D01*
X120647099Y-49822123D01*
X120647099Y-50085336D01*
X119067824Y-50085336D01*
X119067824Y-49822123D01*
X119331037Y-49822123D01*
X119594249Y-49822123D01*
X119594249Y-49558911D01*
X119594249Y-49295698D01*
X119857461Y-49295698D01*
X120120674Y-49295698D01*
X120120674Y-49558911D01*
X120120674Y-49822123D01*
X120383886Y-49822123D01*
X120647099Y-49822123D01*
X120647099Y-49558911D01*
X120647099Y-49295698D01*
X120910311Y-49295698D01*
X121173524Y-49295698D01*
X121173524Y-49032486D01*
X121173524Y-48769273D01*
X120383886Y-48769273D01*
X119594249Y-48769273D01*
X119594249Y-48506061D01*
X119594249Y-48242849D01*
X120383886Y-48242849D01*
X121173524Y-48242849D01*
X121173524Y-47979636D01*
X121173524Y-47716424D01*
X120910311Y-47716424D01*
X120647099Y-47716424D01*
X120647099Y-47453211D01*
X120647099Y-47189999D01*
X120910311Y-47189999D01*
X121173524Y-47189999D01*
X121173524Y-46926786D01*
X121173524Y-46663574D01*
X121436736Y-46663574D01*
X121699948Y-46663574D01*
X121699948Y-46400362D01*
X121699948Y-46137149D01*
X121963161Y-46137149D01*
X122226373Y-46137149D01*
X122226373Y-47189999D01*
X122226373Y-48242849D01*
X121963161Y-48242849D01*
X121699948Y-48242849D01*
X121699948Y-48506061D01*
X121699948Y-48769273D01*
X121963161Y-48769273D01*
X122226373Y-48769273D01*
X122226373Y-49295698D01*
X122226373Y-49822123D01*
X121963161Y-49822123D01*
X121699948Y-49822123D01*
X121699948Y-50348548D01*
X121699948Y-50874973D01*
X121963161Y-50874973D01*
X122226373Y-50874973D01*
X122226373Y-50611761D01*
X122226373Y-50348548D01*
X122489586Y-50348548D01*
X122752798Y-50348548D01*
X122752798Y-49822123D01*
X122752798Y-49295698D01*
X123016011Y-49295698D01*
X123279223Y-49295698D01*
X123279223Y-49032486D01*
X123279223Y-48769273D01*
X123542435Y-48769273D01*
X123805648Y-48769273D01*
X123805648Y-49032486D01*
X123805648Y-49295698D01*
X124068860Y-49295698D01*
X124332073Y-49295698D01*
X124332073Y-49558911D01*
X124332073Y-49822123D01*
X124068860Y-49822123D01*
X123805648Y-49822123D01*
X123805648Y-50085336D01*
X123805648Y-50348548D01*
X124068860Y-50348548D01*
X124332073Y-50348548D01*
X124332073Y-51664610D01*
X124332073Y-52980672D01*
X124068860Y-52980672D01*
X123805648Y-52980672D01*
X123805648Y-52191035D01*
X123805648Y-51401398D01*
X123542435Y-51401398D01*
X123279223Y-51401398D01*
X123279223Y-51927823D01*
X123279223Y-52454248D01*
X123016011Y-52454248D01*
X122752798Y-52454248D01*
X122752798Y-51927823D01*
X122752798Y-51401398D01*
X122489586Y-51401398D01*
X122226373Y-51401398D01*
X122226373Y-52191035D01*
X122226373Y-52980672D01*
G37*
G36*
X123279223Y-48506061D02*
G01*
X123279223Y-48769273D01*
X123016011Y-48769273D01*
X122752798Y-48769273D01*
X122752798Y-48506061D01*
X122752798Y-48242849D01*
X123016011Y-48242849D01*
X123279223Y-48242849D01*
X123279223Y-48506061D01*
G37*
G36*
X117751762Y-46137149D02*
G01*
X118014974Y-46137149D01*
X118014974Y-46400362D01*
X118014974Y-46663574D01*
X118278187Y-46663574D01*
X118541399Y-46663574D01*
X118541399Y-46926786D01*
X118541399Y-47189999D01*
X118804612Y-47189999D01*
X119067824Y-47189999D01*
X119067824Y-46926786D01*
X119067824Y-46663574D01*
X119331037Y-46663574D01*
X119594249Y-46663574D01*
X119594249Y-47453211D01*
X119594249Y-48242849D01*
X119067824Y-48242849D01*
X118541399Y-48242849D01*
X118541399Y-48769273D01*
X118541399Y-49295698D01*
X118804612Y-49295698D01*
X119067824Y-49295698D01*
X119067824Y-49032486D01*
X119067824Y-48769273D01*
X119331037Y-48769273D01*
X119594249Y-48769273D01*
X119594249Y-49032486D01*
X119594249Y-49295698D01*
X119331037Y-49295698D01*
X119067824Y-49295698D01*
X119067824Y-49558911D01*
X119067824Y-49822123D01*
X118804612Y-49822123D01*
X118541399Y-49822123D01*
X118541399Y-49558911D01*
X118541399Y-49295698D01*
X117751762Y-49295698D01*
X116962125Y-49295698D01*
X116962125Y-49822123D01*
X116962125Y-50348548D01*
X116698912Y-50348548D01*
X116435700Y-50348548D01*
X116435700Y-49295698D01*
X116435700Y-48242849D01*
X115909275Y-48242849D01*
X115382850Y-48242849D01*
X115382850Y-47979636D01*
X115382850Y-47716424D01*
X115119638Y-47716424D01*
X114856425Y-47716424D01*
X114856425Y-47453211D01*
X114856425Y-47189999D01*
X115119638Y-47189999D01*
X115382850Y-47189999D01*
X115382850Y-47453211D01*
X115382850Y-47716424D01*
X115646062Y-47716424D01*
X115909275Y-47716424D01*
X115909275Y-47453211D01*
X115909275Y-47189999D01*
X116172487Y-47189999D01*
X116435700Y-47189999D01*
X116435700Y-47716424D01*
X116435700Y-48242849D01*
X117225337Y-48242849D01*
X118014974Y-48242849D01*
X118014974Y-47979636D01*
X118014974Y-47716424D01*
X117751762Y-47716424D01*
X117488549Y-47716424D01*
X117488549Y-46926786D01*
X117488549Y-46137149D01*
X117751762Y-46137149D01*
G37*
G36*
X114593213Y-48769273D02*
G01*
X114856425Y-48769273D01*
X114856425Y-49032486D01*
X114856425Y-49295698D01*
X114593213Y-49295698D01*
X114330000Y-49295698D01*
X114330000Y-49032486D01*
X114330000Y-48769273D01*
X114593213Y-48769273D01*
G37*
G36*
X113540363Y-45610724D02*
G01*
X113803575Y-45610724D01*
X113803575Y-45873937D01*
X113803575Y-46137149D01*
X114856425Y-46137149D01*
X115909275Y-46137149D01*
X115909275Y-46400362D01*
X115909275Y-46663574D01*
X115382850Y-46663574D01*
X114856425Y-46663574D01*
X114856425Y-46926786D01*
X114856425Y-47189999D01*
X114066788Y-47189999D01*
X113277151Y-47189999D01*
X113277151Y-47716424D01*
X113277151Y-48242849D01*
X113540363Y-48242849D01*
X113803575Y-48242849D01*
X113803575Y-47979636D01*
X113803575Y-47716424D01*
X114066788Y-47716424D01*
X114330000Y-47716424D01*
X114330000Y-48242849D01*
X114330000Y-48769273D01*
X113803575Y-48769273D01*
X113277151Y-48769273D01*
X113277151Y-48506061D01*
X113277151Y-48242849D01*
X113013938Y-48242849D01*
X112750726Y-48242849D01*
X112750726Y-47453211D01*
X112750726Y-46663574D01*
X113013938Y-46663574D01*
X113277151Y-46663574D01*
X113277151Y-46137149D01*
X113277151Y-45610724D01*
X113540363Y-45610724D01*
G37*
G36*
X116962125Y-45347512D02*
G01*
X116962125Y-45610724D01*
X117225337Y-45610724D01*
X117488549Y-45610724D01*
X117488549Y-45347512D01*
X117488549Y-45084299D01*
X118014974Y-45084299D01*
X118541399Y-45084299D01*
X118541399Y-45347512D01*
X118541399Y-45610724D01*
X119331037Y-45610724D01*
X120120674Y-45610724D01*
X120120674Y-45347512D01*
X120120674Y-45084299D01*
X120647099Y-45084299D01*
X121173524Y-45084299D01*
X121173524Y-45347512D01*
X121173524Y-45610724D01*
X120910311Y-45610724D01*
X120647099Y-45610724D01*
X120647099Y-45873937D01*
X120647099Y-46137149D01*
X120910311Y-46137149D01*
X121173524Y-46137149D01*
X121173524Y-45873937D01*
X121173524Y-45610724D01*
X121436736Y-45610724D01*
X121699948Y-45610724D01*
X121699948Y-45873937D01*
X121699948Y-46137149D01*
X121436736Y-46137149D01*
X121173524Y-46137149D01*
X121173524Y-46400362D01*
X121173524Y-46663574D01*
X120647099Y-46663574D01*
X120120674Y-46663574D01*
X120120674Y-46400362D01*
X120120674Y-46137149D01*
X119331037Y-46137149D01*
X118541399Y-46137149D01*
X118541399Y-45873937D01*
X118541399Y-45610724D01*
X118014974Y-45610724D01*
X117488549Y-45610724D01*
X117488549Y-45873937D01*
X117488549Y-46137149D01*
X117225337Y-46137149D01*
X116962125Y-46137149D01*
X116962125Y-45873937D01*
X116962125Y-45610724D01*
X116172487Y-45610724D01*
X115382850Y-45610724D01*
X115382850Y-45347512D01*
X115382850Y-45084299D01*
X116172487Y-45084299D01*
X116962125Y-45084299D01*
X116962125Y-45347512D01*
G37*
G36*
X113277151Y-45347512D02*
G01*
X113277151Y-45610724D01*
X113013938Y-45610724D01*
X112750726Y-45610724D01*
X112750726Y-45347512D01*
X112750726Y-45084299D01*
X113013938Y-45084299D01*
X113277151Y-45084299D01*
X113277151Y-45347512D01*
G37*
G36*
X109592176Y-53243885D02*
G01*
X109592176Y-53770310D01*
X109592176Y-54033522D01*
X110118601Y-54033522D01*
X110645026Y-54033522D01*
X110645026Y-54823159D01*
X110645026Y-55612797D01*
X111434663Y-55612797D01*
X112224301Y-55612797D01*
X112224301Y-55876009D01*
X112224301Y-56139222D01*
X112750726Y-56139222D01*
X113277151Y-56139222D01*
X113277151Y-56402434D01*
X113277151Y-56665647D01*
X113540363Y-56665647D01*
X113803575Y-56665647D01*
X113803575Y-56402434D01*
X113803575Y-56139222D01*
X114066788Y-56139222D01*
X114330000Y-56139222D01*
X114330000Y-56402434D01*
X114330000Y-56665647D01*
X114066788Y-56665647D01*
X113803575Y-56665647D01*
X113803575Y-56928859D01*
X113803575Y-57192071D01*
X113013938Y-57192071D01*
X112224301Y-57192071D01*
X112224301Y-56928859D01*
X112224301Y-56665647D01*
X111961088Y-56665647D01*
X111697876Y-56665647D01*
X111697876Y-56402434D01*
X111697876Y-56139222D01*
X110645026Y-56139222D01*
X109592176Y-56139222D01*
X109592176Y-56665647D01*
X109592176Y-57192071D01*
X109328964Y-57192071D01*
X109065752Y-57192071D01*
X109065752Y-56665647D01*
X109065752Y-56139222D01*
X108802539Y-56139222D01*
X108539327Y-56139222D01*
X108539327Y-56402434D01*
X108539327Y-56665647D01*
X108276114Y-56665647D01*
X108012902Y-56665647D01*
X108012902Y-56928859D01*
X108012902Y-57192071D01*
X107223265Y-57192071D01*
X106433627Y-57192071D01*
X106433627Y-56665647D01*
X106433627Y-56139222D01*
X106960052Y-56139222D01*
X107486477Y-56139222D01*
X107486477Y-56402434D01*
X107486477Y-56665647D01*
X107749689Y-56665647D01*
X108012902Y-56665647D01*
X108012902Y-56402434D01*
X108012902Y-56139222D01*
X107749689Y-56139222D01*
X107486477Y-56139222D01*
X107486477Y-55876009D01*
X107486477Y-55612797D01*
X107749689Y-55612797D01*
X108012902Y-55612797D01*
X108012902Y-55876009D01*
X108012902Y-56139222D01*
X108276114Y-56139222D01*
X108539327Y-56139222D01*
X108539327Y-55876009D01*
X108539327Y-55612797D01*
X108802539Y-55612797D01*
X109065752Y-55612797D01*
X109065752Y-55876009D01*
X109065752Y-56139222D01*
X109328964Y-56139222D01*
X109592176Y-56139222D01*
X109592176Y-55876009D01*
X109592176Y-55612797D01*
X109328964Y-55612797D01*
X109065752Y-55612797D01*
X109065752Y-55349584D01*
X109065752Y-55086372D01*
X108802539Y-55086372D01*
X108539327Y-55086372D01*
X108539327Y-55349584D01*
X108539327Y-55612797D01*
X108276114Y-55612797D01*
X108012902Y-55612797D01*
X108012902Y-55349584D01*
X108012902Y-55086372D01*
X107486477Y-55086372D01*
X106960052Y-55086372D01*
X106960052Y-55349584D01*
X106960052Y-55612797D01*
X106433627Y-55612797D01*
X105907202Y-55612797D01*
X105907202Y-55086372D01*
X105907202Y-54823159D01*
X106433627Y-54823159D01*
X106433627Y-55086372D01*
X106696840Y-55086372D01*
X106960052Y-55086372D01*
X106960052Y-54823159D01*
X106960052Y-54559947D01*
X106696840Y-54559947D01*
X106433627Y-54559947D01*
X106433627Y-54823159D01*
X105907202Y-54823159D01*
X105907202Y-54559947D01*
X106170415Y-54559947D01*
X106433627Y-54559947D01*
X106433627Y-54296735D01*
X106433627Y-54033522D01*
X106170415Y-54033522D01*
X105907202Y-54033522D01*
X105907202Y-54296735D01*
X105907202Y-54559947D01*
X105380777Y-54559947D01*
X104854353Y-54559947D01*
X104854353Y-54033522D01*
X104854353Y-53507097D01*
X105117565Y-53507097D01*
X105380777Y-53507097D01*
X105380777Y-53770310D01*
X105380777Y-54033522D01*
X105643990Y-54033522D01*
X105907202Y-54033522D01*
X105907202Y-53770310D01*
X107486477Y-53770310D01*
X107486477Y-54559947D01*
X108276114Y-54559947D01*
X109065752Y-54559947D01*
X109065752Y-53770310D01*
X109065752Y-52980672D01*
X108276114Y-52980672D01*
X107486477Y-52980672D01*
X107486477Y-53243885D01*
X107486477Y-53770310D01*
X105907202Y-53770310D01*
X105907202Y-53507097D01*
X105643990Y-53507097D01*
X105380777Y-53507097D01*
X105380777Y-53243885D01*
X105380777Y-52980672D01*
X105907202Y-52980672D01*
X105907202Y-53243885D01*
X105907202Y-53507097D01*
X106170415Y-53507097D01*
X106433627Y-53507097D01*
X106433627Y-53243885D01*
X106433627Y-52980672D01*
X106170415Y-52980672D01*
X105907202Y-52980672D01*
X105380777Y-52980672D01*
X105117565Y-52980672D01*
X104854353Y-52980672D01*
X104854353Y-52717460D01*
X104854353Y-52454248D01*
X105117565Y-52454248D01*
X105380777Y-52454248D01*
X106433627Y-52454248D01*
X106433627Y-52717460D01*
X106433627Y-52980672D01*
X106696840Y-52980672D01*
X106960052Y-52980672D01*
X106960052Y-52717460D01*
X106960052Y-52454248D01*
X106696840Y-52454248D01*
X106433627Y-52454248D01*
X105380777Y-52454248D01*
X105380777Y-52191035D01*
X105380777Y-51927823D01*
X105117565Y-51927823D01*
X104854353Y-51927823D01*
X104854353Y-51664610D01*
X104854353Y-51401398D01*
X105117565Y-51401398D01*
X105380777Y-51401398D01*
X105380777Y-51138185D01*
X105380777Y-50874973D01*
X105117565Y-50874973D01*
X104854353Y-50874973D01*
X104854353Y-50611761D01*
X104854353Y-50348548D01*
X105117565Y-50348548D01*
X105380777Y-50348548D01*
X105380777Y-50085336D01*
X105380777Y-49822123D01*
X105117565Y-49822123D01*
X104854353Y-49822123D01*
X104854353Y-49558911D01*
X104854353Y-49295698D01*
X105380777Y-49295698D01*
X105907202Y-49295698D01*
X105907202Y-50611761D01*
X105907202Y-51927823D01*
X106433627Y-51927823D01*
X106960052Y-51927823D01*
X106960052Y-51664610D01*
X106960052Y-51401398D01*
X107223265Y-51401398D01*
X107486477Y-51401398D01*
X107486477Y-51927823D01*
X107486477Y-52454248D01*
X108012902Y-52454248D01*
X108539327Y-52454248D01*
X108539327Y-52191035D01*
X108539327Y-51927823D01*
X108802539Y-51927823D01*
X109065752Y-51927823D01*
X109065752Y-52191035D01*
X109065752Y-52454248D01*
X109328964Y-52454248D01*
X109592176Y-52454248D01*
X109592176Y-52717460D01*
X109592176Y-53243885D01*
G37*
G36*
X116172487Y-51927823D02*
G01*
X116435700Y-51927823D01*
X116435700Y-52191035D01*
X116435700Y-52454248D01*
X116698912Y-52454248D01*
X116962125Y-52454248D01*
X116962125Y-52717460D01*
X116962125Y-52980672D01*
X116435700Y-52980672D01*
X115909275Y-52980672D01*
X115909275Y-52717460D01*
X115909275Y-52454248D01*
X115646062Y-52454248D01*
X115382850Y-52454248D01*
X115382850Y-52717460D01*
X115382850Y-52980672D01*
X114856425Y-52980672D01*
X114330000Y-52980672D01*
X114330000Y-52454248D01*
X114330000Y-51927823D01*
X114066788Y-51927823D01*
X113803575Y-51927823D01*
X113803575Y-52717460D01*
X113803575Y-53243885D01*
X113803575Y-53507097D01*
X114066788Y-53507097D01*
X114330000Y-53507097D01*
X114330000Y-53770310D01*
X114330000Y-54033522D01*
X113540363Y-54033522D01*
X112750726Y-54033522D01*
X112750726Y-54296735D01*
X112750726Y-54559947D01*
X112487513Y-54559947D01*
X112224301Y-54559947D01*
X112224301Y-54823159D01*
X112224301Y-55086372D01*
X111697876Y-55086372D01*
X111171451Y-55086372D01*
X111171451Y-54823159D01*
X111171451Y-54559947D01*
X111434663Y-54559947D01*
X111697876Y-54559947D01*
X111697876Y-54033522D01*
X111697876Y-53507097D01*
X111961088Y-53507097D01*
X112224301Y-53507097D01*
X112224301Y-52980672D01*
X112750726Y-52980672D01*
X112750726Y-53243885D01*
X112750726Y-53507097D01*
X113013938Y-53507097D01*
X113277151Y-53507097D01*
X113277151Y-53243885D01*
X113277151Y-52980672D01*
X113013938Y-52980672D01*
X112750726Y-52980672D01*
X112224301Y-52980672D01*
X112224301Y-52454248D01*
X112750726Y-52454248D01*
X113277151Y-52454248D01*
X113277151Y-52191035D01*
X113277151Y-51927823D01*
X112750726Y-51927823D01*
X112224301Y-51927823D01*
X112224301Y-51401398D01*
X112224301Y-50874973D01*
X112750726Y-50874973D01*
X113277151Y-50874973D01*
X113277151Y-51401398D01*
X113277151Y-51927823D01*
X113540363Y-51927823D01*
X113803575Y-51927823D01*
X113803575Y-51401398D01*
X114856425Y-51401398D01*
X114856425Y-51927823D01*
X114856425Y-52454248D01*
X115119638Y-52454248D01*
X115382850Y-52454248D01*
X115382850Y-51927823D01*
X115382850Y-51401398D01*
X115119638Y-51401398D01*
X114856425Y-51401398D01*
X113803575Y-51401398D01*
X113803575Y-51138185D01*
X113803575Y-50348548D01*
X114066788Y-50348548D01*
X114330000Y-50348548D01*
X114330000Y-50085336D01*
X114330000Y-49822123D01*
X115119638Y-49822123D01*
X115909275Y-49822123D01*
X115909275Y-50348548D01*
X115909275Y-50874973D01*
X115646062Y-50874973D01*
X115382850Y-50874973D01*
X115382850Y-50611761D01*
X115382850Y-50348548D01*
X115119638Y-50348548D01*
X114856425Y-50348548D01*
X114856425Y-50611761D01*
X114856425Y-50874973D01*
X115119638Y-50874973D01*
X115382850Y-50874973D01*
X115382850Y-51138185D01*
X115382850Y-51401398D01*
X115646062Y-51401398D01*
X115909275Y-51401398D01*
X115909275Y-51138185D01*
X115909275Y-50874973D01*
X116172487Y-50874973D01*
X116435700Y-50874973D01*
X116435700Y-51138185D01*
X116435700Y-51401398D01*
X116172487Y-51401398D01*
X115909275Y-51401398D01*
X115909275Y-51664610D01*
X115909275Y-51927823D01*
X116172487Y-51927823D01*
G37*
G36*
X111434663Y-51927823D02*
G01*
X111697876Y-51927823D01*
X111697876Y-52191035D01*
X111697876Y-52454248D01*
X111434663Y-52454248D01*
X111171451Y-52454248D01*
X111171451Y-52191035D01*
X111171451Y-51927823D01*
X111434663Y-51927823D01*
G37*
G36*
X110118601Y-49295698D02*
G01*
X110118601Y-49822123D01*
X110381814Y-49822123D01*
X110645026Y-49822123D01*
X110645026Y-50085336D01*
X110645026Y-50348548D01*
X110908239Y-50348548D01*
X111171451Y-50348548D01*
X111171451Y-50611761D01*
X111171451Y-50874973D01*
X110645026Y-50874973D01*
X110118601Y-50874973D01*
X110118601Y-50611761D01*
X110118601Y-50348548D01*
X109855389Y-50348548D01*
X109592176Y-50348548D01*
X109592176Y-50611761D01*
X109592176Y-50874973D01*
X109855389Y-50874973D01*
X110118601Y-50874973D01*
X110118601Y-51138185D01*
X110118601Y-51401398D01*
X110645026Y-51401398D01*
X111171451Y-51401398D01*
X111171451Y-51138185D01*
X111171451Y-50874973D01*
X111434663Y-50874973D01*
X111697876Y-50874973D01*
X111697876Y-50611761D01*
X111697876Y-50348548D01*
X111961088Y-50348548D01*
X112224301Y-50348548D01*
X112224301Y-50611761D01*
X112224301Y-50874973D01*
X111961088Y-50874973D01*
X111697876Y-50874973D01*
X111697876Y-51138185D01*
X111697876Y-51401398D01*
X111434663Y-51401398D01*
X111171451Y-51401398D01*
X111171451Y-51664610D01*
X111171451Y-51927823D01*
X110381814Y-51927823D01*
X109592176Y-51927823D01*
X109592176Y-51664610D01*
X109592176Y-51401398D01*
X109328964Y-51401398D01*
X109065752Y-51401398D01*
X109065752Y-50874973D01*
X109065752Y-50348548D01*
X108802539Y-50348548D01*
X108539327Y-50348548D01*
X108539327Y-50611761D01*
X108539327Y-50874973D01*
X108276114Y-50874973D01*
X108012902Y-50874973D01*
X108012902Y-50611761D01*
X108012902Y-50348548D01*
X107749689Y-50348548D01*
X107486477Y-50348548D01*
X107486477Y-50085336D01*
X107486477Y-49822123D01*
X107749689Y-49822123D01*
X108012902Y-49822123D01*
X108012902Y-50085336D01*
X108012902Y-50348548D01*
X108276114Y-50348548D01*
X108539327Y-50348548D01*
X108539327Y-50085336D01*
X108539327Y-49822123D01*
X108802539Y-49822123D01*
X109065752Y-49822123D01*
X109065752Y-50085336D01*
X109065752Y-50348548D01*
X109328964Y-50348548D01*
X109592176Y-50348548D01*
X109592176Y-49822123D01*
X109592176Y-49295698D01*
X109328964Y-49295698D01*
X109065752Y-49295698D01*
X109065752Y-49032486D01*
X109065752Y-48769273D01*
X109592176Y-48769273D01*
X110118601Y-48769273D01*
X110118601Y-49295698D01*
G37*
G36*
X112750726Y-49295698D02*
G01*
X112750726Y-49822123D01*
X113013938Y-49822123D01*
X113277151Y-49822123D01*
X113277151Y-49558911D01*
X113277151Y-49295698D01*
X113803575Y-49295698D01*
X114330000Y-49295698D01*
X114330000Y-49558911D01*
X114330000Y-49822123D01*
X113803575Y-49822123D01*
X113277151Y-49822123D01*
X113277151Y-50085336D01*
X113277151Y-50348548D01*
X112750726Y-50348548D01*
X112224301Y-50348548D01*
X112224301Y-49558911D01*
X112224301Y-48769273D01*
X112487513Y-48769273D01*
X112750726Y-48769273D01*
X112750726Y-49295698D01*
G37*
G36*
X108539327Y-49558911D02*
G01*
X108539327Y-49822123D01*
X108276114Y-49822123D01*
X108012902Y-49822123D01*
X108012902Y-49558911D01*
X108012902Y-49295698D01*
X108276114Y-49295698D01*
X108539327Y-49295698D01*
X108539327Y-49558911D01*
G37*
G36*
X108012902Y-46137149D02*
G01*
X107749689Y-46137149D01*
X107486477Y-46137149D01*
X107486477Y-46400362D01*
X107486477Y-46663574D01*
X107223265Y-46663574D01*
X106960052Y-46663574D01*
X106960052Y-46400362D01*
X106960052Y-46137149D01*
X106696840Y-46137149D01*
X106433627Y-46137149D01*
X106433627Y-46663574D01*
X106433627Y-47189999D01*
X106696840Y-47189999D01*
X106960052Y-47189999D01*
X106960052Y-47716424D01*
X106960052Y-48242849D01*
X107486477Y-48242849D01*
X108012902Y-48242849D01*
X108012902Y-47979636D01*
X108012902Y-47716424D01*
X108276114Y-47716424D01*
X108539327Y-47716424D01*
X108539327Y-47453211D01*
X108539327Y-47189999D01*
X108802539Y-47189999D01*
X109065752Y-47189999D01*
X109065752Y-47453211D01*
X109065752Y-47716424D01*
X109328964Y-47716424D01*
X109592176Y-47716424D01*
X109592176Y-47453211D01*
X109592176Y-47189999D01*
X109328964Y-47189999D01*
X109065752Y-47189999D01*
X109065752Y-46926786D01*
X109065752Y-46663574D01*
X108539327Y-46663574D01*
X108012902Y-46663574D01*
X108012902Y-46400362D01*
X108012902Y-46137149D01*
X108539327Y-46137149D01*
X109065752Y-46137149D01*
X109065752Y-46400362D01*
X109065752Y-46663574D01*
X109592176Y-46663574D01*
X110118601Y-46663574D01*
X110118601Y-46400362D01*
X110118601Y-46137149D01*
X110908239Y-46137149D01*
X111697876Y-46137149D01*
X111697876Y-46926786D01*
X111697876Y-47716424D01*
X111171451Y-47716424D01*
X110645026Y-47716424D01*
X110645026Y-47453211D01*
X110645026Y-47189999D01*
X110908239Y-47189999D01*
X111171451Y-47189999D01*
X111171451Y-46926786D01*
X111171451Y-46663574D01*
X110645026Y-46663574D01*
X110118601Y-46663574D01*
X110118601Y-47189999D01*
X110118601Y-47716424D01*
X110381814Y-47716424D01*
X110645026Y-47716424D01*
X110645026Y-47979636D01*
X110645026Y-48242849D01*
X110908239Y-48242849D01*
X111171451Y-48242849D01*
X111171451Y-48769273D01*
X111171451Y-49295698D01*
X111434663Y-49295698D01*
X111697876Y-49295698D01*
X111697876Y-49822123D01*
X111697876Y-50348548D01*
X111434663Y-50348548D01*
X111171451Y-50348548D01*
X111171451Y-50085336D01*
X111171451Y-49822123D01*
X110908239Y-49822123D01*
X110645026Y-49822123D01*
X110645026Y-49295698D01*
X110645026Y-48769273D01*
X110381814Y-48769273D01*
X110118601Y-48769273D01*
X110118601Y-48506061D01*
X110118601Y-48242849D01*
X109592176Y-48242849D01*
X109065752Y-48242849D01*
X109065752Y-48506061D01*
X109065752Y-48769273D01*
X108539327Y-48769273D01*
X108012902Y-48769273D01*
X108012902Y-49032486D01*
X108012902Y-49295698D01*
X107486477Y-49295698D01*
X106960052Y-49295698D01*
X106960052Y-48769273D01*
X106960052Y-48242849D01*
X106696840Y-48242849D01*
X106433627Y-48242849D01*
X106433627Y-47979636D01*
X106433627Y-47716424D01*
X106170415Y-47716424D01*
X105907202Y-47716424D01*
X105907202Y-47189999D01*
X105907202Y-46663574D01*
X105380777Y-46663574D01*
X104854353Y-46663574D01*
X104854353Y-45873937D01*
X104854353Y-45610724D01*
X105380777Y-45610724D01*
X105380777Y-45873937D01*
X105380777Y-46137149D01*
X105643990Y-46137149D01*
X105907202Y-46137149D01*
X105907202Y-45873937D01*
X105907202Y-45610724D01*
X105643990Y-45610724D01*
X105380777Y-45610724D01*
X104854353Y-45610724D01*
X104854353Y-45084299D01*
X105380777Y-45084299D01*
X105907202Y-45084299D01*
X105907202Y-45347512D01*
X105907202Y-45610724D01*
X106170415Y-45610724D01*
X106433627Y-45610724D01*
X106433627Y-45347512D01*
X106433627Y-45084299D01*
X106696840Y-45084299D01*
X106960052Y-45084299D01*
X106960052Y-45347512D01*
X106960052Y-45610724D01*
X107486477Y-45610724D01*
X108012902Y-45610724D01*
X108012902Y-45873937D01*
X108012902Y-46137149D01*
G37*
G36*
X113277151Y-39820051D02*
G01*
X113540363Y-39820051D01*
X113803575Y-39820051D01*
X113803575Y-40609688D01*
X113803575Y-40872900D01*
X113803575Y-41399325D01*
X114066788Y-41399325D01*
X114330000Y-41399325D01*
X114330000Y-40609688D01*
X114330000Y-39820051D01*
X114593213Y-39820051D01*
X114856425Y-39820051D01*
X114856425Y-40609688D01*
X114856425Y-41399325D01*
X114593213Y-41399325D01*
X114330000Y-41399325D01*
X114330000Y-41662538D01*
X114330000Y-41925750D01*
X114593213Y-41925750D01*
X114856425Y-41925750D01*
X114856425Y-42188963D01*
X114856425Y-42452175D01*
X115382850Y-42452175D01*
X115909275Y-42452175D01*
X115909275Y-41925750D01*
X115909275Y-41399325D01*
X115646062Y-41399325D01*
X115382850Y-41399325D01*
X115382850Y-41136113D01*
X115382850Y-40872900D01*
X115646062Y-40872900D01*
X115909275Y-40872900D01*
X115909275Y-41136113D01*
X115909275Y-41399325D01*
X116172487Y-41399325D01*
X116435700Y-41399325D01*
X116435700Y-40872900D01*
X116435700Y-40346476D01*
X116698912Y-40346476D01*
X116962125Y-40346476D01*
X116962125Y-41136113D01*
X116962125Y-41925750D01*
X117225337Y-41925750D01*
X117488549Y-41925750D01*
X117488549Y-42188963D01*
X117488549Y-42452175D01*
X116698912Y-42452175D01*
X115909275Y-42452175D01*
X115909275Y-42978600D01*
X115909275Y-43505025D01*
X115646062Y-43505025D01*
X115382850Y-43505025D01*
X115382850Y-43241812D01*
X115382850Y-42978600D01*
X115119638Y-42978600D01*
X114856425Y-42978600D01*
X114856425Y-42715387D01*
X114856425Y-42452175D01*
X114330000Y-42452175D01*
X113803575Y-42452175D01*
X113803575Y-42715387D01*
X113803575Y-42978600D01*
X113540363Y-42978600D01*
X113277151Y-42978600D01*
X113277151Y-42452175D01*
X113277151Y-41925750D01*
X112487513Y-41925750D01*
X111697876Y-41925750D01*
X111697876Y-42188963D01*
X111697876Y-42452175D01*
X111434663Y-42452175D01*
X111171451Y-42452175D01*
X111171451Y-42978600D01*
X111171451Y-43505025D01*
X110908239Y-43505025D01*
X110645026Y-43505025D01*
X110645026Y-43768237D01*
X110645026Y-44031450D01*
X110118601Y-44031450D01*
X109592176Y-44031450D01*
X109592176Y-44557875D01*
X109592176Y-45084299D01*
X110118601Y-45084299D01*
X110645026Y-45084299D01*
X110645026Y-44821087D01*
X110645026Y-44557875D01*
X110908239Y-44557875D01*
X111171451Y-44557875D01*
X111171451Y-44821087D01*
X111171451Y-45084299D01*
X111434663Y-45084299D01*
X111697876Y-45084299D01*
X111697876Y-45347512D01*
X111697876Y-45610724D01*
X110908239Y-45610724D01*
X110118601Y-45610724D01*
X110118601Y-45873937D01*
X110118601Y-46137149D01*
X109855389Y-46137149D01*
X109592176Y-46137149D01*
X109592176Y-45610724D01*
X109592176Y-45084299D01*
X109328964Y-45084299D01*
X109065752Y-45084299D01*
X109065752Y-45347512D01*
X109065752Y-45610724D01*
X108802539Y-45610724D01*
X108539327Y-45610724D01*
X108539327Y-45084299D01*
X108539327Y-44557875D01*
X108276114Y-44557875D01*
X108012902Y-44557875D01*
X108012902Y-44821087D01*
X108012902Y-45084299D01*
X107749689Y-45084299D01*
X107486477Y-45084299D01*
X107486477Y-44294662D01*
X107486477Y-43505025D01*
X107749689Y-43505025D01*
X108012902Y-43505025D01*
X108012902Y-43241812D01*
X108012902Y-42978600D01*
X107223265Y-42978600D01*
X106433627Y-42978600D01*
X106433627Y-42715387D01*
X106433627Y-42452175D01*
X106170415Y-42452175D01*
X105907202Y-42452175D01*
X105907202Y-42188963D01*
X105907202Y-41925750D01*
X106170415Y-41925750D01*
X106433627Y-41925750D01*
X106433627Y-42188963D01*
X106433627Y-42452175D01*
X106696840Y-42452175D01*
X106960052Y-42452175D01*
X106960052Y-42188963D01*
X106960052Y-41925750D01*
X107223265Y-41925750D01*
X107486477Y-41925750D01*
X107486477Y-42188963D01*
X107486477Y-42452175D01*
X107749689Y-42452175D01*
X108012902Y-42452175D01*
X108012902Y-42188963D01*
X108012902Y-41925750D01*
X108276114Y-41925750D01*
X108539327Y-41925750D01*
X108539327Y-43241812D01*
X108539327Y-44557875D01*
X108802539Y-44557875D01*
X109065752Y-44557875D01*
X109065752Y-43768237D01*
X109065752Y-42978600D01*
X109328964Y-42978600D01*
X109592176Y-42978600D01*
X109592176Y-42715387D01*
X109592176Y-42452175D01*
X109855389Y-42452175D01*
X110118601Y-42452175D01*
X110118601Y-42188963D01*
X110118601Y-41925750D01*
X109592176Y-41925750D01*
X109065752Y-41925750D01*
X109065752Y-41136113D01*
X109065752Y-40346476D01*
X109328964Y-40346476D01*
X109592176Y-40346476D01*
X109592176Y-40872900D01*
X109592176Y-41399325D01*
X109855389Y-41399325D01*
X110118601Y-41399325D01*
X110118601Y-41136113D01*
X110118601Y-40872900D01*
X110381814Y-40872900D01*
X110645026Y-40872900D01*
X110645026Y-41399325D01*
X110645026Y-41925750D01*
X110908239Y-41925750D01*
X111171451Y-41925750D01*
X111171451Y-41399325D01*
X111171451Y-40872900D01*
X110908239Y-40872900D01*
X110645026Y-40872900D01*
X110645026Y-40609688D01*
X110645026Y-40346476D01*
X110908239Y-40346476D01*
X111171451Y-40346476D01*
X111697876Y-40346476D01*
X111697876Y-40872900D01*
X111697876Y-41399325D01*
X111961088Y-41399325D01*
X112224301Y-41399325D01*
X112224301Y-41136113D01*
X112224301Y-40872900D01*
X112487513Y-40872900D01*
X112750726Y-40872900D01*
X112750726Y-41136113D01*
X112750726Y-41399325D01*
X113013938Y-41399325D01*
X113277151Y-41399325D01*
X113277151Y-41136113D01*
X113277151Y-40872900D01*
X113013938Y-40872900D01*
X112750726Y-40872900D01*
X112750726Y-40609688D01*
X112750726Y-40346476D01*
X112224301Y-40346476D01*
X111697876Y-40346476D01*
X111171451Y-40346476D01*
X111171451Y-40083263D01*
X111171451Y-39820051D01*
X110908239Y-39820051D01*
X110645026Y-39820051D01*
X110645026Y-39556838D01*
X110645026Y-39293626D01*
X110908239Y-39293626D01*
X111171451Y-39293626D01*
X112224301Y-39293626D01*
X112224301Y-39556838D01*
X112224301Y-39820051D01*
X112487513Y-39820051D01*
X112750726Y-39820051D01*
X112750726Y-39556838D01*
X112750726Y-39293626D01*
X112487513Y-39293626D01*
X112224301Y-39293626D01*
X111171451Y-39293626D01*
X111171451Y-39030413D01*
X111171451Y-38767201D01*
X112224301Y-38767201D01*
X113277151Y-38767201D01*
X113277151Y-38503989D01*
X113277151Y-38240776D01*
X112750726Y-38240776D01*
X112224301Y-38240776D01*
X112224301Y-37977564D01*
X112224301Y-37714351D01*
X113013938Y-37714351D01*
X113803575Y-37714351D01*
X113803575Y-37977564D01*
X113803575Y-38240776D01*
X114066788Y-38240776D01*
X114330000Y-38240776D01*
X114330000Y-37977564D01*
X114330000Y-37714351D01*
X114593213Y-37714351D01*
X114856425Y-37714351D01*
X114856425Y-37977564D01*
X114856425Y-38240776D01*
X114593213Y-38240776D01*
X114330000Y-38240776D01*
X114330000Y-38503989D01*
X114330000Y-38767201D01*
X114066788Y-38767201D01*
X113803575Y-38767201D01*
X113803575Y-39030413D01*
X113803575Y-39293626D01*
X113540363Y-39293626D01*
X113277151Y-39293626D01*
X113277151Y-39556838D01*
X113277151Y-39820051D01*
G37*
G36*
X106433627Y-44821087D02*
G01*
X106433627Y-45084299D01*
X106170415Y-45084299D01*
X105907202Y-45084299D01*
X105907202Y-44821087D01*
X105907202Y-44557875D01*
X106170415Y-44557875D01*
X106433627Y-44557875D01*
X106433627Y-44821087D01*
G37*
G36*
X114593213Y-38767201D02*
G01*
X114856425Y-38767201D01*
X114856425Y-39030413D01*
X114856425Y-39293626D01*
X114593213Y-39293626D01*
X114330000Y-39293626D01*
X114330000Y-39030413D01*
X114330000Y-38767201D01*
X114593213Y-38767201D01*
G37*
G36*
X84341387Y-44611671D02*
G01*
X84356766Y-45223555D01*
X84995845Y-45238879D01*
X85634925Y-45254202D01*
X85634925Y-47700013D01*
X85634925Y-50145825D01*
X86233212Y-50145825D01*
X86831498Y-50145825D01*
X86831498Y-50771307D01*
X86831498Y-51396788D01*
X87456980Y-51396788D01*
X88082462Y-51396788D01*
X88082462Y-51995075D01*
X88082462Y-52593362D01*
X88680749Y-52593362D01*
X89279036Y-52593362D01*
X89279036Y-53844326D01*
X89279036Y-55095290D01*
X88055267Y-55095290D01*
X86831498Y-55095290D01*
X86831498Y-54469808D01*
X86831498Y-53844326D01*
X86233212Y-53844326D01*
X85634925Y-53844326D01*
X85634925Y-53218844D01*
X85634925Y-52593362D01*
X85011224Y-52593362D01*
X84387524Y-52593362D01*
X84372145Y-51981478D01*
X84356766Y-51369594D01*
X83744882Y-51354215D01*
X83132997Y-51338836D01*
X83132997Y-47669311D01*
X83132997Y-43999786D01*
X83729503Y-43999786D01*
X84326009Y-43999786D01*
X84341387Y-44611671D01*
G37*
G36*
X97927002Y-47669311D02*
G01*
X97927002Y-51338836D01*
X97315117Y-51354215D01*
X96703233Y-51369594D01*
X96687854Y-51981478D01*
X96672475Y-52593362D01*
X96075970Y-52593362D01*
X95479464Y-52593362D01*
X95479464Y-53218844D01*
X95479464Y-53844326D01*
X94853982Y-53844326D01*
X94228501Y-53844326D01*
X94228501Y-54469808D01*
X94228501Y-55095290D01*
X93004732Y-55095290D01*
X91780963Y-55095290D01*
X91780963Y-53844326D01*
X91780963Y-52593362D01*
X92379250Y-52593362D01*
X92977537Y-52593362D01*
X92977537Y-51995075D01*
X92977537Y-51396788D01*
X93603019Y-51396788D01*
X94228501Y-51396788D01*
X94228501Y-50771307D01*
X94228501Y-50145825D01*
X94853982Y-50145825D01*
X95479464Y-50145825D01*
X95479464Y-47700069D01*
X95479464Y-45254313D01*
X96091349Y-45238934D01*
X96703233Y-45223555D01*
X96718612Y-44611671D01*
X96733990Y-43999786D01*
X97330496Y-43999786D01*
X97927002Y-43999786D01*
X97927002Y-47669311D01*
G37*
G36*
X85634925Y-40328480D02*
G01*
X85634925Y-40953962D01*
X86858693Y-40953962D01*
X88082462Y-40953962D01*
X88082462Y-41552249D01*
X88082462Y-42150536D01*
X88680749Y-42150536D01*
X89279036Y-42150536D01*
X89279036Y-42776018D01*
X89279036Y-43401499D01*
X90530000Y-43401499D01*
X91780963Y-43401499D01*
X91780963Y-42776018D01*
X91780963Y-42150536D01*
X92379250Y-42150536D01*
X92977537Y-42150536D01*
X92977537Y-41552249D01*
X92977537Y-40953962D01*
X94228501Y-40953962D01*
X95479464Y-40953962D01*
X95479464Y-40328480D01*
X95479464Y-39702998D01*
X96703233Y-39702998D01*
X97927002Y-39702998D01*
X97927002Y-40926767D01*
X97927002Y-42150536D01*
X96703233Y-42150536D01*
X95479464Y-42150536D01*
X95479464Y-42748823D01*
X95479464Y-43347110D01*
X94853982Y-43347110D01*
X94228501Y-43347110D01*
X94228501Y-43972591D01*
X94228501Y-44598073D01*
X93004732Y-44598073D01*
X91780963Y-44598073D01*
X91780963Y-45223555D01*
X91780963Y-45849037D01*
X90530000Y-45849037D01*
X89279036Y-45849037D01*
X89279036Y-45223555D01*
X89279036Y-44598073D01*
X88055267Y-44598073D01*
X86831498Y-44598073D01*
X86831498Y-43972591D01*
X86831498Y-43347110D01*
X86233212Y-43347110D01*
X85634925Y-43347110D01*
X85634925Y-42748823D01*
X85634925Y-42150536D01*
X84383961Y-42150536D01*
X83132997Y-42150536D01*
X83132997Y-40926767D01*
X83132997Y-39702998D01*
X84383961Y-39702998D01*
X85634925Y-39702998D01*
X85634925Y-40328480D01*
G37*
%TD*%
M02*
