M48
; DRILL file {KiCad 9.0.1} date 2025-07-05T17:29:09+0300
; FORMAT={-:-/ absolute / inch / decimal}
; #@! TF.CreationDate,2025-07-05T17:29:09+03:00
; #@! TF.GenerationSoftware,Kicad,Pcbnew,9.0.1
; #@! TF.FileFunction,Plated,1,2,PTH
FMAT,2
INCH
; #@! TA.AperFunction,Plated,PTH,ViaDrill
T1C0.0039
; #@! TA.AperFunction,Plated,PTH,ViaDrill
T2C0.0157
; #@! TA.AperFunction,Plated,PTH,ComponentDrill
T3C0.0236
; #@! TA.AperFunction,Plated,PTH,ComponentDrill
T4C0.0256
; #@! TA.AperFunction,Plated,PTH,ComponentDrill
T5C0.0276
; #@! TA.AperFunction,Plated,PTH,ComponentDrill
T6C0.0315
; #@! TA.AperFunction,Plated,PTH,ComponentDrill
T7C0.0394
; #@! TA.AperFunction,Plated,PTH,ComponentDrill
T8C0.0433
%
G90
G05
T1
X3.8197Y-3.1354
T2
X2.1858Y-4.2224
X2.2Y-2.5
X2.3Y-1.5
X2.3Y-1.8
X2.5984Y-3.6614
X2.7Y-2.5
X2.874Y-3.6614
X3.1Y-2.1
X3.3Y-1.4
X3.3Y-2.7
X3.3Y-4.1
X3.7Y-2.7
X3.8Y-4.1
X4.0Y-1.6
X4.0Y-2.0
X4.3Y-3.0
X4.3Y-3.3
X4.3Y-4.0
X4.6Y-1.4
X4.6Y-3.3
X4.7Y-4.0
T3
X2.7898Y-4.4059
X2.8685Y-4.4059
T6
X2.358Y-2.344
X2.6701Y-3.7437
X2.6701Y-4.1437
X2.758Y-2.344
X2.7697Y-4.2417
X2.8681Y-4.2417
T7
X2.368Y-2.078
X2.368Y-2.178
X2.391Y-2.801
X2.391Y-2.901
X2.5756Y-4.3484
X2.5756Y-4.4484
X2.61Y-3.1408
X2.61Y-3.44
X2.825Y-1.455
X2.825Y-1.555
X2.825Y-1.655
X2.825Y-1.755
X3.009Y-2.635
X3.009Y-2.735
X3.009Y-2.835
X3.009Y-2.935
X3.009Y-3.035
X3.009Y-3.135
X3.009Y-3.235
X3.009Y-3.335
X3.009Y-3.435
X3.009Y-3.535
X3.009Y-3.635
X3.009Y-3.735
X3.009Y-3.835
X3.009Y-3.935
X3.009Y-4.035
X3.009Y-4.135
X3.009Y-4.235
X3.009Y-4.335
X3.009Y-4.435
X4.015Y-2.635
X4.015Y-2.735
X4.015Y-2.835
X4.015Y-2.935
X4.015Y-3.035
X4.015Y-3.135
X4.015Y-3.235
X4.015Y-3.335
X4.015Y-3.435
X4.015Y-3.535
X4.015Y-3.635
X4.015Y-3.735
X4.015Y-3.835
X4.015Y-3.935
X4.015Y-4.035
X4.015Y-4.135
X4.015Y-4.235
X4.015Y-4.335
X4.015Y-4.435
X4.304Y-4.365
X4.354Y-2.483
X4.404Y-4.365
X4.454Y-2.483
X4.84Y-2.44
X4.84Y-2.54
X4.84Y-2.64
X4.84Y-2.74
X4.84Y-2.84
X4.84Y-2.94
X4.8406Y-3.1354
X4.8406Y-3.2354
X4.8406Y-3.3354
X4.8406Y-3.4354
X4.8406Y-3.5354
X4.8406Y-3.6354
X4.8406Y-3.7354
X4.8406Y-3.8354
T8
X2.3933Y-2.6177
X2.4811Y-3.7461
X2.4811Y-4.1461
X2.7933Y-2.6177
T4
G00X2.2599Y-3.6935
M15
G01X2.2756Y-3.6935
M16
G05
G00X2.2599Y-3.8841
M15
G01X2.2756Y-3.8841
M16
G05
T5
G00X2.1398Y-3.6813
M15
G01X2.1595Y-3.6813
M16
G05
G00X2.1398Y-3.8963
M15
G01X2.1595Y-3.8963
M16
G05
M30
